%TF.GenerationSoftware,KiCad,Pcbnew,(5.1.10)-1*%
%TF.CreationDate,2021-10-25T17:57:50-04:00*%
%TF.ProjectId,KittyCaddy,4b697474-7943-4616-9464-792e6b696361,rev?*%
%TF.SameCoordinates,Original*%
%TF.FileFunction,Copper,L2,Bot*%
%TF.FilePolarity,Positive*%
%FSLAX46Y46*%
G04 Gerber Fmt 4.6, Leading zero omitted, Abs format (unit mm)*
G04 Created by KiCad (PCBNEW (5.1.10)-1) date 2021-10-25 17:57:50*
%MOMM*%
%LPD*%
G01*
G04 APERTURE LIST*
%TA.AperFunction,ComponentPad*%
%ADD10C,2.500000*%
%TD*%
%TA.AperFunction,ComponentPad*%
%ADD11C,1.600000*%
%TD*%
%TA.AperFunction,ComponentPad*%
%ADD12R,1.600000X1.600000*%
%TD*%
%TA.AperFunction,ComponentPad*%
%ADD13C,1.500000*%
%TD*%
%TA.AperFunction,ComponentPad*%
%ADD14C,3.500000*%
%TD*%
%TA.AperFunction,ComponentPad*%
%ADD15R,3.500000X3.500000*%
%TD*%
%TA.AperFunction,ComponentPad*%
%ADD16O,1.600000X1.600000*%
%TD*%
%TA.AperFunction,ComponentPad*%
%ADD17C,1.524000*%
%TD*%
%TA.AperFunction,ComponentPad*%
%ADD18R,1.524000X1.524000*%
%TD*%
%TA.AperFunction,ComponentPad*%
%ADD19O,1.740000X2.190000*%
%TD*%
%TA.AperFunction,ComponentPad*%
%ADD20O,2.190000X1.740000*%
%TD*%
%TA.AperFunction,ComponentPad*%
%ADD21C,2.400000*%
%TD*%
%TA.AperFunction,ComponentPad*%
%ADD22C,1.416000*%
%TD*%
%TA.AperFunction,Conductor*%
%ADD23C,0.250000*%
%TD*%
%TA.AperFunction,Conductor*%
%ADD24C,0.254000*%
%TD*%
%TA.AperFunction,Conductor*%
%ADD25C,0.100000*%
%TD*%
G04 APERTURE END LIST*
D10*
%TO.P,U4,~*%
%TO.N,N/C*%
X100518000Y-90837000D03*
X124018000Y-90837000D03*
X124018000Y-114637000D03*
X100518000Y-114638000D03*
D11*
%TO.P,U4,4*%
%TO.N,SDA*%
X108458000Y-115443000D03*
D12*
%TO.P,U4,1*%
%TO.N,GND*%
X116078000Y-115443000D03*
D11*
%TO.P,U4,2*%
%TO.N,+5V*%
X113538000Y-115443000D03*
%TO.P,U4,3*%
%TO.N,SCL*%
X110998000Y-115443000D03*
%TD*%
D13*
%TO.P,R1,2*%
%TO.N,Emit*%
X122212100Y-120930200D03*
%TO.P,R1,1*%
%TO.N,+5V*%
X122212100Y-127330200D03*
%TD*%
D14*
%TO.P,REF\u002A\u002A,1*%
%TO.N,N/C*%
X179578000Y-123698000D03*
%TD*%
%TO.P,REF\u002A\u002A,1*%
%TO.N,N/C*%
X179578000Y-87503000D03*
%TD*%
%TO.P,REF\u002A\u002A,1*%
%TO.N,N/C*%
X90500200Y-87503000D03*
%TD*%
%TO.P,REF\u002A\u002A,1*%
%TO.N,N/C*%
X90678000Y-123698000D03*
%TD*%
%TO.P,J1,3*%
%TO.N,GND*%
%TA.AperFunction,ComponentPad*%
G36*
G01*
X166863000Y-119304000D02*
X165113000Y-119304000D01*
G75*
G02*
X164238000Y-118429000I0J875000D01*
G01*
X164238000Y-116679000D01*
G75*
G02*
X165113000Y-115804000I875000J0D01*
G01*
X166863000Y-115804000D01*
G75*
G02*
X167738000Y-116679000I0J-875000D01*
G01*
X167738000Y-118429000D01*
G75*
G02*
X166863000Y-119304000I-875000J0D01*
G01*
G37*
%TD.AperFunction*%
%TO.P,J1,2*%
%TA.AperFunction,ComponentPad*%
G36*
G01*
X171688000Y-122054000D02*
X169688000Y-122054000D01*
G75*
G02*
X168938000Y-121304000I0J750000D01*
G01*
X168938000Y-119804000D01*
G75*
G02*
X169688000Y-119054000I750000J0D01*
G01*
X171688000Y-119054000D01*
G75*
G02*
X172438000Y-119804000I0J-750000D01*
G01*
X172438000Y-121304000D01*
G75*
G02*
X171688000Y-122054000I-750000J0D01*
G01*
G37*
%TD.AperFunction*%
D15*
%TO.P,J1,1*%
%TO.N,+12V*%
X170688000Y-114554000D03*
%TD*%
D13*
%TO.P,R2,2*%
%TO.N,+5V*%
X97263100Y-125158500D03*
%TO.P,R2,1*%
%TO.N,Net-(J3-Pad1)*%
X104813100Y-125158500D03*
%TD*%
D16*
%TO.P,U2,16*%
%TO.N,DIR*%
X148183600Y-96951800D03*
%TO.P,U2,8*%
%TO.N,+12V*%
X160883600Y-114731800D03*
%TO.P,U2,15*%
%TO.N,STEP*%
X148183600Y-99491800D03*
%TO.P,U2,7*%
%TO.N,Net-(C2-Pad2)*%
X160883600Y-112191800D03*
%TO.P,U2,14*%
%TO.N,+5V*%
X148183600Y-102031800D03*
%TO.P,U2,6*%
%TO.N,Net-(J2-Pad1)*%
X160883600Y-109651800D03*
%TO.P,U2,13*%
%TO.N,+5V*%
X148183600Y-104571800D03*
%TO.P,U2,5*%
%TO.N,Net-(J2-Pad2)*%
X160883600Y-107111800D03*
%TO.P,U2,12*%
%TO.N,M2*%
X148183600Y-107111800D03*
%TO.P,U2,4*%
%TO.N,Net-(J2-Pad3)*%
X160883600Y-104571800D03*
%TO.P,U2,11*%
%TO.N,M1*%
X148183600Y-109651800D03*
%TO.P,U2,3*%
%TO.N,Net-(J2-Pad4)*%
X160883600Y-102031800D03*
%TO.P,U2,10*%
%TO.N,M0*%
X148183600Y-112191800D03*
%TO.P,U2,2*%
%TO.N,Net-(U2-Pad2)*%
X160883600Y-99491800D03*
%TO.P,U2,9*%
%TO.N,ENABLE*%
X148183600Y-114731800D03*
D12*
%TO.P,U2,1*%
%TO.N,GND*%
X160883600Y-96951800D03*
%TD*%
D17*
%TO.P,U5,8*%
%TO.N,+5V*%
X121158000Y-109728000D03*
%TO.P,U5,6*%
%TO.N,SCL*%
X116078000Y-109728000D03*
%TO.P,U5,7*%
%TO.N,GND*%
X118618000Y-109728000D03*
%TO.P,U5,5*%
%TO.N,SDA*%
X113538000Y-109728000D03*
%TO.P,U5,4*%
%TO.N,+BATT*%
X110998000Y-109728000D03*
%TO.P,U5,3*%
%TO.N,Net-(U5-Pad3)*%
X108458000Y-109728000D03*
%TO.P,U5,2*%
%TO.N,Net-(U5-Pad2)*%
X105918000Y-109728000D03*
%TO.P,U5,1*%
%TO.N,Net-(U5-Pad1)*%
X103378000Y-109728000D03*
%TD*%
%TO.P,U1,4*%
%TO.N,Net-(U1-Pad4)*%
X159517400Y-91306600D03*
%TO.P,U1,3*%
%TO.N,+12V*%
X156977400Y-91306600D03*
D18*
%TO.P,U1,2*%
%TO.N,GND*%
X154437400Y-91306600D03*
D17*
%TO.P,U1,1*%
%TO.N,+5V*%
X151897400Y-91306600D03*
%TD*%
D19*
%TO.P,J3,5*%
%TO.N,Emit*%
X118338600Y-125171200D03*
%TO.P,J3,4*%
%TO.N,GND*%
X115798600Y-125171200D03*
%TO.P,J3,3*%
%TO.N,Net-(J3-Pad3)*%
X113258600Y-125171200D03*
%TO.P,J3,2*%
%TO.N,GND*%
X110718600Y-125171200D03*
%TO.P,J3,1*%
%TO.N,Net-(J3-Pad1)*%
%TA.AperFunction,ComponentPad*%
G36*
G01*
X107308600Y-126016201D02*
X107308600Y-124326199D01*
G75*
G02*
X107558599Y-124076200I249999J0D01*
G01*
X108798601Y-124076200D01*
G75*
G02*
X109048600Y-124326199I0J-249999D01*
G01*
X109048600Y-126016201D01*
G75*
G02*
X108798601Y-126266200I-249999J0D01*
G01*
X107558599Y-126266200D01*
G75*
G02*
X107308600Y-126016201I0J249999D01*
G01*
G37*
%TD.AperFunction*%
%TD*%
D20*
%TO.P,J2,4*%
%TO.N,Net-(J2-Pad4)*%
X167284400Y-102057200D03*
%TO.P,J2,3*%
%TO.N,Net-(J2-Pad3)*%
X167284400Y-104597200D03*
%TO.P,J2,2*%
%TO.N,Net-(J2-Pad2)*%
X167284400Y-107137200D03*
%TO.P,J2,1*%
%TO.N,Net-(J2-Pad1)*%
%TA.AperFunction,ComponentPad*%
G36*
G01*
X168129401Y-110547200D02*
X166439399Y-110547200D01*
G75*
G02*
X166189400Y-110297201I0J249999D01*
G01*
X166189400Y-109057199D01*
G75*
G02*
X166439399Y-108807200I249999J0D01*
G01*
X168129401Y-108807200D01*
G75*
G02*
X168379400Y-109057199I0J-249999D01*
G01*
X168379400Y-110297201D01*
G75*
G02*
X168129401Y-110547200I-249999J0D01*
G01*
G37*
%TD.AperFunction*%
%TD*%
D11*
%TO.P,C2,2*%
%TO.N,Net-(C2-Pad2)*%
X165283000Y-89916000D03*
D12*
%TO.P,C2,1*%
%TO.N,+12V*%
X168783000Y-89916000D03*
%TD*%
D11*
%TO.P,C1,2*%
%TO.N,GND*%
X157459800Y-123164600D03*
D12*
%TO.P,C1,1*%
%TO.N,+12V*%
X160959800Y-123164600D03*
%TD*%
D16*
%TO.P,U3,16*%
%TO.N,SLEEP*%
X127990600Y-123215400D03*
%TO.P,U3,15*%
%TO.N,RESET*%
X143230600Y-123215400D03*
%TO.P,U3,30*%
%TO.N,Net-(U3-Pad30)*%
X127990600Y-87655400D03*
%TO.P,U3,14*%
%TO.N,ENABLE*%
X143230600Y-120675400D03*
%TO.P,U3,29*%
%TO.N,Net-(U3-Pad29)*%
X127990600Y-90195400D03*
%TO.P,U3,13*%
%TO.N,Net-(U3-Pad13)*%
X143230600Y-118135400D03*
%TO.P,U3,28*%
%TO.N,Net-(U3-Pad28)*%
X127990600Y-92735400D03*
%TO.P,U3,12*%
%TO.N,M0*%
X143230600Y-115595400D03*
%TO.P,U3,27*%
%TO.N,+5V*%
X127990600Y-95275400D03*
%TO.P,U3,11*%
%TO.N,M1*%
X143230600Y-113055400D03*
%TO.P,U3,26*%
%TO.N,Net-(U3-Pad26)*%
X127990600Y-97815400D03*
%TO.P,U3,10*%
%TO.N,M2*%
X143230600Y-110515400D03*
%TO.P,U3,25*%
%TO.N,Net-(U3-Pad25)*%
X127990600Y-100355400D03*
%TO.P,U3,9*%
%TO.N,STEP*%
X143230600Y-107975400D03*
%TO.P,U3,24*%
%TO.N,SCL*%
X127990600Y-102895400D03*
%TO.P,U3,8*%
%TO.N,DIR*%
X143230600Y-105435400D03*
%TO.P,U3,23*%
%TO.N,SDA*%
X127990600Y-105435400D03*
%TO.P,U3,7*%
%TO.N,Down*%
X143230600Y-102895400D03*
%TO.P,U3,22*%
%TO.N,Net-(U3-Pad22)*%
X127990600Y-107975400D03*
%TO.P,U3,6*%
%TO.N,Mid*%
X143230600Y-100355400D03*
%TO.P,U3,21*%
%TO.N,Net-(U3-Pad21)*%
X127990600Y-110515400D03*
%TO.P,U3,5*%
%TO.N,Up*%
X143230600Y-97815400D03*
%TO.P,U3,20*%
%TO.N,Net-(U3-Pad20)*%
X127990600Y-113055400D03*
%TO.P,U3,4*%
%TO.N,GND*%
X143230600Y-95275400D03*
%TO.P,U3,19*%
%TO.N,Emit*%
X127990600Y-115595400D03*
%TO.P,U3,3*%
%TO.N,Net-(U3-Pad3)*%
X143230600Y-92735400D03*
%TO.P,U3,18*%
%TO.N,Net-(U3-Pad18)*%
X127990600Y-118135400D03*
%TO.P,U3,2*%
%TO.N,Net-(U3-Pad2)*%
X143230600Y-90195400D03*
%TO.P,U3,17*%
%TO.N,Net-(U3-Pad17)*%
X127990600Y-120675400D03*
D12*
%TO.P,U3,1*%
%TO.N,Net-(U3-Pad1)*%
X143230600Y-87655400D03*
%TD*%
D21*
%TO.P,SW1,1*%
%TO.N,GND*%
X89358400Y-97652400D03*
X95858400Y-97652400D03*
%TO.P,SW1,2*%
%TO.N,Up*%
X89358400Y-93152400D03*
X95858400Y-93152400D03*
%TD*%
%TO.P,SW2,1*%
%TO.N,GND*%
X89358400Y-107812400D03*
X95858400Y-107812400D03*
%TO.P,SW2,2*%
%TO.N,Mid*%
X89358400Y-103312400D03*
X95858400Y-103312400D03*
%TD*%
%TO.P,SW3,1*%
%TO.N,GND*%
X89358400Y-117972400D03*
X95858400Y-117972400D03*
%TO.P,SW3,2*%
%TO.N,Down*%
X89358400Y-113472400D03*
X95858400Y-113472400D03*
%TD*%
D22*
%TO.P,C3,2*%
%TO.N,GND*%
X148107400Y-91287600D03*
%TO.P,C3,1*%
%TO.N,+5V*%
X148107400Y-88747600D03*
%TD*%
D21*
%TO.P,J4,1*%
%TO.N,GND*%
X179705000Y-94297500D03*
%TD*%
D23*
%TO.N,M2*%
X144780000Y-110515400D02*
X148183600Y-107111800D01*
X143230600Y-110515400D02*
X144780000Y-110515400D01*
%TO.N,M1*%
X144780000Y-113055400D02*
X148183600Y-109651800D01*
X143230600Y-113055400D02*
X144780000Y-113055400D01*
%TO.N,M0*%
X144780000Y-115595400D02*
X148183600Y-112191800D01*
X143230600Y-115595400D02*
X144780000Y-115595400D01*
%TO.N,STEP*%
X143230600Y-107975400D02*
X145618200Y-105587800D01*
X145618200Y-102057200D02*
X148183600Y-99491800D01*
X145618200Y-105587800D02*
X145618200Y-102057200D01*
%TO.N,SDA*%
X113538000Y-109728000D02*
X116840000Y-106426000D01*
X127000000Y-106426000D02*
X127990600Y-105435400D01*
X116840000Y-106426000D02*
X127000000Y-106426000D01*
%TO.N,Down*%
X89358400Y-113472400D02*
X95858400Y-113472400D01*
X141815601Y-104310399D02*
X143230600Y-102895400D01*
X105020401Y-104310399D02*
X141815601Y-104310399D01*
X95858400Y-113472400D02*
X105020401Y-104310399D01*
%TO.N,Mid*%
X95858400Y-103312400D02*
X89358400Y-103312400D01*
X97690399Y-101480401D02*
X95858400Y-103312400D01*
X142105599Y-101480401D02*
X97690399Y-101480401D01*
X143230600Y-100355400D02*
X142105599Y-101480401D01*
%TO.N,Up*%
X99396399Y-96690399D02*
X95858400Y-93152400D01*
X142105599Y-96690399D02*
X99396399Y-96690399D01*
X143230600Y-97815400D02*
X142105599Y-96690399D01*
X89358400Y-93152400D02*
X95858400Y-93152400D01*
%TO.N,+12V*%
X164077400Y-123164600D02*
X160959800Y-123164600D01*
X170688000Y-116554000D02*
X164077400Y-123164600D01*
X170688000Y-114554000D02*
X170688000Y-116554000D01*
%TO.N,Net-(C2-Pad2)*%
X165283000Y-89916000D02*
X156647000Y-98552000D01*
X158928600Y-112191800D02*
X160883600Y-112191800D01*
X156647000Y-109910200D02*
X158928600Y-112191800D01*
X156647000Y-98552000D02*
X156647000Y-109910200D01*
%TO.N,ENABLE*%
X148183600Y-115722400D02*
X148183600Y-114731800D01*
X143230600Y-120675400D02*
X148183600Y-115722400D01*
%TD*%
D24*
%TO.N,GND*%
X183998001Y-128118000D02*
X123351434Y-128118000D01*
X123439471Y-127986243D01*
X123543875Y-127734189D01*
X123597100Y-127466611D01*
X123597100Y-127193789D01*
X123543875Y-126926211D01*
X123439471Y-126674157D01*
X123287899Y-126447314D01*
X123094986Y-126254401D01*
X122868143Y-126102829D01*
X122616089Y-125998425D01*
X122348511Y-125945200D01*
X122075689Y-125945200D01*
X121808111Y-125998425D01*
X121556057Y-126102829D01*
X121329214Y-126254401D01*
X121136301Y-126447314D01*
X120984729Y-126674157D01*
X120880325Y-126926211D01*
X120827100Y-127193789D01*
X120827100Y-127466611D01*
X120880325Y-127734189D01*
X120984729Y-127986243D01*
X121072766Y-128118000D01*
X86258000Y-128118000D01*
X86258000Y-123463098D01*
X88293000Y-123463098D01*
X88293000Y-123932902D01*
X88384654Y-124393679D01*
X88564440Y-124827721D01*
X88825450Y-125218349D01*
X89157651Y-125550550D01*
X89548279Y-125811560D01*
X89982321Y-125991346D01*
X90443098Y-126083000D01*
X90912902Y-126083000D01*
X91373679Y-125991346D01*
X91807721Y-125811560D01*
X92198349Y-125550550D01*
X92530550Y-125218349D01*
X92661687Y-125022089D01*
X95878100Y-125022089D01*
X95878100Y-125294911D01*
X95931325Y-125562489D01*
X96035729Y-125814543D01*
X96187301Y-126041386D01*
X96380214Y-126234299D01*
X96607057Y-126385871D01*
X96859111Y-126490275D01*
X97126689Y-126543500D01*
X97399511Y-126543500D01*
X97667089Y-126490275D01*
X97919143Y-126385871D01*
X98145986Y-126234299D01*
X98338899Y-126041386D01*
X98490471Y-125814543D01*
X98594875Y-125562489D01*
X98648100Y-125294911D01*
X98648100Y-125022089D01*
X103428100Y-125022089D01*
X103428100Y-125294911D01*
X103481325Y-125562489D01*
X103585729Y-125814543D01*
X103737301Y-126041386D01*
X103930214Y-126234299D01*
X104157057Y-126385871D01*
X104409111Y-126490275D01*
X104676689Y-126543500D01*
X104949511Y-126543500D01*
X105217089Y-126490275D01*
X105469143Y-126385871D01*
X105695986Y-126234299D01*
X105888899Y-126041386D01*
X106040471Y-125814543D01*
X106144875Y-125562489D01*
X106198100Y-125294911D01*
X106198100Y-125022089D01*
X106144875Y-124754511D01*
X106040471Y-124502457D01*
X105922699Y-124326199D01*
X106670528Y-124326199D01*
X106670528Y-126016201D01*
X106687592Y-126189455D01*
X106738128Y-126356051D01*
X106820195Y-126509587D01*
X106930638Y-126644162D01*
X107065213Y-126754605D01*
X107218749Y-126836672D01*
X107385345Y-126887208D01*
X107558599Y-126904272D01*
X108798601Y-126904272D01*
X108971855Y-126887208D01*
X109138451Y-126836672D01*
X109291987Y-126754605D01*
X109426562Y-126644162D01*
X109537005Y-126509587D01*
X109595255Y-126400610D01*
X109752274Y-126559506D01*
X109997791Y-126725674D01*
X110271009Y-126840751D01*
X110358569Y-126857502D01*
X110591600Y-126736446D01*
X110591600Y-125298200D01*
X110571600Y-125298200D01*
X110571600Y-125044200D01*
X110591600Y-125044200D01*
X110591600Y-123605954D01*
X110845600Y-123605954D01*
X110845600Y-125044200D01*
X110865600Y-125044200D01*
X110865600Y-125298200D01*
X110845600Y-125298200D01*
X110845600Y-126736446D01*
X111078631Y-126857502D01*
X111166191Y-126840751D01*
X111439409Y-126725674D01*
X111684926Y-126559506D01*
X111893308Y-126348633D01*
X111986040Y-126208048D01*
X112001183Y-126236379D01*
X112189255Y-126465545D01*
X112418422Y-126653617D01*
X112679876Y-126793366D01*
X112963569Y-126879424D01*
X113258600Y-126908482D01*
X113553632Y-126879424D01*
X113837325Y-126793366D01*
X114098779Y-126653617D01*
X114327945Y-126465545D01*
X114516017Y-126236379D01*
X114531160Y-126208048D01*
X114623892Y-126348633D01*
X114832274Y-126559506D01*
X115077791Y-126725674D01*
X115351009Y-126840751D01*
X115438569Y-126857502D01*
X115671600Y-126736446D01*
X115671600Y-125298200D01*
X115651600Y-125298200D01*
X115651600Y-125044200D01*
X115671600Y-125044200D01*
X115671600Y-123605954D01*
X115925600Y-123605954D01*
X115925600Y-125044200D01*
X115945600Y-125044200D01*
X115945600Y-125298200D01*
X115925600Y-125298200D01*
X115925600Y-126736446D01*
X116158631Y-126857502D01*
X116246191Y-126840751D01*
X116519409Y-126725674D01*
X116764926Y-126559506D01*
X116973308Y-126348633D01*
X117066040Y-126208048D01*
X117081183Y-126236379D01*
X117269255Y-126465545D01*
X117498422Y-126653617D01*
X117759876Y-126793366D01*
X118043569Y-126879424D01*
X118338600Y-126908482D01*
X118633632Y-126879424D01*
X118917325Y-126793366D01*
X119178779Y-126653617D01*
X119407945Y-126465545D01*
X119596017Y-126236379D01*
X119735766Y-125974924D01*
X119821824Y-125691231D01*
X119843600Y-125470135D01*
X119843600Y-124872264D01*
X119821824Y-124651168D01*
X119735766Y-124367475D01*
X119596017Y-124106021D01*
X119407945Y-123876855D01*
X119178778Y-123688783D01*
X118917324Y-123549034D01*
X118633631Y-123462976D01*
X118338600Y-123433918D01*
X118043568Y-123462976D01*
X117759875Y-123549034D01*
X117498421Y-123688783D01*
X117269255Y-123876855D01*
X117081183Y-124106022D01*
X117066040Y-124134352D01*
X116973308Y-123993767D01*
X116764926Y-123782894D01*
X116519409Y-123616726D01*
X116246191Y-123501649D01*
X116158631Y-123484898D01*
X115925600Y-123605954D01*
X115671600Y-123605954D01*
X115438569Y-123484898D01*
X115351009Y-123501649D01*
X115077791Y-123616726D01*
X114832274Y-123782894D01*
X114623892Y-123993767D01*
X114531160Y-124134352D01*
X114516017Y-124106021D01*
X114327945Y-123876855D01*
X114098778Y-123688783D01*
X113837324Y-123549034D01*
X113553631Y-123462976D01*
X113258600Y-123433918D01*
X112963568Y-123462976D01*
X112679875Y-123549034D01*
X112418421Y-123688783D01*
X112189255Y-123876855D01*
X112001183Y-124106022D01*
X111986040Y-124134352D01*
X111893308Y-123993767D01*
X111684926Y-123782894D01*
X111439409Y-123616726D01*
X111166191Y-123501649D01*
X111078631Y-123484898D01*
X110845600Y-123605954D01*
X110591600Y-123605954D01*
X110358569Y-123484898D01*
X110271009Y-123501649D01*
X109997791Y-123616726D01*
X109752274Y-123782894D01*
X109595255Y-123941790D01*
X109537005Y-123832813D01*
X109426562Y-123698238D01*
X109291987Y-123587795D01*
X109138451Y-123505728D01*
X108971855Y-123455192D01*
X108798601Y-123438128D01*
X107558599Y-123438128D01*
X107385345Y-123455192D01*
X107218749Y-123505728D01*
X107065213Y-123587795D01*
X106930638Y-123698238D01*
X106820195Y-123832813D01*
X106738128Y-123986349D01*
X106687592Y-124152945D01*
X106670528Y-124326199D01*
X105922699Y-124326199D01*
X105888899Y-124275614D01*
X105695986Y-124082701D01*
X105469143Y-123931129D01*
X105217089Y-123826725D01*
X104949511Y-123773500D01*
X104676689Y-123773500D01*
X104409111Y-123826725D01*
X104157057Y-123931129D01*
X103930214Y-124082701D01*
X103737301Y-124275614D01*
X103585729Y-124502457D01*
X103481325Y-124754511D01*
X103428100Y-125022089D01*
X98648100Y-125022089D01*
X98594875Y-124754511D01*
X98490471Y-124502457D01*
X98338899Y-124275614D01*
X98145986Y-124082701D01*
X97919143Y-123931129D01*
X97667089Y-123826725D01*
X97399511Y-123773500D01*
X97126689Y-123773500D01*
X96859111Y-123826725D01*
X96607057Y-123931129D01*
X96380214Y-124082701D01*
X96187301Y-124275614D01*
X96035729Y-124502457D01*
X95931325Y-124754511D01*
X95878100Y-125022089D01*
X92661687Y-125022089D01*
X92791560Y-124827721D01*
X92971346Y-124393679D01*
X93063000Y-123932902D01*
X93063000Y-123463098D01*
X92971346Y-123002321D01*
X92791560Y-122568279D01*
X92530550Y-122177651D01*
X92198349Y-121845450D01*
X91807721Y-121584440D01*
X91373679Y-121404654D01*
X90912902Y-121313000D01*
X90443098Y-121313000D01*
X89982321Y-121404654D01*
X89548279Y-121584440D01*
X89157651Y-121845450D01*
X88825450Y-122177651D01*
X88564440Y-122568279D01*
X88384654Y-123002321D01*
X88293000Y-123463098D01*
X86258000Y-123463098D01*
X86258000Y-120793789D01*
X120827100Y-120793789D01*
X120827100Y-121066611D01*
X120880325Y-121334189D01*
X120984729Y-121586243D01*
X121136301Y-121813086D01*
X121329214Y-122005999D01*
X121556057Y-122157571D01*
X121808111Y-122261975D01*
X122075689Y-122315200D01*
X122348511Y-122315200D01*
X122616089Y-122261975D01*
X122868143Y-122157571D01*
X123094986Y-122005999D01*
X123287899Y-121813086D01*
X123439471Y-121586243D01*
X123543875Y-121334189D01*
X123597100Y-121066611D01*
X123597100Y-120793789D01*
X123543875Y-120526211D01*
X123439471Y-120274157D01*
X123287899Y-120047314D01*
X123094986Y-119854401D01*
X122868143Y-119702829D01*
X122616089Y-119598425D01*
X122348511Y-119545200D01*
X122075689Y-119545200D01*
X121808111Y-119598425D01*
X121556057Y-119702829D01*
X121329214Y-119854401D01*
X121136301Y-120047314D01*
X120984729Y-120274157D01*
X120880325Y-120526211D01*
X120827100Y-120793789D01*
X86258000Y-120793789D01*
X86258000Y-119250380D01*
X88260026Y-119250380D01*
X88379914Y-119535236D01*
X88703610Y-119696099D01*
X89052469Y-119790722D01*
X89413084Y-119815467D01*
X89771598Y-119769385D01*
X90114233Y-119654246D01*
X90336886Y-119535236D01*
X90456774Y-119250380D01*
X94760026Y-119250380D01*
X94879914Y-119535236D01*
X95203610Y-119696099D01*
X95552469Y-119790722D01*
X95913084Y-119815467D01*
X96271598Y-119769385D01*
X96614233Y-119654246D01*
X96836886Y-119535236D01*
X96956774Y-119250380D01*
X95858400Y-118152005D01*
X94760026Y-119250380D01*
X90456774Y-119250380D01*
X89358400Y-118152005D01*
X88260026Y-119250380D01*
X86258000Y-119250380D01*
X86258000Y-118027084D01*
X87515333Y-118027084D01*
X87561415Y-118385598D01*
X87676554Y-118728233D01*
X87795564Y-118950886D01*
X88080420Y-119070774D01*
X89178795Y-117972400D01*
X89538005Y-117972400D01*
X90636380Y-119070774D01*
X90921236Y-118950886D01*
X91082099Y-118627190D01*
X91176722Y-118278331D01*
X91193962Y-118027084D01*
X94015333Y-118027084D01*
X94061415Y-118385598D01*
X94176554Y-118728233D01*
X94295564Y-118950886D01*
X94580420Y-119070774D01*
X95678795Y-117972400D01*
X96038005Y-117972400D01*
X97136380Y-119070774D01*
X97421236Y-118950886D01*
X97582099Y-118627190D01*
X97676722Y-118278331D01*
X97701467Y-117917716D01*
X97655385Y-117559202D01*
X97540246Y-117216567D01*
X97421236Y-116993914D01*
X97136380Y-116874026D01*
X96038005Y-117972400D01*
X95678795Y-117972400D01*
X94580420Y-116874026D01*
X94295564Y-116993914D01*
X94134701Y-117317610D01*
X94040078Y-117666469D01*
X94015333Y-118027084D01*
X91193962Y-118027084D01*
X91201467Y-117917716D01*
X91155385Y-117559202D01*
X91040246Y-117216567D01*
X90921236Y-116993914D01*
X90636380Y-116874026D01*
X89538005Y-117972400D01*
X89178795Y-117972400D01*
X88080420Y-116874026D01*
X87795564Y-116993914D01*
X87634701Y-117317610D01*
X87540078Y-117666469D01*
X87515333Y-118027084D01*
X86258000Y-118027084D01*
X86258000Y-116694420D01*
X88260026Y-116694420D01*
X89358400Y-117792795D01*
X90456774Y-116694420D01*
X94760026Y-116694420D01*
X95858400Y-117792795D01*
X96956774Y-116694420D01*
X96836886Y-116409564D01*
X96513190Y-116248701D01*
X96164331Y-116154078D01*
X95803716Y-116129333D01*
X95445202Y-116175415D01*
X95102567Y-116290554D01*
X94879914Y-116409564D01*
X94760026Y-116694420D01*
X90456774Y-116694420D01*
X90336886Y-116409564D01*
X90013190Y-116248701D01*
X89664331Y-116154078D01*
X89303716Y-116129333D01*
X88945202Y-116175415D01*
X88602567Y-116290554D01*
X88379914Y-116409564D01*
X88260026Y-116694420D01*
X86258000Y-116694420D01*
X86258000Y-109090380D01*
X88260026Y-109090380D01*
X88379914Y-109375236D01*
X88703610Y-109536099D01*
X89052469Y-109630722D01*
X89413084Y-109655467D01*
X89771598Y-109609385D01*
X90114233Y-109494246D01*
X90336886Y-109375236D01*
X90456774Y-109090380D01*
X94760026Y-109090380D01*
X94879914Y-109375236D01*
X95203610Y-109536099D01*
X95552469Y-109630722D01*
X95913084Y-109655467D01*
X96271598Y-109609385D01*
X96614233Y-109494246D01*
X96836886Y-109375236D01*
X96956774Y-109090380D01*
X95858400Y-107992005D01*
X94760026Y-109090380D01*
X90456774Y-109090380D01*
X89358400Y-107992005D01*
X88260026Y-109090380D01*
X86258000Y-109090380D01*
X86258000Y-107867084D01*
X87515333Y-107867084D01*
X87561415Y-108225598D01*
X87676554Y-108568233D01*
X87795564Y-108790886D01*
X88080420Y-108910774D01*
X89178795Y-107812400D01*
X89538005Y-107812400D01*
X90636380Y-108910774D01*
X90921236Y-108790886D01*
X91082099Y-108467190D01*
X91176722Y-108118331D01*
X91193962Y-107867084D01*
X94015333Y-107867084D01*
X94061415Y-108225598D01*
X94176554Y-108568233D01*
X94295564Y-108790886D01*
X94580420Y-108910774D01*
X95678795Y-107812400D01*
X96038005Y-107812400D01*
X97136380Y-108910774D01*
X97421236Y-108790886D01*
X97582099Y-108467190D01*
X97676722Y-108118331D01*
X97701467Y-107757716D01*
X97655385Y-107399202D01*
X97540246Y-107056567D01*
X97421236Y-106833914D01*
X97136380Y-106714026D01*
X96038005Y-107812400D01*
X95678795Y-107812400D01*
X94580420Y-106714026D01*
X94295564Y-106833914D01*
X94134701Y-107157610D01*
X94040078Y-107506469D01*
X94015333Y-107867084D01*
X91193962Y-107867084D01*
X91201467Y-107757716D01*
X91155385Y-107399202D01*
X91040246Y-107056567D01*
X90921236Y-106833914D01*
X90636380Y-106714026D01*
X89538005Y-107812400D01*
X89178795Y-107812400D01*
X88080420Y-106714026D01*
X87795564Y-106833914D01*
X87634701Y-107157610D01*
X87540078Y-107506469D01*
X87515333Y-107867084D01*
X86258000Y-107867084D01*
X86258000Y-106534420D01*
X88260026Y-106534420D01*
X89358400Y-107632795D01*
X90456774Y-106534420D01*
X94760026Y-106534420D01*
X95858400Y-107632795D01*
X96956774Y-106534420D01*
X96836886Y-106249564D01*
X96513190Y-106088701D01*
X96164331Y-105994078D01*
X95803716Y-105969333D01*
X95445202Y-106015415D01*
X95102567Y-106130554D01*
X94879914Y-106249564D01*
X94760026Y-106534420D01*
X90456774Y-106534420D01*
X90336886Y-106249564D01*
X90013190Y-106088701D01*
X89664331Y-105994078D01*
X89303716Y-105969333D01*
X88945202Y-106015415D01*
X88602567Y-106130554D01*
X88379914Y-106249564D01*
X88260026Y-106534420D01*
X86258000Y-106534420D01*
X86258000Y-98930380D01*
X88260026Y-98930380D01*
X88379914Y-99215236D01*
X88703610Y-99376099D01*
X89052469Y-99470722D01*
X89413084Y-99495467D01*
X89771598Y-99449385D01*
X90114233Y-99334246D01*
X90336886Y-99215236D01*
X90456774Y-98930380D01*
X94760026Y-98930380D01*
X94879914Y-99215236D01*
X95203610Y-99376099D01*
X95552469Y-99470722D01*
X95913084Y-99495467D01*
X96271598Y-99449385D01*
X96614233Y-99334246D01*
X96836886Y-99215236D01*
X96956774Y-98930380D01*
X95858400Y-97832005D01*
X94760026Y-98930380D01*
X90456774Y-98930380D01*
X89358400Y-97832005D01*
X88260026Y-98930380D01*
X86258000Y-98930380D01*
X86258000Y-97707084D01*
X87515333Y-97707084D01*
X87561415Y-98065598D01*
X87676554Y-98408233D01*
X87795564Y-98630886D01*
X88080420Y-98750774D01*
X89178795Y-97652400D01*
X89538005Y-97652400D01*
X90636380Y-98750774D01*
X90921236Y-98630886D01*
X91082099Y-98307190D01*
X91176722Y-97958331D01*
X91193962Y-97707084D01*
X94015333Y-97707084D01*
X94061415Y-98065598D01*
X94176554Y-98408233D01*
X94295564Y-98630886D01*
X94580420Y-98750774D01*
X95678795Y-97652400D01*
X96038005Y-97652400D01*
X97136380Y-98750774D01*
X97421236Y-98630886D01*
X97582099Y-98307190D01*
X97676722Y-97958331D01*
X97701467Y-97597716D01*
X97655385Y-97239202D01*
X97540246Y-96896567D01*
X97421236Y-96673914D01*
X97136380Y-96554026D01*
X96038005Y-97652400D01*
X95678795Y-97652400D01*
X94580420Y-96554026D01*
X94295564Y-96673914D01*
X94134701Y-96997610D01*
X94040078Y-97346469D01*
X94015333Y-97707084D01*
X91193962Y-97707084D01*
X91201467Y-97597716D01*
X91155385Y-97239202D01*
X91040246Y-96896567D01*
X90921236Y-96673914D01*
X90636380Y-96554026D01*
X89538005Y-97652400D01*
X89178795Y-97652400D01*
X88080420Y-96554026D01*
X87795564Y-96673914D01*
X87634701Y-96997610D01*
X87540078Y-97346469D01*
X87515333Y-97707084D01*
X86258000Y-97707084D01*
X86258000Y-96374420D01*
X88260026Y-96374420D01*
X89358400Y-97472795D01*
X90456774Y-96374420D01*
X94760026Y-96374420D01*
X95858400Y-97472795D01*
X96956774Y-96374420D01*
X96836886Y-96089564D01*
X96513190Y-95928701D01*
X96164331Y-95834078D01*
X95803716Y-95809333D01*
X95445202Y-95855415D01*
X95102567Y-95970554D01*
X94879914Y-96089564D01*
X94760026Y-96374420D01*
X90456774Y-96374420D01*
X90336886Y-96089564D01*
X90013190Y-95928701D01*
X89664331Y-95834078D01*
X89303716Y-95809333D01*
X88945202Y-95855415D01*
X88602567Y-95970554D01*
X88379914Y-96089564D01*
X88260026Y-96374420D01*
X86258000Y-96374420D01*
X86258000Y-92971668D01*
X87523400Y-92971668D01*
X87523400Y-93333132D01*
X87593918Y-93687650D01*
X87732244Y-94021599D01*
X87933062Y-94322144D01*
X88188656Y-94577738D01*
X88489201Y-94778556D01*
X88823150Y-94916882D01*
X89177668Y-94987400D01*
X89539132Y-94987400D01*
X89893650Y-94916882D01*
X90227599Y-94778556D01*
X90528144Y-94577738D01*
X90783738Y-94322144D01*
X90984556Y-94021599D01*
X91029788Y-93912400D01*
X94187012Y-93912400D01*
X94232244Y-94021599D01*
X94433062Y-94322144D01*
X94688656Y-94577738D01*
X94989201Y-94778556D01*
X95323150Y-94916882D01*
X95677668Y-94987400D01*
X96039132Y-94987400D01*
X96393650Y-94916882D01*
X96502849Y-94871650D01*
X98832599Y-97201401D01*
X98856398Y-97230400D01*
X98972123Y-97325373D01*
X99104152Y-97395945D01*
X99247413Y-97439402D01*
X99359066Y-97450399D01*
X99359075Y-97450399D01*
X99396398Y-97454075D01*
X99433721Y-97450399D01*
X126600091Y-97450399D01*
X126555600Y-97674065D01*
X126555600Y-97956735D01*
X126610747Y-98233974D01*
X126718920Y-98495127D01*
X126875963Y-98730159D01*
X127075841Y-98930037D01*
X127308359Y-99085400D01*
X127075841Y-99240763D01*
X126875963Y-99440641D01*
X126718920Y-99675673D01*
X126610747Y-99936826D01*
X126555600Y-100214065D01*
X126555600Y-100496735D01*
X126600091Y-100720401D01*
X97727722Y-100720401D01*
X97690399Y-100716725D01*
X97653076Y-100720401D01*
X97653066Y-100720401D01*
X97541413Y-100731398D01*
X97398152Y-100774855D01*
X97266123Y-100845427D01*
X97150398Y-100940400D01*
X97126600Y-100969398D01*
X96502849Y-101593150D01*
X96393650Y-101547918D01*
X96039132Y-101477400D01*
X95677668Y-101477400D01*
X95323150Y-101547918D01*
X94989201Y-101686244D01*
X94688656Y-101887062D01*
X94433062Y-102142656D01*
X94232244Y-102443201D01*
X94187012Y-102552400D01*
X91029788Y-102552400D01*
X90984556Y-102443201D01*
X90783738Y-102142656D01*
X90528144Y-101887062D01*
X90227599Y-101686244D01*
X89893650Y-101547918D01*
X89539132Y-101477400D01*
X89177668Y-101477400D01*
X88823150Y-101547918D01*
X88489201Y-101686244D01*
X88188656Y-101887062D01*
X87933062Y-102142656D01*
X87732244Y-102443201D01*
X87593918Y-102777150D01*
X87523400Y-103131668D01*
X87523400Y-103493132D01*
X87593918Y-103847650D01*
X87732244Y-104181599D01*
X87933062Y-104482144D01*
X88188656Y-104737738D01*
X88489201Y-104938556D01*
X88823150Y-105076882D01*
X89177668Y-105147400D01*
X89539132Y-105147400D01*
X89893650Y-105076882D01*
X90227599Y-104938556D01*
X90528144Y-104737738D01*
X90783738Y-104482144D01*
X90984556Y-104181599D01*
X91029788Y-104072400D01*
X94187012Y-104072400D01*
X94232244Y-104181599D01*
X94433062Y-104482144D01*
X94688656Y-104737738D01*
X94989201Y-104938556D01*
X95323150Y-105076882D01*
X95677668Y-105147400D01*
X96039132Y-105147400D01*
X96393650Y-105076882D01*
X96727599Y-104938556D01*
X97028144Y-104737738D01*
X97283738Y-104482144D01*
X97484556Y-104181599D01*
X97622882Y-103847650D01*
X97693400Y-103493132D01*
X97693400Y-103131668D01*
X97622882Y-102777150D01*
X97577650Y-102667951D01*
X98005201Y-102240401D01*
X126708677Y-102240401D01*
X126610747Y-102476826D01*
X126555600Y-102754065D01*
X126555600Y-103036735D01*
X126610747Y-103313974D01*
X126708677Y-103550399D01*
X105057723Y-103550399D01*
X105020400Y-103546723D01*
X104983077Y-103550399D01*
X104983068Y-103550399D01*
X104871415Y-103561396D01*
X104728836Y-103604646D01*
X104728154Y-103604853D01*
X104596124Y-103675425D01*
X104521490Y-103736676D01*
X104480400Y-103770398D01*
X104456602Y-103799396D01*
X96502849Y-111753150D01*
X96393650Y-111707918D01*
X96039132Y-111637400D01*
X95677668Y-111637400D01*
X95323150Y-111707918D01*
X94989201Y-111846244D01*
X94688656Y-112047062D01*
X94433062Y-112302656D01*
X94232244Y-112603201D01*
X94187012Y-112712400D01*
X91029788Y-112712400D01*
X90984556Y-112603201D01*
X90783738Y-112302656D01*
X90528144Y-112047062D01*
X90227599Y-111846244D01*
X89893650Y-111707918D01*
X89539132Y-111637400D01*
X89177668Y-111637400D01*
X88823150Y-111707918D01*
X88489201Y-111846244D01*
X88188656Y-112047062D01*
X87933062Y-112302656D01*
X87732244Y-112603201D01*
X87593918Y-112937150D01*
X87523400Y-113291668D01*
X87523400Y-113653132D01*
X87593918Y-114007650D01*
X87732244Y-114341599D01*
X87933062Y-114642144D01*
X88188656Y-114897738D01*
X88489201Y-115098556D01*
X88823150Y-115236882D01*
X89177668Y-115307400D01*
X89539132Y-115307400D01*
X89893650Y-115236882D01*
X90227599Y-115098556D01*
X90528144Y-114897738D01*
X90783738Y-114642144D01*
X90984556Y-114341599D01*
X91029788Y-114232400D01*
X94187012Y-114232400D01*
X94232244Y-114341599D01*
X94433062Y-114642144D01*
X94688656Y-114897738D01*
X94989201Y-115098556D01*
X95323150Y-115236882D01*
X95677668Y-115307400D01*
X96039132Y-115307400D01*
X96393650Y-115236882D01*
X96727599Y-115098556D01*
X97028144Y-114897738D01*
X97283738Y-114642144D01*
X97410558Y-114452344D01*
X98633000Y-114452344D01*
X98633000Y-114823656D01*
X98705439Y-115187834D01*
X98847534Y-115530882D01*
X99053825Y-115839618D01*
X99316382Y-116102175D01*
X99625118Y-116308466D01*
X99968166Y-116450561D01*
X100332344Y-116523000D01*
X100703656Y-116523000D01*
X101067834Y-116450561D01*
X101410882Y-116308466D01*
X101719618Y-116102175D01*
X101982175Y-115839618D01*
X102188466Y-115530882D01*
X102283410Y-115301665D01*
X107023000Y-115301665D01*
X107023000Y-115584335D01*
X107078147Y-115861574D01*
X107186320Y-116122727D01*
X107343363Y-116357759D01*
X107543241Y-116557637D01*
X107778273Y-116714680D01*
X108039426Y-116822853D01*
X108316665Y-116878000D01*
X108599335Y-116878000D01*
X108876574Y-116822853D01*
X109137727Y-116714680D01*
X109372759Y-116557637D01*
X109572637Y-116357759D01*
X109728000Y-116125241D01*
X109883363Y-116357759D01*
X110083241Y-116557637D01*
X110318273Y-116714680D01*
X110579426Y-116822853D01*
X110856665Y-116878000D01*
X111139335Y-116878000D01*
X111416574Y-116822853D01*
X111677727Y-116714680D01*
X111912759Y-116557637D01*
X112112637Y-116357759D01*
X112268000Y-116125241D01*
X112423363Y-116357759D01*
X112623241Y-116557637D01*
X112858273Y-116714680D01*
X113119426Y-116822853D01*
X113396665Y-116878000D01*
X113679335Y-116878000D01*
X113956574Y-116822853D01*
X114217727Y-116714680D01*
X114452759Y-116557637D01*
X114651357Y-116359039D01*
X114652188Y-116367482D01*
X114688498Y-116487180D01*
X114747463Y-116597494D01*
X114826815Y-116694185D01*
X114923506Y-116773537D01*
X115033820Y-116832502D01*
X115153518Y-116868812D01*
X115278000Y-116881072D01*
X115792250Y-116878000D01*
X115951000Y-116719250D01*
X115951000Y-115570000D01*
X116205000Y-115570000D01*
X116205000Y-116719250D01*
X116363750Y-116878000D01*
X116878000Y-116881072D01*
X117002482Y-116868812D01*
X117122180Y-116832502D01*
X117232494Y-116773537D01*
X117329185Y-116694185D01*
X117408537Y-116597494D01*
X117467502Y-116487180D01*
X117503812Y-116367482D01*
X117516072Y-116243000D01*
X117513000Y-115728750D01*
X117354250Y-115570000D01*
X116205000Y-115570000D01*
X115951000Y-115570000D01*
X115931000Y-115570000D01*
X115931000Y-115316000D01*
X115951000Y-115316000D01*
X115951000Y-114166750D01*
X116205000Y-114166750D01*
X116205000Y-115316000D01*
X117354250Y-115316000D01*
X117513000Y-115157250D01*
X117516072Y-114643000D01*
X117503812Y-114518518D01*
X117483435Y-114451344D01*
X122133000Y-114451344D01*
X122133000Y-114822656D01*
X122205439Y-115186834D01*
X122347534Y-115529882D01*
X122553825Y-115838618D01*
X122816382Y-116101175D01*
X123125118Y-116307466D01*
X123468166Y-116449561D01*
X123832344Y-116522000D01*
X124203656Y-116522000D01*
X124567834Y-116449561D01*
X124910882Y-116307466D01*
X125219618Y-116101175D01*
X125482175Y-115838618D01*
X125688466Y-115529882D01*
X125830561Y-115186834D01*
X125903000Y-114822656D01*
X125903000Y-114451344D01*
X125830561Y-114087166D01*
X125688466Y-113744118D01*
X125482175Y-113435382D01*
X125219618Y-113172825D01*
X124910882Y-112966534D01*
X124567834Y-112824439D01*
X124203656Y-112752000D01*
X123832344Y-112752000D01*
X123468166Y-112824439D01*
X123125118Y-112966534D01*
X122816382Y-113172825D01*
X122553825Y-113435382D01*
X122347534Y-113744118D01*
X122205439Y-114087166D01*
X122133000Y-114451344D01*
X117483435Y-114451344D01*
X117467502Y-114398820D01*
X117408537Y-114288506D01*
X117329185Y-114191815D01*
X117232494Y-114112463D01*
X117122180Y-114053498D01*
X117002482Y-114017188D01*
X116878000Y-114004928D01*
X116363750Y-114008000D01*
X116205000Y-114166750D01*
X115951000Y-114166750D01*
X115792250Y-114008000D01*
X115278000Y-114004928D01*
X115153518Y-114017188D01*
X115033820Y-114053498D01*
X114923506Y-114112463D01*
X114826815Y-114191815D01*
X114747463Y-114288506D01*
X114688498Y-114398820D01*
X114652188Y-114518518D01*
X114651357Y-114526961D01*
X114452759Y-114328363D01*
X114217727Y-114171320D01*
X113956574Y-114063147D01*
X113679335Y-114008000D01*
X113396665Y-114008000D01*
X113119426Y-114063147D01*
X112858273Y-114171320D01*
X112623241Y-114328363D01*
X112423363Y-114528241D01*
X112268000Y-114760759D01*
X112112637Y-114528241D01*
X111912759Y-114328363D01*
X111677727Y-114171320D01*
X111416574Y-114063147D01*
X111139335Y-114008000D01*
X110856665Y-114008000D01*
X110579426Y-114063147D01*
X110318273Y-114171320D01*
X110083241Y-114328363D01*
X109883363Y-114528241D01*
X109728000Y-114760759D01*
X109572637Y-114528241D01*
X109372759Y-114328363D01*
X109137727Y-114171320D01*
X108876574Y-114063147D01*
X108599335Y-114008000D01*
X108316665Y-114008000D01*
X108039426Y-114063147D01*
X107778273Y-114171320D01*
X107543241Y-114328363D01*
X107343363Y-114528241D01*
X107186320Y-114763273D01*
X107078147Y-115024426D01*
X107023000Y-115301665D01*
X102283410Y-115301665D01*
X102330561Y-115187834D01*
X102403000Y-114823656D01*
X102403000Y-114452344D01*
X102330561Y-114088166D01*
X102188466Y-113745118D01*
X101982175Y-113436382D01*
X101719618Y-113173825D01*
X101410882Y-112967534D01*
X101067834Y-112825439D01*
X100703656Y-112753000D01*
X100332344Y-112753000D01*
X99968166Y-112825439D01*
X99625118Y-112967534D01*
X99316382Y-113173825D01*
X99053825Y-113436382D01*
X98847534Y-113745118D01*
X98705439Y-114088166D01*
X98633000Y-114452344D01*
X97410558Y-114452344D01*
X97484556Y-114341599D01*
X97622882Y-114007650D01*
X97693400Y-113653132D01*
X97693400Y-113291668D01*
X97622882Y-112937150D01*
X97577650Y-112827951D01*
X105335203Y-105070399D01*
X126600091Y-105070399D01*
X126555600Y-105294065D01*
X126555600Y-105576735D01*
X126573356Y-105666000D01*
X116877322Y-105666000D01*
X116839999Y-105662324D01*
X116802676Y-105666000D01*
X116802667Y-105666000D01*
X116691014Y-105676997D01*
X116547753Y-105720454D01*
X116415724Y-105791026D01*
X116299999Y-105885999D01*
X116276201Y-105914997D01*
X113829571Y-108361628D01*
X113675592Y-108331000D01*
X113400408Y-108331000D01*
X113130510Y-108384686D01*
X112876273Y-108489995D01*
X112647465Y-108642880D01*
X112452880Y-108837465D01*
X112299995Y-109066273D01*
X112268000Y-109143515D01*
X112236005Y-109066273D01*
X112083120Y-108837465D01*
X111888535Y-108642880D01*
X111659727Y-108489995D01*
X111405490Y-108384686D01*
X111135592Y-108331000D01*
X110860408Y-108331000D01*
X110590510Y-108384686D01*
X110336273Y-108489995D01*
X110107465Y-108642880D01*
X109912880Y-108837465D01*
X109759995Y-109066273D01*
X109728000Y-109143515D01*
X109696005Y-109066273D01*
X109543120Y-108837465D01*
X109348535Y-108642880D01*
X109119727Y-108489995D01*
X108865490Y-108384686D01*
X108595592Y-108331000D01*
X108320408Y-108331000D01*
X108050510Y-108384686D01*
X107796273Y-108489995D01*
X107567465Y-108642880D01*
X107372880Y-108837465D01*
X107219995Y-109066273D01*
X107188000Y-109143515D01*
X107156005Y-109066273D01*
X107003120Y-108837465D01*
X106808535Y-108642880D01*
X106579727Y-108489995D01*
X106325490Y-108384686D01*
X106055592Y-108331000D01*
X105780408Y-108331000D01*
X105510510Y-108384686D01*
X105256273Y-108489995D01*
X105027465Y-108642880D01*
X104832880Y-108837465D01*
X104679995Y-109066273D01*
X104648000Y-109143515D01*
X104616005Y-109066273D01*
X104463120Y-108837465D01*
X104268535Y-108642880D01*
X104039727Y-108489995D01*
X103785490Y-108384686D01*
X103515592Y-108331000D01*
X103240408Y-108331000D01*
X102970510Y-108384686D01*
X102716273Y-108489995D01*
X102487465Y-108642880D01*
X102292880Y-108837465D01*
X102139995Y-109066273D01*
X102034686Y-109320510D01*
X101981000Y-109590408D01*
X101981000Y-109865592D01*
X102034686Y-110135490D01*
X102139995Y-110389727D01*
X102292880Y-110618535D01*
X102487465Y-110813120D01*
X102716273Y-110966005D01*
X102970510Y-111071314D01*
X103240408Y-111125000D01*
X103515592Y-111125000D01*
X103785490Y-111071314D01*
X104039727Y-110966005D01*
X104268535Y-110813120D01*
X104463120Y-110618535D01*
X104616005Y-110389727D01*
X104648000Y-110312485D01*
X104679995Y-110389727D01*
X104832880Y-110618535D01*
X105027465Y-110813120D01*
X105256273Y-110966005D01*
X105510510Y-111071314D01*
X105780408Y-111125000D01*
X106055592Y-111125000D01*
X106325490Y-111071314D01*
X106579727Y-110966005D01*
X106808535Y-110813120D01*
X107003120Y-110618535D01*
X107156005Y-110389727D01*
X107188000Y-110312485D01*
X107219995Y-110389727D01*
X107372880Y-110618535D01*
X107567465Y-110813120D01*
X107796273Y-110966005D01*
X108050510Y-111071314D01*
X108320408Y-111125000D01*
X108595592Y-111125000D01*
X108865490Y-111071314D01*
X109119727Y-110966005D01*
X109348535Y-110813120D01*
X109543120Y-110618535D01*
X109696005Y-110389727D01*
X109728000Y-110312485D01*
X109759995Y-110389727D01*
X109912880Y-110618535D01*
X110107465Y-110813120D01*
X110336273Y-110966005D01*
X110590510Y-111071314D01*
X110860408Y-111125000D01*
X111135592Y-111125000D01*
X111405490Y-111071314D01*
X111659727Y-110966005D01*
X111888535Y-110813120D01*
X112083120Y-110618535D01*
X112236005Y-110389727D01*
X112268000Y-110312485D01*
X112299995Y-110389727D01*
X112452880Y-110618535D01*
X112647465Y-110813120D01*
X112876273Y-110966005D01*
X113130510Y-111071314D01*
X113400408Y-111125000D01*
X113675592Y-111125000D01*
X113945490Y-111071314D01*
X114199727Y-110966005D01*
X114428535Y-110813120D01*
X114623120Y-110618535D01*
X114776005Y-110389727D01*
X114808000Y-110312485D01*
X114839995Y-110389727D01*
X114992880Y-110618535D01*
X115187465Y-110813120D01*
X115416273Y-110966005D01*
X115670510Y-111071314D01*
X115940408Y-111125000D01*
X116215592Y-111125000D01*
X116485490Y-111071314D01*
X116739727Y-110966005D01*
X116968535Y-110813120D01*
X117088090Y-110693565D01*
X117832040Y-110693565D01*
X117899020Y-110933656D01*
X118148048Y-111050756D01*
X118415135Y-111117023D01*
X118690017Y-111129910D01*
X118962133Y-111088922D01*
X119221023Y-110995636D01*
X119336980Y-110933656D01*
X119403960Y-110693565D01*
X118618000Y-109907605D01*
X117832040Y-110693565D01*
X117088090Y-110693565D01*
X117163120Y-110618535D01*
X117316005Y-110389727D01*
X117345692Y-110318057D01*
X117350364Y-110331023D01*
X117412344Y-110446980D01*
X117652435Y-110513960D01*
X118438395Y-109728000D01*
X118797605Y-109728000D01*
X119583565Y-110513960D01*
X119823656Y-110446980D01*
X119887485Y-110311240D01*
X119919995Y-110389727D01*
X120072880Y-110618535D01*
X120267465Y-110813120D01*
X120496273Y-110966005D01*
X120750510Y-111071314D01*
X121020408Y-111125000D01*
X121295592Y-111125000D01*
X121565490Y-111071314D01*
X121819727Y-110966005D01*
X122048535Y-110813120D01*
X122243120Y-110618535D01*
X122396005Y-110389727D01*
X122501314Y-110135490D01*
X122555000Y-109865592D01*
X122555000Y-109590408D01*
X122501314Y-109320510D01*
X122396005Y-109066273D01*
X122243120Y-108837465D01*
X122048535Y-108642880D01*
X121819727Y-108489995D01*
X121565490Y-108384686D01*
X121295592Y-108331000D01*
X121020408Y-108331000D01*
X120750510Y-108384686D01*
X120496273Y-108489995D01*
X120267465Y-108642880D01*
X120072880Y-108837465D01*
X119919995Y-109066273D01*
X119890308Y-109137943D01*
X119885636Y-109124977D01*
X119823656Y-109009020D01*
X119583565Y-108942040D01*
X118797605Y-109728000D01*
X118438395Y-109728000D01*
X117652435Y-108942040D01*
X117412344Y-109009020D01*
X117348515Y-109144760D01*
X117316005Y-109066273D01*
X117163120Y-108837465D01*
X117088090Y-108762435D01*
X117832040Y-108762435D01*
X118618000Y-109548395D01*
X119403960Y-108762435D01*
X119336980Y-108522344D01*
X119087952Y-108405244D01*
X118820865Y-108338977D01*
X118545983Y-108326090D01*
X118273867Y-108367078D01*
X118014977Y-108460364D01*
X117899020Y-108522344D01*
X117832040Y-108762435D01*
X117088090Y-108762435D01*
X116968535Y-108642880D01*
X116739727Y-108489995D01*
X116485490Y-108384686D01*
X116215592Y-108331000D01*
X116009802Y-108331000D01*
X117154802Y-107186000D01*
X126792201Y-107186000D01*
X126718920Y-107295673D01*
X126610747Y-107556826D01*
X126555600Y-107834065D01*
X126555600Y-108116735D01*
X126610747Y-108393974D01*
X126718920Y-108655127D01*
X126875963Y-108890159D01*
X127075841Y-109090037D01*
X127308359Y-109245400D01*
X127075841Y-109400763D01*
X126875963Y-109600641D01*
X126718920Y-109835673D01*
X126610747Y-110096826D01*
X126555600Y-110374065D01*
X126555600Y-110656735D01*
X126610747Y-110933974D01*
X126718920Y-111195127D01*
X126875963Y-111430159D01*
X127075841Y-111630037D01*
X127308359Y-111785400D01*
X127075841Y-111940763D01*
X126875963Y-112140641D01*
X126718920Y-112375673D01*
X126610747Y-112636826D01*
X126555600Y-112914065D01*
X126555600Y-113196735D01*
X126610747Y-113473974D01*
X126718920Y-113735127D01*
X126875963Y-113970159D01*
X127075841Y-114170037D01*
X127308359Y-114325400D01*
X127075841Y-114480763D01*
X126875963Y-114680641D01*
X126718920Y-114915673D01*
X126610747Y-115176826D01*
X126555600Y-115454065D01*
X126555600Y-115736735D01*
X126610747Y-116013974D01*
X126718920Y-116275127D01*
X126875963Y-116510159D01*
X127075841Y-116710037D01*
X127308359Y-116865400D01*
X127075841Y-117020763D01*
X126875963Y-117220641D01*
X126718920Y-117455673D01*
X126610747Y-117716826D01*
X126555600Y-117994065D01*
X126555600Y-118276735D01*
X126610747Y-118553974D01*
X126718920Y-118815127D01*
X126875963Y-119050159D01*
X127075841Y-119250037D01*
X127308359Y-119405400D01*
X127075841Y-119560763D01*
X126875963Y-119760641D01*
X126718920Y-119995673D01*
X126610747Y-120256826D01*
X126555600Y-120534065D01*
X126555600Y-120816735D01*
X126610747Y-121093974D01*
X126718920Y-121355127D01*
X126875963Y-121590159D01*
X127075841Y-121790037D01*
X127308359Y-121945400D01*
X127075841Y-122100763D01*
X126875963Y-122300641D01*
X126718920Y-122535673D01*
X126610747Y-122796826D01*
X126555600Y-123074065D01*
X126555600Y-123356735D01*
X126610747Y-123633974D01*
X126718920Y-123895127D01*
X126875963Y-124130159D01*
X127075841Y-124330037D01*
X127310873Y-124487080D01*
X127572026Y-124595253D01*
X127849265Y-124650400D01*
X128131935Y-124650400D01*
X128409174Y-124595253D01*
X128670327Y-124487080D01*
X128905359Y-124330037D01*
X129105237Y-124130159D01*
X129262280Y-123895127D01*
X129370453Y-123633974D01*
X129425600Y-123356735D01*
X129425600Y-123074065D01*
X129370453Y-122796826D01*
X129262280Y-122535673D01*
X129105237Y-122300641D01*
X128905359Y-122100763D01*
X128672841Y-121945400D01*
X128905359Y-121790037D01*
X129105237Y-121590159D01*
X129262280Y-121355127D01*
X129370453Y-121093974D01*
X129425600Y-120816735D01*
X129425600Y-120534065D01*
X129370453Y-120256826D01*
X129262280Y-119995673D01*
X129105237Y-119760641D01*
X128905359Y-119560763D01*
X128672841Y-119405400D01*
X128905359Y-119250037D01*
X129105237Y-119050159D01*
X129262280Y-118815127D01*
X129370453Y-118553974D01*
X129425600Y-118276735D01*
X129425600Y-117994065D01*
X129370453Y-117716826D01*
X129262280Y-117455673D01*
X129105237Y-117220641D01*
X128905359Y-117020763D01*
X128672841Y-116865400D01*
X128905359Y-116710037D01*
X129105237Y-116510159D01*
X129262280Y-116275127D01*
X129370453Y-116013974D01*
X129425600Y-115736735D01*
X129425600Y-115454065D01*
X129370453Y-115176826D01*
X129262280Y-114915673D01*
X129105237Y-114680641D01*
X128905359Y-114480763D01*
X128672841Y-114325400D01*
X128905359Y-114170037D01*
X129105237Y-113970159D01*
X129262280Y-113735127D01*
X129370453Y-113473974D01*
X129425600Y-113196735D01*
X129425600Y-112914065D01*
X129370453Y-112636826D01*
X129262280Y-112375673D01*
X129105237Y-112140641D01*
X128905359Y-111940763D01*
X128672841Y-111785400D01*
X128905359Y-111630037D01*
X129105237Y-111430159D01*
X129262280Y-111195127D01*
X129370453Y-110933974D01*
X129425600Y-110656735D01*
X129425600Y-110374065D01*
X129370453Y-110096826D01*
X129262280Y-109835673D01*
X129105237Y-109600641D01*
X128905359Y-109400763D01*
X128672841Y-109245400D01*
X128905359Y-109090037D01*
X129105237Y-108890159D01*
X129262280Y-108655127D01*
X129370453Y-108393974D01*
X129425600Y-108116735D01*
X129425600Y-107834065D01*
X129370453Y-107556826D01*
X129262280Y-107295673D01*
X129105237Y-107060641D01*
X128905359Y-106860763D01*
X128672841Y-106705400D01*
X128905359Y-106550037D01*
X129105237Y-106350159D01*
X129262280Y-106115127D01*
X129370453Y-105853974D01*
X129425600Y-105576735D01*
X129425600Y-105294065D01*
X129381109Y-105070399D01*
X141778279Y-105070399D01*
X141815601Y-105074075D01*
X141839834Y-105071688D01*
X141795600Y-105294065D01*
X141795600Y-105576735D01*
X141850747Y-105853974D01*
X141958920Y-106115127D01*
X142115963Y-106350159D01*
X142315841Y-106550037D01*
X142548359Y-106705400D01*
X142315841Y-106860763D01*
X142115963Y-107060641D01*
X141958920Y-107295673D01*
X141850747Y-107556826D01*
X141795600Y-107834065D01*
X141795600Y-108116735D01*
X141850747Y-108393974D01*
X141958920Y-108655127D01*
X142115963Y-108890159D01*
X142315841Y-109090037D01*
X142548359Y-109245400D01*
X142315841Y-109400763D01*
X142115963Y-109600641D01*
X141958920Y-109835673D01*
X141850747Y-110096826D01*
X141795600Y-110374065D01*
X141795600Y-110656735D01*
X141850747Y-110933974D01*
X141958920Y-111195127D01*
X142115963Y-111430159D01*
X142315841Y-111630037D01*
X142548359Y-111785400D01*
X142315841Y-111940763D01*
X142115963Y-112140641D01*
X141958920Y-112375673D01*
X141850747Y-112636826D01*
X141795600Y-112914065D01*
X141795600Y-113196735D01*
X141850747Y-113473974D01*
X141958920Y-113735127D01*
X142115963Y-113970159D01*
X142315841Y-114170037D01*
X142548359Y-114325400D01*
X142315841Y-114480763D01*
X142115963Y-114680641D01*
X141958920Y-114915673D01*
X141850747Y-115176826D01*
X141795600Y-115454065D01*
X141795600Y-115736735D01*
X141850747Y-116013974D01*
X141958920Y-116275127D01*
X142115963Y-116510159D01*
X142315841Y-116710037D01*
X142548359Y-116865400D01*
X142315841Y-117020763D01*
X142115963Y-117220641D01*
X141958920Y-117455673D01*
X141850747Y-117716826D01*
X141795600Y-117994065D01*
X141795600Y-118276735D01*
X141850747Y-118553974D01*
X141958920Y-118815127D01*
X142115963Y-119050159D01*
X142315841Y-119250037D01*
X142548359Y-119405400D01*
X142315841Y-119560763D01*
X142115963Y-119760641D01*
X141958920Y-119995673D01*
X141850747Y-120256826D01*
X141795600Y-120534065D01*
X141795600Y-120816735D01*
X141850747Y-121093974D01*
X141958920Y-121355127D01*
X142115963Y-121590159D01*
X142315841Y-121790037D01*
X142548359Y-121945400D01*
X142315841Y-122100763D01*
X142115963Y-122300641D01*
X141958920Y-122535673D01*
X141850747Y-122796826D01*
X141795600Y-123074065D01*
X141795600Y-123356735D01*
X141850747Y-123633974D01*
X141958920Y-123895127D01*
X142115963Y-124130159D01*
X142315841Y-124330037D01*
X142550873Y-124487080D01*
X142812026Y-124595253D01*
X143089265Y-124650400D01*
X143371935Y-124650400D01*
X143649174Y-124595253D01*
X143910327Y-124487080D01*
X144145359Y-124330037D01*
X144318094Y-124157302D01*
X156646703Y-124157302D01*
X156718286Y-124401271D01*
X156973796Y-124522171D01*
X157247984Y-124590900D01*
X157530312Y-124604817D01*
X157809930Y-124563387D01*
X158076092Y-124468203D01*
X158201314Y-124401271D01*
X158272897Y-124157302D01*
X157459800Y-123344205D01*
X156646703Y-124157302D01*
X144318094Y-124157302D01*
X144345237Y-124130159D01*
X144502280Y-123895127D01*
X144610453Y-123633974D01*
X144665600Y-123356735D01*
X144665600Y-123235112D01*
X156019583Y-123235112D01*
X156061013Y-123514730D01*
X156156197Y-123780892D01*
X156223129Y-123906114D01*
X156467098Y-123977697D01*
X157280195Y-123164600D01*
X157639405Y-123164600D01*
X158452502Y-123977697D01*
X158696471Y-123906114D01*
X158817371Y-123650604D01*
X158886100Y-123376416D01*
X158900017Y-123094088D01*
X158858587Y-122814470D01*
X158763403Y-122548308D01*
X158696471Y-122423086D01*
X158497140Y-122364600D01*
X159521728Y-122364600D01*
X159521728Y-123964600D01*
X159533988Y-124089082D01*
X159570298Y-124208780D01*
X159629263Y-124319094D01*
X159708615Y-124415785D01*
X159805306Y-124495137D01*
X159915620Y-124554102D01*
X160035318Y-124590412D01*
X160159800Y-124602672D01*
X161759800Y-124602672D01*
X161884282Y-124590412D01*
X162003980Y-124554102D01*
X162114294Y-124495137D01*
X162210985Y-124415785D01*
X162290337Y-124319094D01*
X162349302Y-124208780D01*
X162385612Y-124089082D01*
X162397872Y-123964600D01*
X162397872Y-123924600D01*
X164040078Y-123924600D01*
X164077400Y-123928276D01*
X164114722Y-123924600D01*
X164114733Y-123924600D01*
X164226386Y-123913603D01*
X164369647Y-123870146D01*
X164501676Y-123799574D01*
X164617401Y-123704601D01*
X164641204Y-123675597D01*
X164853703Y-123463098D01*
X177193000Y-123463098D01*
X177193000Y-123932902D01*
X177284654Y-124393679D01*
X177464440Y-124827721D01*
X177725450Y-125218349D01*
X178057651Y-125550550D01*
X178448279Y-125811560D01*
X178882321Y-125991346D01*
X179343098Y-126083000D01*
X179812902Y-126083000D01*
X180273679Y-125991346D01*
X180707721Y-125811560D01*
X181098349Y-125550550D01*
X181430550Y-125218349D01*
X181691560Y-124827721D01*
X181871346Y-124393679D01*
X181963000Y-123932902D01*
X181963000Y-123463098D01*
X181871346Y-123002321D01*
X181691560Y-122568279D01*
X181430550Y-122177651D01*
X181098349Y-121845450D01*
X180707721Y-121584440D01*
X180273679Y-121404654D01*
X179812902Y-121313000D01*
X179343098Y-121313000D01*
X178882321Y-121404654D01*
X178448279Y-121584440D01*
X178057651Y-121845450D01*
X177725450Y-122177651D01*
X177464440Y-122568279D01*
X177284654Y-123002321D01*
X177193000Y-123463098D01*
X164853703Y-123463098D01*
X166262801Y-122054000D01*
X168299928Y-122054000D01*
X168312188Y-122178482D01*
X168348498Y-122298180D01*
X168407463Y-122408494D01*
X168486815Y-122505185D01*
X168583506Y-122584537D01*
X168693820Y-122643502D01*
X168813518Y-122679812D01*
X168938000Y-122692072D01*
X170402250Y-122689000D01*
X170561000Y-122530250D01*
X170561000Y-120681000D01*
X170815000Y-120681000D01*
X170815000Y-122530250D01*
X170973750Y-122689000D01*
X172438000Y-122692072D01*
X172562482Y-122679812D01*
X172682180Y-122643502D01*
X172792494Y-122584537D01*
X172889185Y-122505185D01*
X172968537Y-122408494D01*
X173027502Y-122298180D01*
X173063812Y-122178482D01*
X173076072Y-122054000D01*
X173073000Y-120839750D01*
X172914250Y-120681000D01*
X170815000Y-120681000D01*
X170561000Y-120681000D01*
X168461750Y-120681000D01*
X168303000Y-120839750D01*
X168299928Y-122054000D01*
X166262801Y-122054000D01*
X168302358Y-120014444D01*
X168303000Y-120268250D01*
X168461750Y-120427000D01*
X170561000Y-120427000D01*
X170561000Y-118577750D01*
X170815000Y-118577750D01*
X170815000Y-120427000D01*
X172914250Y-120427000D01*
X173073000Y-120268250D01*
X173076072Y-119054000D01*
X173063812Y-118929518D01*
X173027502Y-118809820D01*
X172968537Y-118699506D01*
X172889185Y-118602815D01*
X172792494Y-118523463D01*
X172682180Y-118464498D01*
X172562482Y-118428188D01*
X172438000Y-118415928D01*
X170973750Y-118419000D01*
X170815000Y-118577750D01*
X170561000Y-118577750D01*
X170402250Y-118419000D01*
X169898858Y-118417944D01*
X171199003Y-117117799D01*
X171228001Y-117094001D01*
X171322974Y-116978276D01*
X171342326Y-116942072D01*
X172438000Y-116942072D01*
X172562482Y-116929812D01*
X172682180Y-116893502D01*
X172792494Y-116834537D01*
X172889185Y-116755185D01*
X172968537Y-116658494D01*
X173027502Y-116548180D01*
X173063812Y-116428482D01*
X173076072Y-116304000D01*
X173076072Y-112804000D01*
X173063812Y-112679518D01*
X173027502Y-112559820D01*
X172968537Y-112449506D01*
X172889185Y-112352815D01*
X172792494Y-112273463D01*
X172682180Y-112214498D01*
X172562482Y-112178188D01*
X172438000Y-112165928D01*
X168938000Y-112165928D01*
X168813518Y-112178188D01*
X168693820Y-112214498D01*
X168583506Y-112273463D01*
X168486815Y-112352815D01*
X168407463Y-112449506D01*
X168348498Y-112559820D01*
X168312188Y-112679518D01*
X168299928Y-112804000D01*
X168299928Y-115508233D01*
X168268537Y-115449506D01*
X168189185Y-115352815D01*
X168092494Y-115273463D01*
X167982180Y-115214498D01*
X167862482Y-115178188D01*
X167738000Y-115165928D01*
X166273750Y-115169000D01*
X166115000Y-115327750D01*
X166115000Y-117427000D01*
X168214250Y-117427000D01*
X168373000Y-117268250D01*
X168374409Y-116596655D01*
X168407463Y-116658494D01*
X168486815Y-116755185D01*
X168583506Y-116834537D01*
X168693820Y-116893502D01*
X168813518Y-116929812D01*
X168938000Y-116942072D01*
X169225126Y-116942072D01*
X168350224Y-117816974D01*
X168214250Y-117681000D01*
X166115000Y-117681000D01*
X166115000Y-119780250D01*
X166250974Y-119916224D01*
X163762599Y-122404600D01*
X162397872Y-122404600D01*
X162397872Y-122364600D01*
X162385612Y-122240118D01*
X162349302Y-122120420D01*
X162290337Y-122010106D01*
X162210985Y-121913415D01*
X162114294Y-121834063D01*
X162003980Y-121775098D01*
X161884282Y-121738788D01*
X161759800Y-121726528D01*
X160159800Y-121726528D01*
X160035318Y-121738788D01*
X159915620Y-121775098D01*
X159805306Y-121834063D01*
X159708615Y-121913415D01*
X159629263Y-122010106D01*
X159570298Y-122120420D01*
X159533988Y-122240118D01*
X159521728Y-122364600D01*
X158497140Y-122364600D01*
X158452502Y-122351503D01*
X157639405Y-123164600D01*
X157280195Y-123164600D01*
X156467098Y-122351503D01*
X156223129Y-122423086D01*
X156102229Y-122678596D01*
X156033500Y-122952784D01*
X156019583Y-123235112D01*
X144665600Y-123235112D01*
X144665600Y-123074065D01*
X144610453Y-122796826D01*
X144502280Y-122535673D01*
X144345237Y-122300641D01*
X144216494Y-122171898D01*
X156646703Y-122171898D01*
X157459800Y-122984995D01*
X158272897Y-122171898D01*
X158201314Y-121927929D01*
X157945804Y-121807029D01*
X157671616Y-121738300D01*
X157389288Y-121724383D01*
X157109670Y-121765813D01*
X156843508Y-121860997D01*
X156718286Y-121927929D01*
X156646703Y-122171898D01*
X144216494Y-122171898D01*
X144145359Y-122100763D01*
X143912841Y-121945400D01*
X144145359Y-121790037D01*
X144345237Y-121590159D01*
X144502280Y-121355127D01*
X144610453Y-121093974D01*
X144665600Y-120816735D01*
X144665600Y-120534065D01*
X144629288Y-120351513D01*
X145676801Y-119304000D01*
X163599928Y-119304000D01*
X163612188Y-119428482D01*
X163648498Y-119548180D01*
X163707463Y-119658494D01*
X163786815Y-119755185D01*
X163883506Y-119834537D01*
X163993820Y-119893502D01*
X164113518Y-119929812D01*
X164238000Y-119942072D01*
X165702250Y-119939000D01*
X165861000Y-119780250D01*
X165861000Y-117681000D01*
X163761750Y-117681000D01*
X163603000Y-117839750D01*
X163599928Y-119304000D01*
X145676801Y-119304000D01*
X148694604Y-116286198D01*
X148723601Y-116262401D01*
X148818574Y-116146676D01*
X148889146Y-116014647D01*
X148899958Y-115979004D01*
X149098359Y-115846437D01*
X149298237Y-115646559D01*
X149455280Y-115411527D01*
X149563453Y-115150374D01*
X149618600Y-114873135D01*
X149618600Y-114590465D01*
X149563453Y-114313226D01*
X149455280Y-114052073D01*
X149298237Y-113817041D01*
X149098359Y-113617163D01*
X148865841Y-113461800D01*
X149098359Y-113306437D01*
X149298237Y-113106559D01*
X149455280Y-112871527D01*
X149563453Y-112610374D01*
X149618600Y-112333135D01*
X149618600Y-112050465D01*
X149563453Y-111773226D01*
X149455280Y-111512073D01*
X149298237Y-111277041D01*
X149098359Y-111077163D01*
X148865841Y-110921800D01*
X149098359Y-110766437D01*
X149298237Y-110566559D01*
X149455280Y-110331527D01*
X149563453Y-110070374D01*
X149618600Y-109793135D01*
X149618600Y-109510465D01*
X149563453Y-109233226D01*
X149455280Y-108972073D01*
X149298237Y-108737041D01*
X149098359Y-108537163D01*
X148865841Y-108381800D01*
X149098359Y-108226437D01*
X149298237Y-108026559D01*
X149455280Y-107791527D01*
X149563453Y-107530374D01*
X149618600Y-107253135D01*
X149618600Y-106970465D01*
X149563453Y-106693226D01*
X149455280Y-106432073D01*
X149298237Y-106197041D01*
X149098359Y-105997163D01*
X148865841Y-105841800D01*
X149098359Y-105686437D01*
X149298237Y-105486559D01*
X149455280Y-105251527D01*
X149563453Y-104990374D01*
X149618600Y-104713135D01*
X149618600Y-104430465D01*
X149563453Y-104153226D01*
X149455280Y-103892073D01*
X149298237Y-103657041D01*
X149098359Y-103457163D01*
X148865841Y-103301800D01*
X149098359Y-103146437D01*
X149298237Y-102946559D01*
X149455280Y-102711527D01*
X149563453Y-102450374D01*
X149618600Y-102173135D01*
X149618600Y-101890465D01*
X149563453Y-101613226D01*
X149455280Y-101352073D01*
X149298237Y-101117041D01*
X149098359Y-100917163D01*
X148865841Y-100761800D01*
X149098359Y-100606437D01*
X149298237Y-100406559D01*
X149455280Y-100171527D01*
X149563453Y-99910374D01*
X149618600Y-99633135D01*
X149618600Y-99350465D01*
X149563453Y-99073226D01*
X149455280Y-98812073D01*
X149298237Y-98577041D01*
X149273196Y-98552000D01*
X155883324Y-98552000D01*
X155887000Y-98589322D01*
X155887001Y-109872868D01*
X155883324Y-109910200D01*
X155887001Y-109947533D01*
X155897998Y-110059186D01*
X155903122Y-110076077D01*
X155941454Y-110202446D01*
X156012026Y-110334476D01*
X156057370Y-110389727D01*
X156107000Y-110450201D01*
X156135998Y-110473999D01*
X158364801Y-112702803D01*
X158388599Y-112731801D01*
X158504324Y-112826774D01*
X158636353Y-112897346D01*
X158779614Y-112940803D01*
X158891267Y-112951800D01*
X158891275Y-112951800D01*
X158928600Y-112955476D01*
X158965925Y-112951800D01*
X159665557Y-112951800D01*
X159768963Y-113106559D01*
X159968841Y-113306437D01*
X160201359Y-113461800D01*
X159968841Y-113617163D01*
X159768963Y-113817041D01*
X159611920Y-114052073D01*
X159503747Y-114313226D01*
X159448600Y-114590465D01*
X159448600Y-114873135D01*
X159503747Y-115150374D01*
X159611920Y-115411527D01*
X159768963Y-115646559D01*
X159968841Y-115846437D01*
X160203873Y-116003480D01*
X160465026Y-116111653D01*
X160742265Y-116166800D01*
X161024935Y-116166800D01*
X161302174Y-116111653D01*
X161563327Y-116003480D01*
X161798359Y-115846437D01*
X161840796Y-115804000D01*
X163599928Y-115804000D01*
X163603000Y-117268250D01*
X163761750Y-117427000D01*
X165861000Y-117427000D01*
X165861000Y-115327750D01*
X165702250Y-115169000D01*
X164238000Y-115165928D01*
X164113518Y-115178188D01*
X163993820Y-115214498D01*
X163883506Y-115273463D01*
X163786815Y-115352815D01*
X163707463Y-115449506D01*
X163648498Y-115559820D01*
X163612188Y-115679518D01*
X163599928Y-115804000D01*
X161840796Y-115804000D01*
X161998237Y-115646559D01*
X162155280Y-115411527D01*
X162263453Y-115150374D01*
X162318600Y-114873135D01*
X162318600Y-114590465D01*
X162263453Y-114313226D01*
X162155280Y-114052073D01*
X161998237Y-113817041D01*
X161798359Y-113617163D01*
X161565841Y-113461800D01*
X161798359Y-113306437D01*
X161998237Y-113106559D01*
X162155280Y-112871527D01*
X162263453Y-112610374D01*
X162318600Y-112333135D01*
X162318600Y-112050465D01*
X162263453Y-111773226D01*
X162155280Y-111512073D01*
X161998237Y-111277041D01*
X161798359Y-111077163D01*
X161565841Y-110921800D01*
X161798359Y-110766437D01*
X161998237Y-110566559D01*
X162155280Y-110331527D01*
X162263453Y-110070374D01*
X162318600Y-109793135D01*
X162318600Y-109510465D01*
X162263453Y-109233226D01*
X162155280Y-108972073D01*
X161998237Y-108737041D01*
X161798359Y-108537163D01*
X161565841Y-108381800D01*
X161798359Y-108226437D01*
X161998237Y-108026559D01*
X162155280Y-107791527D01*
X162263453Y-107530374D01*
X162318600Y-107253135D01*
X162318600Y-106970465D01*
X162263453Y-106693226D01*
X162155280Y-106432073D01*
X161998237Y-106197041D01*
X161798359Y-105997163D01*
X161565841Y-105841800D01*
X161798359Y-105686437D01*
X161998237Y-105486559D01*
X162155280Y-105251527D01*
X162263453Y-104990374D01*
X162318600Y-104713135D01*
X162318600Y-104430465D01*
X162263453Y-104153226D01*
X162155280Y-103892073D01*
X161998237Y-103657041D01*
X161798359Y-103457163D01*
X161565841Y-103301800D01*
X161798359Y-103146437D01*
X161998237Y-102946559D01*
X162155280Y-102711527D01*
X162263453Y-102450374D01*
X162318600Y-102173135D01*
X162318600Y-102057200D01*
X165547118Y-102057200D01*
X165576176Y-102352232D01*
X165662234Y-102635925D01*
X165801983Y-102897379D01*
X165990055Y-103126545D01*
X166219221Y-103314617D01*
X166242762Y-103327200D01*
X166219221Y-103339783D01*
X165990055Y-103527855D01*
X165801983Y-103757021D01*
X165662234Y-104018475D01*
X165576176Y-104302168D01*
X165547118Y-104597200D01*
X165576176Y-104892232D01*
X165662234Y-105175925D01*
X165801983Y-105437379D01*
X165990055Y-105666545D01*
X166219221Y-105854617D01*
X166242762Y-105867200D01*
X166219221Y-105879783D01*
X165990055Y-106067855D01*
X165801983Y-106297021D01*
X165662234Y-106558475D01*
X165576176Y-106842168D01*
X165547118Y-107137200D01*
X165576176Y-107432232D01*
X165662234Y-107715925D01*
X165801983Y-107977379D01*
X165990055Y-108206545D01*
X166055514Y-108260266D01*
X165946013Y-108318795D01*
X165811438Y-108429238D01*
X165700995Y-108563813D01*
X165618928Y-108717349D01*
X165568392Y-108883945D01*
X165551328Y-109057199D01*
X165551328Y-110297201D01*
X165568392Y-110470455D01*
X165618928Y-110637051D01*
X165700995Y-110790587D01*
X165811438Y-110925162D01*
X165946013Y-111035605D01*
X166099549Y-111117672D01*
X166266145Y-111168208D01*
X166439399Y-111185272D01*
X168129401Y-111185272D01*
X168302655Y-111168208D01*
X168469251Y-111117672D01*
X168622787Y-111035605D01*
X168757362Y-110925162D01*
X168867805Y-110790587D01*
X168949872Y-110637051D01*
X169000408Y-110470455D01*
X169017472Y-110297201D01*
X169017472Y-109057199D01*
X169000408Y-108883945D01*
X168949872Y-108717349D01*
X168867805Y-108563813D01*
X168757362Y-108429238D01*
X168622787Y-108318795D01*
X168513286Y-108260266D01*
X168578745Y-108206545D01*
X168766817Y-107977379D01*
X168906566Y-107715925D01*
X168992624Y-107432232D01*
X169021682Y-107137200D01*
X168992624Y-106842168D01*
X168906566Y-106558475D01*
X168766817Y-106297021D01*
X168578745Y-106067855D01*
X168349579Y-105879783D01*
X168326038Y-105867200D01*
X168349579Y-105854617D01*
X168578745Y-105666545D01*
X168766817Y-105437379D01*
X168906566Y-105175925D01*
X168992624Y-104892232D01*
X169021682Y-104597200D01*
X168992624Y-104302168D01*
X168906566Y-104018475D01*
X168766817Y-103757021D01*
X168578745Y-103527855D01*
X168349579Y-103339783D01*
X168326038Y-103327200D01*
X168349579Y-103314617D01*
X168578745Y-103126545D01*
X168766817Y-102897379D01*
X168906566Y-102635925D01*
X168992624Y-102352232D01*
X169021682Y-102057200D01*
X168992624Y-101762168D01*
X168906566Y-101478475D01*
X168766817Y-101217021D01*
X168578745Y-100987855D01*
X168349579Y-100799783D01*
X168088125Y-100660034D01*
X167804432Y-100573976D01*
X167583336Y-100552200D01*
X166985464Y-100552200D01*
X166764368Y-100573976D01*
X166480675Y-100660034D01*
X166219221Y-100799783D01*
X165990055Y-100987855D01*
X165801983Y-101217021D01*
X165662234Y-101478475D01*
X165576176Y-101762168D01*
X165547118Y-102057200D01*
X162318600Y-102057200D01*
X162318600Y-101890465D01*
X162263453Y-101613226D01*
X162155280Y-101352073D01*
X161998237Y-101117041D01*
X161798359Y-100917163D01*
X161565841Y-100761800D01*
X161798359Y-100606437D01*
X161998237Y-100406559D01*
X162155280Y-100171527D01*
X162263453Y-99910374D01*
X162318600Y-99633135D01*
X162318600Y-99350465D01*
X162263453Y-99073226D01*
X162155280Y-98812073D01*
X161998237Y-98577041D01*
X161799639Y-98378443D01*
X161808082Y-98377612D01*
X161927780Y-98341302D01*
X162038094Y-98282337D01*
X162134785Y-98202985D01*
X162214137Y-98106294D01*
X162273102Y-97995980D01*
X162309412Y-97876282D01*
X162321672Y-97751800D01*
X162318600Y-97237550D01*
X162159850Y-97078800D01*
X161010600Y-97078800D01*
X161010600Y-97098800D01*
X160756600Y-97098800D01*
X160756600Y-97078800D01*
X159607350Y-97078800D01*
X159448600Y-97237550D01*
X159445528Y-97751800D01*
X159457788Y-97876282D01*
X159494098Y-97995980D01*
X159553063Y-98106294D01*
X159632415Y-98202985D01*
X159729106Y-98282337D01*
X159839420Y-98341302D01*
X159959118Y-98377612D01*
X159967561Y-98378443D01*
X159768963Y-98577041D01*
X159611920Y-98812073D01*
X159503747Y-99073226D01*
X159448600Y-99350465D01*
X159448600Y-99633135D01*
X159503747Y-99910374D01*
X159611920Y-100171527D01*
X159768963Y-100406559D01*
X159968841Y-100606437D01*
X160201359Y-100761800D01*
X159968841Y-100917163D01*
X159768963Y-101117041D01*
X159611920Y-101352073D01*
X159503747Y-101613226D01*
X159448600Y-101890465D01*
X159448600Y-102173135D01*
X159503747Y-102450374D01*
X159611920Y-102711527D01*
X159768963Y-102946559D01*
X159968841Y-103146437D01*
X160201359Y-103301800D01*
X159968841Y-103457163D01*
X159768963Y-103657041D01*
X159611920Y-103892073D01*
X159503747Y-104153226D01*
X159448600Y-104430465D01*
X159448600Y-104713135D01*
X159503747Y-104990374D01*
X159611920Y-105251527D01*
X159768963Y-105486559D01*
X159968841Y-105686437D01*
X160201359Y-105841800D01*
X159968841Y-105997163D01*
X159768963Y-106197041D01*
X159611920Y-106432073D01*
X159503747Y-106693226D01*
X159448600Y-106970465D01*
X159448600Y-107253135D01*
X159503747Y-107530374D01*
X159611920Y-107791527D01*
X159768963Y-108026559D01*
X159968841Y-108226437D01*
X160201359Y-108381800D01*
X159968841Y-108537163D01*
X159768963Y-108737041D01*
X159611920Y-108972073D01*
X159503747Y-109233226D01*
X159448600Y-109510465D01*
X159448600Y-109793135D01*
X159503747Y-110070374D01*
X159611920Y-110331527D01*
X159768963Y-110566559D01*
X159968841Y-110766437D01*
X160201359Y-110921800D01*
X159968841Y-111077163D01*
X159768963Y-111277041D01*
X159665557Y-111431800D01*
X159243402Y-111431800D01*
X157407000Y-109595399D01*
X157407000Y-98866801D01*
X159528176Y-96745626D01*
X159607350Y-96824800D01*
X160756600Y-96824800D01*
X160756600Y-95675550D01*
X161010600Y-95675550D01*
X161010600Y-96824800D01*
X162159850Y-96824800D01*
X162318600Y-96666050D01*
X162321672Y-96151800D01*
X162309412Y-96027318D01*
X162273102Y-95907620D01*
X162214137Y-95797306D01*
X162134785Y-95700615D01*
X162038094Y-95621263D01*
X161952442Y-95575480D01*
X178606626Y-95575480D01*
X178726514Y-95860336D01*
X179050210Y-96021199D01*
X179399069Y-96115822D01*
X179759684Y-96140567D01*
X180118198Y-96094485D01*
X180460833Y-95979346D01*
X180683486Y-95860336D01*
X180803374Y-95575480D01*
X179705000Y-94477105D01*
X178606626Y-95575480D01*
X161952442Y-95575480D01*
X161927780Y-95562298D01*
X161808082Y-95525988D01*
X161683600Y-95513728D01*
X161169350Y-95516800D01*
X161010600Y-95675550D01*
X160756600Y-95675550D01*
X160677426Y-95596376D01*
X161921618Y-94352184D01*
X177861933Y-94352184D01*
X177908015Y-94710698D01*
X178023154Y-95053333D01*
X178142164Y-95275986D01*
X178427020Y-95395874D01*
X179525395Y-94297500D01*
X179884605Y-94297500D01*
X180982980Y-95395874D01*
X181267836Y-95275986D01*
X181428699Y-94952290D01*
X181523322Y-94603431D01*
X181548067Y-94242816D01*
X181501985Y-93884302D01*
X181386846Y-93541667D01*
X181267836Y-93319014D01*
X180982980Y-93199126D01*
X179884605Y-94297500D01*
X179525395Y-94297500D01*
X178427020Y-93199126D01*
X178142164Y-93319014D01*
X177981301Y-93642710D01*
X177886678Y-93991569D01*
X177861933Y-94352184D01*
X161921618Y-94352184D01*
X163254282Y-93019520D01*
X178606626Y-93019520D01*
X179705000Y-94117895D01*
X180803374Y-93019520D01*
X180683486Y-92734664D01*
X180359790Y-92573801D01*
X180010931Y-92479178D01*
X179650316Y-92454433D01*
X179291802Y-92500515D01*
X178949167Y-92615654D01*
X178726514Y-92734664D01*
X178606626Y-93019520D01*
X163254282Y-93019520D01*
X164959114Y-91314688D01*
X165141665Y-91351000D01*
X165424335Y-91351000D01*
X165701574Y-91295853D01*
X165962727Y-91187680D01*
X166197759Y-91030637D01*
X166397637Y-90830759D01*
X166554680Y-90595727D01*
X166662853Y-90334574D01*
X166718000Y-90057335D01*
X166718000Y-89774665D01*
X166662853Y-89497426D01*
X166554680Y-89236273D01*
X166474317Y-89116000D01*
X167344928Y-89116000D01*
X167344928Y-90716000D01*
X167357188Y-90840482D01*
X167393498Y-90960180D01*
X167452463Y-91070494D01*
X167531815Y-91167185D01*
X167628506Y-91246537D01*
X167738820Y-91305502D01*
X167858518Y-91341812D01*
X167983000Y-91354072D01*
X169583000Y-91354072D01*
X169707482Y-91341812D01*
X169827180Y-91305502D01*
X169937494Y-91246537D01*
X170034185Y-91167185D01*
X170113537Y-91070494D01*
X170172502Y-90960180D01*
X170208812Y-90840482D01*
X170221072Y-90716000D01*
X170221072Y-89116000D01*
X170208812Y-88991518D01*
X170172502Y-88871820D01*
X170113537Y-88761506D01*
X170034185Y-88664815D01*
X169937494Y-88585463D01*
X169827180Y-88526498D01*
X169707482Y-88490188D01*
X169583000Y-88477928D01*
X167983000Y-88477928D01*
X167858518Y-88490188D01*
X167738820Y-88526498D01*
X167628506Y-88585463D01*
X167531815Y-88664815D01*
X167452463Y-88761506D01*
X167393498Y-88871820D01*
X167357188Y-88991518D01*
X167344928Y-89116000D01*
X166474317Y-89116000D01*
X166397637Y-89001241D01*
X166197759Y-88801363D01*
X165962727Y-88644320D01*
X165701574Y-88536147D01*
X165424335Y-88481000D01*
X165141665Y-88481000D01*
X164864426Y-88536147D01*
X164603273Y-88644320D01*
X164368241Y-88801363D01*
X164168363Y-89001241D01*
X164011320Y-89236273D01*
X163903147Y-89497426D01*
X163848000Y-89774665D01*
X163848000Y-90057335D01*
X163884312Y-90239886D01*
X156136003Y-97988196D01*
X156106999Y-98011999D01*
X156051871Y-98079174D01*
X156012026Y-98127724D01*
X155971798Y-98202985D01*
X155941454Y-98259754D01*
X155897997Y-98403015D01*
X155887000Y-98514668D01*
X155887000Y-98514678D01*
X155883324Y-98552000D01*
X149273196Y-98552000D01*
X149098359Y-98377163D01*
X148865841Y-98221800D01*
X149098359Y-98066437D01*
X149298237Y-97866559D01*
X149455280Y-97631527D01*
X149563453Y-97370374D01*
X149618600Y-97093135D01*
X149618600Y-96810465D01*
X149563453Y-96533226D01*
X149455280Y-96272073D01*
X149298237Y-96037041D01*
X149098359Y-95837163D01*
X148863327Y-95680120D01*
X148602174Y-95571947D01*
X148324935Y-95516800D01*
X148042265Y-95516800D01*
X147765026Y-95571947D01*
X147503873Y-95680120D01*
X147268841Y-95837163D01*
X147068963Y-96037041D01*
X146911920Y-96272073D01*
X146803747Y-96533226D01*
X146748600Y-96810465D01*
X146748600Y-97093135D01*
X146803747Y-97370374D01*
X146911920Y-97631527D01*
X147068963Y-97866559D01*
X147268841Y-98066437D01*
X147501359Y-98221800D01*
X147268841Y-98377163D01*
X147068963Y-98577041D01*
X146911920Y-98812073D01*
X146803747Y-99073226D01*
X146748600Y-99350465D01*
X146748600Y-99633135D01*
X146784912Y-99815686D01*
X145107198Y-101493401D01*
X145078200Y-101517199D01*
X145054402Y-101546197D01*
X145054401Y-101546198D01*
X144983226Y-101632924D01*
X144912654Y-101764954D01*
X144882380Y-101864758D01*
X144869198Y-101908214D01*
X144861004Y-101991404D01*
X144854524Y-102057200D01*
X144858201Y-102094532D01*
X144858200Y-105272998D01*
X144665600Y-105465598D01*
X144665600Y-105294065D01*
X144610453Y-105016826D01*
X144502280Y-104755673D01*
X144345237Y-104520641D01*
X144145359Y-104320763D01*
X143912841Y-104165400D01*
X144145359Y-104010037D01*
X144345237Y-103810159D01*
X144502280Y-103575127D01*
X144610453Y-103313974D01*
X144665600Y-103036735D01*
X144665600Y-102754065D01*
X144610453Y-102476826D01*
X144502280Y-102215673D01*
X144345237Y-101980641D01*
X144145359Y-101780763D01*
X143912841Y-101625400D01*
X144145359Y-101470037D01*
X144345237Y-101270159D01*
X144502280Y-101035127D01*
X144610453Y-100773974D01*
X144665600Y-100496735D01*
X144665600Y-100214065D01*
X144610453Y-99936826D01*
X144502280Y-99675673D01*
X144345237Y-99440641D01*
X144145359Y-99240763D01*
X143912841Y-99085400D01*
X144145359Y-98930037D01*
X144345237Y-98730159D01*
X144502280Y-98495127D01*
X144610453Y-98233974D01*
X144665600Y-97956735D01*
X144665600Y-97674065D01*
X144610453Y-97396826D01*
X144502280Y-97135673D01*
X144345237Y-96900641D01*
X144145359Y-96700763D01*
X143910327Y-96543720D01*
X143899735Y-96539333D01*
X144085731Y-96427785D01*
X144294119Y-96238814D01*
X144461637Y-96012820D01*
X144581846Y-95758487D01*
X144622504Y-95624439D01*
X144500515Y-95402400D01*
X143357600Y-95402400D01*
X143357600Y-95422400D01*
X143103600Y-95422400D01*
X143103600Y-95402400D01*
X141960685Y-95402400D01*
X141838696Y-95624439D01*
X141879354Y-95758487D01*
X141960607Y-95930399D01*
X129272523Y-95930399D01*
X129370453Y-95693974D01*
X129425600Y-95416735D01*
X129425600Y-95134065D01*
X129370453Y-94856826D01*
X129262280Y-94595673D01*
X129105237Y-94360641D01*
X128905359Y-94160763D01*
X128672841Y-94005400D01*
X128905359Y-93850037D01*
X129105237Y-93650159D01*
X129262280Y-93415127D01*
X129370453Y-93153974D01*
X129425600Y-92876735D01*
X129425600Y-92594065D01*
X129370453Y-92316826D01*
X129262280Y-92055673D01*
X129105237Y-91820641D01*
X128905359Y-91620763D01*
X128672841Y-91465400D01*
X128905359Y-91310037D01*
X129105237Y-91110159D01*
X129262280Y-90875127D01*
X129370453Y-90613974D01*
X129425600Y-90336735D01*
X129425600Y-90054065D01*
X129370453Y-89776826D01*
X129262280Y-89515673D01*
X129105237Y-89280641D01*
X128905359Y-89080763D01*
X128672841Y-88925400D01*
X128905359Y-88770037D01*
X129105237Y-88570159D01*
X129262280Y-88335127D01*
X129370453Y-88073974D01*
X129425600Y-87796735D01*
X129425600Y-87514065D01*
X129370453Y-87236826D01*
X129262280Y-86975673D01*
X129181917Y-86855400D01*
X141792528Y-86855400D01*
X141792528Y-88455400D01*
X141804788Y-88579882D01*
X141841098Y-88699580D01*
X141900063Y-88809894D01*
X141979415Y-88906585D01*
X142076106Y-88985937D01*
X142186420Y-89044902D01*
X142306118Y-89081212D01*
X142314561Y-89082043D01*
X142115963Y-89280641D01*
X141958920Y-89515673D01*
X141850747Y-89776826D01*
X141795600Y-90054065D01*
X141795600Y-90336735D01*
X141850747Y-90613974D01*
X141958920Y-90875127D01*
X142115963Y-91110159D01*
X142315841Y-91310037D01*
X142548359Y-91465400D01*
X142315841Y-91620763D01*
X142115963Y-91820641D01*
X141958920Y-92055673D01*
X141850747Y-92316826D01*
X141795600Y-92594065D01*
X141795600Y-92876735D01*
X141850747Y-93153974D01*
X141958920Y-93415127D01*
X142115963Y-93650159D01*
X142315841Y-93850037D01*
X142550873Y-94007080D01*
X142561465Y-94011467D01*
X142375469Y-94123015D01*
X142167081Y-94311986D01*
X141999563Y-94537980D01*
X141879354Y-94792313D01*
X141838696Y-94926361D01*
X141960685Y-95148400D01*
X143103600Y-95148400D01*
X143103600Y-95128400D01*
X143357600Y-95128400D01*
X143357600Y-95148400D01*
X144500515Y-95148400D01*
X144622504Y-94926361D01*
X144581846Y-94792313D01*
X144461637Y-94537980D01*
X144294119Y-94311986D01*
X144085731Y-94123015D01*
X143899735Y-94011467D01*
X143910327Y-94007080D01*
X144145359Y-93850037D01*
X144345237Y-93650159D01*
X144502280Y-93415127D01*
X144610453Y-93153974D01*
X144665600Y-92876735D01*
X144665600Y-92594065D01*
X144610453Y-92316826D01*
X144568104Y-92214586D01*
X147360019Y-92214586D01*
X147420451Y-92449171D01*
X147660261Y-92560869D01*
X147917255Y-92623636D01*
X148181556Y-92635060D01*
X148443008Y-92594702D01*
X148691562Y-92504112D01*
X148794349Y-92449171D01*
X148854781Y-92214586D01*
X148107400Y-91467205D01*
X147360019Y-92214586D01*
X144568104Y-92214586D01*
X144502280Y-92055673D01*
X144345237Y-91820641D01*
X144145359Y-91620763D01*
X143912841Y-91465400D01*
X144067955Y-91361756D01*
X146759940Y-91361756D01*
X146800298Y-91623208D01*
X146890888Y-91871762D01*
X146945829Y-91974549D01*
X147180414Y-92034981D01*
X147927795Y-91287600D01*
X148287005Y-91287600D01*
X149034386Y-92034981D01*
X149268971Y-91974549D01*
X149380669Y-91734739D01*
X149443436Y-91477745D01*
X149454860Y-91213444D01*
X149448001Y-91169008D01*
X150500400Y-91169008D01*
X150500400Y-91444192D01*
X150554086Y-91714090D01*
X150659395Y-91968327D01*
X150812280Y-92197135D01*
X151006865Y-92391720D01*
X151235673Y-92544605D01*
X151489910Y-92649914D01*
X151759808Y-92703600D01*
X152034992Y-92703600D01*
X152304890Y-92649914D01*
X152559127Y-92544605D01*
X152787935Y-92391720D01*
X152982520Y-92197135D01*
X153041320Y-92109135D01*
X153049588Y-92193082D01*
X153085898Y-92312780D01*
X153144863Y-92423094D01*
X153224215Y-92519785D01*
X153320906Y-92599137D01*
X153431220Y-92658102D01*
X153550918Y-92694412D01*
X153675400Y-92706672D01*
X154151650Y-92703600D01*
X154310400Y-92544850D01*
X154310400Y-91433600D01*
X154290400Y-91433600D01*
X154290400Y-91179600D01*
X154310400Y-91179600D01*
X154310400Y-90068350D01*
X154564400Y-90068350D01*
X154564400Y-91179600D01*
X154584400Y-91179600D01*
X154584400Y-91433600D01*
X154564400Y-91433600D01*
X154564400Y-92544850D01*
X154723150Y-92703600D01*
X155199400Y-92706672D01*
X155323882Y-92694412D01*
X155443580Y-92658102D01*
X155553894Y-92599137D01*
X155650585Y-92519785D01*
X155729937Y-92423094D01*
X155788902Y-92312780D01*
X155825212Y-92193082D01*
X155833480Y-92109135D01*
X155892280Y-92197135D01*
X156086865Y-92391720D01*
X156315673Y-92544605D01*
X156569910Y-92649914D01*
X156839808Y-92703600D01*
X157114992Y-92703600D01*
X157384890Y-92649914D01*
X157639127Y-92544605D01*
X157867935Y-92391720D01*
X158062520Y-92197135D01*
X158215405Y-91968327D01*
X158247400Y-91891085D01*
X158279395Y-91968327D01*
X158432280Y-92197135D01*
X158626865Y-92391720D01*
X158855673Y-92544605D01*
X159109910Y-92649914D01*
X159379808Y-92703600D01*
X159654992Y-92703600D01*
X159924890Y-92649914D01*
X160179127Y-92544605D01*
X160407935Y-92391720D01*
X160602520Y-92197135D01*
X160755405Y-91968327D01*
X160860714Y-91714090D01*
X160914400Y-91444192D01*
X160914400Y-91169008D01*
X160860714Y-90899110D01*
X160755405Y-90644873D01*
X160602520Y-90416065D01*
X160407935Y-90221480D01*
X160179127Y-90068595D01*
X159924890Y-89963286D01*
X159654992Y-89909600D01*
X159379808Y-89909600D01*
X159109910Y-89963286D01*
X158855673Y-90068595D01*
X158626865Y-90221480D01*
X158432280Y-90416065D01*
X158279395Y-90644873D01*
X158247400Y-90722115D01*
X158215405Y-90644873D01*
X158062520Y-90416065D01*
X157867935Y-90221480D01*
X157639127Y-90068595D01*
X157384890Y-89963286D01*
X157114992Y-89909600D01*
X156839808Y-89909600D01*
X156569910Y-89963286D01*
X156315673Y-90068595D01*
X156086865Y-90221480D01*
X155892280Y-90416065D01*
X155833480Y-90504065D01*
X155825212Y-90420118D01*
X155788902Y-90300420D01*
X155729937Y-90190106D01*
X155650585Y-90093415D01*
X155553894Y-90014063D01*
X155443580Y-89955098D01*
X155323882Y-89918788D01*
X155199400Y-89906528D01*
X154723150Y-89909600D01*
X154564400Y-90068350D01*
X154310400Y-90068350D01*
X154151650Y-89909600D01*
X153675400Y-89906528D01*
X153550918Y-89918788D01*
X153431220Y-89955098D01*
X153320906Y-90014063D01*
X153224215Y-90093415D01*
X153144863Y-90190106D01*
X153085898Y-90300420D01*
X153049588Y-90420118D01*
X153041320Y-90504065D01*
X152982520Y-90416065D01*
X152787935Y-90221480D01*
X152559127Y-90068595D01*
X152304890Y-89963286D01*
X152034992Y-89909600D01*
X151759808Y-89909600D01*
X151489910Y-89963286D01*
X151235673Y-90068595D01*
X151006865Y-90221480D01*
X150812280Y-90416065D01*
X150659395Y-90644873D01*
X150554086Y-90899110D01*
X150500400Y-91169008D01*
X149448001Y-91169008D01*
X149414502Y-90951992D01*
X149323912Y-90703438D01*
X149268971Y-90600651D01*
X149034386Y-90540219D01*
X148287005Y-91287600D01*
X147927795Y-91287600D01*
X147180414Y-90540219D01*
X146945829Y-90600651D01*
X146834131Y-90840461D01*
X146771364Y-91097455D01*
X146759940Y-91361756D01*
X144067955Y-91361756D01*
X144145359Y-91310037D01*
X144345237Y-91110159D01*
X144502280Y-90875127D01*
X144610453Y-90613974D01*
X144665600Y-90336735D01*
X144665600Y-90054065D01*
X144610453Y-89776826D01*
X144502280Y-89515673D01*
X144345237Y-89280641D01*
X144146639Y-89082043D01*
X144155082Y-89081212D01*
X144274780Y-89044902D01*
X144385094Y-88985937D01*
X144481785Y-88906585D01*
X144561137Y-88809894D01*
X144620102Y-88699580D01*
X144645660Y-88615326D01*
X146764400Y-88615326D01*
X146764400Y-88879874D01*
X146816011Y-89139339D01*
X146917249Y-89383749D01*
X147064224Y-89603712D01*
X147251288Y-89790776D01*
X147471251Y-89937751D01*
X147666818Y-90018758D01*
X147523238Y-90071088D01*
X147420451Y-90126029D01*
X147360019Y-90360614D01*
X148107400Y-91107995D01*
X148854781Y-90360614D01*
X148794349Y-90126029D01*
X148556483Y-90015236D01*
X148743549Y-89937751D01*
X148963512Y-89790776D01*
X149150576Y-89603712D01*
X149297551Y-89383749D01*
X149398789Y-89139339D01*
X149450400Y-88879874D01*
X149450400Y-88615326D01*
X149398789Y-88355861D01*
X149297551Y-88111451D01*
X149150576Y-87891488D01*
X148963512Y-87704424D01*
X148743549Y-87557449D01*
X148499139Y-87456211D01*
X148239674Y-87404600D01*
X147975126Y-87404600D01*
X147715661Y-87456211D01*
X147471251Y-87557449D01*
X147251288Y-87704424D01*
X147064224Y-87891488D01*
X146917249Y-88111451D01*
X146816011Y-88355861D01*
X146764400Y-88615326D01*
X144645660Y-88615326D01*
X144656412Y-88579882D01*
X144668672Y-88455400D01*
X144668672Y-87268098D01*
X177193000Y-87268098D01*
X177193000Y-87737902D01*
X177284654Y-88198679D01*
X177464440Y-88632721D01*
X177725450Y-89023349D01*
X178057651Y-89355550D01*
X178448279Y-89616560D01*
X178882321Y-89796346D01*
X179343098Y-89888000D01*
X179812902Y-89888000D01*
X180273679Y-89796346D01*
X180707721Y-89616560D01*
X181098349Y-89355550D01*
X181430550Y-89023349D01*
X181691560Y-88632721D01*
X181871346Y-88198679D01*
X181963000Y-87737902D01*
X181963000Y-87268098D01*
X181871346Y-86807321D01*
X181691560Y-86373279D01*
X181430550Y-85982651D01*
X181098349Y-85650450D01*
X180707721Y-85389440D01*
X180273679Y-85209654D01*
X179812902Y-85118000D01*
X179343098Y-85118000D01*
X178882321Y-85209654D01*
X178448279Y-85389440D01*
X178057651Y-85650450D01*
X177725450Y-85982651D01*
X177464440Y-86373279D01*
X177284654Y-86807321D01*
X177193000Y-87268098D01*
X144668672Y-87268098D01*
X144668672Y-86855400D01*
X144656412Y-86730918D01*
X144620102Y-86611220D01*
X144561137Y-86500906D01*
X144481785Y-86404215D01*
X144385094Y-86324863D01*
X144274780Y-86265898D01*
X144155082Y-86229588D01*
X144030600Y-86217328D01*
X142430600Y-86217328D01*
X142306118Y-86229588D01*
X142186420Y-86265898D01*
X142076106Y-86324863D01*
X141979415Y-86404215D01*
X141900063Y-86500906D01*
X141841098Y-86611220D01*
X141804788Y-86730918D01*
X141792528Y-86855400D01*
X129181917Y-86855400D01*
X129105237Y-86740641D01*
X128905359Y-86540763D01*
X128670327Y-86383720D01*
X128409174Y-86275547D01*
X128131935Y-86220400D01*
X127849265Y-86220400D01*
X127572026Y-86275547D01*
X127310873Y-86383720D01*
X127075841Y-86540763D01*
X126875963Y-86740641D01*
X126718920Y-86975673D01*
X126610747Y-87236826D01*
X126555600Y-87514065D01*
X126555600Y-87796735D01*
X126610747Y-88073974D01*
X126718920Y-88335127D01*
X126875963Y-88570159D01*
X127075841Y-88770037D01*
X127308359Y-88925400D01*
X127075841Y-89080763D01*
X126875963Y-89280641D01*
X126718920Y-89515673D01*
X126610747Y-89776826D01*
X126555600Y-90054065D01*
X126555600Y-90336735D01*
X126610747Y-90613974D01*
X126718920Y-90875127D01*
X126875963Y-91110159D01*
X127075841Y-91310037D01*
X127308359Y-91465400D01*
X127075841Y-91620763D01*
X126875963Y-91820641D01*
X126718920Y-92055673D01*
X126610747Y-92316826D01*
X126555600Y-92594065D01*
X126555600Y-92876735D01*
X126610747Y-93153974D01*
X126718920Y-93415127D01*
X126875963Y-93650159D01*
X127075841Y-93850037D01*
X127308359Y-94005400D01*
X127075841Y-94160763D01*
X126875963Y-94360641D01*
X126718920Y-94595673D01*
X126610747Y-94856826D01*
X126555600Y-95134065D01*
X126555600Y-95416735D01*
X126610747Y-95693974D01*
X126708677Y-95930399D01*
X99711201Y-95930399D01*
X97577650Y-93796849D01*
X97622882Y-93687650D01*
X97693400Y-93333132D01*
X97693400Y-92971668D01*
X97622882Y-92617150D01*
X97484556Y-92283201D01*
X97283738Y-91982656D01*
X97028144Y-91727062D01*
X96727599Y-91526244D01*
X96393650Y-91387918D01*
X96039132Y-91317400D01*
X95677668Y-91317400D01*
X95323150Y-91387918D01*
X94989201Y-91526244D01*
X94688656Y-91727062D01*
X94433062Y-91982656D01*
X94232244Y-92283201D01*
X94187012Y-92392400D01*
X91029788Y-92392400D01*
X90984556Y-92283201D01*
X90783738Y-91982656D01*
X90528144Y-91727062D01*
X90227599Y-91526244D01*
X89893650Y-91387918D01*
X89539132Y-91317400D01*
X89177668Y-91317400D01*
X88823150Y-91387918D01*
X88489201Y-91526244D01*
X88188656Y-91727062D01*
X87933062Y-91982656D01*
X87732244Y-92283201D01*
X87593918Y-92617150D01*
X87523400Y-92971668D01*
X86258000Y-92971668D01*
X86258000Y-90651344D01*
X98633000Y-90651344D01*
X98633000Y-91022656D01*
X98705439Y-91386834D01*
X98847534Y-91729882D01*
X99053825Y-92038618D01*
X99316382Y-92301175D01*
X99625118Y-92507466D01*
X99968166Y-92649561D01*
X100332344Y-92722000D01*
X100703656Y-92722000D01*
X101067834Y-92649561D01*
X101410882Y-92507466D01*
X101719618Y-92301175D01*
X101982175Y-92038618D01*
X102188466Y-91729882D01*
X102330561Y-91386834D01*
X102403000Y-91022656D01*
X102403000Y-90651344D01*
X122133000Y-90651344D01*
X122133000Y-91022656D01*
X122205439Y-91386834D01*
X122347534Y-91729882D01*
X122553825Y-92038618D01*
X122816382Y-92301175D01*
X123125118Y-92507466D01*
X123468166Y-92649561D01*
X123832344Y-92722000D01*
X124203656Y-92722000D01*
X124567834Y-92649561D01*
X124910882Y-92507466D01*
X125219618Y-92301175D01*
X125482175Y-92038618D01*
X125688466Y-91729882D01*
X125830561Y-91386834D01*
X125903000Y-91022656D01*
X125903000Y-90651344D01*
X125830561Y-90287166D01*
X125688466Y-89944118D01*
X125482175Y-89635382D01*
X125219618Y-89372825D01*
X124910882Y-89166534D01*
X124567834Y-89024439D01*
X124203656Y-88952000D01*
X123832344Y-88952000D01*
X123468166Y-89024439D01*
X123125118Y-89166534D01*
X122816382Y-89372825D01*
X122553825Y-89635382D01*
X122347534Y-89944118D01*
X122205439Y-90287166D01*
X122133000Y-90651344D01*
X102403000Y-90651344D01*
X102330561Y-90287166D01*
X102188466Y-89944118D01*
X101982175Y-89635382D01*
X101719618Y-89372825D01*
X101410882Y-89166534D01*
X101067834Y-89024439D01*
X100703656Y-88952000D01*
X100332344Y-88952000D01*
X99968166Y-89024439D01*
X99625118Y-89166534D01*
X99316382Y-89372825D01*
X99053825Y-89635382D01*
X98847534Y-89944118D01*
X98705439Y-90287166D01*
X98633000Y-90651344D01*
X86258000Y-90651344D01*
X86258000Y-87268098D01*
X88115200Y-87268098D01*
X88115200Y-87737902D01*
X88206854Y-88198679D01*
X88386640Y-88632721D01*
X88647650Y-89023349D01*
X88979851Y-89355550D01*
X89370479Y-89616560D01*
X89804521Y-89796346D01*
X90265298Y-89888000D01*
X90735102Y-89888000D01*
X91195879Y-89796346D01*
X91629921Y-89616560D01*
X92020549Y-89355550D01*
X92352750Y-89023349D01*
X92613760Y-88632721D01*
X92793546Y-88198679D01*
X92885200Y-87737902D01*
X92885200Y-87268098D01*
X92793546Y-86807321D01*
X92613760Y-86373279D01*
X92352750Y-85982651D01*
X92020549Y-85650450D01*
X91629921Y-85389440D01*
X91195879Y-85209654D01*
X90735102Y-85118000D01*
X90265298Y-85118000D01*
X89804521Y-85209654D01*
X89370479Y-85389440D01*
X88979851Y-85650450D01*
X88647650Y-85982651D01*
X88386640Y-86373279D01*
X88206854Y-86807321D01*
X88115200Y-87268098D01*
X86258000Y-87268098D01*
X86258000Y-83718000D01*
X183998000Y-83718000D01*
X183998001Y-128118000D01*
%TA.AperFunction,Conductor*%
D25*
G36*
X183998001Y-128118000D02*
G01*
X123351434Y-128118000D01*
X123439471Y-127986243D01*
X123543875Y-127734189D01*
X123597100Y-127466611D01*
X123597100Y-127193789D01*
X123543875Y-126926211D01*
X123439471Y-126674157D01*
X123287899Y-126447314D01*
X123094986Y-126254401D01*
X122868143Y-126102829D01*
X122616089Y-125998425D01*
X122348511Y-125945200D01*
X122075689Y-125945200D01*
X121808111Y-125998425D01*
X121556057Y-126102829D01*
X121329214Y-126254401D01*
X121136301Y-126447314D01*
X120984729Y-126674157D01*
X120880325Y-126926211D01*
X120827100Y-127193789D01*
X120827100Y-127466611D01*
X120880325Y-127734189D01*
X120984729Y-127986243D01*
X121072766Y-128118000D01*
X86258000Y-128118000D01*
X86258000Y-123463098D01*
X88293000Y-123463098D01*
X88293000Y-123932902D01*
X88384654Y-124393679D01*
X88564440Y-124827721D01*
X88825450Y-125218349D01*
X89157651Y-125550550D01*
X89548279Y-125811560D01*
X89982321Y-125991346D01*
X90443098Y-126083000D01*
X90912902Y-126083000D01*
X91373679Y-125991346D01*
X91807721Y-125811560D01*
X92198349Y-125550550D01*
X92530550Y-125218349D01*
X92661687Y-125022089D01*
X95878100Y-125022089D01*
X95878100Y-125294911D01*
X95931325Y-125562489D01*
X96035729Y-125814543D01*
X96187301Y-126041386D01*
X96380214Y-126234299D01*
X96607057Y-126385871D01*
X96859111Y-126490275D01*
X97126689Y-126543500D01*
X97399511Y-126543500D01*
X97667089Y-126490275D01*
X97919143Y-126385871D01*
X98145986Y-126234299D01*
X98338899Y-126041386D01*
X98490471Y-125814543D01*
X98594875Y-125562489D01*
X98648100Y-125294911D01*
X98648100Y-125022089D01*
X103428100Y-125022089D01*
X103428100Y-125294911D01*
X103481325Y-125562489D01*
X103585729Y-125814543D01*
X103737301Y-126041386D01*
X103930214Y-126234299D01*
X104157057Y-126385871D01*
X104409111Y-126490275D01*
X104676689Y-126543500D01*
X104949511Y-126543500D01*
X105217089Y-126490275D01*
X105469143Y-126385871D01*
X105695986Y-126234299D01*
X105888899Y-126041386D01*
X106040471Y-125814543D01*
X106144875Y-125562489D01*
X106198100Y-125294911D01*
X106198100Y-125022089D01*
X106144875Y-124754511D01*
X106040471Y-124502457D01*
X105922699Y-124326199D01*
X106670528Y-124326199D01*
X106670528Y-126016201D01*
X106687592Y-126189455D01*
X106738128Y-126356051D01*
X106820195Y-126509587D01*
X106930638Y-126644162D01*
X107065213Y-126754605D01*
X107218749Y-126836672D01*
X107385345Y-126887208D01*
X107558599Y-126904272D01*
X108798601Y-126904272D01*
X108971855Y-126887208D01*
X109138451Y-126836672D01*
X109291987Y-126754605D01*
X109426562Y-126644162D01*
X109537005Y-126509587D01*
X109595255Y-126400610D01*
X109752274Y-126559506D01*
X109997791Y-126725674D01*
X110271009Y-126840751D01*
X110358569Y-126857502D01*
X110591600Y-126736446D01*
X110591600Y-125298200D01*
X110571600Y-125298200D01*
X110571600Y-125044200D01*
X110591600Y-125044200D01*
X110591600Y-123605954D01*
X110845600Y-123605954D01*
X110845600Y-125044200D01*
X110865600Y-125044200D01*
X110865600Y-125298200D01*
X110845600Y-125298200D01*
X110845600Y-126736446D01*
X111078631Y-126857502D01*
X111166191Y-126840751D01*
X111439409Y-126725674D01*
X111684926Y-126559506D01*
X111893308Y-126348633D01*
X111986040Y-126208048D01*
X112001183Y-126236379D01*
X112189255Y-126465545D01*
X112418422Y-126653617D01*
X112679876Y-126793366D01*
X112963569Y-126879424D01*
X113258600Y-126908482D01*
X113553632Y-126879424D01*
X113837325Y-126793366D01*
X114098779Y-126653617D01*
X114327945Y-126465545D01*
X114516017Y-126236379D01*
X114531160Y-126208048D01*
X114623892Y-126348633D01*
X114832274Y-126559506D01*
X115077791Y-126725674D01*
X115351009Y-126840751D01*
X115438569Y-126857502D01*
X115671600Y-126736446D01*
X115671600Y-125298200D01*
X115651600Y-125298200D01*
X115651600Y-125044200D01*
X115671600Y-125044200D01*
X115671600Y-123605954D01*
X115925600Y-123605954D01*
X115925600Y-125044200D01*
X115945600Y-125044200D01*
X115945600Y-125298200D01*
X115925600Y-125298200D01*
X115925600Y-126736446D01*
X116158631Y-126857502D01*
X116246191Y-126840751D01*
X116519409Y-126725674D01*
X116764926Y-126559506D01*
X116973308Y-126348633D01*
X117066040Y-126208048D01*
X117081183Y-126236379D01*
X117269255Y-126465545D01*
X117498422Y-126653617D01*
X117759876Y-126793366D01*
X118043569Y-126879424D01*
X118338600Y-126908482D01*
X118633632Y-126879424D01*
X118917325Y-126793366D01*
X119178779Y-126653617D01*
X119407945Y-126465545D01*
X119596017Y-126236379D01*
X119735766Y-125974924D01*
X119821824Y-125691231D01*
X119843600Y-125470135D01*
X119843600Y-124872264D01*
X119821824Y-124651168D01*
X119735766Y-124367475D01*
X119596017Y-124106021D01*
X119407945Y-123876855D01*
X119178778Y-123688783D01*
X118917324Y-123549034D01*
X118633631Y-123462976D01*
X118338600Y-123433918D01*
X118043568Y-123462976D01*
X117759875Y-123549034D01*
X117498421Y-123688783D01*
X117269255Y-123876855D01*
X117081183Y-124106022D01*
X117066040Y-124134352D01*
X116973308Y-123993767D01*
X116764926Y-123782894D01*
X116519409Y-123616726D01*
X116246191Y-123501649D01*
X116158631Y-123484898D01*
X115925600Y-123605954D01*
X115671600Y-123605954D01*
X115438569Y-123484898D01*
X115351009Y-123501649D01*
X115077791Y-123616726D01*
X114832274Y-123782894D01*
X114623892Y-123993767D01*
X114531160Y-124134352D01*
X114516017Y-124106021D01*
X114327945Y-123876855D01*
X114098778Y-123688783D01*
X113837324Y-123549034D01*
X113553631Y-123462976D01*
X113258600Y-123433918D01*
X112963568Y-123462976D01*
X112679875Y-123549034D01*
X112418421Y-123688783D01*
X112189255Y-123876855D01*
X112001183Y-124106022D01*
X111986040Y-124134352D01*
X111893308Y-123993767D01*
X111684926Y-123782894D01*
X111439409Y-123616726D01*
X111166191Y-123501649D01*
X111078631Y-123484898D01*
X110845600Y-123605954D01*
X110591600Y-123605954D01*
X110358569Y-123484898D01*
X110271009Y-123501649D01*
X109997791Y-123616726D01*
X109752274Y-123782894D01*
X109595255Y-123941790D01*
X109537005Y-123832813D01*
X109426562Y-123698238D01*
X109291987Y-123587795D01*
X109138451Y-123505728D01*
X108971855Y-123455192D01*
X108798601Y-123438128D01*
X107558599Y-123438128D01*
X107385345Y-123455192D01*
X107218749Y-123505728D01*
X107065213Y-123587795D01*
X106930638Y-123698238D01*
X106820195Y-123832813D01*
X106738128Y-123986349D01*
X106687592Y-124152945D01*
X106670528Y-124326199D01*
X105922699Y-124326199D01*
X105888899Y-124275614D01*
X105695986Y-124082701D01*
X105469143Y-123931129D01*
X105217089Y-123826725D01*
X104949511Y-123773500D01*
X104676689Y-123773500D01*
X104409111Y-123826725D01*
X104157057Y-123931129D01*
X103930214Y-124082701D01*
X103737301Y-124275614D01*
X103585729Y-124502457D01*
X103481325Y-124754511D01*
X103428100Y-125022089D01*
X98648100Y-125022089D01*
X98594875Y-124754511D01*
X98490471Y-124502457D01*
X98338899Y-124275614D01*
X98145986Y-124082701D01*
X97919143Y-123931129D01*
X97667089Y-123826725D01*
X97399511Y-123773500D01*
X97126689Y-123773500D01*
X96859111Y-123826725D01*
X96607057Y-123931129D01*
X96380214Y-124082701D01*
X96187301Y-124275614D01*
X96035729Y-124502457D01*
X95931325Y-124754511D01*
X95878100Y-125022089D01*
X92661687Y-125022089D01*
X92791560Y-124827721D01*
X92971346Y-124393679D01*
X93063000Y-123932902D01*
X93063000Y-123463098D01*
X92971346Y-123002321D01*
X92791560Y-122568279D01*
X92530550Y-122177651D01*
X92198349Y-121845450D01*
X91807721Y-121584440D01*
X91373679Y-121404654D01*
X90912902Y-121313000D01*
X90443098Y-121313000D01*
X89982321Y-121404654D01*
X89548279Y-121584440D01*
X89157651Y-121845450D01*
X88825450Y-122177651D01*
X88564440Y-122568279D01*
X88384654Y-123002321D01*
X88293000Y-123463098D01*
X86258000Y-123463098D01*
X86258000Y-120793789D01*
X120827100Y-120793789D01*
X120827100Y-121066611D01*
X120880325Y-121334189D01*
X120984729Y-121586243D01*
X121136301Y-121813086D01*
X121329214Y-122005999D01*
X121556057Y-122157571D01*
X121808111Y-122261975D01*
X122075689Y-122315200D01*
X122348511Y-122315200D01*
X122616089Y-122261975D01*
X122868143Y-122157571D01*
X123094986Y-122005999D01*
X123287899Y-121813086D01*
X123439471Y-121586243D01*
X123543875Y-121334189D01*
X123597100Y-121066611D01*
X123597100Y-120793789D01*
X123543875Y-120526211D01*
X123439471Y-120274157D01*
X123287899Y-120047314D01*
X123094986Y-119854401D01*
X122868143Y-119702829D01*
X122616089Y-119598425D01*
X122348511Y-119545200D01*
X122075689Y-119545200D01*
X121808111Y-119598425D01*
X121556057Y-119702829D01*
X121329214Y-119854401D01*
X121136301Y-120047314D01*
X120984729Y-120274157D01*
X120880325Y-120526211D01*
X120827100Y-120793789D01*
X86258000Y-120793789D01*
X86258000Y-119250380D01*
X88260026Y-119250380D01*
X88379914Y-119535236D01*
X88703610Y-119696099D01*
X89052469Y-119790722D01*
X89413084Y-119815467D01*
X89771598Y-119769385D01*
X90114233Y-119654246D01*
X90336886Y-119535236D01*
X90456774Y-119250380D01*
X94760026Y-119250380D01*
X94879914Y-119535236D01*
X95203610Y-119696099D01*
X95552469Y-119790722D01*
X95913084Y-119815467D01*
X96271598Y-119769385D01*
X96614233Y-119654246D01*
X96836886Y-119535236D01*
X96956774Y-119250380D01*
X95858400Y-118152005D01*
X94760026Y-119250380D01*
X90456774Y-119250380D01*
X89358400Y-118152005D01*
X88260026Y-119250380D01*
X86258000Y-119250380D01*
X86258000Y-118027084D01*
X87515333Y-118027084D01*
X87561415Y-118385598D01*
X87676554Y-118728233D01*
X87795564Y-118950886D01*
X88080420Y-119070774D01*
X89178795Y-117972400D01*
X89538005Y-117972400D01*
X90636380Y-119070774D01*
X90921236Y-118950886D01*
X91082099Y-118627190D01*
X91176722Y-118278331D01*
X91193962Y-118027084D01*
X94015333Y-118027084D01*
X94061415Y-118385598D01*
X94176554Y-118728233D01*
X94295564Y-118950886D01*
X94580420Y-119070774D01*
X95678795Y-117972400D01*
X96038005Y-117972400D01*
X97136380Y-119070774D01*
X97421236Y-118950886D01*
X97582099Y-118627190D01*
X97676722Y-118278331D01*
X97701467Y-117917716D01*
X97655385Y-117559202D01*
X97540246Y-117216567D01*
X97421236Y-116993914D01*
X97136380Y-116874026D01*
X96038005Y-117972400D01*
X95678795Y-117972400D01*
X94580420Y-116874026D01*
X94295564Y-116993914D01*
X94134701Y-117317610D01*
X94040078Y-117666469D01*
X94015333Y-118027084D01*
X91193962Y-118027084D01*
X91201467Y-117917716D01*
X91155385Y-117559202D01*
X91040246Y-117216567D01*
X90921236Y-116993914D01*
X90636380Y-116874026D01*
X89538005Y-117972400D01*
X89178795Y-117972400D01*
X88080420Y-116874026D01*
X87795564Y-116993914D01*
X87634701Y-117317610D01*
X87540078Y-117666469D01*
X87515333Y-118027084D01*
X86258000Y-118027084D01*
X86258000Y-116694420D01*
X88260026Y-116694420D01*
X89358400Y-117792795D01*
X90456774Y-116694420D01*
X94760026Y-116694420D01*
X95858400Y-117792795D01*
X96956774Y-116694420D01*
X96836886Y-116409564D01*
X96513190Y-116248701D01*
X96164331Y-116154078D01*
X95803716Y-116129333D01*
X95445202Y-116175415D01*
X95102567Y-116290554D01*
X94879914Y-116409564D01*
X94760026Y-116694420D01*
X90456774Y-116694420D01*
X90336886Y-116409564D01*
X90013190Y-116248701D01*
X89664331Y-116154078D01*
X89303716Y-116129333D01*
X88945202Y-116175415D01*
X88602567Y-116290554D01*
X88379914Y-116409564D01*
X88260026Y-116694420D01*
X86258000Y-116694420D01*
X86258000Y-109090380D01*
X88260026Y-109090380D01*
X88379914Y-109375236D01*
X88703610Y-109536099D01*
X89052469Y-109630722D01*
X89413084Y-109655467D01*
X89771598Y-109609385D01*
X90114233Y-109494246D01*
X90336886Y-109375236D01*
X90456774Y-109090380D01*
X94760026Y-109090380D01*
X94879914Y-109375236D01*
X95203610Y-109536099D01*
X95552469Y-109630722D01*
X95913084Y-109655467D01*
X96271598Y-109609385D01*
X96614233Y-109494246D01*
X96836886Y-109375236D01*
X96956774Y-109090380D01*
X95858400Y-107992005D01*
X94760026Y-109090380D01*
X90456774Y-109090380D01*
X89358400Y-107992005D01*
X88260026Y-109090380D01*
X86258000Y-109090380D01*
X86258000Y-107867084D01*
X87515333Y-107867084D01*
X87561415Y-108225598D01*
X87676554Y-108568233D01*
X87795564Y-108790886D01*
X88080420Y-108910774D01*
X89178795Y-107812400D01*
X89538005Y-107812400D01*
X90636380Y-108910774D01*
X90921236Y-108790886D01*
X91082099Y-108467190D01*
X91176722Y-108118331D01*
X91193962Y-107867084D01*
X94015333Y-107867084D01*
X94061415Y-108225598D01*
X94176554Y-108568233D01*
X94295564Y-108790886D01*
X94580420Y-108910774D01*
X95678795Y-107812400D01*
X96038005Y-107812400D01*
X97136380Y-108910774D01*
X97421236Y-108790886D01*
X97582099Y-108467190D01*
X97676722Y-108118331D01*
X97701467Y-107757716D01*
X97655385Y-107399202D01*
X97540246Y-107056567D01*
X97421236Y-106833914D01*
X97136380Y-106714026D01*
X96038005Y-107812400D01*
X95678795Y-107812400D01*
X94580420Y-106714026D01*
X94295564Y-106833914D01*
X94134701Y-107157610D01*
X94040078Y-107506469D01*
X94015333Y-107867084D01*
X91193962Y-107867084D01*
X91201467Y-107757716D01*
X91155385Y-107399202D01*
X91040246Y-107056567D01*
X90921236Y-106833914D01*
X90636380Y-106714026D01*
X89538005Y-107812400D01*
X89178795Y-107812400D01*
X88080420Y-106714026D01*
X87795564Y-106833914D01*
X87634701Y-107157610D01*
X87540078Y-107506469D01*
X87515333Y-107867084D01*
X86258000Y-107867084D01*
X86258000Y-106534420D01*
X88260026Y-106534420D01*
X89358400Y-107632795D01*
X90456774Y-106534420D01*
X94760026Y-106534420D01*
X95858400Y-107632795D01*
X96956774Y-106534420D01*
X96836886Y-106249564D01*
X96513190Y-106088701D01*
X96164331Y-105994078D01*
X95803716Y-105969333D01*
X95445202Y-106015415D01*
X95102567Y-106130554D01*
X94879914Y-106249564D01*
X94760026Y-106534420D01*
X90456774Y-106534420D01*
X90336886Y-106249564D01*
X90013190Y-106088701D01*
X89664331Y-105994078D01*
X89303716Y-105969333D01*
X88945202Y-106015415D01*
X88602567Y-106130554D01*
X88379914Y-106249564D01*
X88260026Y-106534420D01*
X86258000Y-106534420D01*
X86258000Y-98930380D01*
X88260026Y-98930380D01*
X88379914Y-99215236D01*
X88703610Y-99376099D01*
X89052469Y-99470722D01*
X89413084Y-99495467D01*
X89771598Y-99449385D01*
X90114233Y-99334246D01*
X90336886Y-99215236D01*
X90456774Y-98930380D01*
X94760026Y-98930380D01*
X94879914Y-99215236D01*
X95203610Y-99376099D01*
X95552469Y-99470722D01*
X95913084Y-99495467D01*
X96271598Y-99449385D01*
X96614233Y-99334246D01*
X96836886Y-99215236D01*
X96956774Y-98930380D01*
X95858400Y-97832005D01*
X94760026Y-98930380D01*
X90456774Y-98930380D01*
X89358400Y-97832005D01*
X88260026Y-98930380D01*
X86258000Y-98930380D01*
X86258000Y-97707084D01*
X87515333Y-97707084D01*
X87561415Y-98065598D01*
X87676554Y-98408233D01*
X87795564Y-98630886D01*
X88080420Y-98750774D01*
X89178795Y-97652400D01*
X89538005Y-97652400D01*
X90636380Y-98750774D01*
X90921236Y-98630886D01*
X91082099Y-98307190D01*
X91176722Y-97958331D01*
X91193962Y-97707084D01*
X94015333Y-97707084D01*
X94061415Y-98065598D01*
X94176554Y-98408233D01*
X94295564Y-98630886D01*
X94580420Y-98750774D01*
X95678795Y-97652400D01*
X96038005Y-97652400D01*
X97136380Y-98750774D01*
X97421236Y-98630886D01*
X97582099Y-98307190D01*
X97676722Y-97958331D01*
X97701467Y-97597716D01*
X97655385Y-97239202D01*
X97540246Y-96896567D01*
X97421236Y-96673914D01*
X97136380Y-96554026D01*
X96038005Y-97652400D01*
X95678795Y-97652400D01*
X94580420Y-96554026D01*
X94295564Y-96673914D01*
X94134701Y-96997610D01*
X94040078Y-97346469D01*
X94015333Y-97707084D01*
X91193962Y-97707084D01*
X91201467Y-97597716D01*
X91155385Y-97239202D01*
X91040246Y-96896567D01*
X90921236Y-96673914D01*
X90636380Y-96554026D01*
X89538005Y-97652400D01*
X89178795Y-97652400D01*
X88080420Y-96554026D01*
X87795564Y-96673914D01*
X87634701Y-96997610D01*
X87540078Y-97346469D01*
X87515333Y-97707084D01*
X86258000Y-97707084D01*
X86258000Y-96374420D01*
X88260026Y-96374420D01*
X89358400Y-97472795D01*
X90456774Y-96374420D01*
X94760026Y-96374420D01*
X95858400Y-97472795D01*
X96956774Y-96374420D01*
X96836886Y-96089564D01*
X96513190Y-95928701D01*
X96164331Y-95834078D01*
X95803716Y-95809333D01*
X95445202Y-95855415D01*
X95102567Y-95970554D01*
X94879914Y-96089564D01*
X94760026Y-96374420D01*
X90456774Y-96374420D01*
X90336886Y-96089564D01*
X90013190Y-95928701D01*
X89664331Y-95834078D01*
X89303716Y-95809333D01*
X88945202Y-95855415D01*
X88602567Y-95970554D01*
X88379914Y-96089564D01*
X88260026Y-96374420D01*
X86258000Y-96374420D01*
X86258000Y-92971668D01*
X87523400Y-92971668D01*
X87523400Y-93333132D01*
X87593918Y-93687650D01*
X87732244Y-94021599D01*
X87933062Y-94322144D01*
X88188656Y-94577738D01*
X88489201Y-94778556D01*
X88823150Y-94916882D01*
X89177668Y-94987400D01*
X89539132Y-94987400D01*
X89893650Y-94916882D01*
X90227599Y-94778556D01*
X90528144Y-94577738D01*
X90783738Y-94322144D01*
X90984556Y-94021599D01*
X91029788Y-93912400D01*
X94187012Y-93912400D01*
X94232244Y-94021599D01*
X94433062Y-94322144D01*
X94688656Y-94577738D01*
X94989201Y-94778556D01*
X95323150Y-94916882D01*
X95677668Y-94987400D01*
X96039132Y-94987400D01*
X96393650Y-94916882D01*
X96502849Y-94871650D01*
X98832599Y-97201401D01*
X98856398Y-97230400D01*
X98972123Y-97325373D01*
X99104152Y-97395945D01*
X99247413Y-97439402D01*
X99359066Y-97450399D01*
X99359075Y-97450399D01*
X99396398Y-97454075D01*
X99433721Y-97450399D01*
X126600091Y-97450399D01*
X126555600Y-97674065D01*
X126555600Y-97956735D01*
X126610747Y-98233974D01*
X126718920Y-98495127D01*
X126875963Y-98730159D01*
X127075841Y-98930037D01*
X127308359Y-99085400D01*
X127075841Y-99240763D01*
X126875963Y-99440641D01*
X126718920Y-99675673D01*
X126610747Y-99936826D01*
X126555600Y-100214065D01*
X126555600Y-100496735D01*
X126600091Y-100720401D01*
X97727722Y-100720401D01*
X97690399Y-100716725D01*
X97653076Y-100720401D01*
X97653066Y-100720401D01*
X97541413Y-100731398D01*
X97398152Y-100774855D01*
X97266123Y-100845427D01*
X97150398Y-100940400D01*
X97126600Y-100969398D01*
X96502849Y-101593150D01*
X96393650Y-101547918D01*
X96039132Y-101477400D01*
X95677668Y-101477400D01*
X95323150Y-101547918D01*
X94989201Y-101686244D01*
X94688656Y-101887062D01*
X94433062Y-102142656D01*
X94232244Y-102443201D01*
X94187012Y-102552400D01*
X91029788Y-102552400D01*
X90984556Y-102443201D01*
X90783738Y-102142656D01*
X90528144Y-101887062D01*
X90227599Y-101686244D01*
X89893650Y-101547918D01*
X89539132Y-101477400D01*
X89177668Y-101477400D01*
X88823150Y-101547918D01*
X88489201Y-101686244D01*
X88188656Y-101887062D01*
X87933062Y-102142656D01*
X87732244Y-102443201D01*
X87593918Y-102777150D01*
X87523400Y-103131668D01*
X87523400Y-103493132D01*
X87593918Y-103847650D01*
X87732244Y-104181599D01*
X87933062Y-104482144D01*
X88188656Y-104737738D01*
X88489201Y-104938556D01*
X88823150Y-105076882D01*
X89177668Y-105147400D01*
X89539132Y-105147400D01*
X89893650Y-105076882D01*
X90227599Y-104938556D01*
X90528144Y-104737738D01*
X90783738Y-104482144D01*
X90984556Y-104181599D01*
X91029788Y-104072400D01*
X94187012Y-104072400D01*
X94232244Y-104181599D01*
X94433062Y-104482144D01*
X94688656Y-104737738D01*
X94989201Y-104938556D01*
X95323150Y-105076882D01*
X95677668Y-105147400D01*
X96039132Y-105147400D01*
X96393650Y-105076882D01*
X96727599Y-104938556D01*
X97028144Y-104737738D01*
X97283738Y-104482144D01*
X97484556Y-104181599D01*
X97622882Y-103847650D01*
X97693400Y-103493132D01*
X97693400Y-103131668D01*
X97622882Y-102777150D01*
X97577650Y-102667951D01*
X98005201Y-102240401D01*
X126708677Y-102240401D01*
X126610747Y-102476826D01*
X126555600Y-102754065D01*
X126555600Y-103036735D01*
X126610747Y-103313974D01*
X126708677Y-103550399D01*
X105057723Y-103550399D01*
X105020400Y-103546723D01*
X104983077Y-103550399D01*
X104983068Y-103550399D01*
X104871415Y-103561396D01*
X104728836Y-103604646D01*
X104728154Y-103604853D01*
X104596124Y-103675425D01*
X104521490Y-103736676D01*
X104480400Y-103770398D01*
X104456602Y-103799396D01*
X96502849Y-111753150D01*
X96393650Y-111707918D01*
X96039132Y-111637400D01*
X95677668Y-111637400D01*
X95323150Y-111707918D01*
X94989201Y-111846244D01*
X94688656Y-112047062D01*
X94433062Y-112302656D01*
X94232244Y-112603201D01*
X94187012Y-112712400D01*
X91029788Y-112712400D01*
X90984556Y-112603201D01*
X90783738Y-112302656D01*
X90528144Y-112047062D01*
X90227599Y-111846244D01*
X89893650Y-111707918D01*
X89539132Y-111637400D01*
X89177668Y-111637400D01*
X88823150Y-111707918D01*
X88489201Y-111846244D01*
X88188656Y-112047062D01*
X87933062Y-112302656D01*
X87732244Y-112603201D01*
X87593918Y-112937150D01*
X87523400Y-113291668D01*
X87523400Y-113653132D01*
X87593918Y-114007650D01*
X87732244Y-114341599D01*
X87933062Y-114642144D01*
X88188656Y-114897738D01*
X88489201Y-115098556D01*
X88823150Y-115236882D01*
X89177668Y-115307400D01*
X89539132Y-115307400D01*
X89893650Y-115236882D01*
X90227599Y-115098556D01*
X90528144Y-114897738D01*
X90783738Y-114642144D01*
X90984556Y-114341599D01*
X91029788Y-114232400D01*
X94187012Y-114232400D01*
X94232244Y-114341599D01*
X94433062Y-114642144D01*
X94688656Y-114897738D01*
X94989201Y-115098556D01*
X95323150Y-115236882D01*
X95677668Y-115307400D01*
X96039132Y-115307400D01*
X96393650Y-115236882D01*
X96727599Y-115098556D01*
X97028144Y-114897738D01*
X97283738Y-114642144D01*
X97410558Y-114452344D01*
X98633000Y-114452344D01*
X98633000Y-114823656D01*
X98705439Y-115187834D01*
X98847534Y-115530882D01*
X99053825Y-115839618D01*
X99316382Y-116102175D01*
X99625118Y-116308466D01*
X99968166Y-116450561D01*
X100332344Y-116523000D01*
X100703656Y-116523000D01*
X101067834Y-116450561D01*
X101410882Y-116308466D01*
X101719618Y-116102175D01*
X101982175Y-115839618D01*
X102188466Y-115530882D01*
X102283410Y-115301665D01*
X107023000Y-115301665D01*
X107023000Y-115584335D01*
X107078147Y-115861574D01*
X107186320Y-116122727D01*
X107343363Y-116357759D01*
X107543241Y-116557637D01*
X107778273Y-116714680D01*
X108039426Y-116822853D01*
X108316665Y-116878000D01*
X108599335Y-116878000D01*
X108876574Y-116822853D01*
X109137727Y-116714680D01*
X109372759Y-116557637D01*
X109572637Y-116357759D01*
X109728000Y-116125241D01*
X109883363Y-116357759D01*
X110083241Y-116557637D01*
X110318273Y-116714680D01*
X110579426Y-116822853D01*
X110856665Y-116878000D01*
X111139335Y-116878000D01*
X111416574Y-116822853D01*
X111677727Y-116714680D01*
X111912759Y-116557637D01*
X112112637Y-116357759D01*
X112268000Y-116125241D01*
X112423363Y-116357759D01*
X112623241Y-116557637D01*
X112858273Y-116714680D01*
X113119426Y-116822853D01*
X113396665Y-116878000D01*
X113679335Y-116878000D01*
X113956574Y-116822853D01*
X114217727Y-116714680D01*
X114452759Y-116557637D01*
X114651357Y-116359039D01*
X114652188Y-116367482D01*
X114688498Y-116487180D01*
X114747463Y-116597494D01*
X114826815Y-116694185D01*
X114923506Y-116773537D01*
X115033820Y-116832502D01*
X115153518Y-116868812D01*
X115278000Y-116881072D01*
X115792250Y-116878000D01*
X115951000Y-116719250D01*
X115951000Y-115570000D01*
X116205000Y-115570000D01*
X116205000Y-116719250D01*
X116363750Y-116878000D01*
X116878000Y-116881072D01*
X117002482Y-116868812D01*
X117122180Y-116832502D01*
X117232494Y-116773537D01*
X117329185Y-116694185D01*
X117408537Y-116597494D01*
X117467502Y-116487180D01*
X117503812Y-116367482D01*
X117516072Y-116243000D01*
X117513000Y-115728750D01*
X117354250Y-115570000D01*
X116205000Y-115570000D01*
X115951000Y-115570000D01*
X115931000Y-115570000D01*
X115931000Y-115316000D01*
X115951000Y-115316000D01*
X115951000Y-114166750D01*
X116205000Y-114166750D01*
X116205000Y-115316000D01*
X117354250Y-115316000D01*
X117513000Y-115157250D01*
X117516072Y-114643000D01*
X117503812Y-114518518D01*
X117483435Y-114451344D01*
X122133000Y-114451344D01*
X122133000Y-114822656D01*
X122205439Y-115186834D01*
X122347534Y-115529882D01*
X122553825Y-115838618D01*
X122816382Y-116101175D01*
X123125118Y-116307466D01*
X123468166Y-116449561D01*
X123832344Y-116522000D01*
X124203656Y-116522000D01*
X124567834Y-116449561D01*
X124910882Y-116307466D01*
X125219618Y-116101175D01*
X125482175Y-115838618D01*
X125688466Y-115529882D01*
X125830561Y-115186834D01*
X125903000Y-114822656D01*
X125903000Y-114451344D01*
X125830561Y-114087166D01*
X125688466Y-113744118D01*
X125482175Y-113435382D01*
X125219618Y-113172825D01*
X124910882Y-112966534D01*
X124567834Y-112824439D01*
X124203656Y-112752000D01*
X123832344Y-112752000D01*
X123468166Y-112824439D01*
X123125118Y-112966534D01*
X122816382Y-113172825D01*
X122553825Y-113435382D01*
X122347534Y-113744118D01*
X122205439Y-114087166D01*
X122133000Y-114451344D01*
X117483435Y-114451344D01*
X117467502Y-114398820D01*
X117408537Y-114288506D01*
X117329185Y-114191815D01*
X117232494Y-114112463D01*
X117122180Y-114053498D01*
X117002482Y-114017188D01*
X116878000Y-114004928D01*
X116363750Y-114008000D01*
X116205000Y-114166750D01*
X115951000Y-114166750D01*
X115792250Y-114008000D01*
X115278000Y-114004928D01*
X115153518Y-114017188D01*
X115033820Y-114053498D01*
X114923506Y-114112463D01*
X114826815Y-114191815D01*
X114747463Y-114288506D01*
X114688498Y-114398820D01*
X114652188Y-114518518D01*
X114651357Y-114526961D01*
X114452759Y-114328363D01*
X114217727Y-114171320D01*
X113956574Y-114063147D01*
X113679335Y-114008000D01*
X113396665Y-114008000D01*
X113119426Y-114063147D01*
X112858273Y-114171320D01*
X112623241Y-114328363D01*
X112423363Y-114528241D01*
X112268000Y-114760759D01*
X112112637Y-114528241D01*
X111912759Y-114328363D01*
X111677727Y-114171320D01*
X111416574Y-114063147D01*
X111139335Y-114008000D01*
X110856665Y-114008000D01*
X110579426Y-114063147D01*
X110318273Y-114171320D01*
X110083241Y-114328363D01*
X109883363Y-114528241D01*
X109728000Y-114760759D01*
X109572637Y-114528241D01*
X109372759Y-114328363D01*
X109137727Y-114171320D01*
X108876574Y-114063147D01*
X108599335Y-114008000D01*
X108316665Y-114008000D01*
X108039426Y-114063147D01*
X107778273Y-114171320D01*
X107543241Y-114328363D01*
X107343363Y-114528241D01*
X107186320Y-114763273D01*
X107078147Y-115024426D01*
X107023000Y-115301665D01*
X102283410Y-115301665D01*
X102330561Y-115187834D01*
X102403000Y-114823656D01*
X102403000Y-114452344D01*
X102330561Y-114088166D01*
X102188466Y-113745118D01*
X101982175Y-113436382D01*
X101719618Y-113173825D01*
X101410882Y-112967534D01*
X101067834Y-112825439D01*
X100703656Y-112753000D01*
X100332344Y-112753000D01*
X99968166Y-112825439D01*
X99625118Y-112967534D01*
X99316382Y-113173825D01*
X99053825Y-113436382D01*
X98847534Y-113745118D01*
X98705439Y-114088166D01*
X98633000Y-114452344D01*
X97410558Y-114452344D01*
X97484556Y-114341599D01*
X97622882Y-114007650D01*
X97693400Y-113653132D01*
X97693400Y-113291668D01*
X97622882Y-112937150D01*
X97577650Y-112827951D01*
X105335203Y-105070399D01*
X126600091Y-105070399D01*
X126555600Y-105294065D01*
X126555600Y-105576735D01*
X126573356Y-105666000D01*
X116877322Y-105666000D01*
X116839999Y-105662324D01*
X116802676Y-105666000D01*
X116802667Y-105666000D01*
X116691014Y-105676997D01*
X116547753Y-105720454D01*
X116415724Y-105791026D01*
X116299999Y-105885999D01*
X116276201Y-105914997D01*
X113829571Y-108361628D01*
X113675592Y-108331000D01*
X113400408Y-108331000D01*
X113130510Y-108384686D01*
X112876273Y-108489995D01*
X112647465Y-108642880D01*
X112452880Y-108837465D01*
X112299995Y-109066273D01*
X112268000Y-109143515D01*
X112236005Y-109066273D01*
X112083120Y-108837465D01*
X111888535Y-108642880D01*
X111659727Y-108489995D01*
X111405490Y-108384686D01*
X111135592Y-108331000D01*
X110860408Y-108331000D01*
X110590510Y-108384686D01*
X110336273Y-108489995D01*
X110107465Y-108642880D01*
X109912880Y-108837465D01*
X109759995Y-109066273D01*
X109728000Y-109143515D01*
X109696005Y-109066273D01*
X109543120Y-108837465D01*
X109348535Y-108642880D01*
X109119727Y-108489995D01*
X108865490Y-108384686D01*
X108595592Y-108331000D01*
X108320408Y-108331000D01*
X108050510Y-108384686D01*
X107796273Y-108489995D01*
X107567465Y-108642880D01*
X107372880Y-108837465D01*
X107219995Y-109066273D01*
X107188000Y-109143515D01*
X107156005Y-109066273D01*
X107003120Y-108837465D01*
X106808535Y-108642880D01*
X106579727Y-108489995D01*
X106325490Y-108384686D01*
X106055592Y-108331000D01*
X105780408Y-108331000D01*
X105510510Y-108384686D01*
X105256273Y-108489995D01*
X105027465Y-108642880D01*
X104832880Y-108837465D01*
X104679995Y-109066273D01*
X104648000Y-109143515D01*
X104616005Y-109066273D01*
X104463120Y-108837465D01*
X104268535Y-108642880D01*
X104039727Y-108489995D01*
X103785490Y-108384686D01*
X103515592Y-108331000D01*
X103240408Y-108331000D01*
X102970510Y-108384686D01*
X102716273Y-108489995D01*
X102487465Y-108642880D01*
X102292880Y-108837465D01*
X102139995Y-109066273D01*
X102034686Y-109320510D01*
X101981000Y-109590408D01*
X101981000Y-109865592D01*
X102034686Y-110135490D01*
X102139995Y-110389727D01*
X102292880Y-110618535D01*
X102487465Y-110813120D01*
X102716273Y-110966005D01*
X102970510Y-111071314D01*
X103240408Y-111125000D01*
X103515592Y-111125000D01*
X103785490Y-111071314D01*
X104039727Y-110966005D01*
X104268535Y-110813120D01*
X104463120Y-110618535D01*
X104616005Y-110389727D01*
X104648000Y-110312485D01*
X104679995Y-110389727D01*
X104832880Y-110618535D01*
X105027465Y-110813120D01*
X105256273Y-110966005D01*
X105510510Y-111071314D01*
X105780408Y-111125000D01*
X106055592Y-111125000D01*
X106325490Y-111071314D01*
X106579727Y-110966005D01*
X106808535Y-110813120D01*
X107003120Y-110618535D01*
X107156005Y-110389727D01*
X107188000Y-110312485D01*
X107219995Y-110389727D01*
X107372880Y-110618535D01*
X107567465Y-110813120D01*
X107796273Y-110966005D01*
X108050510Y-111071314D01*
X108320408Y-111125000D01*
X108595592Y-111125000D01*
X108865490Y-111071314D01*
X109119727Y-110966005D01*
X109348535Y-110813120D01*
X109543120Y-110618535D01*
X109696005Y-110389727D01*
X109728000Y-110312485D01*
X109759995Y-110389727D01*
X109912880Y-110618535D01*
X110107465Y-110813120D01*
X110336273Y-110966005D01*
X110590510Y-111071314D01*
X110860408Y-111125000D01*
X111135592Y-111125000D01*
X111405490Y-111071314D01*
X111659727Y-110966005D01*
X111888535Y-110813120D01*
X112083120Y-110618535D01*
X112236005Y-110389727D01*
X112268000Y-110312485D01*
X112299995Y-110389727D01*
X112452880Y-110618535D01*
X112647465Y-110813120D01*
X112876273Y-110966005D01*
X113130510Y-111071314D01*
X113400408Y-111125000D01*
X113675592Y-111125000D01*
X113945490Y-111071314D01*
X114199727Y-110966005D01*
X114428535Y-110813120D01*
X114623120Y-110618535D01*
X114776005Y-110389727D01*
X114808000Y-110312485D01*
X114839995Y-110389727D01*
X114992880Y-110618535D01*
X115187465Y-110813120D01*
X115416273Y-110966005D01*
X115670510Y-111071314D01*
X115940408Y-111125000D01*
X116215592Y-111125000D01*
X116485490Y-111071314D01*
X116739727Y-110966005D01*
X116968535Y-110813120D01*
X117088090Y-110693565D01*
X117832040Y-110693565D01*
X117899020Y-110933656D01*
X118148048Y-111050756D01*
X118415135Y-111117023D01*
X118690017Y-111129910D01*
X118962133Y-111088922D01*
X119221023Y-110995636D01*
X119336980Y-110933656D01*
X119403960Y-110693565D01*
X118618000Y-109907605D01*
X117832040Y-110693565D01*
X117088090Y-110693565D01*
X117163120Y-110618535D01*
X117316005Y-110389727D01*
X117345692Y-110318057D01*
X117350364Y-110331023D01*
X117412344Y-110446980D01*
X117652435Y-110513960D01*
X118438395Y-109728000D01*
X118797605Y-109728000D01*
X119583565Y-110513960D01*
X119823656Y-110446980D01*
X119887485Y-110311240D01*
X119919995Y-110389727D01*
X120072880Y-110618535D01*
X120267465Y-110813120D01*
X120496273Y-110966005D01*
X120750510Y-111071314D01*
X121020408Y-111125000D01*
X121295592Y-111125000D01*
X121565490Y-111071314D01*
X121819727Y-110966005D01*
X122048535Y-110813120D01*
X122243120Y-110618535D01*
X122396005Y-110389727D01*
X122501314Y-110135490D01*
X122555000Y-109865592D01*
X122555000Y-109590408D01*
X122501314Y-109320510D01*
X122396005Y-109066273D01*
X122243120Y-108837465D01*
X122048535Y-108642880D01*
X121819727Y-108489995D01*
X121565490Y-108384686D01*
X121295592Y-108331000D01*
X121020408Y-108331000D01*
X120750510Y-108384686D01*
X120496273Y-108489995D01*
X120267465Y-108642880D01*
X120072880Y-108837465D01*
X119919995Y-109066273D01*
X119890308Y-109137943D01*
X119885636Y-109124977D01*
X119823656Y-109009020D01*
X119583565Y-108942040D01*
X118797605Y-109728000D01*
X118438395Y-109728000D01*
X117652435Y-108942040D01*
X117412344Y-109009020D01*
X117348515Y-109144760D01*
X117316005Y-109066273D01*
X117163120Y-108837465D01*
X117088090Y-108762435D01*
X117832040Y-108762435D01*
X118618000Y-109548395D01*
X119403960Y-108762435D01*
X119336980Y-108522344D01*
X119087952Y-108405244D01*
X118820865Y-108338977D01*
X118545983Y-108326090D01*
X118273867Y-108367078D01*
X118014977Y-108460364D01*
X117899020Y-108522344D01*
X117832040Y-108762435D01*
X117088090Y-108762435D01*
X116968535Y-108642880D01*
X116739727Y-108489995D01*
X116485490Y-108384686D01*
X116215592Y-108331000D01*
X116009802Y-108331000D01*
X117154802Y-107186000D01*
X126792201Y-107186000D01*
X126718920Y-107295673D01*
X126610747Y-107556826D01*
X126555600Y-107834065D01*
X126555600Y-108116735D01*
X126610747Y-108393974D01*
X126718920Y-108655127D01*
X126875963Y-108890159D01*
X127075841Y-109090037D01*
X127308359Y-109245400D01*
X127075841Y-109400763D01*
X126875963Y-109600641D01*
X126718920Y-109835673D01*
X126610747Y-110096826D01*
X126555600Y-110374065D01*
X126555600Y-110656735D01*
X126610747Y-110933974D01*
X126718920Y-111195127D01*
X126875963Y-111430159D01*
X127075841Y-111630037D01*
X127308359Y-111785400D01*
X127075841Y-111940763D01*
X126875963Y-112140641D01*
X126718920Y-112375673D01*
X126610747Y-112636826D01*
X126555600Y-112914065D01*
X126555600Y-113196735D01*
X126610747Y-113473974D01*
X126718920Y-113735127D01*
X126875963Y-113970159D01*
X127075841Y-114170037D01*
X127308359Y-114325400D01*
X127075841Y-114480763D01*
X126875963Y-114680641D01*
X126718920Y-114915673D01*
X126610747Y-115176826D01*
X126555600Y-115454065D01*
X126555600Y-115736735D01*
X126610747Y-116013974D01*
X126718920Y-116275127D01*
X126875963Y-116510159D01*
X127075841Y-116710037D01*
X127308359Y-116865400D01*
X127075841Y-117020763D01*
X126875963Y-117220641D01*
X126718920Y-117455673D01*
X126610747Y-117716826D01*
X126555600Y-117994065D01*
X126555600Y-118276735D01*
X126610747Y-118553974D01*
X126718920Y-118815127D01*
X126875963Y-119050159D01*
X127075841Y-119250037D01*
X127308359Y-119405400D01*
X127075841Y-119560763D01*
X126875963Y-119760641D01*
X126718920Y-119995673D01*
X126610747Y-120256826D01*
X126555600Y-120534065D01*
X126555600Y-120816735D01*
X126610747Y-121093974D01*
X126718920Y-121355127D01*
X126875963Y-121590159D01*
X127075841Y-121790037D01*
X127308359Y-121945400D01*
X127075841Y-122100763D01*
X126875963Y-122300641D01*
X126718920Y-122535673D01*
X126610747Y-122796826D01*
X126555600Y-123074065D01*
X126555600Y-123356735D01*
X126610747Y-123633974D01*
X126718920Y-123895127D01*
X126875963Y-124130159D01*
X127075841Y-124330037D01*
X127310873Y-124487080D01*
X127572026Y-124595253D01*
X127849265Y-124650400D01*
X128131935Y-124650400D01*
X128409174Y-124595253D01*
X128670327Y-124487080D01*
X128905359Y-124330037D01*
X129105237Y-124130159D01*
X129262280Y-123895127D01*
X129370453Y-123633974D01*
X129425600Y-123356735D01*
X129425600Y-123074065D01*
X129370453Y-122796826D01*
X129262280Y-122535673D01*
X129105237Y-122300641D01*
X128905359Y-122100763D01*
X128672841Y-121945400D01*
X128905359Y-121790037D01*
X129105237Y-121590159D01*
X129262280Y-121355127D01*
X129370453Y-121093974D01*
X129425600Y-120816735D01*
X129425600Y-120534065D01*
X129370453Y-120256826D01*
X129262280Y-119995673D01*
X129105237Y-119760641D01*
X128905359Y-119560763D01*
X128672841Y-119405400D01*
X128905359Y-119250037D01*
X129105237Y-119050159D01*
X129262280Y-118815127D01*
X129370453Y-118553974D01*
X129425600Y-118276735D01*
X129425600Y-117994065D01*
X129370453Y-117716826D01*
X129262280Y-117455673D01*
X129105237Y-117220641D01*
X128905359Y-117020763D01*
X128672841Y-116865400D01*
X128905359Y-116710037D01*
X129105237Y-116510159D01*
X129262280Y-116275127D01*
X129370453Y-116013974D01*
X129425600Y-115736735D01*
X129425600Y-115454065D01*
X129370453Y-115176826D01*
X129262280Y-114915673D01*
X129105237Y-114680641D01*
X128905359Y-114480763D01*
X128672841Y-114325400D01*
X128905359Y-114170037D01*
X129105237Y-113970159D01*
X129262280Y-113735127D01*
X129370453Y-113473974D01*
X129425600Y-113196735D01*
X129425600Y-112914065D01*
X129370453Y-112636826D01*
X129262280Y-112375673D01*
X129105237Y-112140641D01*
X128905359Y-111940763D01*
X128672841Y-111785400D01*
X128905359Y-111630037D01*
X129105237Y-111430159D01*
X129262280Y-111195127D01*
X129370453Y-110933974D01*
X129425600Y-110656735D01*
X129425600Y-110374065D01*
X129370453Y-110096826D01*
X129262280Y-109835673D01*
X129105237Y-109600641D01*
X128905359Y-109400763D01*
X128672841Y-109245400D01*
X128905359Y-109090037D01*
X129105237Y-108890159D01*
X129262280Y-108655127D01*
X129370453Y-108393974D01*
X129425600Y-108116735D01*
X129425600Y-107834065D01*
X129370453Y-107556826D01*
X129262280Y-107295673D01*
X129105237Y-107060641D01*
X128905359Y-106860763D01*
X128672841Y-106705400D01*
X128905359Y-106550037D01*
X129105237Y-106350159D01*
X129262280Y-106115127D01*
X129370453Y-105853974D01*
X129425600Y-105576735D01*
X129425600Y-105294065D01*
X129381109Y-105070399D01*
X141778279Y-105070399D01*
X141815601Y-105074075D01*
X141839834Y-105071688D01*
X141795600Y-105294065D01*
X141795600Y-105576735D01*
X141850747Y-105853974D01*
X141958920Y-106115127D01*
X142115963Y-106350159D01*
X142315841Y-106550037D01*
X142548359Y-106705400D01*
X142315841Y-106860763D01*
X142115963Y-107060641D01*
X141958920Y-107295673D01*
X141850747Y-107556826D01*
X141795600Y-107834065D01*
X141795600Y-108116735D01*
X141850747Y-108393974D01*
X141958920Y-108655127D01*
X142115963Y-108890159D01*
X142315841Y-109090037D01*
X142548359Y-109245400D01*
X142315841Y-109400763D01*
X142115963Y-109600641D01*
X141958920Y-109835673D01*
X141850747Y-110096826D01*
X141795600Y-110374065D01*
X141795600Y-110656735D01*
X141850747Y-110933974D01*
X141958920Y-111195127D01*
X142115963Y-111430159D01*
X142315841Y-111630037D01*
X142548359Y-111785400D01*
X142315841Y-111940763D01*
X142115963Y-112140641D01*
X141958920Y-112375673D01*
X141850747Y-112636826D01*
X141795600Y-112914065D01*
X141795600Y-113196735D01*
X141850747Y-113473974D01*
X141958920Y-113735127D01*
X142115963Y-113970159D01*
X142315841Y-114170037D01*
X142548359Y-114325400D01*
X142315841Y-114480763D01*
X142115963Y-114680641D01*
X141958920Y-114915673D01*
X141850747Y-115176826D01*
X141795600Y-115454065D01*
X141795600Y-115736735D01*
X141850747Y-116013974D01*
X141958920Y-116275127D01*
X142115963Y-116510159D01*
X142315841Y-116710037D01*
X142548359Y-116865400D01*
X142315841Y-117020763D01*
X142115963Y-117220641D01*
X141958920Y-117455673D01*
X141850747Y-117716826D01*
X141795600Y-117994065D01*
X141795600Y-118276735D01*
X141850747Y-118553974D01*
X141958920Y-118815127D01*
X142115963Y-119050159D01*
X142315841Y-119250037D01*
X142548359Y-119405400D01*
X142315841Y-119560763D01*
X142115963Y-119760641D01*
X141958920Y-119995673D01*
X141850747Y-120256826D01*
X141795600Y-120534065D01*
X141795600Y-120816735D01*
X141850747Y-121093974D01*
X141958920Y-121355127D01*
X142115963Y-121590159D01*
X142315841Y-121790037D01*
X142548359Y-121945400D01*
X142315841Y-122100763D01*
X142115963Y-122300641D01*
X141958920Y-122535673D01*
X141850747Y-122796826D01*
X141795600Y-123074065D01*
X141795600Y-123356735D01*
X141850747Y-123633974D01*
X141958920Y-123895127D01*
X142115963Y-124130159D01*
X142315841Y-124330037D01*
X142550873Y-124487080D01*
X142812026Y-124595253D01*
X143089265Y-124650400D01*
X143371935Y-124650400D01*
X143649174Y-124595253D01*
X143910327Y-124487080D01*
X144145359Y-124330037D01*
X144318094Y-124157302D01*
X156646703Y-124157302D01*
X156718286Y-124401271D01*
X156973796Y-124522171D01*
X157247984Y-124590900D01*
X157530312Y-124604817D01*
X157809930Y-124563387D01*
X158076092Y-124468203D01*
X158201314Y-124401271D01*
X158272897Y-124157302D01*
X157459800Y-123344205D01*
X156646703Y-124157302D01*
X144318094Y-124157302D01*
X144345237Y-124130159D01*
X144502280Y-123895127D01*
X144610453Y-123633974D01*
X144665600Y-123356735D01*
X144665600Y-123235112D01*
X156019583Y-123235112D01*
X156061013Y-123514730D01*
X156156197Y-123780892D01*
X156223129Y-123906114D01*
X156467098Y-123977697D01*
X157280195Y-123164600D01*
X157639405Y-123164600D01*
X158452502Y-123977697D01*
X158696471Y-123906114D01*
X158817371Y-123650604D01*
X158886100Y-123376416D01*
X158900017Y-123094088D01*
X158858587Y-122814470D01*
X158763403Y-122548308D01*
X158696471Y-122423086D01*
X158497140Y-122364600D01*
X159521728Y-122364600D01*
X159521728Y-123964600D01*
X159533988Y-124089082D01*
X159570298Y-124208780D01*
X159629263Y-124319094D01*
X159708615Y-124415785D01*
X159805306Y-124495137D01*
X159915620Y-124554102D01*
X160035318Y-124590412D01*
X160159800Y-124602672D01*
X161759800Y-124602672D01*
X161884282Y-124590412D01*
X162003980Y-124554102D01*
X162114294Y-124495137D01*
X162210985Y-124415785D01*
X162290337Y-124319094D01*
X162349302Y-124208780D01*
X162385612Y-124089082D01*
X162397872Y-123964600D01*
X162397872Y-123924600D01*
X164040078Y-123924600D01*
X164077400Y-123928276D01*
X164114722Y-123924600D01*
X164114733Y-123924600D01*
X164226386Y-123913603D01*
X164369647Y-123870146D01*
X164501676Y-123799574D01*
X164617401Y-123704601D01*
X164641204Y-123675597D01*
X164853703Y-123463098D01*
X177193000Y-123463098D01*
X177193000Y-123932902D01*
X177284654Y-124393679D01*
X177464440Y-124827721D01*
X177725450Y-125218349D01*
X178057651Y-125550550D01*
X178448279Y-125811560D01*
X178882321Y-125991346D01*
X179343098Y-126083000D01*
X179812902Y-126083000D01*
X180273679Y-125991346D01*
X180707721Y-125811560D01*
X181098349Y-125550550D01*
X181430550Y-125218349D01*
X181691560Y-124827721D01*
X181871346Y-124393679D01*
X181963000Y-123932902D01*
X181963000Y-123463098D01*
X181871346Y-123002321D01*
X181691560Y-122568279D01*
X181430550Y-122177651D01*
X181098349Y-121845450D01*
X180707721Y-121584440D01*
X180273679Y-121404654D01*
X179812902Y-121313000D01*
X179343098Y-121313000D01*
X178882321Y-121404654D01*
X178448279Y-121584440D01*
X178057651Y-121845450D01*
X177725450Y-122177651D01*
X177464440Y-122568279D01*
X177284654Y-123002321D01*
X177193000Y-123463098D01*
X164853703Y-123463098D01*
X166262801Y-122054000D01*
X168299928Y-122054000D01*
X168312188Y-122178482D01*
X168348498Y-122298180D01*
X168407463Y-122408494D01*
X168486815Y-122505185D01*
X168583506Y-122584537D01*
X168693820Y-122643502D01*
X168813518Y-122679812D01*
X168938000Y-122692072D01*
X170402250Y-122689000D01*
X170561000Y-122530250D01*
X170561000Y-120681000D01*
X170815000Y-120681000D01*
X170815000Y-122530250D01*
X170973750Y-122689000D01*
X172438000Y-122692072D01*
X172562482Y-122679812D01*
X172682180Y-122643502D01*
X172792494Y-122584537D01*
X172889185Y-122505185D01*
X172968537Y-122408494D01*
X173027502Y-122298180D01*
X173063812Y-122178482D01*
X173076072Y-122054000D01*
X173073000Y-120839750D01*
X172914250Y-120681000D01*
X170815000Y-120681000D01*
X170561000Y-120681000D01*
X168461750Y-120681000D01*
X168303000Y-120839750D01*
X168299928Y-122054000D01*
X166262801Y-122054000D01*
X168302358Y-120014444D01*
X168303000Y-120268250D01*
X168461750Y-120427000D01*
X170561000Y-120427000D01*
X170561000Y-118577750D01*
X170815000Y-118577750D01*
X170815000Y-120427000D01*
X172914250Y-120427000D01*
X173073000Y-120268250D01*
X173076072Y-119054000D01*
X173063812Y-118929518D01*
X173027502Y-118809820D01*
X172968537Y-118699506D01*
X172889185Y-118602815D01*
X172792494Y-118523463D01*
X172682180Y-118464498D01*
X172562482Y-118428188D01*
X172438000Y-118415928D01*
X170973750Y-118419000D01*
X170815000Y-118577750D01*
X170561000Y-118577750D01*
X170402250Y-118419000D01*
X169898858Y-118417944D01*
X171199003Y-117117799D01*
X171228001Y-117094001D01*
X171322974Y-116978276D01*
X171342326Y-116942072D01*
X172438000Y-116942072D01*
X172562482Y-116929812D01*
X172682180Y-116893502D01*
X172792494Y-116834537D01*
X172889185Y-116755185D01*
X172968537Y-116658494D01*
X173027502Y-116548180D01*
X173063812Y-116428482D01*
X173076072Y-116304000D01*
X173076072Y-112804000D01*
X173063812Y-112679518D01*
X173027502Y-112559820D01*
X172968537Y-112449506D01*
X172889185Y-112352815D01*
X172792494Y-112273463D01*
X172682180Y-112214498D01*
X172562482Y-112178188D01*
X172438000Y-112165928D01*
X168938000Y-112165928D01*
X168813518Y-112178188D01*
X168693820Y-112214498D01*
X168583506Y-112273463D01*
X168486815Y-112352815D01*
X168407463Y-112449506D01*
X168348498Y-112559820D01*
X168312188Y-112679518D01*
X168299928Y-112804000D01*
X168299928Y-115508233D01*
X168268537Y-115449506D01*
X168189185Y-115352815D01*
X168092494Y-115273463D01*
X167982180Y-115214498D01*
X167862482Y-115178188D01*
X167738000Y-115165928D01*
X166273750Y-115169000D01*
X166115000Y-115327750D01*
X166115000Y-117427000D01*
X168214250Y-117427000D01*
X168373000Y-117268250D01*
X168374409Y-116596655D01*
X168407463Y-116658494D01*
X168486815Y-116755185D01*
X168583506Y-116834537D01*
X168693820Y-116893502D01*
X168813518Y-116929812D01*
X168938000Y-116942072D01*
X169225126Y-116942072D01*
X168350224Y-117816974D01*
X168214250Y-117681000D01*
X166115000Y-117681000D01*
X166115000Y-119780250D01*
X166250974Y-119916224D01*
X163762599Y-122404600D01*
X162397872Y-122404600D01*
X162397872Y-122364600D01*
X162385612Y-122240118D01*
X162349302Y-122120420D01*
X162290337Y-122010106D01*
X162210985Y-121913415D01*
X162114294Y-121834063D01*
X162003980Y-121775098D01*
X161884282Y-121738788D01*
X161759800Y-121726528D01*
X160159800Y-121726528D01*
X160035318Y-121738788D01*
X159915620Y-121775098D01*
X159805306Y-121834063D01*
X159708615Y-121913415D01*
X159629263Y-122010106D01*
X159570298Y-122120420D01*
X159533988Y-122240118D01*
X159521728Y-122364600D01*
X158497140Y-122364600D01*
X158452502Y-122351503D01*
X157639405Y-123164600D01*
X157280195Y-123164600D01*
X156467098Y-122351503D01*
X156223129Y-122423086D01*
X156102229Y-122678596D01*
X156033500Y-122952784D01*
X156019583Y-123235112D01*
X144665600Y-123235112D01*
X144665600Y-123074065D01*
X144610453Y-122796826D01*
X144502280Y-122535673D01*
X144345237Y-122300641D01*
X144216494Y-122171898D01*
X156646703Y-122171898D01*
X157459800Y-122984995D01*
X158272897Y-122171898D01*
X158201314Y-121927929D01*
X157945804Y-121807029D01*
X157671616Y-121738300D01*
X157389288Y-121724383D01*
X157109670Y-121765813D01*
X156843508Y-121860997D01*
X156718286Y-121927929D01*
X156646703Y-122171898D01*
X144216494Y-122171898D01*
X144145359Y-122100763D01*
X143912841Y-121945400D01*
X144145359Y-121790037D01*
X144345237Y-121590159D01*
X144502280Y-121355127D01*
X144610453Y-121093974D01*
X144665600Y-120816735D01*
X144665600Y-120534065D01*
X144629288Y-120351513D01*
X145676801Y-119304000D01*
X163599928Y-119304000D01*
X163612188Y-119428482D01*
X163648498Y-119548180D01*
X163707463Y-119658494D01*
X163786815Y-119755185D01*
X163883506Y-119834537D01*
X163993820Y-119893502D01*
X164113518Y-119929812D01*
X164238000Y-119942072D01*
X165702250Y-119939000D01*
X165861000Y-119780250D01*
X165861000Y-117681000D01*
X163761750Y-117681000D01*
X163603000Y-117839750D01*
X163599928Y-119304000D01*
X145676801Y-119304000D01*
X148694604Y-116286198D01*
X148723601Y-116262401D01*
X148818574Y-116146676D01*
X148889146Y-116014647D01*
X148899958Y-115979004D01*
X149098359Y-115846437D01*
X149298237Y-115646559D01*
X149455280Y-115411527D01*
X149563453Y-115150374D01*
X149618600Y-114873135D01*
X149618600Y-114590465D01*
X149563453Y-114313226D01*
X149455280Y-114052073D01*
X149298237Y-113817041D01*
X149098359Y-113617163D01*
X148865841Y-113461800D01*
X149098359Y-113306437D01*
X149298237Y-113106559D01*
X149455280Y-112871527D01*
X149563453Y-112610374D01*
X149618600Y-112333135D01*
X149618600Y-112050465D01*
X149563453Y-111773226D01*
X149455280Y-111512073D01*
X149298237Y-111277041D01*
X149098359Y-111077163D01*
X148865841Y-110921800D01*
X149098359Y-110766437D01*
X149298237Y-110566559D01*
X149455280Y-110331527D01*
X149563453Y-110070374D01*
X149618600Y-109793135D01*
X149618600Y-109510465D01*
X149563453Y-109233226D01*
X149455280Y-108972073D01*
X149298237Y-108737041D01*
X149098359Y-108537163D01*
X148865841Y-108381800D01*
X149098359Y-108226437D01*
X149298237Y-108026559D01*
X149455280Y-107791527D01*
X149563453Y-107530374D01*
X149618600Y-107253135D01*
X149618600Y-106970465D01*
X149563453Y-106693226D01*
X149455280Y-106432073D01*
X149298237Y-106197041D01*
X149098359Y-105997163D01*
X148865841Y-105841800D01*
X149098359Y-105686437D01*
X149298237Y-105486559D01*
X149455280Y-105251527D01*
X149563453Y-104990374D01*
X149618600Y-104713135D01*
X149618600Y-104430465D01*
X149563453Y-104153226D01*
X149455280Y-103892073D01*
X149298237Y-103657041D01*
X149098359Y-103457163D01*
X148865841Y-103301800D01*
X149098359Y-103146437D01*
X149298237Y-102946559D01*
X149455280Y-102711527D01*
X149563453Y-102450374D01*
X149618600Y-102173135D01*
X149618600Y-101890465D01*
X149563453Y-101613226D01*
X149455280Y-101352073D01*
X149298237Y-101117041D01*
X149098359Y-100917163D01*
X148865841Y-100761800D01*
X149098359Y-100606437D01*
X149298237Y-100406559D01*
X149455280Y-100171527D01*
X149563453Y-99910374D01*
X149618600Y-99633135D01*
X149618600Y-99350465D01*
X149563453Y-99073226D01*
X149455280Y-98812073D01*
X149298237Y-98577041D01*
X149273196Y-98552000D01*
X155883324Y-98552000D01*
X155887000Y-98589322D01*
X155887001Y-109872868D01*
X155883324Y-109910200D01*
X155887001Y-109947533D01*
X155897998Y-110059186D01*
X155903122Y-110076077D01*
X155941454Y-110202446D01*
X156012026Y-110334476D01*
X156057370Y-110389727D01*
X156107000Y-110450201D01*
X156135998Y-110473999D01*
X158364801Y-112702803D01*
X158388599Y-112731801D01*
X158504324Y-112826774D01*
X158636353Y-112897346D01*
X158779614Y-112940803D01*
X158891267Y-112951800D01*
X158891275Y-112951800D01*
X158928600Y-112955476D01*
X158965925Y-112951800D01*
X159665557Y-112951800D01*
X159768963Y-113106559D01*
X159968841Y-113306437D01*
X160201359Y-113461800D01*
X159968841Y-113617163D01*
X159768963Y-113817041D01*
X159611920Y-114052073D01*
X159503747Y-114313226D01*
X159448600Y-114590465D01*
X159448600Y-114873135D01*
X159503747Y-115150374D01*
X159611920Y-115411527D01*
X159768963Y-115646559D01*
X159968841Y-115846437D01*
X160203873Y-116003480D01*
X160465026Y-116111653D01*
X160742265Y-116166800D01*
X161024935Y-116166800D01*
X161302174Y-116111653D01*
X161563327Y-116003480D01*
X161798359Y-115846437D01*
X161840796Y-115804000D01*
X163599928Y-115804000D01*
X163603000Y-117268250D01*
X163761750Y-117427000D01*
X165861000Y-117427000D01*
X165861000Y-115327750D01*
X165702250Y-115169000D01*
X164238000Y-115165928D01*
X164113518Y-115178188D01*
X163993820Y-115214498D01*
X163883506Y-115273463D01*
X163786815Y-115352815D01*
X163707463Y-115449506D01*
X163648498Y-115559820D01*
X163612188Y-115679518D01*
X163599928Y-115804000D01*
X161840796Y-115804000D01*
X161998237Y-115646559D01*
X162155280Y-115411527D01*
X162263453Y-115150374D01*
X162318600Y-114873135D01*
X162318600Y-114590465D01*
X162263453Y-114313226D01*
X162155280Y-114052073D01*
X161998237Y-113817041D01*
X161798359Y-113617163D01*
X161565841Y-113461800D01*
X161798359Y-113306437D01*
X161998237Y-113106559D01*
X162155280Y-112871527D01*
X162263453Y-112610374D01*
X162318600Y-112333135D01*
X162318600Y-112050465D01*
X162263453Y-111773226D01*
X162155280Y-111512073D01*
X161998237Y-111277041D01*
X161798359Y-111077163D01*
X161565841Y-110921800D01*
X161798359Y-110766437D01*
X161998237Y-110566559D01*
X162155280Y-110331527D01*
X162263453Y-110070374D01*
X162318600Y-109793135D01*
X162318600Y-109510465D01*
X162263453Y-109233226D01*
X162155280Y-108972073D01*
X161998237Y-108737041D01*
X161798359Y-108537163D01*
X161565841Y-108381800D01*
X161798359Y-108226437D01*
X161998237Y-108026559D01*
X162155280Y-107791527D01*
X162263453Y-107530374D01*
X162318600Y-107253135D01*
X162318600Y-106970465D01*
X162263453Y-106693226D01*
X162155280Y-106432073D01*
X161998237Y-106197041D01*
X161798359Y-105997163D01*
X161565841Y-105841800D01*
X161798359Y-105686437D01*
X161998237Y-105486559D01*
X162155280Y-105251527D01*
X162263453Y-104990374D01*
X162318600Y-104713135D01*
X162318600Y-104430465D01*
X162263453Y-104153226D01*
X162155280Y-103892073D01*
X161998237Y-103657041D01*
X161798359Y-103457163D01*
X161565841Y-103301800D01*
X161798359Y-103146437D01*
X161998237Y-102946559D01*
X162155280Y-102711527D01*
X162263453Y-102450374D01*
X162318600Y-102173135D01*
X162318600Y-102057200D01*
X165547118Y-102057200D01*
X165576176Y-102352232D01*
X165662234Y-102635925D01*
X165801983Y-102897379D01*
X165990055Y-103126545D01*
X166219221Y-103314617D01*
X166242762Y-103327200D01*
X166219221Y-103339783D01*
X165990055Y-103527855D01*
X165801983Y-103757021D01*
X165662234Y-104018475D01*
X165576176Y-104302168D01*
X165547118Y-104597200D01*
X165576176Y-104892232D01*
X165662234Y-105175925D01*
X165801983Y-105437379D01*
X165990055Y-105666545D01*
X166219221Y-105854617D01*
X166242762Y-105867200D01*
X166219221Y-105879783D01*
X165990055Y-106067855D01*
X165801983Y-106297021D01*
X165662234Y-106558475D01*
X165576176Y-106842168D01*
X165547118Y-107137200D01*
X165576176Y-107432232D01*
X165662234Y-107715925D01*
X165801983Y-107977379D01*
X165990055Y-108206545D01*
X166055514Y-108260266D01*
X165946013Y-108318795D01*
X165811438Y-108429238D01*
X165700995Y-108563813D01*
X165618928Y-108717349D01*
X165568392Y-108883945D01*
X165551328Y-109057199D01*
X165551328Y-110297201D01*
X165568392Y-110470455D01*
X165618928Y-110637051D01*
X165700995Y-110790587D01*
X165811438Y-110925162D01*
X165946013Y-111035605D01*
X166099549Y-111117672D01*
X166266145Y-111168208D01*
X166439399Y-111185272D01*
X168129401Y-111185272D01*
X168302655Y-111168208D01*
X168469251Y-111117672D01*
X168622787Y-111035605D01*
X168757362Y-110925162D01*
X168867805Y-110790587D01*
X168949872Y-110637051D01*
X169000408Y-110470455D01*
X169017472Y-110297201D01*
X169017472Y-109057199D01*
X169000408Y-108883945D01*
X168949872Y-108717349D01*
X168867805Y-108563813D01*
X168757362Y-108429238D01*
X168622787Y-108318795D01*
X168513286Y-108260266D01*
X168578745Y-108206545D01*
X168766817Y-107977379D01*
X168906566Y-107715925D01*
X168992624Y-107432232D01*
X169021682Y-107137200D01*
X168992624Y-106842168D01*
X168906566Y-106558475D01*
X168766817Y-106297021D01*
X168578745Y-106067855D01*
X168349579Y-105879783D01*
X168326038Y-105867200D01*
X168349579Y-105854617D01*
X168578745Y-105666545D01*
X168766817Y-105437379D01*
X168906566Y-105175925D01*
X168992624Y-104892232D01*
X169021682Y-104597200D01*
X168992624Y-104302168D01*
X168906566Y-104018475D01*
X168766817Y-103757021D01*
X168578745Y-103527855D01*
X168349579Y-103339783D01*
X168326038Y-103327200D01*
X168349579Y-103314617D01*
X168578745Y-103126545D01*
X168766817Y-102897379D01*
X168906566Y-102635925D01*
X168992624Y-102352232D01*
X169021682Y-102057200D01*
X168992624Y-101762168D01*
X168906566Y-101478475D01*
X168766817Y-101217021D01*
X168578745Y-100987855D01*
X168349579Y-100799783D01*
X168088125Y-100660034D01*
X167804432Y-100573976D01*
X167583336Y-100552200D01*
X166985464Y-100552200D01*
X166764368Y-100573976D01*
X166480675Y-100660034D01*
X166219221Y-100799783D01*
X165990055Y-100987855D01*
X165801983Y-101217021D01*
X165662234Y-101478475D01*
X165576176Y-101762168D01*
X165547118Y-102057200D01*
X162318600Y-102057200D01*
X162318600Y-101890465D01*
X162263453Y-101613226D01*
X162155280Y-101352073D01*
X161998237Y-101117041D01*
X161798359Y-100917163D01*
X161565841Y-100761800D01*
X161798359Y-100606437D01*
X161998237Y-100406559D01*
X162155280Y-100171527D01*
X162263453Y-99910374D01*
X162318600Y-99633135D01*
X162318600Y-99350465D01*
X162263453Y-99073226D01*
X162155280Y-98812073D01*
X161998237Y-98577041D01*
X161799639Y-98378443D01*
X161808082Y-98377612D01*
X161927780Y-98341302D01*
X162038094Y-98282337D01*
X162134785Y-98202985D01*
X162214137Y-98106294D01*
X162273102Y-97995980D01*
X162309412Y-97876282D01*
X162321672Y-97751800D01*
X162318600Y-97237550D01*
X162159850Y-97078800D01*
X161010600Y-97078800D01*
X161010600Y-97098800D01*
X160756600Y-97098800D01*
X160756600Y-97078800D01*
X159607350Y-97078800D01*
X159448600Y-97237550D01*
X159445528Y-97751800D01*
X159457788Y-97876282D01*
X159494098Y-97995980D01*
X159553063Y-98106294D01*
X159632415Y-98202985D01*
X159729106Y-98282337D01*
X159839420Y-98341302D01*
X159959118Y-98377612D01*
X159967561Y-98378443D01*
X159768963Y-98577041D01*
X159611920Y-98812073D01*
X159503747Y-99073226D01*
X159448600Y-99350465D01*
X159448600Y-99633135D01*
X159503747Y-99910374D01*
X159611920Y-100171527D01*
X159768963Y-100406559D01*
X159968841Y-100606437D01*
X160201359Y-100761800D01*
X159968841Y-100917163D01*
X159768963Y-101117041D01*
X159611920Y-101352073D01*
X159503747Y-101613226D01*
X159448600Y-101890465D01*
X159448600Y-102173135D01*
X159503747Y-102450374D01*
X159611920Y-102711527D01*
X159768963Y-102946559D01*
X159968841Y-103146437D01*
X160201359Y-103301800D01*
X159968841Y-103457163D01*
X159768963Y-103657041D01*
X159611920Y-103892073D01*
X159503747Y-104153226D01*
X159448600Y-104430465D01*
X159448600Y-104713135D01*
X159503747Y-104990374D01*
X159611920Y-105251527D01*
X159768963Y-105486559D01*
X159968841Y-105686437D01*
X160201359Y-105841800D01*
X159968841Y-105997163D01*
X159768963Y-106197041D01*
X159611920Y-106432073D01*
X159503747Y-106693226D01*
X159448600Y-106970465D01*
X159448600Y-107253135D01*
X159503747Y-107530374D01*
X159611920Y-107791527D01*
X159768963Y-108026559D01*
X159968841Y-108226437D01*
X160201359Y-108381800D01*
X159968841Y-108537163D01*
X159768963Y-108737041D01*
X159611920Y-108972073D01*
X159503747Y-109233226D01*
X159448600Y-109510465D01*
X159448600Y-109793135D01*
X159503747Y-110070374D01*
X159611920Y-110331527D01*
X159768963Y-110566559D01*
X159968841Y-110766437D01*
X160201359Y-110921800D01*
X159968841Y-111077163D01*
X159768963Y-111277041D01*
X159665557Y-111431800D01*
X159243402Y-111431800D01*
X157407000Y-109595399D01*
X157407000Y-98866801D01*
X159528176Y-96745626D01*
X159607350Y-96824800D01*
X160756600Y-96824800D01*
X160756600Y-95675550D01*
X161010600Y-95675550D01*
X161010600Y-96824800D01*
X162159850Y-96824800D01*
X162318600Y-96666050D01*
X162321672Y-96151800D01*
X162309412Y-96027318D01*
X162273102Y-95907620D01*
X162214137Y-95797306D01*
X162134785Y-95700615D01*
X162038094Y-95621263D01*
X161952442Y-95575480D01*
X178606626Y-95575480D01*
X178726514Y-95860336D01*
X179050210Y-96021199D01*
X179399069Y-96115822D01*
X179759684Y-96140567D01*
X180118198Y-96094485D01*
X180460833Y-95979346D01*
X180683486Y-95860336D01*
X180803374Y-95575480D01*
X179705000Y-94477105D01*
X178606626Y-95575480D01*
X161952442Y-95575480D01*
X161927780Y-95562298D01*
X161808082Y-95525988D01*
X161683600Y-95513728D01*
X161169350Y-95516800D01*
X161010600Y-95675550D01*
X160756600Y-95675550D01*
X160677426Y-95596376D01*
X161921618Y-94352184D01*
X177861933Y-94352184D01*
X177908015Y-94710698D01*
X178023154Y-95053333D01*
X178142164Y-95275986D01*
X178427020Y-95395874D01*
X179525395Y-94297500D01*
X179884605Y-94297500D01*
X180982980Y-95395874D01*
X181267836Y-95275986D01*
X181428699Y-94952290D01*
X181523322Y-94603431D01*
X181548067Y-94242816D01*
X181501985Y-93884302D01*
X181386846Y-93541667D01*
X181267836Y-93319014D01*
X180982980Y-93199126D01*
X179884605Y-94297500D01*
X179525395Y-94297500D01*
X178427020Y-93199126D01*
X178142164Y-93319014D01*
X177981301Y-93642710D01*
X177886678Y-93991569D01*
X177861933Y-94352184D01*
X161921618Y-94352184D01*
X163254282Y-93019520D01*
X178606626Y-93019520D01*
X179705000Y-94117895D01*
X180803374Y-93019520D01*
X180683486Y-92734664D01*
X180359790Y-92573801D01*
X180010931Y-92479178D01*
X179650316Y-92454433D01*
X179291802Y-92500515D01*
X178949167Y-92615654D01*
X178726514Y-92734664D01*
X178606626Y-93019520D01*
X163254282Y-93019520D01*
X164959114Y-91314688D01*
X165141665Y-91351000D01*
X165424335Y-91351000D01*
X165701574Y-91295853D01*
X165962727Y-91187680D01*
X166197759Y-91030637D01*
X166397637Y-90830759D01*
X166554680Y-90595727D01*
X166662853Y-90334574D01*
X166718000Y-90057335D01*
X166718000Y-89774665D01*
X166662853Y-89497426D01*
X166554680Y-89236273D01*
X166474317Y-89116000D01*
X167344928Y-89116000D01*
X167344928Y-90716000D01*
X167357188Y-90840482D01*
X167393498Y-90960180D01*
X167452463Y-91070494D01*
X167531815Y-91167185D01*
X167628506Y-91246537D01*
X167738820Y-91305502D01*
X167858518Y-91341812D01*
X167983000Y-91354072D01*
X169583000Y-91354072D01*
X169707482Y-91341812D01*
X169827180Y-91305502D01*
X169937494Y-91246537D01*
X170034185Y-91167185D01*
X170113537Y-91070494D01*
X170172502Y-90960180D01*
X170208812Y-90840482D01*
X170221072Y-90716000D01*
X170221072Y-89116000D01*
X170208812Y-88991518D01*
X170172502Y-88871820D01*
X170113537Y-88761506D01*
X170034185Y-88664815D01*
X169937494Y-88585463D01*
X169827180Y-88526498D01*
X169707482Y-88490188D01*
X169583000Y-88477928D01*
X167983000Y-88477928D01*
X167858518Y-88490188D01*
X167738820Y-88526498D01*
X167628506Y-88585463D01*
X167531815Y-88664815D01*
X167452463Y-88761506D01*
X167393498Y-88871820D01*
X167357188Y-88991518D01*
X167344928Y-89116000D01*
X166474317Y-89116000D01*
X166397637Y-89001241D01*
X166197759Y-88801363D01*
X165962727Y-88644320D01*
X165701574Y-88536147D01*
X165424335Y-88481000D01*
X165141665Y-88481000D01*
X164864426Y-88536147D01*
X164603273Y-88644320D01*
X164368241Y-88801363D01*
X164168363Y-89001241D01*
X164011320Y-89236273D01*
X163903147Y-89497426D01*
X163848000Y-89774665D01*
X163848000Y-90057335D01*
X163884312Y-90239886D01*
X156136003Y-97988196D01*
X156106999Y-98011999D01*
X156051871Y-98079174D01*
X156012026Y-98127724D01*
X155971798Y-98202985D01*
X155941454Y-98259754D01*
X155897997Y-98403015D01*
X155887000Y-98514668D01*
X155887000Y-98514678D01*
X155883324Y-98552000D01*
X149273196Y-98552000D01*
X149098359Y-98377163D01*
X148865841Y-98221800D01*
X149098359Y-98066437D01*
X149298237Y-97866559D01*
X149455280Y-97631527D01*
X149563453Y-97370374D01*
X149618600Y-97093135D01*
X149618600Y-96810465D01*
X149563453Y-96533226D01*
X149455280Y-96272073D01*
X149298237Y-96037041D01*
X149098359Y-95837163D01*
X148863327Y-95680120D01*
X148602174Y-95571947D01*
X148324935Y-95516800D01*
X148042265Y-95516800D01*
X147765026Y-95571947D01*
X147503873Y-95680120D01*
X147268841Y-95837163D01*
X147068963Y-96037041D01*
X146911920Y-96272073D01*
X146803747Y-96533226D01*
X146748600Y-96810465D01*
X146748600Y-97093135D01*
X146803747Y-97370374D01*
X146911920Y-97631527D01*
X147068963Y-97866559D01*
X147268841Y-98066437D01*
X147501359Y-98221800D01*
X147268841Y-98377163D01*
X147068963Y-98577041D01*
X146911920Y-98812073D01*
X146803747Y-99073226D01*
X146748600Y-99350465D01*
X146748600Y-99633135D01*
X146784912Y-99815686D01*
X145107198Y-101493401D01*
X145078200Y-101517199D01*
X145054402Y-101546197D01*
X145054401Y-101546198D01*
X144983226Y-101632924D01*
X144912654Y-101764954D01*
X144882380Y-101864758D01*
X144869198Y-101908214D01*
X144861004Y-101991404D01*
X144854524Y-102057200D01*
X144858201Y-102094532D01*
X144858200Y-105272998D01*
X144665600Y-105465598D01*
X144665600Y-105294065D01*
X144610453Y-105016826D01*
X144502280Y-104755673D01*
X144345237Y-104520641D01*
X144145359Y-104320763D01*
X143912841Y-104165400D01*
X144145359Y-104010037D01*
X144345237Y-103810159D01*
X144502280Y-103575127D01*
X144610453Y-103313974D01*
X144665600Y-103036735D01*
X144665600Y-102754065D01*
X144610453Y-102476826D01*
X144502280Y-102215673D01*
X144345237Y-101980641D01*
X144145359Y-101780763D01*
X143912841Y-101625400D01*
X144145359Y-101470037D01*
X144345237Y-101270159D01*
X144502280Y-101035127D01*
X144610453Y-100773974D01*
X144665600Y-100496735D01*
X144665600Y-100214065D01*
X144610453Y-99936826D01*
X144502280Y-99675673D01*
X144345237Y-99440641D01*
X144145359Y-99240763D01*
X143912841Y-99085400D01*
X144145359Y-98930037D01*
X144345237Y-98730159D01*
X144502280Y-98495127D01*
X144610453Y-98233974D01*
X144665600Y-97956735D01*
X144665600Y-97674065D01*
X144610453Y-97396826D01*
X144502280Y-97135673D01*
X144345237Y-96900641D01*
X144145359Y-96700763D01*
X143910327Y-96543720D01*
X143899735Y-96539333D01*
X144085731Y-96427785D01*
X144294119Y-96238814D01*
X144461637Y-96012820D01*
X144581846Y-95758487D01*
X144622504Y-95624439D01*
X144500515Y-95402400D01*
X143357600Y-95402400D01*
X143357600Y-95422400D01*
X143103600Y-95422400D01*
X143103600Y-95402400D01*
X141960685Y-95402400D01*
X141838696Y-95624439D01*
X141879354Y-95758487D01*
X141960607Y-95930399D01*
X129272523Y-95930399D01*
X129370453Y-95693974D01*
X129425600Y-95416735D01*
X129425600Y-95134065D01*
X129370453Y-94856826D01*
X129262280Y-94595673D01*
X129105237Y-94360641D01*
X128905359Y-94160763D01*
X128672841Y-94005400D01*
X128905359Y-93850037D01*
X129105237Y-93650159D01*
X129262280Y-93415127D01*
X129370453Y-93153974D01*
X129425600Y-92876735D01*
X129425600Y-92594065D01*
X129370453Y-92316826D01*
X129262280Y-92055673D01*
X129105237Y-91820641D01*
X128905359Y-91620763D01*
X128672841Y-91465400D01*
X128905359Y-91310037D01*
X129105237Y-91110159D01*
X129262280Y-90875127D01*
X129370453Y-90613974D01*
X129425600Y-90336735D01*
X129425600Y-90054065D01*
X129370453Y-89776826D01*
X129262280Y-89515673D01*
X129105237Y-89280641D01*
X128905359Y-89080763D01*
X128672841Y-88925400D01*
X128905359Y-88770037D01*
X129105237Y-88570159D01*
X129262280Y-88335127D01*
X129370453Y-88073974D01*
X129425600Y-87796735D01*
X129425600Y-87514065D01*
X129370453Y-87236826D01*
X129262280Y-86975673D01*
X129181917Y-86855400D01*
X141792528Y-86855400D01*
X141792528Y-88455400D01*
X141804788Y-88579882D01*
X141841098Y-88699580D01*
X141900063Y-88809894D01*
X141979415Y-88906585D01*
X142076106Y-88985937D01*
X142186420Y-89044902D01*
X142306118Y-89081212D01*
X142314561Y-89082043D01*
X142115963Y-89280641D01*
X141958920Y-89515673D01*
X141850747Y-89776826D01*
X141795600Y-90054065D01*
X141795600Y-90336735D01*
X141850747Y-90613974D01*
X141958920Y-90875127D01*
X142115963Y-91110159D01*
X142315841Y-91310037D01*
X142548359Y-91465400D01*
X142315841Y-91620763D01*
X142115963Y-91820641D01*
X141958920Y-92055673D01*
X141850747Y-92316826D01*
X141795600Y-92594065D01*
X141795600Y-92876735D01*
X141850747Y-93153974D01*
X141958920Y-93415127D01*
X142115963Y-93650159D01*
X142315841Y-93850037D01*
X142550873Y-94007080D01*
X142561465Y-94011467D01*
X142375469Y-94123015D01*
X142167081Y-94311986D01*
X141999563Y-94537980D01*
X141879354Y-94792313D01*
X141838696Y-94926361D01*
X141960685Y-95148400D01*
X143103600Y-95148400D01*
X143103600Y-95128400D01*
X143357600Y-95128400D01*
X143357600Y-95148400D01*
X144500515Y-95148400D01*
X144622504Y-94926361D01*
X144581846Y-94792313D01*
X144461637Y-94537980D01*
X144294119Y-94311986D01*
X144085731Y-94123015D01*
X143899735Y-94011467D01*
X143910327Y-94007080D01*
X144145359Y-93850037D01*
X144345237Y-93650159D01*
X144502280Y-93415127D01*
X144610453Y-93153974D01*
X144665600Y-92876735D01*
X144665600Y-92594065D01*
X144610453Y-92316826D01*
X144568104Y-92214586D01*
X147360019Y-92214586D01*
X147420451Y-92449171D01*
X147660261Y-92560869D01*
X147917255Y-92623636D01*
X148181556Y-92635060D01*
X148443008Y-92594702D01*
X148691562Y-92504112D01*
X148794349Y-92449171D01*
X148854781Y-92214586D01*
X148107400Y-91467205D01*
X147360019Y-92214586D01*
X144568104Y-92214586D01*
X144502280Y-92055673D01*
X144345237Y-91820641D01*
X144145359Y-91620763D01*
X143912841Y-91465400D01*
X144067955Y-91361756D01*
X146759940Y-91361756D01*
X146800298Y-91623208D01*
X146890888Y-91871762D01*
X146945829Y-91974549D01*
X147180414Y-92034981D01*
X147927795Y-91287600D01*
X148287005Y-91287600D01*
X149034386Y-92034981D01*
X149268971Y-91974549D01*
X149380669Y-91734739D01*
X149443436Y-91477745D01*
X149454860Y-91213444D01*
X149448001Y-91169008D01*
X150500400Y-91169008D01*
X150500400Y-91444192D01*
X150554086Y-91714090D01*
X150659395Y-91968327D01*
X150812280Y-92197135D01*
X151006865Y-92391720D01*
X151235673Y-92544605D01*
X151489910Y-92649914D01*
X151759808Y-92703600D01*
X152034992Y-92703600D01*
X152304890Y-92649914D01*
X152559127Y-92544605D01*
X152787935Y-92391720D01*
X152982520Y-92197135D01*
X153041320Y-92109135D01*
X153049588Y-92193082D01*
X153085898Y-92312780D01*
X153144863Y-92423094D01*
X153224215Y-92519785D01*
X153320906Y-92599137D01*
X153431220Y-92658102D01*
X153550918Y-92694412D01*
X153675400Y-92706672D01*
X154151650Y-92703600D01*
X154310400Y-92544850D01*
X154310400Y-91433600D01*
X154290400Y-91433600D01*
X154290400Y-91179600D01*
X154310400Y-91179600D01*
X154310400Y-90068350D01*
X154564400Y-90068350D01*
X154564400Y-91179600D01*
X154584400Y-91179600D01*
X154584400Y-91433600D01*
X154564400Y-91433600D01*
X154564400Y-92544850D01*
X154723150Y-92703600D01*
X155199400Y-92706672D01*
X155323882Y-92694412D01*
X155443580Y-92658102D01*
X155553894Y-92599137D01*
X155650585Y-92519785D01*
X155729937Y-92423094D01*
X155788902Y-92312780D01*
X155825212Y-92193082D01*
X155833480Y-92109135D01*
X155892280Y-92197135D01*
X156086865Y-92391720D01*
X156315673Y-92544605D01*
X156569910Y-92649914D01*
X156839808Y-92703600D01*
X157114992Y-92703600D01*
X157384890Y-92649914D01*
X157639127Y-92544605D01*
X157867935Y-92391720D01*
X158062520Y-92197135D01*
X158215405Y-91968327D01*
X158247400Y-91891085D01*
X158279395Y-91968327D01*
X158432280Y-92197135D01*
X158626865Y-92391720D01*
X158855673Y-92544605D01*
X159109910Y-92649914D01*
X159379808Y-92703600D01*
X159654992Y-92703600D01*
X159924890Y-92649914D01*
X160179127Y-92544605D01*
X160407935Y-92391720D01*
X160602520Y-92197135D01*
X160755405Y-91968327D01*
X160860714Y-91714090D01*
X160914400Y-91444192D01*
X160914400Y-91169008D01*
X160860714Y-90899110D01*
X160755405Y-90644873D01*
X160602520Y-90416065D01*
X160407935Y-90221480D01*
X160179127Y-90068595D01*
X159924890Y-89963286D01*
X159654992Y-89909600D01*
X159379808Y-89909600D01*
X159109910Y-89963286D01*
X158855673Y-90068595D01*
X158626865Y-90221480D01*
X158432280Y-90416065D01*
X158279395Y-90644873D01*
X158247400Y-90722115D01*
X158215405Y-90644873D01*
X158062520Y-90416065D01*
X157867935Y-90221480D01*
X157639127Y-90068595D01*
X157384890Y-89963286D01*
X157114992Y-89909600D01*
X156839808Y-89909600D01*
X156569910Y-89963286D01*
X156315673Y-90068595D01*
X156086865Y-90221480D01*
X155892280Y-90416065D01*
X155833480Y-90504065D01*
X155825212Y-90420118D01*
X155788902Y-90300420D01*
X155729937Y-90190106D01*
X155650585Y-90093415D01*
X155553894Y-90014063D01*
X155443580Y-89955098D01*
X155323882Y-89918788D01*
X155199400Y-89906528D01*
X154723150Y-89909600D01*
X154564400Y-90068350D01*
X154310400Y-90068350D01*
X154151650Y-89909600D01*
X153675400Y-89906528D01*
X153550918Y-89918788D01*
X153431220Y-89955098D01*
X153320906Y-90014063D01*
X153224215Y-90093415D01*
X153144863Y-90190106D01*
X153085898Y-90300420D01*
X153049588Y-90420118D01*
X153041320Y-90504065D01*
X152982520Y-90416065D01*
X152787935Y-90221480D01*
X152559127Y-90068595D01*
X152304890Y-89963286D01*
X152034992Y-89909600D01*
X151759808Y-89909600D01*
X151489910Y-89963286D01*
X151235673Y-90068595D01*
X151006865Y-90221480D01*
X150812280Y-90416065D01*
X150659395Y-90644873D01*
X150554086Y-90899110D01*
X150500400Y-91169008D01*
X149448001Y-91169008D01*
X149414502Y-90951992D01*
X149323912Y-90703438D01*
X149268971Y-90600651D01*
X149034386Y-90540219D01*
X148287005Y-91287600D01*
X147927795Y-91287600D01*
X147180414Y-90540219D01*
X146945829Y-90600651D01*
X146834131Y-90840461D01*
X146771364Y-91097455D01*
X146759940Y-91361756D01*
X144067955Y-91361756D01*
X144145359Y-91310037D01*
X144345237Y-91110159D01*
X144502280Y-90875127D01*
X144610453Y-90613974D01*
X144665600Y-90336735D01*
X144665600Y-90054065D01*
X144610453Y-89776826D01*
X144502280Y-89515673D01*
X144345237Y-89280641D01*
X144146639Y-89082043D01*
X144155082Y-89081212D01*
X144274780Y-89044902D01*
X144385094Y-88985937D01*
X144481785Y-88906585D01*
X144561137Y-88809894D01*
X144620102Y-88699580D01*
X144645660Y-88615326D01*
X146764400Y-88615326D01*
X146764400Y-88879874D01*
X146816011Y-89139339D01*
X146917249Y-89383749D01*
X147064224Y-89603712D01*
X147251288Y-89790776D01*
X147471251Y-89937751D01*
X147666818Y-90018758D01*
X147523238Y-90071088D01*
X147420451Y-90126029D01*
X147360019Y-90360614D01*
X148107400Y-91107995D01*
X148854781Y-90360614D01*
X148794349Y-90126029D01*
X148556483Y-90015236D01*
X148743549Y-89937751D01*
X148963512Y-89790776D01*
X149150576Y-89603712D01*
X149297551Y-89383749D01*
X149398789Y-89139339D01*
X149450400Y-88879874D01*
X149450400Y-88615326D01*
X149398789Y-88355861D01*
X149297551Y-88111451D01*
X149150576Y-87891488D01*
X148963512Y-87704424D01*
X148743549Y-87557449D01*
X148499139Y-87456211D01*
X148239674Y-87404600D01*
X147975126Y-87404600D01*
X147715661Y-87456211D01*
X147471251Y-87557449D01*
X147251288Y-87704424D01*
X147064224Y-87891488D01*
X146917249Y-88111451D01*
X146816011Y-88355861D01*
X146764400Y-88615326D01*
X144645660Y-88615326D01*
X144656412Y-88579882D01*
X144668672Y-88455400D01*
X144668672Y-87268098D01*
X177193000Y-87268098D01*
X177193000Y-87737902D01*
X177284654Y-88198679D01*
X177464440Y-88632721D01*
X177725450Y-89023349D01*
X178057651Y-89355550D01*
X178448279Y-89616560D01*
X178882321Y-89796346D01*
X179343098Y-89888000D01*
X179812902Y-89888000D01*
X180273679Y-89796346D01*
X180707721Y-89616560D01*
X181098349Y-89355550D01*
X181430550Y-89023349D01*
X181691560Y-88632721D01*
X181871346Y-88198679D01*
X181963000Y-87737902D01*
X181963000Y-87268098D01*
X181871346Y-86807321D01*
X181691560Y-86373279D01*
X181430550Y-85982651D01*
X181098349Y-85650450D01*
X180707721Y-85389440D01*
X180273679Y-85209654D01*
X179812902Y-85118000D01*
X179343098Y-85118000D01*
X178882321Y-85209654D01*
X178448279Y-85389440D01*
X178057651Y-85650450D01*
X177725450Y-85982651D01*
X177464440Y-86373279D01*
X177284654Y-86807321D01*
X177193000Y-87268098D01*
X144668672Y-87268098D01*
X144668672Y-86855400D01*
X144656412Y-86730918D01*
X144620102Y-86611220D01*
X144561137Y-86500906D01*
X144481785Y-86404215D01*
X144385094Y-86324863D01*
X144274780Y-86265898D01*
X144155082Y-86229588D01*
X144030600Y-86217328D01*
X142430600Y-86217328D01*
X142306118Y-86229588D01*
X142186420Y-86265898D01*
X142076106Y-86324863D01*
X141979415Y-86404215D01*
X141900063Y-86500906D01*
X141841098Y-86611220D01*
X141804788Y-86730918D01*
X141792528Y-86855400D01*
X129181917Y-86855400D01*
X129105237Y-86740641D01*
X128905359Y-86540763D01*
X128670327Y-86383720D01*
X128409174Y-86275547D01*
X128131935Y-86220400D01*
X127849265Y-86220400D01*
X127572026Y-86275547D01*
X127310873Y-86383720D01*
X127075841Y-86540763D01*
X126875963Y-86740641D01*
X126718920Y-86975673D01*
X126610747Y-87236826D01*
X126555600Y-87514065D01*
X126555600Y-87796735D01*
X126610747Y-88073974D01*
X126718920Y-88335127D01*
X126875963Y-88570159D01*
X127075841Y-88770037D01*
X127308359Y-88925400D01*
X127075841Y-89080763D01*
X126875963Y-89280641D01*
X126718920Y-89515673D01*
X126610747Y-89776826D01*
X126555600Y-90054065D01*
X126555600Y-90336735D01*
X126610747Y-90613974D01*
X126718920Y-90875127D01*
X126875963Y-91110159D01*
X127075841Y-91310037D01*
X127308359Y-91465400D01*
X127075841Y-91620763D01*
X126875963Y-91820641D01*
X126718920Y-92055673D01*
X126610747Y-92316826D01*
X126555600Y-92594065D01*
X126555600Y-92876735D01*
X126610747Y-93153974D01*
X126718920Y-93415127D01*
X126875963Y-93650159D01*
X127075841Y-93850037D01*
X127308359Y-94005400D01*
X127075841Y-94160763D01*
X126875963Y-94360641D01*
X126718920Y-94595673D01*
X126610747Y-94856826D01*
X126555600Y-95134065D01*
X126555600Y-95416735D01*
X126610747Y-95693974D01*
X126708677Y-95930399D01*
X99711201Y-95930399D01*
X97577650Y-93796849D01*
X97622882Y-93687650D01*
X97693400Y-93333132D01*
X97693400Y-92971668D01*
X97622882Y-92617150D01*
X97484556Y-92283201D01*
X97283738Y-91982656D01*
X97028144Y-91727062D01*
X96727599Y-91526244D01*
X96393650Y-91387918D01*
X96039132Y-91317400D01*
X95677668Y-91317400D01*
X95323150Y-91387918D01*
X94989201Y-91526244D01*
X94688656Y-91727062D01*
X94433062Y-91982656D01*
X94232244Y-92283201D01*
X94187012Y-92392400D01*
X91029788Y-92392400D01*
X90984556Y-92283201D01*
X90783738Y-91982656D01*
X90528144Y-91727062D01*
X90227599Y-91526244D01*
X89893650Y-91387918D01*
X89539132Y-91317400D01*
X89177668Y-91317400D01*
X88823150Y-91387918D01*
X88489201Y-91526244D01*
X88188656Y-91727062D01*
X87933062Y-91982656D01*
X87732244Y-92283201D01*
X87593918Y-92617150D01*
X87523400Y-92971668D01*
X86258000Y-92971668D01*
X86258000Y-90651344D01*
X98633000Y-90651344D01*
X98633000Y-91022656D01*
X98705439Y-91386834D01*
X98847534Y-91729882D01*
X99053825Y-92038618D01*
X99316382Y-92301175D01*
X99625118Y-92507466D01*
X99968166Y-92649561D01*
X100332344Y-92722000D01*
X100703656Y-92722000D01*
X101067834Y-92649561D01*
X101410882Y-92507466D01*
X101719618Y-92301175D01*
X101982175Y-92038618D01*
X102188466Y-91729882D01*
X102330561Y-91386834D01*
X102403000Y-91022656D01*
X102403000Y-90651344D01*
X122133000Y-90651344D01*
X122133000Y-91022656D01*
X122205439Y-91386834D01*
X122347534Y-91729882D01*
X122553825Y-92038618D01*
X122816382Y-92301175D01*
X123125118Y-92507466D01*
X123468166Y-92649561D01*
X123832344Y-92722000D01*
X124203656Y-92722000D01*
X124567834Y-92649561D01*
X124910882Y-92507466D01*
X125219618Y-92301175D01*
X125482175Y-92038618D01*
X125688466Y-91729882D01*
X125830561Y-91386834D01*
X125903000Y-91022656D01*
X125903000Y-90651344D01*
X125830561Y-90287166D01*
X125688466Y-89944118D01*
X125482175Y-89635382D01*
X125219618Y-89372825D01*
X124910882Y-89166534D01*
X124567834Y-89024439D01*
X124203656Y-88952000D01*
X123832344Y-88952000D01*
X123468166Y-89024439D01*
X123125118Y-89166534D01*
X122816382Y-89372825D01*
X122553825Y-89635382D01*
X122347534Y-89944118D01*
X122205439Y-90287166D01*
X122133000Y-90651344D01*
X102403000Y-90651344D01*
X102330561Y-90287166D01*
X102188466Y-89944118D01*
X101982175Y-89635382D01*
X101719618Y-89372825D01*
X101410882Y-89166534D01*
X101067834Y-89024439D01*
X100703656Y-88952000D01*
X100332344Y-88952000D01*
X99968166Y-89024439D01*
X99625118Y-89166534D01*
X99316382Y-89372825D01*
X99053825Y-89635382D01*
X98847534Y-89944118D01*
X98705439Y-90287166D01*
X98633000Y-90651344D01*
X86258000Y-90651344D01*
X86258000Y-87268098D01*
X88115200Y-87268098D01*
X88115200Y-87737902D01*
X88206854Y-88198679D01*
X88386640Y-88632721D01*
X88647650Y-89023349D01*
X88979851Y-89355550D01*
X89370479Y-89616560D01*
X89804521Y-89796346D01*
X90265298Y-89888000D01*
X90735102Y-89888000D01*
X91195879Y-89796346D01*
X91629921Y-89616560D01*
X92020549Y-89355550D01*
X92352750Y-89023349D01*
X92613760Y-88632721D01*
X92793546Y-88198679D01*
X92885200Y-87737902D01*
X92885200Y-87268098D01*
X92793546Y-86807321D01*
X92613760Y-86373279D01*
X92352750Y-85982651D01*
X92020549Y-85650450D01*
X91629921Y-85389440D01*
X91195879Y-85209654D01*
X90735102Y-85118000D01*
X90265298Y-85118000D01*
X89804521Y-85209654D01*
X89370479Y-85389440D01*
X88979851Y-85650450D01*
X88647650Y-85982651D01*
X88386640Y-86373279D01*
X88206854Y-86807321D01*
X88115200Y-87268098D01*
X86258000Y-87268098D01*
X86258000Y-83718000D01*
X183998000Y-83718000D01*
X183998001Y-128118000D01*
G37*
%TD.AperFunction*%
%TD*%
M02*
