%TF.GenerationSoftware,KiCad,Pcbnew,(5.1.10)-1*%
%TF.CreationDate,2021-10-25T17:57:51-04:00*%
%TF.ProjectId,KittyCaddy,4b697474-7943-4616-9464-792e6b696361,rev?*%
%TF.SameCoordinates,Original*%
%TF.FileFunction,Legend,Bot*%
%TF.FilePolarity,Positive*%
%FSLAX46Y46*%
G04 Gerber Fmt 4.6, Leading zero omitted, Abs format (unit mm)*
G04 Created by KiCad (PCBNEW (5.1.10)-1) date 2021-10-25 17:57:51*
%MOMM*%
%LPD*%
G01*
G04 APERTURE LIST*
%ADD10C,0.150000*%
%ADD11C,0.120000*%
G04 APERTURE END LIST*
D10*
X119363833Y-121689761D02*
X119220976Y-121737380D01*
X118982880Y-121737380D01*
X118887642Y-121689761D01*
X118840023Y-121642142D01*
X118792404Y-121546904D01*
X118792404Y-121451666D01*
X118840023Y-121356428D01*
X118887642Y-121308809D01*
X118982880Y-121261190D01*
X119173357Y-121213571D01*
X119268595Y-121165952D01*
X119316214Y-121118333D01*
X119363833Y-121023095D01*
X119363833Y-120927857D01*
X119316214Y-120832619D01*
X119268595Y-120785000D01*
X119173357Y-120737380D01*
X118935261Y-120737380D01*
X118792404Y-120785000D01*
X117982880Y-121689761D02*
X118078119Y-121737380D01*
X118268595Y-121737380D01*
X118363833Y-121689761D01*
X118411452Y-121594523D01*
X118411452Y-121213571D01*
X118363833Y-121118333D01*
X118268595Y-121070714D01*
X118078119Y-121070714D01*
X117982880Y-121118333D01*
X117935261Y-121213571D01*
X117935261Y-121308809D01*
X118411452Y-121404047D01*
X117506690Y-121070714D02*
X117506690Y-121737380D01*
X117506690Y-121165952D02*
X117459071Y-121118333D01*
X117363833Y-121070714D01*
X117220976Y-121070714D01*
X117125738Y-121118333D01*
X117078119Y-121213571D01*
X117078119Y-121737380D01*
X116649547Y-121689761D02*
X116554309Y-121737380D01*
X116363833Y-121737380D01*
X116268595Y-121689761D01*
X116220976Y-121594523D01*
X116220976Y-121546904D01*
X116268595Y-121451666D01*
X116363833Y-121404047D01*
X116506690Y-121404047D01*
X116601928Y-121356428D01*
X116649547Y-121261190D01*
X116649547Y-121213571D01*
X116601928Y-121118333D01*
X116506690Y-121070714D01*
X116363833Y-121070714D01*
X116268595Y-121118333D01*
X115649547Y-121737380D02*
X115744785Y-121689761D01*
X115792404Y-121642142D01*
X115840023Y-121546904D01*
X115840023Y-121261190D01*
X115792404Y-121165952D01*
X115744785Y-121118333D01*
X115649547Y-121070714D01*
X115506690Y-121070714D01*
X115411452Y-121118333D01*
X115363833Y-121165952D01*
X115316214Y-121261190D01*
X115316214Y-121546904D01*
X115363833Y-121642142D01*
X115411452Y-121689761D01*
X115506690Y-121737380D01*
X115649547Y-121737380D01*
X114887642Y-121737380D02*
X114887642Y-121070714D01*
X114887642Y-121261190D02*
X114840023Y-121165952D01*
X114792404Y-121118333D01*
X114697166Y-121070714D01*
X114601928Y-121070714D01*
X96686595Y-90257380D02*
X96686595Y-91066904D01*
X96638976Y-91162142D01*
X96591357Y-91209761D01*
X96496119Y-91257380D01*
X96305642Y-91257380D01*
X96210404Y-91209761D01*
X96162785Y-91162142D01*
X96115166Y-91066904D01*
X96115166Y-90257380D01*
X95638976Y-90590714D02*
X95638976Y-91590714D01*
X95638976Y-90638333D02*
X95543738Y-90590714D01*
X95353261Y-90590714D01*
X95258023Y-90638333D01*
X95210404Y-90685952D01*
X95162785Y-90781190D01*
X95162785Y-91066904D01*
X95210404Y-91162142D01*
X95258023Y-91209761D01*
X95353261Y-91257380D01*
X95543738Y-91257380D01*
X95638976Y-91209761D01*
X97107166Y-101480880D02*
X97107166Y-100480880D01*
X96773833Y-101195166D01*
X96440500Y-100480880D01*
X96440500Y-101480880D01*
X95821452Y-101480880D02*
X95916690Y-101433261D01*
X95964309Y-101385642D01*
X96011928Y-101290404D01*
X96011928Y-101004690D01*
X95964309Y-100909452D01*
X95916690Y-100861833D01*
X95821452Y-100814214D01*
X95678595Y-100814214D01*
X95583357Y-100861833D01*
X95535738Y-100909452D01*
X95488119Y-101004690D01*
X95488119Y-101290404D01*
X95535738Y-101385642D01*
X95583357Y-101433261D01*
X95678595Y-101480880D01*
X95821452Y-101480880D01*
X94630976Y-101480880D02*
X94630976Y-100480880D01*
X94630976Y-101433261D02*
X94726214Y-101480880D01*
X94916690Y-101480880D01*
X95011928Y-101433261D01*
X95059547Y-101385642D01*
X95107166Y-101290404D01*
X95107166Y-101004690D01*
X95059547Y-100909452D01*
X95011928Y-100861833D01*
X94916690Y-100814214D01*
X94726214Y-100814214D01*
X94630976Y-100861833D01*
X93773833Y-101433261D02*
X93869071Y-101480880D01*
X94059547Y-101480880D01*
X94154785Y-101433261D01*
X94202404Y-101338023D01*
X94202404Y-100957071D01*
X94154785Y-100861833D01*
X94059547Y-100814214D01*
X93869071Y-100814214D01*
X93773833Y-100861833D01*
X93726214Y-100957071D01*
X93726214Y-101052309D01*
X94202404Y-101147547D01*
X97130976Y-111513880D02*
X97130976Y-110513880D01*
X96892880Y-110513880D01*
X96750023Y-110561500D01*
X96654785Y-110656738D01*
X96607166Y-110751976D01*
X96559547Y-110942452D01*
X96559547Y-111085309D01*
X96607166Y-111275785D01*
X96654785Y-111371023D01*
X96750023Y-111466261D01*
X96892880Y-111513880D01*
X97130976Y-111513880D01*
X95988119Y-111513880D02*
X96083357Y-111466261D01*
X96130976Y-111418642D01*
X96178595Y-111323404D01*
X96178595Y-111037690D01*
X96130976Y-110942452D01*
X96083357Y-110894833D01*
X95988119Y-110847214D01*
X95845261Y-110847214D01*
X95750023Y-110894833D01*
X95702404Y-110942452D01*
X95654785Y-111037690D01*
X95654785Y-111323404D01*
X95702404Y-111418642D01*
X95750023Y-111466261D01*
X95845261Y-111513880D01*
X95988119Y-111513880D01*
X95321452Y-110847214D02*
X95130976Y-111513880D01*
X94940500Y-111037690D01*
X94750023Y-111513880D01*
X94559547Y-110847214D01*
X94178595Y-110847214D02*
X94178595Y-111513880D01*
X94178595Y-110942452D02*
X94130976Y-110894833D01*
X94035738Y-110847214D01*
X93892880Y-110847214D01*
X93797642Y-110894833D01*
X93750023Y-110990071D01*
X93750023Y-111513880D01*
X170854738Y-105053142D02*
X170807119Y-105196000D01*
X170807119Y-105434095D01*
X170854738Y-105529333D01*
X170902357Y-105576952D01*
X170997595Y-105624571D01*
X171092833Y-105624571D01*
X171188071Y-105576952D01*
X171235690Y-105529333D01*
X171283309Y-105434095D01*
X171330928Y-105243619D01*
X171378547Y-105148380D01*
X171426166Y-105100761D01*
X171521404Y-105053142D01*
X171616642Y-105053142D01*
X171711880Y-105100761D01*
X171759500Y-105148380D01*
X171807119Y-105243619D01*
X171807119Y-105481714D01*
X171759500Y-105624571D01*
X171473785Y-105910285D02*
X171473785Y-106291238D01*
X171807119Y-106053142D02*
X170949976Y-106053142D01*
X170854738Y-106100761D01*
X170807119Y-106196000D01*
X170807119Y-106291238D01*
X170854738Y-107005523D02*
X170807119Y-106910285D01*
X170807119Y-106719809D01*
X170854738Y-106624571D01*
X170949976Y-106576952D01*
X171330928Y-106576952D01*
X171426166Y-106624571D01*
X171473785Y-106719809D01*
X171473785Y-106910285D01*
X171426166Y-107005523D01*
X171330928Y-107053142D01*
X171235690Y-107053142D01*
X171140452Y-106576952D01*
X171473785Y-107481714D02*
X170473785Y-107481714D01*
X171426166Y-107481714D02*
X171473785Y-107576952D01*
X171473785Y-107767428D01*
X171426166Y-107862666D01*
X171378547Y-107910285D01*
X171283309Y-107957904D01*
X170997595Y-107957904D01*
X170902357Y-107910285D01*
X170854738Y-107862666D01*
X170807119Y-107767428D01*
X170807119Y-107576952D01*
X170854738Y-107481714D01*
X171473785Y-108386476D02*
X170473785Y-108386476D01*
X171426166Y-108386476D02*
X171473785Y-108481714D01*
X171473785Y-108672190D01*
X171426166Y-108767428D01*
X171378547Y-108815047D01*
X171283309Y-108862666D01*
X170997595Y-108862666D01*
X170902357Y-108815047D01*
X170854738Y-108767428D01*
X170807119Y-108672190D01*
X170807119Y-108481714D01*
X170854738Y-108386476D01*
X170854738Y-109672190D02*
X170807119Y-109576952D01*
X170807119Y-109386476D01*
X170854738Y-109291238D01*
X170949976Y-109243619D01*
X171330928Y-109243619D01*
X171426166Y-109291238D01*
X171473785Y-109386476D01*
X171473785Y-109576952D01*
X171426166Y-109672190D01*
X171330928Y-109719809D01*
X171235690Y-109719809D01*
X171140452Y-109243619D01*
X170807119Y-110148380D02*
X171473785Y-110148380D01*
X171283309Y-110148380D02*
X171378547Y-110196000D01*
X171426166Y-110243619D01*
X171473785Y-110338857D01*
X171473785Y-110434095D01*
D11*
%TO.C,R1*%
X121112100Y-122130200D02*
X121112100Y-126130200D01*
X123412100Y-122130200D02*
X121112100Y-122130200D01*
X123412100Y-126130200D02*
X123412100Y-122130200D01*
X123412100Y-126130200D02*
X121112100Y-126130200D01*
%TO.C,J1*%
X175288000Y-113654000D02*
X172688000Y-113654000D01*
X175288000Y-128354000D02*
X175288000Y-113654000D01*
X166088000Y-113654000D02*
X166088000Y-115554000D01*
X168788000Y-113654000D02*
X166088000Y-113654000D01*
X166088000Y-128354000D02*
X175288000Y-128354000D01*
X166088000Y-119554000D02*
X166088000Y-128354000D01*
X175488000Y-114504000D02*
X175488000Y-113454000D01*
X174438000Y-113454000D02*
X175488000Y-113454000D01*
%TO.C,R2*%
X98713100Y-126158500D02*
X103413100Y-126158500D01*
X103413100Y-124158500D02*
X98713100Y-124158500D01*
X98713100Y-126158500D02*
X98713100Y-124158500D01*
X103413100Y-124158500D02*
X103413100Y-126158500D01*
%TO.C,U2*%
X146783600Y-95551800D02*
X159613600Y-95551800D01*
X146783600Y-116131800D02*
X146783600Y-95551800D01*
X162283600Y-116131800D02*
X146783600Y-116131800D01*
X162283600Y-98221800D02*
X162283600Y-116131800D01*
X159613600Y-98221800D02*
X162283600Y-98221800D01*
X159613600Y-95551800D02*
X159613600Y-98221800D01*
X162283600Y-95551800D02*
X162283600Y-96951800D01*
X160883600Y-95551800D02*
X162283600Y-95551800D01*
X159613600Y-98221800D02*
X159613600Y-116131800D01*
X149453600Y-95551800D02*
X149453600Y-116131800D01*
%TO.C,U5*%
X101854000Y-110998000D02*
X112268000Y-110998000D01*
X101854000Y-97028000D02*
X101854000Y-110998000D01*
X122682000Y-97028000D02*
X101854000Y-97028000D01*
X122682000Y-110998000D02*
X122682000Y-97028000D01*
X112268000Y-110998000D02*
X122682000Y-110998000D01*
%TO.C,U1*%
X150647400Y-85826600D02*
X150647400Y-92430600D01*
X160807400Y-85826600D02*
X150647400Y-85826600D01*
X160807400Y-92430600D02*
X160807400Y-85826600D01*
X150647400Y-92430600D02*
X160807400Y-92430600D01*
%TO.C,J3*%
X119138600Y-127601200D02*
X119138600Y-128201200D01*
X117538600Y-127601200D02*
X119138600Y-127601200D01*
X117538600Y-128201200D02*
X117538600Y-127601200D01*
X116598600Y-127601200D02*
X116598600Y-128201200D01*
X114998600Y-127601200D02*
X116598600Y-127601200D01*
X114998600Y-128201200D02*
X114998600Y-127601200D01*
X114058600Y-127601200D02*
X114058600Y-128201200D01*
X112458600Y-127601200D02*
X114058600Y-127601200D01*
X112458600Y-128201200D02*
X112458600Y-127601200D01*
X111518600Y-127601200D02*
X111518600Y-128201200D01*
X109918600Y-127601200D02*
X111518600Y-127601200D01*
X109918600Y-128201200D02*
X109918600Y-127601200D01*
X108978600Y-127601200D02*
X108978600Y-128201200D01*
X107378600Y-127601200D02*
X108978600Y-127601200D01*
X107378600Y-128201200D02*
X107378600Y-127601200D01*
X118088600Y-122181200D02*
X118088600Y-123181200D01*
X108428600Y-122181200D02*
X108428600Y-123181200D01*
X118088600Y-123711200D02*
X118338600Y-123181200D01*
X108428600Y-123711200D02*
X118088600Y-123711200D01*
X108178600Y-123181200D02*
X108428600Y-123711200D01*
X118338600Y-123181200D02*
X118338600Y-122181200D01*
X108178600Y-123181200D02*
X118338600Y-123181200D01*
X108178600Y-122181200D02*
X108178600Y-123181200D01*
X106508600Y-127171200D02*
X106508600Y-123171200D01*
X119718600Y-128201200D02*
X106798600Y-128201200D01*
X119718600Y-122181200D02*
X119718600Y-128201200D01*
X106798600Y-122181200D02*
X119718600Y-122181200D01*
X106798600Y-128201200D02*
X106798600Y-122181200D01*
%TO.C,J2*%
X169714400Y-101257200D02*
X170314400Y-101257200D01*
X169714400Y-102857200D02*
X169714400Y-101257200D01*
X170314400Y-102857200D02*
X169714400Y-102857200D01*
X169714400Y-103797200D02*
X170314400Y-103797200D01*
X169714400Y-105397200D02*
X169714400Y-103797200D01*
X170314400Y-105397200D02*
X169714400Y-105397200D01*
X169714400Y-106337200D02*
X170314400Y-106337200D01*
X169714400Y-107937200D02*
X169714400Y-106337200D01*
X170314400Y-107937200D02*
X169714400Y-107937200D01*
X169714400Y-108877200D02*
X170314400Y-108877200D01*
X169714400Y-110477200D02*
X169714400Y-108877200D01*
X170314400Y-110477200D02*
X169714400Y-110477200D01*
X164294400Y-102307200D02*
X165294400Y-102307200D01*
X164294400Y-109427200D02*
X165294400Y-109427200D01*
X165824400Y-102307200D02*
X165294400Y-102057200D01*
X165824400Y-109427200D02*
X165824400Y-102307200D01*
X165294400Y-109677200D02*
X165824400Y-109427200D01*
X165294400Y-102057200D02*
X164294400Y-102057200D01*
X165294400Y-109677200D02*
X165294400Y-102057200D01*
X164294400Y-109677200D02*
X165294400Y-109677200D01*
X169284400Y-111347200D02*
X165284400Y-111347200D01*
X170314400Y-100677200D02*
X170314400Y-111057200D01*
X164294400Y-100677200D02*
X170314400Y-100677200D01*
X164294400Y-111057200D02*
X164294400Y-100677200D01*
X170314400Y-111057200D02*
X164294400Y-111057200D01*
%TO.C,C2*%
X171042698Y-87201000D02*
X171042698Y-88001000D01*
X171442698Y-87601000D02*
X170642698Y-87601000D01*
X162952000Y-89383000D02*
X162952000Y-90449000D01*
X162992000Y-89148000D02*
X162992000Y-90684000D01*
X163032000Y-88968000D02*
X163032000Y-90864000D01*
X163072000Y-88818000D02*
X163072000Y-91014000D01*
X163112000Y-88687000D02*
X163112000Y-91145000D01*
X163152000Y-88570000D02*
X163152000Y-91262000D01*
X163192000Y-88463000D02*
X163192000Y-91369000D01*
X163232000Y-88364000D02*
X163232000Y-91468000D01*
X163272000Y-88271000D02*
X163272000Y-91561000D01*
X163312000Y-88185000D02*
X163312000Y-91647000D01*
X163352000Y-88103000D02*
X163352000Y-91729000D01*
X163392000Y-88026000D02*
X163392000Y-91806000D01*
X163432000Y-87952000D02*
X163432000Y-91880000D01*
X163472000Y-87882000D02*
X163472000Y-91950000D01*
X163512000Y-87814000D02*
X163512000Y-92018000D01*
X163552000Y-87750000D02*
X163552000Y-92082000D01*
X163592000Y-87688000D02*
X163592000Y-92144000D01*
X163632000Y-87629000D02*
X163632000Y-92203000D01*
X163672000Y-87571000D02*
X163672000Y-92261000D01*
X163712000Y-87516000D02*
X163712000Y-92316000D01*
X163752000Y-87462000D02*
X163752000Y-92370000D01*
X163792000Y-87411000D02*
X163792000Y-92421000D01*
X163832000Y-87360000D02*
X163832000Y-92472000D01*
X163872000Y-87312000D02*
X163872000Y-92520000D01*
X163912000Y-87265000D02*
X163912000Y-92567000D01*
X163952000Y-87219000D02*
X163952000Y-92613000D01*
X163992000Y-87175000D02*
X163992000Y-92657000D01*
X164032000Y-87132000D02*
X164032000Y-92700000D01*
X164072000Y-87090000D02*
X164072000Y-92742000D01*
X164112000Y-87049000D02*
X164112000Y-92783000D01*
X164152000Y-87009000D02*
X164152000Y-92823000D01*
X164192000Y-86971000D02*
X164192000Y-92861000D01*
X164232000Y-86933000D02*
X164232000Y-92899000D01*
X164272000Y-90956000D02*
X164272000Y-92935000D01*
X164272000Y-86897000D02*
X164272000Y-88876000D01*
X164312000Y-90956000D02*
X164312000Y-92971000D01*
X164312000Y-86861000D02*
X164312000Y-88876000D01*
X164352000Y-90956000D02*
X164352000Y-93006000D01*
X164352000Y-86826000D02*
X164352000Y-88876000D01*
X164392000Y-90956000D02*
X164392000Y-93040000D01*
X164392000Y-86792000D02*
X164392000Y-88876000D01*
X164432000Y-90956000D02*
X164432000Y-93072000D01*
X164432000Y-86760000D02*
X164432000Y-88876000D01*
X164472000Y-90956000D02*
X164472000Y-93105000D01*
X164472000Y-86727000D02*
X164472000Y-88876000D01*
X164512000Y-90956000D02*
X164512000Y-93136000D01*
X164512000Y-86696000D02*
X164512000Y-88876000D01*
X164552000Y-90956000D02*
X164552000Y-93166000D01*
X164552000Y-86666000D02*
X164552000Y-88876000D01*
X164592000Y-90956000D02*
X164592000Y-93196000D01*
X164592000Y-86636000D02*
X164592000Y-88876000D01*
X164632000Y-90956000D02*
X164632000Y-93225000D01*
X164632000Y-86607000D02*
X164632000Y-88876000D01*
X164672000Y-90956000D02*
X164672000Y-93254000D01*
X164672000Y-86578000D02*
X164672000Y-88876000D01*
X164712000Y-90956000D02*
X164712000Y-93281000D01*
X164712000Y-86551000D02*
X164712000Y-88876000D01*
X164752000Y-90956000D02*
X164752000Y-93308000D01*
X164752000Y-86524000D02*
X164752000Y-88876000D01*
X164792000Y-90956000D02*
X164792000Y-93334000D01*
X164792000Y-86498000D02*
X164792000Y-88876000D01*
X164832000Y-90956000D02*
X164832000Y-93360000D01*
X164832000Y-86472000D02*
X164832000Y-88876000D01*
X164872000Y-90956000D02*
X164872000Y-93385000D01*
X164872000Y-86447000D02*
X164872000Y-88876000D01*
X164912000Y-90956000D02*
X164912000Y-93409000D01*
X164912000Y-86423000D02*
X164912000Y-88876000D01*
X164952000Y-90956000D02*
X164952000Y-93433000D01*
X164952000Y-86399000D02*
X164952000Y-88876000D01*
X164992000Y-90956000D02*
X164992000Y-93456000D01*
X164992000Y-86376000D02*
X164992000Y-88876000D01*
X165032000Y-90956000D02*
X165032000Y-93478000D01*
X165032000Y-86354000D02*
X165032000Y-88876000D01*
X165072000Y-90956000D02*
X165072000Y-93500000D01*
X165072000Y-86332000D02*
X165072000Y-88876000D01*
X165112000Y-90956000D02*
X165112000Y-93522000D01*
X165112000Y-86310000D02*
X165112000Y-88876000D01*
X165152000Y-90956000D02*
X165152000Y-93543000D01*
X165152000Y-86289000D02*
X165152000Y-88876000D01*
X165192000Y-90956000D02*
X165192000Y-93563000D01*
X165192000Y-86269000D02*
X165192000Y-88876000D01*
X165232000Y-90956000D02*
X165232000Y-93582000D01*
X165232000Y-86250000D02*
X165232000Y-88876000D01*
X165272000Y-90956000D02*
X165272000Y-93602000D01*
X165272000Y-86230000D02*
X165272000Y-88876000D01*
X165312000Y-90956000D02*
X165312000Y-93620000D01*
X165312000Y-86212000D02*
X165312000Y-88876000D01*
X165352000Y-90956000D02*
X165352000Y-93638000D01*
X165352000Y-86194000D02*
X165352000Y-88876000D01*
X165392000Y-90956000D02*
X165392000Y-93656000D01*
X165392000Y-86176000D02*
X165392000Y-88876000D01*
X165432000Y-90956000D02*
X165432000Y-93673000D01*
X165432000Y-86159000D02*
X165432000Y-88876000D01*
X165472000Y-90956000D02*
X165472000Y-93690000D01*
X165472000Y-86142000D02*
X165472000Y-88876000D01*
X165512000Y-90956000D02*
X165512000Y-93706000D01*
X165512000Y-86126000D02*
X165512000Y-88876000D01*
X165552000Y-90956000D02*
X165552000Y-93721000D01*
X165552000Y-86111000D02*
X165552000Y-88876000D01*
X165592000Y-90956000D02*
X165592000Y-93737000D01*
X165592000Y-86095000D02*
X165592000Y-88876000D01*
X165632000Y-90956000D02*
X165632000Y-93751000D01*
X165632000Y-86081000D02*
X165632000Y-88876000D01*
X165672000Y-90956000D02*
X165672000Y-93766000D01*
X165672000Y-86066000D02*
X165672000Y-88876000D01*
X165712000Y-90956000D02*
X165712000Y-93779000D01*
X165712000Y-86053000D02*
X165712000Y-88876000D01*
X165752000Y-90956000D02*
X165752000Y-93793000D01*
X165752000Y-86039000D02*
X165752000Y-88876000D01*
X165792000Y-90956000D02*
X165792000Y-93805000D01*
X165792000Y-86027000D02*
X165792000Y-88876000D01*
X165832000Y-90956000D02*
X165832000Y-93818000D01*
X165832000Y-86014000D02*
X165832000Y-88876000D01*
X165872000Y-90956000D02*
X165872000Y-93830000D01*
X165872000Y-86002000D02*
X165872000Y-88876000D01*
X165912000Y-90956000D02*
X165912000Y-93841000D01*
X165912000Y-85991000D02*
X165912000Y-88876000D01*
X165952000Y-90956000D02*
X165952000Y-93852000D01*
X165952000Y-85980000D02*
X165952000Y-88876000D01*
X165992000Y-90956000D02*
X165992000Y-93863000D01*
X165992000Y-85969000D02*
X165992000Y-88876000D01*
X166032000Y-90956000D02*
X166032000Y-93873000D01*
X166032000Y-85959000D02*
X166032000Y-88876000D01*
X166072000Y-90956000D02*
X166072000Y-93883000D01*
X166072000Y-85949000D02*
X166072000Y-88876000D01*
X166112000Y-90956000D02*
X166112000Y-93892000D01*
X166112000Y-85940000D02*
X166112000Y-88876000D01*
X166152000Y-90956000D02*
X166152000Y-93901000D01*
X166152000Y-85931000D02*
X166152000Y-88876000D01*
X166192000Y-90956000D02*
X166192000Y-93910000D01*
X166192000Y-85922000D02*
X166192000Y-88876000D01*
X166232000Y-90956000D02*
X166232000Y-93918000D01*
X166232000Y-85914000D02*
X166232000Y-88876000D01*
X166272000Y-90956000D02*
X166272000Y-93926000D01*
X166272000Y-85906000D02*
X166272000Y-88876000D01*
X166312000Y-90956000D02*
X166312000Y-93933000D01*
X166312000Y-85899000D02*
X166312000Y-88876000D01*
X166353000Y-85892000D02*
X166353000Y-93940000D01*
X166393000Y-85886000D02*
X166393000Y-93946000D01*
X166433000Y-85879000D02*
X166433000Y-93953000D01*
X166473000Y-85874000D02*
X166473000Y-93958000D01*
X166513000Y-85868000D02*
X166513000Y-93964000D01*
X166553000Y-85864000D02*
X166553000Y-93968000D01*
X166593000Y-85859000D02*
X166593000Y-93973000D01*
X166633000Y-85855000D02*
X166633000Y-93977000D01*
X166673000Y-85851000D02*
X166673000Y-93981000D01*
X166713000Y-85848000D02*
X166713000Y-93984000D01*
X166753000Y-85845000D02*
X166753000Y-93987000D01*
X166793000Y-85842000D02*
X166793000Y-93990000D01*
X166833000Y-85840000D02*
X166833000Y-93992000D01*
X166873000Y-85839000D02*
X166873000Y-93993000D01*
X166913000Y-85837000D02*
X166913000Y-93995000D01*
X166953000Y-85836000D02*
X166953000Y-93996000D01*
X166993000Y-85836000D02*
X166993000Y-93996000D01*
X167033000Y-85836000D02*
X167033000Y-93996000D01*
X171153000Y-89916000D02*
G75*
G03*
X171153000Y-89916000I-4120000J0D01*
G01*
%TO.C,C1*%
X163219498Y-120449600D02*
X163219498Y-121249600D01*
X163619498Y-120849600D02*
X162819498Y-120849600D01*
X155128800Y-122631600D02*
X155128800Y-123697600D01*
X155168800Y-122396600D02*
X155168800Y-123932600D01*
X155208800Y-122216600D02*
X155208800Y-124112600D01*
X155248800Y-122066600D02*
X155248800Y-124262600D01*
X155288800Y-121935600D02*
X155288800Y-124393600D01*
X155328800Y-121818600D02*
X155328800Y-124510600D01*
X155368800Y-121711600D02*
X155368800Y-124617600D01*
X155408800Y-121612600D02*
X155408800Y-124716600D01*
X155448800Y-121519600D02*
X155448800Y-124809600D01*
X155488800Y-121433600D02*
X155488800Y-124895600D01*
X155528800Y-121351600D02*
X155528800Y-124977600D01*
X155568800Y-121274600D02*
X155568800Y-125054600D01*
X155608800Y-121200600D02*
X155608800Y-125128600D01*
X155648800Y-121130600D02*
X155648800Y-125198600D01*
X155688800Y-121062600D02*
X155688800Y-125266600D01*
X155728800Y-120998600D02*
X155728800Y-125330600D01*
X155768800Y-120936600D02*
X155768800Y-125392600D01*
X155808800Y-120877600D02*
X155808800Y-125451600D01*
X155848800Y-120819600D02*
X155848800Y-125509600D01*
X155888800Y-120764600D02*
X155888800Y-125564600D01*
X155928800Y-120710600D02*
X155928800Y-125618600D01*
X155968800Y-120659600D02*
X155968800Y-125669600D01*
X156008800Y-120608600D02*
X156008800Y-125720600D01*
X156048800Y-120560600D02*
X156048800Y-125768600D01*
X156088800Y-120513600D02*
X156088800Y-125815600D01*
X156128800Y-120467600D02*
X156128800Y-125861600D01*
X156168800Y-120423600D02*
X156168800Y-125905600D01*
X156208800Y-120380600D02*
X156208800Y-125948600D01*
X156248800Y-120338600D02*
X156248800Y-125990600D01*
X156288800Y-120297600D02*
X156288800Y-126031600D01*
X156328800Y-120257600D02*
X156328800Y-126071600D01*
X156368800Y-120219600D02*
X156368800Y-126109600D01*
X156408800Y-120181600D02*
X156408800Y-126147600D01*
X156448800Y-124204600D02*
X156448800Y-126183600D01*
X156448800Y-120145600D02*
X156448800Y-122124600D01*
X156488800Y-124204600D02*
X156488800Y-126219600D01*
X156488800Y-120109600D02*
X156488800Y-122124600D01*
X156528800Y-124204600D02*
X156528800Y-126254600D01*
X156528800Y-120074600D02*
X156528800Y-122124600D01*
X156568800Y-124204600D02*
X156568800Y-126288600D01*
X156568800Y-120040600D02*
X156568800Y-122124600D01*
X156608800Y-124204600D02*
X156608800Y-126320600D01*
X156608800Y-120008600D02*
X156608800Y-122124600D01*
X156648800Y-124204600D02*
X156648800Y-126353600D01*
X156648800Y-119975600D02*
X156648800Y-122124600D01*
X156688800Y-124204600D02*
X156688800Y-126384600D01*
X156688800Y-119944600D02*
X156688800Y-122124600D01*
X156728800Y-124204600D02*
X156728800Y-126414600D01*
X156728800Y-119914600D02*
X156728800Y-122124600D01*
X156768800Y-124204600D02*
X156768800Y-126444600D01*
X156768800Y-119884600D02*
X156768800Y-122124600D01*
X156808800Y-124204600D02*
X156808800Y-126473600D01*
X156808800Y-119855600D02*
X156808800Y-122124600D01*
X156848800Y-124204600D02*
X156848800Y-126502600D01*
X156848800Y-119826600D02*
X156848800Y-122124600D01*
X156888800Y-124204600D02*
X156888800Y-126529600D01*
X156888800Y-119799600D02*
X156888800Y-122124600D01*
X156928800Y-124204600D02*
X156928800Y-126556600D01*
X156928800Y-119772600D02*
X156928800Y-122124600D01*
X156968800Y-124204600D02*
X156968800Y-126582600D01*
X156968800Y-119746600D02*
X156968800Y-122124600D01*
X157008800Y-124204600D02*
X157008800Y-126608600D01*
X157008800Y-119720600D02*
X157008800Y-122124600D01*
X157048800Y-124204600D02*
X157048800Y-126633600D01*
X157048800Y-119695600D02*
X157048800Y-122124600D01*
X157088800Y-124204600D02*
X157088800Y-126657600D01*
X157088800Y-119671600D02*
X157088800Y-122124600D01*
X157128800Y-124204600D02*
X157128800Y-126681600D01*
X157128800Y-119647600D02*
X157128800Y-122124600D01*
X157168800Y-124204600D02*
X157168800Y-126704600D01*
X157168800Y-119624600D02*
X157168800Y-122124600D01*
X157208800Y-124204600D02*
X157208800Y-126726600D01*
X157208800Y-119602600D02*
X157208800Y-122124600D01*
X157248800Y-124204600D02*
X157248800Y-126748600D01*
X157248800Y-119580600D02*
X157248800Y-122124600D01*
X157288800Y-124204600D02*
X157288800Y-126770600D01*
X157288800Y-119558600D02*
X157288800Y-122124600D01*
X157328800Y-124204600D02*
X157328800Y-126791600D01*
X157328800Y-119537600D02*
X157328800Y-122124600D01*
X157368800Y-124204600D02*
X157368800Y-126811600D01*
X157368800Y-119517600D02*
X157368800Y-122124600D01*
X157408800Y-124204600D02*
X157408800Y-126830600D01*
X157408800Y-119498600D02*
X157408800Y-122124600D01*
X157448800Y-124204600D02*
X157448800Y-126850600D01*
X157448800Y-119478600D02*
X157448800Y-122124600D01*
X157488800Y-124204600D02*
X157488800Y-126868600D01*
X157488800Y-119460600D02*
X157488800Y-122124600D01*
X157528800Y-124204600D02*
X157528800Y-126886600D01*
X157528800Y-119442600D02*
X157528800Y-122124600D01*
X157568800Y-124204600D02*
X157568800Y-126904600D01*
X157568800Y-119424600D02*
X157568800Y-122124600D01*
X157608800Y-124204600D02*
X157608800Y-126921600D01*
X157608800Y-119407600D02*
X157608800Y-122124600D01*
X157648800Y-124204600D02*
X157648800Y-126938600D01*
X157648800Y-119390600D02*
X157648800Y-122124600D01*
X157688800Y-124204600D02*
X157688800Y-126954600D01*
X157688800Y-119374600D02*
X157688800Y-122124600D01*
X157728800Y-124204600D02*
X157728800Y-126969600D01*
X157728800Y-119359600D02*
X157728800Y-122124600D01*
X157768800Y-124204600D02*
X157768800Y-126985600D01*
X157768800Y-119343600D02*
X157768800Y-122124600D01*
X157808800Y-124204600D02*
X157808800Y-126999600D01*
X157808800Y-119329600D02*
X157808800Y-122124600D01*
X157848800Y-124204600D02*
X157848800Y-127014600D01*
X157848800Y-119314600D02*
X157848800Y-122124600D01*
X157888800Y-124204600D02*
X157888800Y-127027600D01*
X157888800Y-119301600D02*
X157888800Y-122124600D01*
X157928800Y-124204600D02*
X157928800Y-127041600D01*
X157928800Y-119287600D02*
X157928800Y-122124600D01*
X157968800Y-124204600D02*
X157968800Y-127053600D01*
X157968800Y-119275600D02*
X157968800Y-122124600D01*
X158008800Y-124204600D02*
X158008800Y-127066600D01*
X158008800Y-119262600D02*
X158008800Y-122124600D01*
X158048800Y-124204600D02*
X158048800Y-127078600D01*
X158048800Y-119250600D02*
X158048800Y-122124600D01*
X158088800Y-124204600D02*
X158088800Y-127089600D01*
X158088800Y-119239600D02*
X158088800Y-122124600D01*
X158128800Y-124204600D02*
X158128800Y-127100600D01*
X158128800Y-119228600D02*
X158128800Y-122124600D01*
X158168800Y-124204600D02*
X158168800Y-127111600D01*
X158168800Y-119217600D02*
X158168800Y-122124600D01*
X158208800Y-124204600D02*
X158208800Y-127121600D01*
X158208800Y-119207600D02*
X158208800Y-122124600D01*
X158248800Y-124204600D02*
X158248800Y-127131600D01*
X158248800Y-119197600D02*
X158248800Y-122124600D01*
X158288800Y-124204600D02*
X158288800Y-127140600D01*
X158288800Y-119188600D02*
X158288800Y-122124600D01*
X158328800Y-124204600D02*
X158328800Y-127149600D01*
X158328800Y-119179600D02*
X158328800Y-122124600D01*
X158368800Y-124204600D02*
X158368800Y-127158600D01*
X158368800Y-119170600D02*
X158368800Y-122124600D01*
X158408800Y-124204600D02*
X158408800Y-127166600D01*
X158408800Y-119162600D02*
X158408800Y-122124600D01*
X158448800Y-124204600D02*
X158448800Y-127174600D01*
X158448800Y-119154600D02*
X158448800Y-122124600D01*
X158488800Y-124204600D02*
X158488800Y-127181600D01*
X158488800Y-119147600D02*
X158488800Y-122124600D01*
X158529800Y-119140600D02*
X158529800Y-127188600D01*
X158569800Y-119134600D02*
X158569800Y-127194600D01*
X158609800Y-119127600D02*
X158609800Y-127201600D01*
X158649800Y-119122600D02*
X158649800Y-127206600D01*
X158689800Y-119116600D02*
X158689800Y-127212600D01*
X158729800Y-119112600D02*
X158729800Y-127216600D01*
X158769800Y-119107600D02*
X158769800Y-127221600D01*
X158809800Y-119103600D02*
X158809800Y-127225600D01*
X158849800Y-119099600D02*
X158849800Y-127229600D01*
X158889800Y-119096600D02*
X158889800Y-127232600D01*
X158929800Y-119093600D02*
X158929800Y-127235600D01*
X158969800Y-119090600D02*
X158969800Y-127238600D01*
X159009800Y-119088600D02*
X159009800Y-127240600D01*
X159049800Y-119087600D02*
X159049800Y-127241600D01*
X159089800Y-119085600D02*
X159089800Y-127243600D01*
X159129800Y-119084600D02*
X159129800Y-127244600D01*
X159169800Y-119084600D02*
X159169800Y-127244600D01*
X159209800Y-119084600D02*
X159209800Y-127244600D01*
X163329800Y-123164600D02*
G75*
G03*
X163329800Y-123164600I-4120000J0D01*
G01*
%TO.C,U3*%
X126590600Y-83715400D02*
X144630600Y-83715400D01*
X126590600Y-127155400D02*
X126590600Y-83715400D01*
X144630600Y-127155400D02*
X126590600Y-127155400D01*
X141960600Y-124485400D02*
X144630600Y-124485400D01*
X141960600Y-88925400D02*
X141960600Y-124485400D01*
X141960600Y-88925400D02*
X144630600Y-88925400D01*
X129260600Y-124485400D02*
X126590600Y-124485400D01*
X129260600Y-86385400D02*
X129260600Y-124485400D01*
X129260600Y-86385400D02*
X126590600Y-86385400D01*
X144630600Y-83715400D02*
X144630600Y-86385400D01*
X144630600Y-88925400D02*
X144630600Y-127155400D01*
X141960600Y-86385400D02*
X144630600Y-86385400D01*
X141960600Y-88925400D02*
X141960600Y-86385400D01*
%TO.C,C3*%
X148742400Y-90398600D02*
X148742400Y-89636600D01*
X147345400Y-90398600D02*
X148742400Y-90398600D01*
X147345400Y-89636600D02*
X147345400Y-90398600D01*
X148742400Y-89636600D02*
X147345400Y-89636600D01*
%TO.C,R1*%
D10*
X124864480Y-123663533D02*
X124388290Y-123330200D01*
X124864480Y-123092104D02*
X123864480Y-123092104D01*
X123864480Y-123473057D01*
X123912100Y-123568295D01*
X123959719Y-123615914D01*
X124054957Y-123663533D01*
X124197814Y-123663533D01*
X124293052Y-123615914D01*
X124340671Y-123568295D01*
X124388290Y-123473057D01*
X124388290Y-123092104D01*
X124864480Y-124615914D02*
X124864480Y-124044485D01*
X124864480Y-124330200D02*
X123864480Y-124330200D01*
X124007338Y-124234961D01*
X124102576Y-124139723D01*
X124150195Y-124044485D01*
%TO.C,J1*%
X164390380Y-122670666D02*
X165104666Y-122670666D01*
X165247523Y-122623047D01*
X165342761Y-122527809D01*
X165390380Y-122384952D01*
X165390380Y-122289714D01*
X165390380Y-123670666D02*
X165390380Y-123099238D01*
X165390380Y-123384952D02*
X164390380Y-123384952D01*
X164533238Y-123289714D01*
X164628476Y-123194476D01*
X164676095Y-123099238D01*
%TO.C,R2*%
X101479766Y-123710880D02*
X101813100Y-123234690D01*
X102051195Y-123710880D02*
X102051195Y-122710880D01*
X101670242Y-122710880D01*
X101575004Y-122758500D01*
X101527385Y-122806119D01*
X101479766Y-122901357D01*
X101479766Y-123044214D01*
X101527385Y-123139452D01*
X101575004Y-123187071D01*
X101670242Y-123234690D01*
X102051195Y-123234690D01*
X101098814Y-122806119D02*
X101051195Y-122758500D01*
X100955957Y-122710880D01*
X100717861Y-122710880D01*
X100622623Y-122758500D01*
X100575004Y-122806119D01*
X100527385Y-122901357D01*
X100527385Y-122996595D01*
X100575004Y-123139452D01*
X101146433Y-123710880D01*
X100527385Y-123710880D01*
%TO.C,U2*%
X155295504Y-93864180D02*
X155295504Y-94673704D01*
X155247885Y-94768942D01*
X155200266Y-94816561D01*
X155105028Y-94864180D01*
X154914552Y-94864180D01*
X154819314Y-94816561D01*
X154771695Y-94768942D01*
X154724076Y-94673704D01*
X154724076Y-93864180D01*
X154295504Y-93959419D02*
X154247885Y-93911800D01*
X154152647Y-93864180D01*
X153914552Y-93864180D01*
X153819314Y-93911800D01*
X153771695Y-93959419D01*
X153724076Y-94054657D01*
X153724076Y-94149895D01*
X153771695Y-94292752D01*
X154343123Y-94864180D01*
X153724076Y-94864180D01*
%TO.C,U5*%
X103860504Y-111415580D02*
X103860504Y-112225104D01*
X103812885Y-112320342D01*
X103765266Y-112367961D01*
X103670028Y-112415580D01*
X103479552Y-112415580D01*
X103384314Y-112367961D01*
X103336695Y-112320342D01*
X103289076Y-112225104D01*
X103289076Y-111415580D01*
X102336695Y-111415580D02*
X102812885Y-111415580D01*
X102860504Y-111891771D01*
X102812885Y-111844152D01*
X102717647Y-111796533D01*
X102479552Y-111796533D01*
X102384314Y-111844152D01*
X102336695Y-111891771D01*
X102289076Y-111987009D01*
X102289076Y-112225104D01*
X102336695Y-112320342D01*
X102384314Y-112367961D01*
X102479552Y-112415580D01*
X102717647Y-112415580D01*
X102812885Y-112367961D01*
X102860504Y-112320342D01*
%TO.C,U1*%
X156540104Y-84516980D02*
X156540104Y-85326504D01*
X156492485Y-85421742D01*
X156444866Y-85469361D01*
X156349628Y-85516980D01*
X156159152Y-85516980D01*
X156063914Y-85469361D01*
X156016295Y-85421742D01*
X155968676Y-85326504D01*
X155968676Y-84516980D01*
X154968676Y-85516980D02*
X155540104Y-85516980D01*
X155254390Y-85516980D02*
X155254390Y-84516980D01*
X155349628Y-84659838D01*
X155444866Y-84755076D01*
X155540104Y-84802695D01*
X158552400Y-86382790D02*
X158552400Y-87335171D01*
X159872161Y-86573266D02*
X159919780Y-86716123D01*
X159919780Y-86954219D01*
X159872161Y-87049457D01*
X159824542Y-87097076D01*
X159729304Y-87144695D01*
X159634066Y-87144695D01*
X159538828Y-87097076D01*
X159491209Y-87049457D01*
X159443590Y-86954219D01*
X159395971Y-86763742D01*
X159348352Y-86668504D01*
X159300733Y-86620885D01*
X159205495Y-86573266D01*
X159110257Y-86573266D01*
X159015019Y-86620885D01*
X158967400Y-86668504D01*
X158919780Y-86763742D01*
X158919780Y-87001838D01*
X158967400Y-87144695D01*
X158552400Y-87335171D02*
X158552400Y-88382790D01*
X159919780Y-87573266D02*
X158919780Y-87573266D01*
X159395971Y-87573266D02*
X159395971Y-88144695D01*
X159919780Y-88144695D02*
X158919780Y-88144695D01*
X158552400Y-88382790D02*
X158552400Y-89382790D01*
X159919780Y-88620885D02*
X158919780Y-88620885D01*
X158919780Y-88858980D01*
X158967400Y-89001838D01*
X159062638Y-89097076D01*
X159157876Y-89144695D01*
X159348352Y-89192314D01*
X159491209Y-89192314D01*
X159681685Y-89144695D01*
X159776923Y-89097076D01*
X159872161Y-89001838D01*
X159919780Y-88858980D01*
X159919780Y-88620885D01*
X158552400Y-89382790D02*
X158552400Y-90430409D01*
X159919780Y-89620885D02*
X158919780Y-89620885D01*
X159919780Y-90192314D01*
X158919780Y-90192314D01*
X156319780Y-88011361D02*
X157319780Y-88344695D01*
X156319780Y-88678028D01*
X157319780Y-89011361D02*
X156319780Y-89011361D01*
X157319780Y-89487552D02*
X156319780Y-89487552D01*
X157319780Y-90058980D01*
X156319780Y-90058980D01*
X153967400Y-88144695D02*
X153919780Y-88049457D01*
X153919780Y-87906600D01*
X153967400Y-87763742D01*
X154062638Y-87668504D01*
X154157876Y-87620885D01*
X154348352Y-87573266D01*
X154491209Y-87573266D01*
X154681685Y-87620885D01*
X154776923Y-87668504D01*
X154872161Y-87763742D01*
X154919780Y-87906600D01*
X154919780Y-88001838D01*
X154872161Y-88144695D01*
X154824542Y-88192314D01*
X154491209Y-88192314D01*
X154491209Y-88001838D01*
X154919780Y-88620885D02*
X153919780Y-88620885D01*
X154919780Y-89192314D01*
X153919780Y-89192314D01*
X154919780Y-89668504D02*
X153919780Y-89668504D01*
X153919780Y-89906600D01*
X153967400Y-90049457D01*
X154062638Y-90144695D01*
X154157876Y-90192314D01*
X154348352Y-90239933D01*
X154491209Y-90239933D01*
X154681685Y-90192314D01*
X154776923Y-90144695D01*
X154872161Y-90049457D01*
X154919780Y-89906600D01*
X154919780Y-89668504D01*
X151319780Y-86744695D02*
X152319780Y-87078028D01*
X151319780Y-87411361D01*
X151319780Y-87935171D02*
X151319780Y-88125647D01*
X151367400Y-88220885D01*
X151462638Y-88316123D01*
X151653114Y-88363742D01*
X151986447Y-88363742D01*
X152176923Y-88316123D01*
X152272161Y-88220885D01*
X152319780Y-88125647D01*
X152319780Y-87935171D01*
X152272161Y-87839933D01*
X152176923Y-87744695D01*
X151986447Y-87697076D01*
X151653114Y-87697076D01*
X151462638Y-87744695D01*
X151367400Y-87839933D01*
X151319780Y-87935171D01*
X151319780Y-88792314D02*
X152129304Y-88792314D01*
X152224542Y-88839933D01*
X152272161Y-88887552D01*
X152319780Y-88982790D01*
X152319780Y-89173266D01*
X152272161Y-89268504D01*
X152224542Y-89316123D01*
X152129304Y-89363742D01*
X151319780Y-89363742D01*
X151319780Y-89697076D02*
X151319780Y-90268504D01*
X152319780Y-89982790D02*
X151319780Y-89982790D01*
%TO.C,J3*%
X107775333Y-120864380D02*
X107775333Y-121578666D01*
X107822952Y-121721523D01*
X107918190Y-121816761D01*
X108061047Y-121864380D01*
X108156285Y-121864380D01*
X107394380Y-120864380D02*
X106775333Y-120864380D01*
X107108666Y-121245333D01*
X106965809Y-121245333D01*
X106870571Y-121292952D01*
X106822952Y-121340571D01*
X106775333Y-121435809D01*
X106775333Y-121673904D01*
X106822952Y-121769142D01*
X106870571Y-121816761D01*
X106965809Y-121864380D01*
X107251523Y-121864380D01*
X107346761Y-121816761D01*
X107394380Y-121769142D01*
%TO.C,J2*%
X170648380Y-101330166D02*
X171362666Y-101330166D01*
X171505523Y-101282547D01*
X171600761Y-101187309D01*
X171648380Y-101044452D01*
X171648380Y-100949214D01*
X170743619Y-101758738D02*
X170696000Y-101806357D01*
X170648380Y-101901595D01*
X170648380Y-102139690D01*
X170696000Y-102234928D01*
X170743619Y-102282547D01*
X170838857Y-102330166D01*
X170934095Y-102330166D01*
X171076952Y-102282547D01*
X171648380Y-101711119D01*
X171648380Y-102330166D01*
%TO.C,C2*%
X167199666Y-85023142D02*
X167247285Y-85070761D01*
X167390142Y-85118380D01*
X167485380Y-85118380D01*
X167628238Y-85070761D01*
X167723476Y-84975523D01*
X167771095Y-84880285D01*
X167818714Y-84689809D01*
X167818714Y-84546952D01*
X167771095Y-84356476D01*
X167723476Y-84261238D01*
X167628238Y-84166000D01*
X167485380Y-84118380D01*
X167390142Y-84118380D01*
X167247285Y-84166000D01*
X167199666Y-84213619D01*
X166818714Y-84213619D02*
X166771095Y-84166000D01*
X166675857Y-84118380D01*
X166437761Y-84118380D01*
X166342523Y-84166000D01*
X166294904Y-84213619D01*
X166247285Y-84308857D01*
X166247285Y-84404095D01*
X166294904Y-84546952D01*
X166866333Y-85118380D01*
X166247285Y-85118380D01*
%TO.C,C1*%
X159376466Y-118271742D02*
X159424085Y-118319361D01*
X159566942Y-118366980D01*
X159662180Y-118366980D01*
X159805038Y-118319361D01*
X159900276Y-118224123D01*
X159947895Y-118128885D01*
X159995514Y-117938409D01*
X159995514Y-117795552D01*
X159947895Y-117605076D01*
X159900276Y-117509838D01*
X159805038Y-117414600D01*
X159662180Y-117366980D01*
X159566942Y-117366980D01*
X159424085Y-117414600D01*
X159376466Y-117462219D01*
X158424085Y-118366980D02*
X158995514Y-118366980D01*
X158709800Y-118366980D02*
X158709800Y-117366980D01*
X158805038Y-117509838D01*
X158900276Y-117605076D01*
X158995514Y-117652695D01*
%TO.C,U3*%
X125780704Y-84110580D02*
X125780704Y-84920104D01*
X125733085Y-85015342D01*
X125685466Y-85062961D01*
X125590228Y-85110580D01*
X125399752Y-85110580D01*
X125304514Y-85062961D01*
X125256895Y-85015342D01*
X125209276Y-84920104D01*
X125209276Y-84110580D01*
X124828323Y-84110580D02*
X124209276Y-84110580D01*
X124542609Y-84491533D01*
X124399752Y-84491533D01*
X124304514Y-84539152D01*
X124256895Y-84586771D01*
X124209276Y-84682009D01*
X124209276Y-84920104D01*
X124256895Y-85015342D01*
X124304514Y-85062961D01*
X124399752Y-85110580D01*
X124685466Y-85110580D01*
X124780704Y-85062961D01*
X124828323Y-85015342D01*
%TO.C,C3*%
X146686542Y-90358933D02*
X146734161Y-90311314D01*
X146781780Y-90168457D01*
X146781780Y-90073219D01*
X146734161Y-89930361D01*
X146638923Y-89835123D01*
X146543685Y-89787504D01*
X146353209Y-89739885D01*
X146210352Y-89739885D01*
X146019876Y-89787504D01*
X145924638Y-89835123D01*
X145829400Y-89930361D01*
X145781780Y-90073219D01*
X145781780Y-90168457D01*
X145829400Y-90311314D01*
X145877019Y-90358933D01*
X145781780Y-90692266D02*
X145781780Y-91311314D01*
X146162733Y-90977980D01*
X146162733Y-91120838D01*
X146210352Y-91216076D01*
X146257971Y-91263695D01*
X146353209Y-91311314D01*
X146591304Y-91311314D01*
X146686542Y-91263695D01*
X146734161Y-91216076D01*
X146781780Y-91120838D01*
X146781780Y-90835123D01*
X146734161Y-90739885D01*
X146686542Y-90692266D01*
%TD*%
M02*
