%TF.GenerationSoftware,KiCad,Pcbnew,(5.1.10)-1*%
%TF.CreationDate,2021-10-25T17:57:50-04:00*%
%TF.ProjectId,KittyCaddy,4b697474-7943-4616-9464-792e6b696361,rev?*%
%TF.SameCoordinates,Original*%
%TF.FileFunction,Copper,L1,Top*%
%TF.FilePolarity,Positive*%
%FSLAX46Y46*%
G04 Gerber Fmt 4.6, Leading zero omitted, Abs format (unit mm)*
G04 Created by KiCad (PCBNEW (5.1.10)-1) date 2021-10-25 17:57:50*
%MOMM*%
%LPD*%
G01*
G04 APERTURE LIST*
%TA.AperFunction,ComponentPad*%
%ADD10C,2.500000*%
%TD*%
%TA.AperFunction,ComponentPad*%
%ADD11C,1.600000*%
%TD*%
%TA.AperFunction,ComponentPad*%
%ADD12R,1.600000X1.600000*%
%TD*%
%TA.AperFunction,ComponentPad*%
%ADD13C,1.500000*%
%TD*%
%TA.AperFunction,ComponentPad*%
%ADD14C,3.500000*%
%TD*%
%TA.AperFunction,ComponentPad*%
%ADD15R,3.500000X3.500000*%
%TD*%
%TA.AperFunction,ComponentPad*%
%ADD16O,1.600000X1.600000*%
%TD*%
%TA.AperFunction,ComponentPad*%
%ADD17C,1.524000*%
%TD*%
%TA.AperFunction,ComponentPad*%
%ADD18R,1.524000X1.524000*%
%TD*%
%TA.AperFunction,ComponentPad*%
%ADD19O,1.740000X2.190000*%
%TD*%
%TA.AperFunction,ComponentPad*%
%ADD20O,2.190000X1.740000*%
%TD*%
%TA.AperFunction,ComponentPad*%
%ADD21C,2.400000*%
%TD*%
%TA.AperFunction,ComponentPad*%
%ADD22C,1.416000*%
%TD*%
%TA.AperFunction,Conductor*%
%ADD23C,0.250000*%
%TD*%
%TA.AperFunction,Conductor*%
%ADD24C,0.508000*%
%TD*%
%TA.AperFunction,Conductor*%
%ADD25C,1.143000*%
%TD*%
%TA.AperFunction,Conductor*%
%ADD26C,0.254000*%
%TD*%
%TA.AperFunction,Conductor*%
%ADD27C,0.100000*%
%TD*%
G04 APERTURE END LIST*
D10*
%TO.P,U4,~*%
%TO.N,N/C*%
X100518000Y-90837000D03*
X124018000Y-90837000D03*
X124018000Y-114637000D03*
X100518000Y-114638000D03*
D11*
%TO.P,U4,4*%
%TO.N,SDA*%
X108458000Y-115443000D03*
D12*
%TO.P,U4,1*%
%TO.N,GND*%
X116078000Y-115443000D03*
D11*
%TO.P,U4,2*%
%TO.N,+5V*%
X113538000Y-115443000D03*
%TO.P,U4,3*%
%TO.N,SCL*%
X110998000Y-115443000D03*
%TD*%
D13*
%TO.P,R1,2*%
%TO.N,Emit*%
X122212100Y-120930200D03*
%TO.P,R1,1*%
%TO.N,+5V*%
X122212100Y-127330200D03*
%TD*%
D14*
%TO.P,REF\u002A\u002A,1*%
%TO.N,N/C*%
X179578000Y-123698000D03*
%TD*%
%TO.P,REF\u002A\u002A,1*%
%TO.N,N/C*%
X179578000Y-87503000D03*
%TD*%
%TO.P,REF\u002A\u002A,1*%
%TO.N,N/C*%
X90500200Y-87503000D03*
%TD*%
%TO.P,REF\u002A\u002A,1*%
%TO.N,N/C*%
X90678000Y-123698000D03*
%TD*%
%TO.P,J1,3*%
%TO.N,GND*%
%TA.AperFunction,ComponentPad*%
G36*
G01*
X166863000Y-119304000D02*
X165113000Y-119304000D01*
G75*
G02*
X164238000Y-118429000I0J875000D01*
G01*
X164238000Y-116679000D01*
G75*
G02*
X165113000Y-115804000I875000J0D01*
G01*
X166863000Y-115804000D01*
G75*
G02*
X167738000Y-116679000I0J-875000D01*
G01*
X167738000Y-118429000D01*
G75*
G02*
X166863000Y-119304000I-875000J0D01*
G01*
G37*
%TD.AperFunction*%
%TO.P,J1,2*%
%TA.AperFunction,ComponentPad*%
G36*
G01*
X171688000Y-122054000D02*
X169688000Y-122054000D01*
G75*
G02*
X168938000Y-121304000I0J750000D01*
G01*
X168938000Y-119804000D01*
G75*
G02*
X169688000Y-119054000I750000J0D01*
G01*
X171688000Y-119054000D01*
G75*
G02*
X172438000Y-119804000I0J-750000D01*
G01*
X172438000Y-121304000D01*
G75*
G02*
X171688000Y-122054000I-750000J0D01*
G01*
G37*
%TD.AperFunction*%
D15*
%TO.P,J1,1*%
%TO.N,+12V*%
X170688000Y-114554000D03*
%TD*%
D13*
%TO.P,R2,2*%
%TO.N,+5V*%
X97263100Y-125158500D03*
%TO.P,R2,1*%
%TO.N,Net-(J3-Pad1)*%
X104813100Y-125158500D03*
%TD*%
D16*
%TO.P,U2,16*%
%TO.N,DIR*%
X148183600Y-96951800D03*
%TO.P,U2,8*%
%TO.N,+12V*%
X160883600Y-114731800D03*
%TO.P,U2,15*%
%TO.N,STEP*%
X148183600Y-99491800D03*
%TO.P,U2,7*%
%TO.N,Net-(C2-Pad2)*%
X160883600Y-112191800D03*
%TO.P,U2,14*%
%TO.N,+5V*%
X148183600Y-102031800D03*
%TO.P,U2,6*%
%TO.N,Net-(J2-Pad1)*%
X160883600Y-109651800D03*
%TO.P,U2,13*%
%TO.N,+5V*%
X148183600Y-104571800D03*
%TO.P,U2,5*%
%TO.N,Net-(J2-Pad2)*%
X160883600Y-107111800D03*
%TO.P,U2,12*%
%TO.N,M2*%
X148183600Y-107111800D03*
%TO.P,U2,4*%
%TO.N,Net-(J2-Pad3)*%
X160883600Y-104571800D03*
%TO.P,U2,11*%
%TO.N,M1*%
X148183600Y-109651800D03*
%TO.P,U2,3*%
%TO.N,Net-(J2-Pad4)*%
X160883600Y-102031800D03*
%TO.P,U2,10*%
%TO.N,M0*%
X148183600Y-112191800D03*
%TO.P,U2,2*%
%TO.N,Net-(U2-Pad2)*%
X160883600Y-99491800D03*
%TO.P,U2,9*%
%TO.N,ENABLE*%
X148183600Y-114731800D03*
D12*
%TO.P,U2,1*%
%TO.N,GND*%
X160883600Y-96951800D03*
%TD*%
D17*
%TO.P,U5,8*%
%TO.N,+5V*%
X121158000Y-109728000D03*
%TO.P,U5,6*%
%TO.N,SCL*%
X116078000Y-109728000D03*
%TO.P,U5,7*%
%TO.N,GND*%
X118618000Y-109728000D03*
%TO.P,U5,5*%
%TO.N,SDA*%
X113538000Y-109728000D03*
%TO.P,U5,4*%
%TO.N,+BATT*%
X110998000Y-109728000D03*
%TO.P,U5,3*%
%TO.N,Net-(U5-Pad3)*%
X108458000Y-109728000D03*
%TO.P,U5,2*%
%TO.N,Net-(U5-Pad2)*%
X105918000Y-109728000D03*
%TO.P,U5,1*%
%TO.N,Net-(U5-Pad1)*%
X103378000Y-109728000D03*
%TD*%
%TO.P,U1,4*%
%TO.N,Net-(U1-Pad4)*%
X159517400Y-91306600D03*
%TO.P,U1,3*%
%TO.N,+12V*%
X156977400Y-91306600D03*
D18*
%TO.P,U1,2*%
%TO.N,GND*%
X154437400Y-91306600D03*
D17*
%TO.P,U1,1*%
%TO.N,+5V*%
X151897400Y-91306600D03*
%TD*%
D19*
%TO.P,J3,5*%
%TO.N,Emit*%
X118338600Y-125171200D03*
%TO.P,J3,4*%
%TO.N,GND*%
X115798600Y-125171200D03*
%TO.P,J3,3*%
%TO.N,Net-(J3-Pad3)*%
X113258600Y-125171200D03*
%TO.P,J3,2*%
%TO.N,GND*%
X110718600Y-125171200D03*
%TO.P,J3,1*%
%TO.N,Net-(J3-Pad1)*%
%TA.AperFunction,ComponentPad*%
G36*
G01*
X107308600Y-126016201D02*
X107308600Y-124326199D01*
G75*
G02*
X107558599Y-124076200I249999J0D01*
G01*
X108798601Y-124076200D01*
G75*
G02*
X109048600Y-124326199I0J-249999D01*
G01*
X109048600Y-126016201D01*
G75*
G02*
X108798601Y-126266200I-249999J0D01*
G01*
X107558599Y-126266200D01*
G75*
G02*
X107308600Y-126016201I0J249999D01*
G01*
G37*
%TD.AperFunction*%
%TD*%
D20*
%TO.P,J2,4*%
%TO.N,Net-(J2-Pad4)*%
X167284400Y-102057200D03*
%TO.P,J2,3*%
%TO.N,Net-(J2-Pad3)*%
X167284400Y-104597200D03*
%TO.P,J2,2*%
%TO.N,Net-(J2-Pad2)*%
X167284400Y-107137200D03*
%TO.P,J2,1*%
%TO.N,Net-(J2-Pad1)*%
%TA.AperFunction,ComponentPad*%
G36*
G01*
X168129401Y-110547200D02*
X166439399Y-110547200D01*
G75*
G02*
X166189400Y-110297201I0J249999D01*
G01*
X166189400Y-109057199D01*
G75*
G02*
X166439399Y-108807200I249999J0D01*
G01*
X168129401Y-108807200D01*
G75*
G02*
X168379400Y-109057199I0J-249999D01*
G01*
X168379400Y-110297201D01*
G75*
G02*
X168129401Y-110547200I-249999J0D01*
G01*
G37*
%TD.AperFunction*%
%TD*%
D11*
%TO.P,C2,2*%
%TO.N,Net-(C2-Pad2)*%
X165283000Y-89916000D03*
D12*
%TO.P,C2,1*%
%TO.N,+12V*%
X168783000Y-89916000D03*
%TD*%
D11*
%TO.P,C1,2*%
%TO.N,GND*%
X157459800Y-123164600D03*
D12*
%TO.P,C1,1*%
%TO.N,+12V*%
X160959800Y-123164600D03*
%TD*%
D16*
%TO.P,U3,16*%
%TO.N,SLEEP*%
X127990600Y-123215400D03*
%TO.P,U3,15*%
%TO.N,RESET*%
X143230600Y-123215400D03*
%TO.P,U3,30*%
%TO.N,Net-(U3-Pad30)*%
X127990600Y-87655400D03*
%TO.P,U3,14*%
%TO.N,ENABLE*%
X143230600Y-120675400D03*
%TO.P,U3,29*%
%TO.N,Net-(U3-Pad29)*%
X127990600Y-90195400D03*
%TO.P,U3,13*%
%TO.N,Net-(U3-Pad13)*%
X143230600Y-118135400D03*
%TO.P,U3,28*%
%TO.N,Net-(U3-Pad28)*%
X127990600Y-92735400D03*
%TO.P,U3,12*%
%TO.N,M0*%
X143230600Y-115595400D03*
%TO.P,U3,27*%
%TO.N,+5V*%
X127990600Y-95275400D03*
%TO.P,U3,11*%
%TO.N,M1*%
X143230600Y-113055400D03*
%TO.P,U3,26*%
%TO.N,Net-(U3-Pad26)*%
X127990600Y-97815400D03*
%TO.P,U3,10*%
%TO.N,M2*%
X143230600Y-110515400D03*
%TO.P,U3,25*%
%TO.N,Net-(U3-Pad25)*%
X127990600Y-100355400D03*
%TO.P,U3,9*%
%TO.N,STEP*%
X143230600Y-107975400D03*
%TO.P,U3,24*%
%TO.N,SCL*%
X127990600Y-102895400D03*
%TO.P,U3,8*%
%TO.N,DIR*%
X143230600Y-105435400D03*
%TO.P,U3,23*%
%TO.N,SDA*%
X127990600Y-105435400D03*
%TO.P,U3,7*%
%TO.N,Down*%
X143230600Y-102895400D03*
%TO.P,U3,22*%
%TO.N,Net-(U3-Pad22)*%
X127990600Y-107975400D03*
%TO.P,U3,6*%
%TO.N,Mid*%
X143230600Y-100355400D03*
%TO.P,U3,21*%
%TO.N,Net-(U3-Pad21)*%
X127990600Y-110515400D03*
%TO.P,U3,5*%
%TO.N,Up*%
X143230600Y-97815400D03*
%TO.P,U3,20*%
%TO.N,Net-(U3-Pad20)*%
X127990600Y-113055400D03*
%TO.P,U3,4*%
%TO.N,GND*%
X143230600Y-95275400D03*
%TO.P,U3,19*%
%TO.N,Emit*%
X127990600Y-115595400D03*
%TO.P,U3,3*%
%TO.N,Net-(U3-Pad3)*%
X143230600Y-92735400D03*
%TO.P,U3,18*%
%TO.N,Net-(U3-Pad18)*%
X127990600Y-118135400D03*
%TO.P,U3,2*%
%TO.N,Net-(U3-Pad2)*%
X143230600Y-90195400D03*
%TO.P,U3,17*%
%TO.N,Net-(U3-Pad17)*%
X127990600Y-120675400D03*
D12*
%TO.P,U3,1*%
%TO.N,Net-(U3-Pad1)*%
X143230600Y-87655400D03*
%TD*%
D21*
%TO.P,SW1,1*%
%TO.N,GND*%
X89358400Y-97652400D03*
X95858400Y-97652400D03*
%TO.P,SW1,2*%
%TO.N,Up*%
X89358400Y-93152400D03*
X95858400Y-93152400D03*
%TD*%
%TO.P,SW2,1*%
%TO.N,GND*%
X89358400Y-107812400D03*
X95858400Y-107812400D03*
%TO.P,SW2,2*%
%TO.N,Mid*%
X89358400Y-103312400D03*
X95858400Y-103312400D03*
%TD*%
%TO.P,SW3,1*%
%TO.N,GND*%
X89358400Y-117972400D03*
X95858400Y-117972400D03*
%TO.P,SW3,2*%
%TO.N,Down*%
X89358400Y-113472400D03*
X95858400Y-113472400D03*
%TD*%
D22*
%TO.P,C3,2*%
%TO.N,GND*%
X148107400Y-91287600D03*
%TO.P,C3,1*%
%TO.N,+5V*%
X148107400Y-88747600D03*
%TD*%
D21*
%TO.P,J4,1*%
%TO.N,GND*%
X179705000Y-94297500D03*
%TD*%
D23*
%TO.N,+5V*%
X149338400Y-88747600D02*
X151897400Y-91306600D01*
X148107400Y-88747600D02*
X149338400Y-88747600D01*
D24*
X151897400Y-98318000D02*
X148183600Y-102031800D01*
X151897400Y-91306600D02*
X151897400Y-98318000D01*
X148183600Y-104571800D02*
X148183600Y-102031800D01*
D23*
%TO.N,SCL*%
X116078000Y-110363000D02*
X116078000Y-109728000D01*
X110998000Y-115443000D02*
X116078000Y-110363000D01*
X122910600Y-102895400D02*
X127990600Y-102895400D01*
X116078000Y-109728000D02*
X122910600Y-102895400D01*
%TO.N,DIR*%
X143230600Y-105435400D02*
X145186400Y-103479600D01*
X145186400Y-99949000D02*
X148183600Y-96951800D01*
X145186400Y-103479600D02*
X145186400Y-99949000D01*
%TO.N,SDA*%
X127990600Y-105715402D02*
X127990600Y-105435400D01*
X113538000Y-110363000D02*
X113538000Y-109728000D01*
X108458000Y-115443000D02*
X113538000Y-110363000D01*
%TO.N,Emit*%
X118338600Y-125171200D02*
X118414800Y-125171200D01*
X118338600Y-124803700D02*
X122212100Y-120930200D01*
X118338600Y-125171200D02*
X118338600Y-124803700D01*
X127546900Y-115595400D02*
X127990600Y-115595400D01*
X122212100Y-120930200D02*
X127546900Y-115595400D01*
%TO.N,Net-(J2-Pad4)*%
X167259000Y-102031800D02*
X167284400Y-102057200D01*
D25*
X160883600Y-102031800D02*
X167259000Y-102031800D01*
D23*
%TO.N,Net-(J2-Pad3)*%
X167259000Y-104571800D02*
X167284400Y-104597200D01*
D25*
X160883600Y-104571800D02*
X167259000Y-104571800D01*
D23*
%TO.N,Net-(J2-Pad2)*%
X167259000Y-107111800D02*
X167284400Y-107137200D01*
D25*
X160883600Y-107111800D02*
X167259000Y-107111800D01*
D23*
%TO.N,Net-(J2-Pad1)*%
X167259000Y-109651800D02*
X167284400Y-109677200D01*
D25*
X160883600Y-109651800D02*
X167259000Y-109651800D01*
D23*
%TO.N,Net-(J3-Pad1)*%
X108165900Y-125158500D02*
X108178600Y-125171200D01*
X104813100Y-125158500D02*
X108165900Y-125158500D01*
%TD*%
D26*
%TO.N,+12V*%
X183998001Y-128118000D02*
X146177000Y-128118000D01*
X146177000Y-123023265D01*
X156024800Y-123023265D01*
X156024800Y-123305935D01*
X156079947Y-123583174D01*
X156188120Y-123844327D01*
X156345163Y-124079359D01*
X156545041Y-124279237D01*
X156780073Y-124436280D01*
X157041226Y-124544453D01*
X157318465Y-124599600D01*
X157601135Y-124599600D01*
X157878374Y-124544453D01*
X158139527Y-124436280D01*
X158374559Y-124279237D01*
X158574437Y-124079359D01*
X158651116Y-123964600D01*
X159521728Y-123964600D01*
X159533988Y-124089082D01*
X159570298Y-124208780D01*
X159629263Y-124319094D01*
X159708615Y-124415785D01*
X159805306Y-124495137D01*
X159915620Y-124554102D01*
X160035318Y-124590412D01*
X160159800Y-124602672D01*
X160674050Y-124599600D01*
X160832800Y-124440850D01*
X160832800Y-123291600D01*
X161086800Y-123291600D01*
X161086800Y-124440850D01*
X161245550Y-124599600D01*
X161759800Y-124602672D01*
X161884282Y-124590412D01*
X162003980Y-124554102D01*
X162114294Y-124495137D01*
X162210985Y-124415785D01*
X162290337Y-124319094D01*
X162349302Y-124208780D01*
X162385612Y-124089082D01*
X162397872Y-123964600D01*
X162394877Y-123463098D01*
X177193000Y-123463098D01*
X177193000Y-123932902D01*
X177284654Y-124393679D01*
X177464440Y-124827721D01*
X177725450Y-125218349D01*
X178057651Y-125550550D01*
X178448279Y-125811560D01*
X178882321Y-125991346D01*
X179343098Y-126083000D01*
X179812902Y-126083000D01*
X180273679Y-125991346D01*
X180707721Y-125811560D01*
X181098349Y-125550550D01*
X181430550Y-125218349D01*
X181691560Y-124827721D01*
X181871346Y-124393679D01*
X181963000Y-123932902D01*
X181963000Y-123463098D01*
X181871346Y-123002321D01*
X181691560Y-122568279D01*
X181430550Y-122177651D01*
X181098349Y-121845450D01*
X180707721Y-121584440D01*
X180273679Y-121404654D01*
X179812902Y-121313000D01*
X179343098Y-121313000D01*
X178882321Y-121404654D01*
X178448279Y-121584440D01*
X178057651Y-121845450D01*
X177725450Y-122177651D01*
X177464440Y-122568279D01*
X177284654Y-123002321D01*
X177193000Y-123463098D01*
X162394877Y-123463098D01*
X162394800Y-123450350D01*
X162236050Y-123291600D01*
X161086800Y-123291600D01*
X160832800Y-123291600D01*
X159683550Y-123291600D01*
X159524800Y-123450350D01*
X159521728Y-123964600D01*
X158651116Y-123964600D01*
X158731480Y-123844327D01*
X158839653Y-123583174D01*
X158894800Y-123305935D01*
X158894800Y-123023265D01*
X158839653Y-122746026D01*
X158731480Y-122484873D01*
X158651117Y-122364600D01*
X159521728Y-122364600D01*
X159524800Y-122878850D01*
X159683550Y-123037600D01*
X160832800Y-123037600D01*
X160832800Y-121888350D01*
X161086800Y-121888350D01*
X161086800Y-123037600D01*
X162236050Y-123037600D01*
X162394800Y-122878850D01*
X162397872Y-122364600D01*
X162385612Y-122240118D01*
X162349302Y-122120420D01*
X162290337Y-122010106D01*
X162210985Y-121913415D01*
X162114294Y-121834063D01*
X162003980Y-121775098D01*
X161884282Y-121738788D01*
X161759800Y-121726528D01*
X161245550Y-121729600D01*
X161086800Y-121888350D01*
X160832800Y-121888350D01*
X160674050Y-121729600D01*
X160159800Y-121726528D01*
X160035318Y-121738788D01*
X159915620Y-121775098D01*
X159805306Y-121834063D01*
X159708615Y-121913415D01*
X159629263Y-122010106D01*
X159570298Y-122120420D01*
X159533988Y-122240118D01*
X159521728Y-122364600D01*
X158651117Y-122364600D01*
X158574437Y-122249841D01*
X158374559Y-122049963D01*
X158139527Y-121892920D01*
X157878374Y-121784747D01*
X157601135Y-121729600D01*
X157318465Y-121729600D01*
X157041226Y-121784747D01*
X156780073Y-121892920D01*
X156545041Y-122049963D01*
X156345163Y-122249841D01*
X156188120Y-122484873D01*
X156079947Y-122746026D01*
X156024800Y-123023265D01*
X146177000Y-123023265D01*
X146177000Y-116679000D01*
X163599928Y-116679000D01*
X163599928Y-118429000D01*
X163629001Y-118724186D01*
X163715104Y-119008028D01*
X163854927Y-119269618D01*
X164043097Y-119498903D01*
X164272382Y-119687073D01*
X164533972Y-119826896D01*
X164817814Y-119912999D01*
X165113000Y-119942072D01*
X166863000Y-119942072D01*
X167158186Y-119912999D01*
X167442028Y-119826896D01*
X167484863Y-119804000D01*
X168299928Y-119804000D01*
X168299928Y-121304000D01*
X168326599Y-121574799D01*
X168405589Y-121835192D01*
X168533860Y-122075171D01*
X168706485Y-122285515D01*
X168916829Y-122458140D01*
X169156808Y-122586411D01*
X169417201Y-122665401D01*
X169688000Y-122692072D01*
X171688000Y-122692072D01*
X171958799Y-122665401D01*
X172219192Y-122586411D01*
X172459171Y-122458140D01*
X172669515Y-122285515D01*
X172842140Y-122075171D01*
X172970411Y-121835192D01*
X173049401Y-121574799D01*
X173076072Y-121304000D01*
X173076072Y-119804000D01*
X173049401Y-119533201D01*
X172970411Y-119272808D01*
X172842140Y-119032829D01*
X172669515Y-118822485D01*
X172459171Y-118649860D01*
X172219192Y-118521589D01*
X171958799Y-118442599D01*
X171688000Y-118415928D01*
X169688000Y-118415928D01*
X169417201Y-118442599D01*
X169156808Y-118521589D01*
X168916829Y-118649860D01*
X168706485Y-118822485D01*
X168533860Y-119032829D01*
X168405589Y-119272808D01*
X168326599Y-119533201D01*
X168299928Y-119804000D01*
X167484863Y-119804000D01*
X167703618Y-119687073D01*
X167932903Y-119498903D01*
X168121073Y-119269618D01*
X168260896Y-119008028D01*
X168346999Y-118724186D01*
X168376072Y-118429000D01*
X168376072Y-116679000D01*
X168366506Y-116581869D01*
X168407463Y-116658494D01*
X168486815Y-116755185D01*
X168583506Y-116834537D01*
X168693820Y-116893502D01*
X168813518Y-116929812D01*
X168938000Y-116942072D01*
X170402250Y-116939000D01*
X170561000Y-116780250D01*
X170561000Y-114681000D01*
X170815000Y-114681000D01*
X170815000Y-116780250D01*
X170973750Y-116939000D01*
X172438000Y-116942072D01*
X172562482Y-116929812D01*
X172682180Y-116893502D01*
X172792494Y-116834537D01*
X172889185Y-116755185D01*
X172968537Y-116658494D01*
X173027502Y-116548180D01*
X173063812Y-116428482D01*
X173076072Y-116304000D01*
X173073000Y-114839750D01*
X172914250Y-114681000D01*
X170815000Y-114681000D01*
X170561000Y-114681000D01*
X168461750Y-114681000D01*
X168303000Y-114839750D01*
X168300085Y-116229160D01*
X168260896Y-116099972D01*
X168121073Y-115838382D01*
X167932903Y-115609097D01*
X167703618Y-115420927D01*
X167442028Y-115281104D01*
X167158186Y-115195001D01*
X166863000Y-115165928D01*
X165113000Y-115165928D01*
X164817814Y-115195001D01*
X164533972Y-115281104D01*
X164272382Y-115420927D01*
X164043097Y-115609097D01*
X163854927Y-115838382D01*
X163715104Y-116099972D01*
X163629001Y-116383814D01*
X163599928Y-116679000D01*
X146177000Y-116679000D01*
X146177000Y-100033201D01*
X146748600Y-99461601D01*
X146748600Y-99633135D01*
X146803747Y-99910374D01*
X146911920Y-100171527D01*
X147068963Y-100406559D01*
X147268841Y-100606437D01*
X147501359Y-100761800D01*
X147268841Y-100917163D01*
X147068963Y-101117041D01*
X146911920Y-101352073D01*
X146803747Y-101613226D01*
X146748600Y-101890465D01*
X146748600Y-102173135D01*
X146803747Y-102450374D01*
X146911920Y-102711527D01*
X147068963Y-102946559D01*
X147268841Y-103146437D01*
X147294601Y-103163649D01*
X147294600Y-103439951D01*
X147268841Y-103457163D01*
X147068963Y-103657041D01*
X146911920Y-103892073D01*
X146803747Y-104153226D01*
X146748600Y-104430465D01*
X146748600Y-104713135D01*
X146803747Y-104990374D01*
X146911920Y-105251527D01*
X147068963Y-105486559D01*
X147268841Y-105686437D01*
X147501359Y-105841800D01*
X147268841Y-105997163D01*
X147068963Y-106197041D01*
X146911920Y-106432073D01*
X146803747Y-106693226D01*
X146748600Y-106970465D01*
X146748600Y-107253135D01*
X146803747Y-107530374D01*
X146911920Y-107791527D01*
X147068963Y-108026559D01*
X147268841Y-108226437D01*
X147501359Y-108381800D01*
X147268841Y-108537163D01*
X147068963Y-108737041D01*
X146911920Y-108972073D01*
X146803747Y-109233226D01*
X146748600Y-109510465D01*
X146748600Y-109793135D01*
X146803747Y-110070374D01*
X146911920Y-110331527D01*
X147068963Y-110566559D01*
X147268841Y-110766437D01*
X147501359Y-110921800D01*
X147268841Y-111077163D01*
X147068963Y-111277041D01*
X146911920Y-111512073D01*
X146803747Y-111773226D01*
X146748600Y-112050465D01*
X146748600Y-112333135D01*
X146803747Y-112610374D01*
X146911920Y-112871527D01*
X147068963Y-113106559D01*
X147268841Y-113306437D01*
X147501359Y-113461800D01*
X147268841Y-113617163D01*
X147068963Y-113817041D01*
X146911920Y-114052073D01*
X146803747Y-114313226D01*
X146748600Y-114590465D01*
X146748600Y-114873135D01*
X146803747Y-115150374D01*
X146911920Y-115411527D01*
X147068963Y-115646559D01*
X147268841Y-115846437D01*
X147503873Y-116003480D01*
X147765026Y-116111653D01*
X148042265Y-116166800D01*
X148324935Y-116166800D01*
X148602174Y-116111653D01*
X148863327Y-116003480D01*
X149098359Y-115846437D01*
X149298237Y-115646559D01*
X149455280Y-115411527D01*
X149563453Y-115150374D01*
X149577284Y-115080839D01*
X159491696Y-115080839D01*
X159532354Y-115214887D01*
X159652563Y-115469220D01*
X159820081Y-115695214D01*
X160028469Y-115884185D01*
X160269719Y-116028870D01*
X160534560Y-116123709D01*
X160756600Y-116002424D01*
X160756600Y-114858800D01*
X161010600Y-114858800D01*
X161010600Y-116002424D01*
X161232640Y-116123709D01*
X161497481Y-116028870D01*
X161738731Y-115884185D01*
X161947119Y-115695214D01*
X162114637Y-115469220D01*
X162234846Y-115214887D01*
X162275504Y-115080839D01*
X162153515Y-114858800D01*
X161010600Y-114858800D01*
X160756600Y-114858800D01*
X159613685Y-114858800D01*
X159491696Y-115080839D01*
X149577284Y-115080839D01*
X149618600Y-114873135D01*
X149618600Y-114590465D01*
X149563453Y-114313226D01*
X149455280Y-114052073D01*
X149298237Y-113817041D01*
X149098359Y-113617163D01*
X148865841Y-113461800D01*
X149098359Y-113306437D01*
X149298237Y-113106559D01*
X149455280Y-112871527D01*
X149563453Y-112610374D01*
X149618600Y-112333135D01*
X149618600Y-112050465D01*
X149563453Y-111773226D01*
X149455280Y-111512073D01*
X149298237Y-111277041D01*
X149098359Y-111077163D01*
X148865841Y-110921800D01*
X149098359Y-110766437D01*
X149298237Y-110566559D01*
X149455280Y-110331527D01*
X149563453Y-110070374D01*
X149618600Y-109793135D01*
X149618600Y-109510465D01*
X149563453Y-109233226D01*
X149455280Y-108972073D01*
X149298237Y-108737041D01*
X149098359Y-108537163D01*
X148865841Y-108381800D01*
X149098359Y-108226437D01*
X149298237Y-108026559D01*
X149455280Y-107791527D01*
X149563453Y-107530374D01*
X149618600Y-107253135D01*
X149618600Y-106970465D01*
X149563453Y-106693226D01*
X149455280Y-106432073D01*
X149298237Y-106197041D01*
X149098359Y-105997163D01*
X148865841Y-105841800D01*
X149098359Y-105686437D01*
X149298237Y-105486559D01*
X149455280Y-105251527D01*
X149563453Y-104990374D01*
X149618600Y-104713135D01*
X149618600Y-104430465D01*
X149563453Y-104153226D01*
X149455280Y-103892073D01*
X149298237Y-103657041D01*
X149098359Y-103457163D01*
X149072600Y-103439951D01*
X149072600Y-103163649D01*
X149098359Y-103146437D01*
X149298237Y-102946559D01*
X149455280Y-102711527D01*
X149563453Y-102450374D01*
X149618600Y-102173135D01*
X149618600Y-101890465D01*
X149612556Y-101860079D01*
X152495136Y-98977499D01*
X152529059Y-98949659D01*
X152640153Y-98814291D01*
X152722703Y-98659851D01*
X152747823Y-98577041D01*
X152773536Y-98492276D01*
X152783622Y-98389872D01*
X152786400Y-98361667D01*
X152786400Y-98361661D01*
X152790700Y-98318001D01*
X152786400Y-98274341D01*
X152786400Y-96151800D01*
X159445528Y-96151800D01*
X159445528Y-97751800D01*
X159457788Y-97876282D01*
X159494098Y-97995980D01*
X159553063Y-98106294D01*
X159632415Y-98202985D01*
X159729106Y-98282337D01*
X159839420Y-98341302D01*
X159959118Y-98377612D01*
X159967561Y-98378443D01*
X159768963Y-98577041D01*
X159611920Y-98812073D01*
X159503747Y-99073226D01*
X159448600Y-99350465D01*
X159448600Y-99633135D01*
X159503747Y-99910374D01*
X159611920Y-100171527D01*
X159768963Y-100406559D01*
X159968841Y-100606437D01*
X160201359Y-100761800D01*
X159968841Y-100917163D01*
X159768963Y-101117041D01*
X159611920Y-101352073D01*
X159503747Y-101613226D01*
X159448600Y-101890465D01*
X159448600Y-102173135D01*
X159503747Y-102450374D01*
X159611920Y-102711527D01*
X159768963Y-102946559D01*
X159968841Y-103146437D01*
X160201359Y-103301800D01*
X159968841Y-103457163D01*
X159768963Y-103657041D01*
X159611920Y-103892073D01*
X159503747Y-104153226D01*
X159448600Y-104430465D01*
X159448600Y-104713135D01*
X159503747Y-104990374D01*
X159611920Y-105251527D01*
X159768963Y-105486559D01*
X159968841Y-105686437D01*
X160201359Y-105841800D01*
X159968841Y-105997163D01*
X159768963Y-106197041D01*
X159611920Y-106432073D01*
X159503747Y-106693226D01*
X159448600Y-106970465D01*
X159448600Y-107253135D01*
X159503747Y-107530374D01*
X159611920Y-107791527D01*
X159768963Y-108026559D01*
X159968841Y-108226437D01*
X160201359Y-108381800D01*
X159968841Y-108537163D01*
X159768963Y-108737041D01*
X159611920Y-108972073D01*
X159503747Y-109233226D01*
X159448600Y-109510465D01*
X159448600Y-109793135D01*
X159503747Y-110070374D01*
X159611920Y-110331527D01*
X159768963Y-110566559D01*
X159968841Y-110766437D01*
X160201359Y-110921800D01*
X159968841Y-111077163D01*
X159768963Y-111277041D01*
X159611920Y-111512073D01*
X159503747Y-111773226D01*
X159448600Y-112050465D01*
X159448600Y-112333135D01*
X159503747Y-112610374D01*
X159611920Y-112871527D01*
X159768963Y-113106559D01*
X159968841Y-113306437D01*
X160203873Y-113463480D01*
X160214465Y-113467867D01*
X160028469Y-113579415D01*
X159820081Y-113768386D01*
X159652563Y-113994380D01*
X159532354Y-114248713D01*
X159491696Y-114382761D01*
X159613685Y-114604800D01*
X160756600Y-114604800D01*
X160756600Y-114584800D01*
X161010600Y-114584800D01*
X161010600Y-114604800D01*
X162153515Y-114604800D01*
X162275504Y-114382761D01*
X162234846Y-114248713D01*
X162114637Y-113994380D01*
X161947119Y-113768386D01*
X161738731Y-113579415D01*
X161552735Y-113467867D01*
X161563327Y-113463480D01*
X161798359Y-113306437D01*
X161998237Y-113106559D01*
X162155280Y-112871527D01*
X162183250Y-112804000D01*
X168299928Y-112804000D01*
X168303000Y-114268250D01*
X168461750Y-114427000D01*
X170561000Y-114427000D01*
X170561000Y-112327750D01*
X170815000Y-112327750D01*
X170815000Y-114427000D01*
X172914250Y-114427000D01*
X173073000Y-114268250D01*
X173076072Y-112804000D01*
X173063812Y-112679518D01*
X173027502Y-112559820D01*
X172968537Y-112449506D01*
X172889185Y-112352815D01*
X172792494Y-112273463D01*
X172682180Y-112214498D01*
X172562482Y-112178188D01*
X172438000Y-112165928D01*
X170973750Y-112169000D01*
X170815000Y-112327750D01*
X170561000Y-112327750D01*
X170402250Y-112169000D01*
X168938000Y-112165928D01*
X168813518Y-112178188D01*
X168693820Y-112214498D01*
X168583506Y-112273463D01*
X168486815Y-112352815D01*
X168407463Y-112449506D01*
X168348498Y-112559820D01*
X168312188Y-112679518D01*
X168299928Y-112804000D01*
X162183250Y-112804000D01*
X162263453Y-112610374D01*
X162318600Y-112333135D01*
X162318600Y-112050465D01*
X162263453Y-111773226D01*
X162155280Y-111512073D01*
X161998237Y-111277041D01*
X161798359Y-111077163D01*
X161565841Y-110921800D01*
X161660876Y-110858300D01*
X165756566Y-110858300D01*
X165811438Y-110925162D01*
X165946013Y-111035605D01*
X166099549Y-111117672D01*
X166266145Y-111168208D01*
X166439399Y-111185272D01*
X168129401Y-111185272D01*
X168302655Y-111168208D01*
X168469251Y-111117672D01*
X168622787Y-111035605D01*
X168757362Y-110925162D01*
X168867805Y-110790587D01*
X168949872Y-110637051D01*
X169000408Y-110470455D01*
X169017472Y-110297201D01*
X169017472Y-109057199D01*
X169000408Y-108883945D01*
X168949872Y-108717349D01*
X168867805Y-108563813D01*
X168757362Y-108429238D01*
X168622787Y-108318795D01*
X168513286Y-108260266D01*
X168578745Y-108206545D01*
X168766817Y-107977379D01*
X168906566Y-107715925D01*
X168992624Y-107432232D01*
X169021682Y-107137200D01*
X168992624Y-106842168D01*
X168906566Y-106558475D01*
X168766817Y-106297021D01*
X168578745Y-106067855D01*
X168349579Y-105879783D01*
X168326038Y-105867200D01*
X168349579Y-105854617D01*
X168578745Y-105666545D01*
X168766817Y-105437379D01*
X168906566Y-105175925D01*
X168992624Y-104892232D01*
X169021682Y-104597200D01*
X168992624Y-104302168D01*
X168906566Y-104018475D01*
X168766817Y-103757021D01*
X168578745Y-103527855D01*
X168349579Y-103339783D01*
X168326038Y-103327200D01*
X168349579Y-103314617D01*
X168578745Y-103126545D01*
X168766817Y-102897379D01*
X168906566Y-102635925D01*
X168992624Y-102352232D01*
X169021682Y-102057200D01*
X168992624Y-101762168D01*
X168906566Y-101478475D01*
X168766817Y-101217021D01*
X168578745Y-100987855D01*
X168349579Y-100799783D01*
X168088125Y-100660034D01*
X167804432Y-100573976D01*
X167583336Y-100552200D01*
X166985464Y-100552200D01*
X166764368Y-100573976D01*
X166480675Y-100660034D01*
X166219221Y-100799783D01*
X166188128Y-100825300D01*
X161660876Y-100825300D01*
X161565841Y-100761800D01*
X161798359Y-100606437D01*
X161998237Y-100406559D01*
X162155280Y-100171527D01*
X162263453Y-99910374D01*
X162318600Y-99633135D01*
X162318600Y-99350465D01*
X162263453Y-99073226D01*
X162155280Y-98812073D01*
X161998237Y-98577041D01*
X161799639Y-98378443D01*
X161808082Y-98377612D01*
X161927780Y-98341302D01*
X162038094Y-98282337D01*
X162134785Y-98202985D01*
X162214137Y-98106294D01*
X162273102Y-97995980D01*
X162309412Y-97876282D01*
X162321672Y-97751800D01*
X162321672Y-96151800D01*
X162309412Y-96027318D01*
X162273102Y-95907620D01*
X162214137Y-95797306D01*
X162134785Y-95700615D01*
X162038094Y-95621263D01*
X161927780Y-95562298D01*
X161808082Y-95525988D01*
X161683600Y-95513728D01*
X160083600Y-95513728D01*
X159959118Y-95525988D01*
X159839420Y-95562298D01*
X159729106Y-95621263D01*
X159632415Y-95700615D01*
X159553063Y-95797306D01*
X159494098Y-95907620D01*
X159457788Y-96027318D01*
X159445528Y-96151800D01*
X152786400Y-96151800D01*
X152786400Y-95123000D01*
X155702000Y-95123000D01*
X155726776Y-95120560D01*
X155750601Y-95113333D01*
X155772557Y-95101597D01*
X155791803Y-95085803D01*
X155807597Y-95066557D01*
X155819333Y-95044601D01*
X155826560Y-95020776D01*
X155829000Y-94996000D01*
X155829000Y-94116768D01*
X177870000Y-94116768D01*
X177870000Y-94478232D01*
X177940518Y-94832750D01*
X178078844Y-95166699D01*
X178279662Y-95467244D01*
X178535256Y-95722838D01*
X178835801Y-95923656D01*
X179169750Y-96061982D01*
X179524268Y-96132500D01*
X179885732Y-96132500D01*
X180240250Y-96061982D01*
X180574199Y-95923656D01*
X180874744Y-95722838D01*
X181130338Y-95467244D01*
X181331156Y-95166699D01*
X181469482Y-94832750D01*
X181540000Y-94478232D01*
X181540000Y-94116768D01*
X181469482Y-93762250D01*
X181331156Y-93428301D01*
X181130338Y-93127756D01*
X180874744Y-92872162D01*
X180574199Y-92671344D01*
X180240250Y-92533018D01*
X179885732Y-92462500D01*
X179524268Y-92462500D01*
X179169750Y-92533018D01*
X178835801Y-92671344D01*
X178535256Y-92872162D01*
X178279662Y-93127756D01*
X178078844Y-93428301D01*
X177940518Y-93762250D01*
X177870000Y-94116768D01*
X155829000Y-94116768D01*
X155829000Y-92272165D01*
X156191440Y-92272165D01*
X156258420Y-92512256D01*
X156507448Y-92629356D01*
X156774535Y-92695623D01*
X157049417Y-92708510D01*
X157321533Y-92667522D01*
X157580423Y-92574236D01*
X157696380Y-92512256D01*
X157763360Y-92272165D01*
X156977400Y-91486205D01*
X156191440Y-92272165D01*
X155829000Y-92272165D01*
X155829000Y-92154621D01*
X155837472Y-92068600D01*
X155837472Y-92043917D01*
X156011835Y-92092560D01*
X156797795Y-91306600D01*
X157157005Y-91306600D01*
X157942965Y-92092560D01*
X158183056Y-92025580D01*
X158246885Y-91889840D01*
X158279395Y-91968327D01*
X158432280Y-92197135D01*
X158626865Y-92391720D01*
X158855673Y-92544605D01*
X159109910Y-92649914D01*
X159379808Y-92703600D01*
X159654992Y-92703600D01*
X159924890Y-92649914D01*
X160179127Y-92544605D01*
X160407935Y-92391720D01*
X160602520Y-92197135D01*
X160755405Y-91968327D01*
X160860714Y-91714090D01*
X160914400Y-91444192D01*
X160914400Y-91169008D01*
X160860714Y-90899110D01*
X160755405Y-90644873D01*
X160602520Y-90416065D01*
X160407935Y-90221480D01*
X160179127Y-90068595D01*
X159924890Y-89963286D01*
X159654992Y-89909600D01*
X159379808Y-89909600D01*
X159109910Y-89963286D01*
X158855673Y-90068595D01*
X158626865Y-90221480D01*
X158432280Y-90416065D01*
X158279395Y-90644873D01*
X158249708Y-90716543D01*
X158245036Y-90703577D01*
X158183056Y-90587620D01*
X157942965Y-90520640D01*
X157157005Y-91306600D01*
X156797795Y-91306600D01*
X156011835Y-90520640D01*
X155837472Y-90569283D01*
X155837472Y-90544600D01*
X155829000Y-90458579D01*
X155829000Y-90341035D01*
X156191440Y-90341035D01*
X156977400Y-91126995D01*
X157763360Y-90341035D01*
X157696380Y-90100944D01*
X157447352Y-89983844D01*
X157180265Y-89917577D01*
X156905383Y-89904690D01*
X156633267Y-89945678D01*
X156374377Y-90038964D01*
X156258420Y-90100944D01*
X156191440Y-90341035D01*
X155829000Y-90341035D01*
X155829000Y-89774665D01*
X163848000Y-89774665D01*
X163848000Y-90057335D01*
X163903147Y-90334574D01*
X164011320Y-90595727D01*
X164168363Y-90830759D01*
X164368241Y-91030637D01*
X164603273Y-91187680D01*
X164864426Y-91295853D01*
X165141665Y-91351000D01*
X165424335Y-91351000D01*
X165701574Y-91295853D01*
X165962727Y-91187680D01*
X166197759Y-91030637D01*
X166397637Y-90830759D01*
X166474316Y-90716000D01*
X167344928Y-90716000D01*
X167357188Y-90840482D01*
X167393498Y-90960180D01*
X167452463Y-91070494D01*
X167531815Y-91167185D01*
X167628506Y-91246537D01*
X167738820Y-91305502D01*
X167858518Y-91341812D01*
X167983000Y-91354072D01*
X168497250Y-91351000D01*
X168656000Y-91192250D01*
X168656000Y-90043000D01*
X168910000Y-90043000D01*
X168910000Y-91192250D01*
X169068750Y-91351000D01*
X169583000Y-91354072D01*
X169707482Y-91341812D01*
X169827180Y-91305502D01*
X169937494Y-91246537D01*
X170034185Y-91167185D01*
X170113537Y-91070494D01*
X170172502Y-90960180D01*
X170208812Y-90840482D01*
X170221072Y-90716000D01*
X170218000Y-90201750D01*
X170059250Y-90043000D01*
X168910000Y-90043000D01*
X168656000Y-90043000D01*
X167506750Y-90043000D01*
X167348000Y-90201750D01*
X167344928Y-90716000D01*
X166474316Y-90716000D01*
X166554680Y-90595727D01*
X166662853Y-90334574D01*
X166718000Y-90057335D01*
X166718000Y-89774665D01*
X166662853Y-89497426D01*
X166554680Y-89236273D01*
X166474317Y-89116000D01*
X167344928Y-89116000D01*
X167348000Y-89630250D01*
X167506750Y-89789000D01*
X168656000Y-89789000D01*
X168656000Y-88639750D01*
X168910000Y-88639750D01*
X168910000Y-89789000D01*
X170059250Y-89789000D01*
X170218000Y-89630250D01*
X170221072Y-89116000D01*
X170208812Y-88991518D01*
X170172502Y-88871820D01*
X170113537Y-88761506D01*
X170034185Y-88664815D01*
X169937494Y-88585463D01*
X169827180Y-88526498D01*
X169707482Y-88490188D01*
X169583000Y-88477928D01*
X169068750Y-88481000D01*
X168910000Y-88639750D01*
X168656000Y-88639750D01*
X168497250Y-88481000D01*
X167983000Y-88477928D01*
X167858518Y-88490188D01*
X167738820Y-88526498D01*
X167628506Y-88585463D01*
X167531815Y-88664815D01*
X167452463Y-88761506D01*
X167393498Y-88871820D01*
X167357188Y-88991518D01*
X167344928Y-89116000D01*
X166474317Y-89116000D01*
X166397637Y-89001241D01*
X166197759Y-88801363D01*
X165962727Y-88644320D01*
X165701574Y-88536147D01*
X165424335Y-88481000D01*
X165141665Y-88481000D01*
X164864426Y-88536147D01*
X164603273Y-88644320D01*
X164368241Y-88801363D01*
X164168363Y-89001241D01*
X164011320Y-89236273D01*
X163903147Y-89497426D01*
X163848000Y-89774665D01*
X155829000Y-89774665D01*
X155829000Y-87268098D01*
X177193000Y-87268098D01*
X177193000Y-87737902D01*
X177284654Y-88198679D01*
X177464440Y-88632721D01*
X177725450Y-89023349D01*
X178057651Y-89355550D01*
X178448279Y-89616560D01*
X178882321Y-89796346D01*
X179343098Y-89888000D01*
X179812902Y-89888000D01*
X180273679Y-89796346D01*
X180707721Y-89616560D01*
X181098349Y-89355550D01*
X181430550Y-89023349D01*
X181691560Y-88632721D01*
X181871346Y-88198679D01*
X181963000Y-87737902D01*
X181963000Y-87268098D01*
X181871346Y-86807321D01*
X181691560Y-86373279D01*
X181430550Y-85982651D01*
X181098349Y-85650450D01*
X180707721Y-85389440D01*
X180273679Y-85209654D01*
X179812902Y-85118000D01*
X179343098Y-85118000D01*
X178882321Y-85209654D01*
X178448279Y-85389440D01*
X178057651Y-85650450D01*
X177725450Y-85982651D01*
X177464440Y-86373279D01*
X177284654Y-86807321D01*
X177193000Y-87268098D01*
X155829000Y-87268098D01*
X155829000Y-83718000D01*
X183998000Y-83718000D01*
X183998001Y-128118000D01*
%TA.AperFunction,Conductor*%
D27*
G36*
X183998001Y-128118000D02*
G01*
X146177000Y-128118000D01*
X146177000Y-123023265D01*
X156024800Y-123023265D01*
X156024800Y-123305935D01*
X156079947Y-123583174D01*
X156188120Y-123844327D01*
X156345163Y-124079359D01*
X156545041Y-124279237D01*
X156780073Y-124436280D01*
X157041226Y-124544453D01*
X157318465Y-124599600D01*
X157601135Y-124599600D01*
X157878374Y-124544453D01*
X158139527Y-124436280D01*
X158374559Y-124279237D01*
X158574437Y-124079359D01*
X158651116Y-123964600D01*
X159521728Y-123964600D01*
X159533988Y-124089082D01*
X159570298Y-124208780D01*
X159629263Y-124319094D01*
X159708615Y-124415785D01*
X159805306Y-124495137D01*
X159915620Y-124554102D01*
X160035318Y-124590412D01*
X160159800Y-124602672D01*
X160674050Y-124599600D01*
X160832800Y-124440850D01*
X160832800Y-123291600D01*
X161086800Y-123291600D01*
X161086800Y-124440850D01*
X161245550Y-124599600D01*
X161759800Y-124602672D01*
X161884282Y-124590412D01*
X162003980Y-124554102D01*
X162114294Y-124495137D01*
X162210985Y-124415785D01*
X162290337Y-124319094D01*
X162349302Y-124208780D01*
X162385612Y-124089082D01*
X162397872Y-123964600D01*
X162394877Y-123463098D01*
X177193000Y-123463098D01*
X177193000Y-123932902D01*
X177284654Y-124393679D01*
X177464440Y-124827721D01*
X177725450Y-125218349D01*
X178057651Y-125550550D01*
X178448279Y-125811560D01*
X178882321Y-125991346D01*
X179343098Y-126083000D01*
X179812902Y-126083000D01*
X180273679Y-125991346D01*
X180707721Y-125811560D01*
X181098349Y-125550550D01*
X181430550Y-125218349D01*
X181691560Y-124827721D01*
X181871346Y-124393679D01*
X181963000Y-123932902D01*
X181963000Y-123463098D01*
X181871346Y-123002321D01*
X181691560Y-122568279D01*
X181430550Y-122177651D01*
X181098349Y-121845450D01*
X180707721Y-121584440D01*
X180273679Y-121404654D01*
X179812902Y-121313000D01*
X179343098Y-121313000D01*
X178882321Y-121404654D01*
X178448279Y-121584440D01*
X178057651Y-121845450D01*
X177725450Y-122177651D01*
X177464440Y-122568279D01*
X177284654Y-123002321D01*
X177193000Y-123463098D01*
X162394877Y-123463098D01*
X162394800Y-123450350D01*
X162236050Y-123291600D01*
X161086800Y-123291600D01*
X160832800Y-123291600D01*
X159683550Y-123291600D01*
X159524800Y-123450350D01*
X159521728Y-123964600D01*
X158651116Y-123964600D01*
X158731480Y-123844327D01*
X158839653Y-123583174D01*
X158894800Y-123305935D01*
X158894800Y-123023265D01*
X158839653Y-122746026D01*
X158731480Y-122484873D01*
X158651117Y-122364600D01*
X159521728Y-122364600D01*
X159524800Y-122878850D01*
X159683550Y-123037600D01*
X160832800Y-123037600D01*
X160832800Y-121888350D01*
X161086800Y-121888350D01*
X161086800Y-123037600D01*
X162236050Y-123037600D01*
X162394800Y-122878850D01*
X162397872Y-122364600D01*
X162385612Y-122240118D01*
X162349302Y-122120420D01*
X162290337Y-122010106D01*
X162210985Y-121913415D01*
X162114294Y-121834063D01*
X162003980Y-121775098D01*
X161884282Y-121738788D01*
X161759800Y-121726528D01*
X161245550Y-121729600D01*
X161086800Y-121888350D01*
X160832800Y-121888350D01*
X160674050Y-121729600D01*
X160159800Y-121726528D01*
X160035318Y-121738788D01*
X159915620Y-121775098D01*
X159805306Y-121834063D01*
X159708615Y-121913415D01*
X159629263Y-122010106D01*
X159570298Y-122120420D01*
X159533988Y-122240118D01*
X159521728Y-122364600D01*
X158651117Y-122364600D01*
X158574437Y-122249841D01*
X158374559Y-122049963D01*
X158139527Y-121892920D01*
X157878374Y-121784747D01*
X157601135Y-121729600D01*
X157318465Y-121729600D01*
X157041226Y-121784747D01*
X156780073Y-121892920D01*
X156545041Y-122049963D01*
X156345163Y-122249841D01*
X156188120Y-122484873D01*
X156079947Y-122746026D01*
X156024800Y-123023265D01*
X146177000Y-123023265D01*
X146177000Y-116679000D01*
X163599928Y-116679000D01*
X163599928Y-118429000D01*
X163629001Y-118724186D01*
X163715104Y-119008028D01*
X163854927Y-119269618D01*
X164043097Y-119498903D01*
X164272382Y-119687073D01*
X164533972Y-119826896D01*
X164817814Y-119912999D01*
X165113000Y-119942072D01*
X166863000Y-119942072D01*
X167158186Y-119912999D01*
X167442028Y-119826896D01*
X167484863Y-119804000D01*
X168299928Y-119804000D01*
X168299928Y-121304000D01*
X168326599Y-121574799D01*
X168405589Y-121835192D01*
X168533860Y-122075171D01*
X168706485Y-122285515D01*
X168916829Y-122458140D01*
X169156808Y-122586411D01*
X169417201Y-122665401D01*
X169688000Y-122692072D01*
X171688000Y-122692072D01*
X171958799Y-122665401D01*
X172219192Y-122586411D01*
X172459171Y-122458140D01*
X172669515Y-122285515D01*
X172842140Y-122075171D01*
X172970411Y-121835192D01*
X173049401Y-121574799D01*
X173076072Y-121304000D01*
X173076072Y-119804000D01*
X173049401Y-119533201D01*
X172970411Y-119272808D01*
X172842140Y-119032829D01*
X172669515Y-118822485D01*
X172459171Y-118649860D01*
X172219192Y-118521589D01*
X171958799Y-118442599D01*
X171688000Y-118415928D01*
X169688000Y-118415928D01*
X169417201Y-118442599D01*
X169156808Y-118521589D01*
X168916829Y-118649860D01*
X168706485Y-118822485D01*
X168533860Y-119032829D01*
X168405589Y-119272808D01*
X168326599Y-119533201D01*
X168299928Y-119804000D01*
X167484863Y-119804000D01*
X167703618Y-119687073D01*
X167932903Y-119498903D01*
X168121073Y-119269618D01*
X168260896Y-119008028D01*
X168346999Y-118724186D01*
X168376072Y-118429000D01*
X168376072Y-116679000D01*
X168366506Y-116581869D01*
X168407463Y-116658494D01*
X168486815Y-116755185D01*
X168583506Y-116834537D01*
X168693820Y-116893502D01*
X168813518Y-116929812D01*
X168938000Y-116942072D01*
X170402250Y-116939000D01*
X170561000Y-116780250D01*
X170561000Y-114681000D01*
X170815000Y-114681000D01*
X170815000Y-116780250D01*
X170973750Y-116939000D01*
X172438000Y-116942072D01*
X172562482Y-116929812D01*
X172682180Y-116893502D01*
X172792494Y-116834537D01*
X172889185Y-116755185D01*
X172968537Y-116658494D01*
X173027502Y-116548180D01*
X173063812Y-116428482D01*
X173076072Y-116304000D01*
X173073000Y-114839750D01*
X172914250Y-114681000D01*
X170815000Y-114681000D01*
X170561000Y-114681000D01*
X168461750Y-114681000D01*
X168303000Y-114839750D01*
X168300085Y-116229160D01*
X168260896Y-116099972D01*
X168121073Y-115838382D01*
X167932903Y-115609097D01*
X167703618Y-115420927D01*
X167442028Y-115281104D01*
X167158186Y-115195001D01*
X166863000Y-115165928D01*
X165113000Y-115165928D01*
X164817814Y-115195001D01*
X164533972Y-115281104D01*
X164272382Y-115420927D01*
X164043097Y-115609097D01*
X163854927Y-115838382D01*
X163715104Y-116099972D01*
X163629001Y-116383814D01*
X163599928Y-116679000D01*
X146177000Y-116679000D01*
X146177000Y-100033201D01*
X146748600Y-99461601D01*
X146748600Y-99633135D01*
X146803747Y-99910374D01*
X146911920Y-100171527D01*
X147068963Y-100406559D01*
X147268841Y-100606437D01*
X147501359Y-100761800D01*
X147268841Y-100917163D01*
X147068963Y-101117041D01*
X146911920Y-101352073D01*
X146803747Y-101613226D01*
X146748600Y-101890465D01*
X146748600Y-102173135D01*
X146803747Y-102450374D01*
X146911920Y-102711527D01*
X147068963Y-102946559D01*
X147268841Y-103146437D01*
X147294601Y-103163649D01*
X147294600Y-103439951D01*
X147268841Y-103457163D01*
X147068963Y-103657041D01*
X146911920Y-103892073D01*
X146803747Y-104153226D01*
X146748600Y-104430465D01*
X146748600Y-104713135D01*
X146803747Y-104990374D01*
X146911920Y-105251527D01*
X147068963Y-105486559D01*
X147268841Y-105686437D01*
X147501359Y-105841800D01*
X147268841Y-105997163D01*
X147068963Y-106197041D01*
X146911920Y-106432073D01*
X146803747Y-106693226D01*
X146748600Y-106970465D01*
X146748600Y-107253135D01*
X146803747Y-107530374D01*
X146911920Y-107791527D01*
X147068963Y-108026559D01*
X147268841Y-108226437D01*
X147501359Y-108381800D01*
X147268841Y-108537163D01*
X147068963Y-108737041D01*
X146911920Y-108972073D01*
X146803747Y-109233226D01*
X146748600Y-109510465D01*
X146748600Y-109793135D01*
X146803747Y-110070374D01*
X146911920Y-110331527D01*
X147068963Y-110566559D01*
X147268841Y-110766437D01*
X147501359Y-110921800D01*
X147268841Y-111077163D01*
X147068963Y-111277041D01*
X146911920Y-111512073D01*
X146803747Y-111773226D01*
X146748600Y-112050465D01*
X146748600Y-112333135D01*
X146803747Y-112610374D01*
X146911920Y-112871527D01*
X147068963Y-113106559D01*
X147268841Y-113306437D01*
X147501359Y-113461800D01*
X147268841Y-113617163D01*
X147068963Y-113817041D01*
X146911920Y-114052073D01*
X146803747Y-114313226D01*
X146748600Y-114590465D01*
X146748600Y-114873135D01*
X146803747Y-115150374D01*
X146911920Y-115411527D01*
X147068963Y-115646559D01*
X147268841Y-115846437D01*
X147503873Y-116003480D01*
X147765026Y-116111653D01*
X148042265Y-116166800D01*
X148324935Y-116166800D01*
X148602174Y-116111653D01*
X148863327Y-116003480D01*
X149098359Y-115846437D01*
X149298237Y-115646559D01*
X149455280Y-115411527D01*
X149563453Y-115150374D01*
X149577284Y-115080839D01*
X159491696Y-115080839D01*
X159532354Y-115214887D01*
X159652563Y-115469220D01*
X159820081Y-115695214D01*
X160028469Y-115884185D01*
X160269719Y-116028870D01*
X160534560Y-116123709D01*
X160756600Y-116002424D01*
X160756600Y-114858800D01*
X161010600Y-114858800D01*
X161010600Y-116002424D01*
X161232640Y-116123709D01*
X161497481Y-116028870D01*
X161738731Y-115884185D01*
X161947119Y-115695214D01*
X162114637Y-115469220D01*
X162234846Y-115214887D01*
X162275504Y-115080839D01*
X162153515Y-114858800D01*
X161010600Y-114858800D01*
X160756600Y-114858800D01*
X159613685Y-114858800D01*
X159491696Y-115080839D01*
X149577284Y-115080839D01*
X149618600Y-114873135D01*
X149618600Y-114590465D01*
X149563453Y-114313226D01*
X149455280Y-114052073D01*
X149298237Y-113817041D01*
X149098359Y-113617163D01*
X148865841Y-113461800D01*
X149098359Y-113306437D01*
X149298237Y-113106559D01*
X149455280Y-112871527D01*
X149563453Y-112610374D01*
X149618600Y-112333135D01*
X149618600Y-112050465D01*
X149563453Y-111773226D01*
X149455280Y-111512073D01*
X149298237Y-111277041D01*
X149098359Y-111077163D01*
X148865841Y-110921800D01*
X149098359Y-110766437D01*
X149298237Y-110566559D01*
X149455280Y-110331527D01*
X149563453Y-110070374D01*
X149618600Y-109793135D01*
X149618600Y-109510465D01*
X149563453Y-109233226D01*
X149455280Y-108972073D01*
X149298237Y-108737041D01*
X149098359Y-108537163D01*
X148865841Y-108381800D01*
X149098359Y-108226437D01*
X149298237Y-108026559D01*
X149455280Y-107791527D01*
X149563453Y-107530374D01*
X149618600Y-107253135D01*
X149618600Y-106970465D01*
X149563453Y-106693226D01*
X149455280Y-106432073D01*
X149298237Y-106197041D01*
X149098359Y-105997163D01*
X148865841Y-105841800D01*
X149098359Y-105686437D01*
X149298237Y-105486559D01*
X149455280Y-105251527D01*
X149563453Y-104990374D01*
X149618600Y-104713135D01*
X149618600Y-104430465D01*
X149563453Y-104153226D01*
X149455280Y-103892073D01*
X149298237Y-103657041D01*
X149098359Y-103457163D01*
X149072600Y-103439951D01*
X149072600Y-103163649D01*
X149098359Y-103146437D01*
X149298237Y-102946559D01*
X149455280Y-102711527D01*
X149563453Y-102450374D01*
X149618600Y-102173135D01*
X149618600Y-101890465D01*
X149612556Y-101860079D01*
X152495136Y-98977499D01*
X152529059Y-98949659D01*
X152640153Y-98814291D01*
X152722703Y-98659851D01*
X152747823Y-98577041D01*
X152773536Y-98492276D01*
X152783622Y-98389872D01*
X152786400Y-98361667D01*
X152786400Y-98361661D01*
X152790700Y-98318001D01*
X152786400Y-98274341D01*
X152786400Y-96151800D01*
X159445528Y-96151800D01*
X159445528Y-97751800D01*
X159457788Y-97876282D01*
X159494098Y-97995980D01*
X159553063Y-98106294D01*
X159632415Y-98202985D01*
X159729106Y-98282337D01*
X159839420Y-98341302D01*
X159959118Y-98377612D01*
X159967561Y-98378443D01*
X159768963Y-98577041D01*
X159611920Y-98812073D01*
X159503747Y-99073226D01*
X159448600Y-99350465D01*
X159448600Y-99633135D01*
X159503747Y-99910374D01*
X159611920Y-100171527D01*
X159768963Y-100406559D01*
X159968841Y-100606437D01*
X160201359Y-100761800D01*
X159968841Y-100917163D01*
X159768963Y-101117041D01*
X159611920Y-101352073D01*
X159503747Y-101613226D01*
X159448600Y-101890465D01*
X159448600Y-102173135D01*
X159503747Y-102450374D01*
X159611920Y-102711527D01*
X159768963Y-102946559D01*
X159968841Y-103146437D01*
X160201359Y-103301800D01*
X159968841Y-103457163D01*
X159768963Y-103657041D01*
X159611920Y-103892073D01*
X159503747Y-104153226D01*
X159448600Y-104430465D01*
X159448600Y-104713135D01*
X159503747Y-104990374D01*
X159611920Y-105251527D01*
X159768963Y-105486559D01*
X159968841Y-105686437D01*
X160201359Y-105841800D01*
X159968841Y-105997163D01*
X159768963Y-106197041D01*
X159611920Y-106432073D01*
X159503747Y-106693226D01*
X159448600Y-106970465D01*
X159448600Y-107253135D01*
X159503747Y-107530374D01*
X159611920Y-107791527D01*
X159768963Y-108026559D01*
X159968841Y-108226437D01*
X160201359Y-108381800D01*
X159968841Y-108537163D01*
X159768963Y-108737041D01*
X159611920Y-108972073D01*
X159503747Y-109233226D01*
X159448600Y-109510465D01*
X159448600Y-109793135D01*
X159503747Y-110070374D01*
X159611920Y-110331527D01*
X159768963Y-110566559D01*
X159968841Y-110766437D01*
X160201359Y-110921800D01*
X159968841Y-111077163D01*
X159768963Y-111277041D01*
X159611920Y-111512073D01*
X159503747Y-111773226D01*
X159448600Y-112050465D01*
X159448600Y-112333135D01*
X159503747Y-112610374D01*
X159611920Y-112871527D01*
X159768963Y-113106559D01*
X159968841Y-113306437D01*
X160203873Y-113463480D01*
X160214465Y-113467867D01*
X160028469Y-113579415D01*
X159820081Y-113768386D01*
X159652563Y-113994380D01*
X159532354Y-114248713D01*
X159491696Y-114382761D01*
X159613685Y-114604800D01*
X160756600Y-114604800D01*
X160756600Y-114584800D01*
X161010600Y-114584800D01*
X161010600Y-114604800D01*
X162153515Y-114604800D01*
X162275504Y-114382761D01*
X162234846Y-114248713D01*
X162114637Y-113994380D01*
X161947119Y-113768386D01*
X161738731Y-113579415D01*
X161552735Y-113467867D01*
X161563327Y-113463480D01*
X161798359Y-113306437D01*
X161998237Y-113106559D01*
X162155280Y-112871527D01*
X162183250Y-112804000D01*
X168299928Y-112804000D01*
X168303000Y-114268250D01*
X168461750Y-114427000D01*
X170561000Y-114427000D01*
X170561000Y-112327750D01*
X170815000Y-112327750D01*
X170815000Y-114427000D01*
X172914250Y-114427000D01*
X173073000Y-114268250D01*
X173076072Y-112804000D01*
X173063812Y-112679518D01*
X173027502Y-112559820D01*
X172968537Y-112449506D01*
X172889185Y-112352815D01*
X172792494Y-112273463D01*
X172682180Y-112214498D01*
X172562482Y-112178188D01*
X172438000Y-112165928D01*
X170973750Y-112169000D01*
X170815000Y-112327750D01*
X170561000Y-112327750D01*
X170402250Y-112169000D01*
X168938000Y-112165928D01*
X168813518Y-112178188D01*
X168693820Y-112214498D01*
X168583506Y-112273463D01*
X168486815Y-112352815D01*
X168407463Y-112449506D01*
X168348498Y-112559820D01*
X168312188Y-112679518D01*
X168299928Y-112804000D01*
X162183250Y-112804000D01*
X162263453Y-112610374D01*
X162318600Y-112333135D01*
X162318600Y-112050465D01*
X162263453Y-111773226D01*
X162155280Y-111512073D01*
X161998237Y-111277041D01*
X161798359Y-111077163D01*
X161565841Y-110921800D01*
X161660876Y-110858300D01*
X165756566Y-110858300D01*
X165811438Y-110925162D01*
X165946013Y-111035605D01*
X166099549Y-111117672D01*
X166266145Y-111168208D01*
X166439399Y-111185272D01*
X168129401Y-111185272D01*
X168302655Y-111168208D01*
X168469251Y-111117672D01*
X168622787Y-111035605D01*
X168757362Y-110925162D01*
X168867805Y-110790587D01*
X168949872Y-110637051D01*
X169000408Y-110470455D01*
X169017472Y-110297201D01*
X169017472Y-109057199D01*
X169000408Y-108883945D01*
X168949872Y-108717349D01*
X168867805Y-108563813D01*
X168757362Y-108429238D01*
X168622787Y-108318795D01*
X168513286Y-108260266D01*
X168578745Y-108206545D01*
X168766817Y-107977379D01*
X168906566Y-107715925D01*
X168992624Y-107432232D01*
X169021682Y-107137200D01*
X168992624Y-106842168D01*
X168906566Y-106558475D01*
X168766817Y-106297021D01*
X168578745Y-106067855D01*
X168349579Y-105879783D01*
X168326038Y-105867200D01*
X168349579Y-105854617D01*
X168578745Y-105666545D01*
X168766817Y-105437379D01*
X168906566Y-105175925D01*
X168992624Y-104892232D01*
X169021682Y-104597200D01*
X168992624Y-104302168D01*
X168906566Y-104018475D01*
X168766817Y-103757021D01*
X168578745Y-103527855D01*
X168349579Y-103339783D01*
X168326038Y-103327200D01*
X168349579Y-103314617D01*
X168578745Y-103126545D01*
X168766817Y-102897379D01*
X168906566Y-102635925D01*
X168992624Y-102352232D01*
X169021682Y-102057200D01*
X168992624Y-101762168D01*
X168906566Y-101478475D01*
X168766817Y-101217021D01*
X168578745Y-100987855D01*
X168349579Y-100799783D01*
X168088125Y-100660034D01*
X167804432Y-100573976D01*
X167583336Y-100552200D01*
X166985464Y-100552200D01*
X166764368Y-100573976D01*
X166480675Y-100660034D01*
X166219221Y-100799783D01*
X166188128Y-100825300D01*
X161660876Y-100825300D01*
X161565841Y-100761800D01*
X161798359Y-100606437D01*
X161998237Y-100406559D01*
X162155280Y-100171527D01*
X162263453Y-99910374D01*
X162318600Y-99633135D01*
X162318600Y-99350465D01*
X162263453Y-99073226D01*
X162155280Y-98812073D01*
X161998237Y-98577041D01*
X161799639Y-98378443D01*
X161808082Y-98377612D01*
X161927780Y-98341302D01*
X162038094Y-98282337D01*
X162134785Y-98202985D01*
X162214137Y-98106294D01*
X162273102Y-97995980D01*
X162309412Y-97876282D01*
X162321672Y-97751800D01*
X162321672Y-96151800D01*
X162309412Y-96027318D01*
X162273102Y-95907620D01*
X162214137Y-95797306D01*
X162134785Y-95700615D01*
X162038094Y-95621263D01*
X161927780Y-95562298D01*
X161808082Y-95525988D01*
X161683600Y-95513728D01*
X160083600Y-95513728D01*
X159959118Y-95525988D01*
X159839420Y-95562298D01*
X159729106Y-95621263D01*
X159632415Y-95700615D01*
X159553063Y-95797306D01*
X159494098Y-95907620D01*
X159457788Y-96027318D01*
X159445528Y-96151800D01*
X152786400Y-96151800D01*
X152786400Y-95123000D01*
X155702000Y-95123000D01*
X155726776Y-95120560D01*
X155750601Y-95113333D01*
X155772557Y-95101597D01*
X155791803Y-95085803D01*
X155807597Y-95066557D01*
X155819333Y-95044601D01*
X155826560Y-95020776D01*
X155829000Y-94996000D01*
X155829000Y-94116768D01*
X177870000Y-94116768D01*
X177870000Y-94478232D01*
X177940518Y-94832750D01*
X178078844Y-95166699D01*
X178279662Y-95467244D01*
X178535256Y-95722838D01*
X178835801Y-95923656D01*
X179169750Y-96061982D01*
X179524268Y-96132500D01*
X179885732Y-96132500D01*
X180240250Y-96061982D01*
X180574199Y-95923656D01*
X180874744Y-95722838D01*
X181130338Y-95467244D01*
X181331156Y-95166699D01*
X181469482Y-94832750D01*
X181540000Y-94478232D01*
X181540000Y-94116768D01*
X181469482Y-93762250D01*
X181331156Y-93428301D01*
X181130338Y-93127756D01*
X180874744Y-92872162D01*
X180574199Y-92671344D01*
X180240250Y-92533018D01*
X179885732Y-92462500D01*
X179524268Y-92462500D01*
X179169750Y-92533018D01*
X178835801Y-92671344D01*
X178535256Y-92872162D01*
X178279662Y-93127756D01*
X178078844Y-93428301D01*
X177940518Y-93762250D01*
X177870000Y-94116768D01*
X155829000Y-94116768D01*
X155829000Y-92272165D01*
X156191440Y-92272165D01*
X156258420Y-92512256D01*
X156507448Y-92629356D01*
X156774535Y-92695623D01*
X157049417Y-92708510D01*
X157321533Y-92667522D01*
X157580423Y-92574236D01*
X157696380Y-92512256D01*
X157763360Y-92272165D01*
X156977400Y-91486205D01*
X156191440Y-92272165D01*
X155829000Y-92272165D01*
X155829000Y-92154621D01*
X155837472Y-92068600D01*
X155837472Y-92043917D01*
X156011835Y-92092560D01*
X156797795Y-91306600D01*
X157157005Y-91306600D01*
X157942965Y-92092560D01*
X158183056Y-92025580D01*
X158246885Y-91889840D01*
X158279395Y-91968327D01*
X158432280Y-92197135D01*
X158626865Y-92391720D01*
X158855673Y-92544605D01*
X159109910Y-92649914D01*
X159379808Y-92703600D01*
X159654992Y-92703600D01*
X159924890Y-92649914D01*
X160179127Y-92544605D01*
X160407935Y-92391720D01*
X160602520Y-92197135D01*
X160755405Y-91968327D01*
X160860714Y-91714090D01*
X160914400Y-91444192D01*
X160914400Y-91169008D01*
X160860714Y-90899110D01*
X160755405Y-90644873D01*
X160602520Y-90416065D01*
X160407935Y-90221480D01*
X160179127Y-90068595D01*
X159924890Y-89963286D01*
X159654992Y-89909600D01*
X159379808Y-89909600D01*
X159109910Y-89963286D01*
X158855673Y-90068595D01*
X158626865Y-90221480D01*
X158432280Y-90416065D01*
X158279395Y-90644873D01*
X158249708Y-90716543D01*
X158245036Y-90703577D01*
X158183056Y-90587620D01*
X157942965Y-90520640D01*
X157157005Y-91306600D01*
X156797795Y-91306600D01*
X156011835Y-90520640D01*
X155837472Y-90569283D01*
X155837472Y-90544600D01*
X155829000Y-90458579D01*
X155829000Y-90341035D01*
X156191440Y-90341035D01*
X156977400Y-91126995D01*
X157763360Y-90341035D01*
X157696380Y-90100944D01*
X157447352Y-89983844D01*
X157180265Y-89917577D01*
X156905383Y-89904690D01*
X156633267Y-89945678D01*
X156374377Y-90038964D01*
X156258420Y-90100944D01*
X156191440Y-90341035D01*
X155829000Y-90341035D01*
X155829000Y-89774665D01*
X163848000Y-89774665D01*
X163848000Y-90057335D01*
X163903147Y-90334574D01*
X164011320Y-90595727D01*
X164168363Y-90830759D01*
X164368241Y-91030637D01*
X164603273Y-91187680D01*
X164864426Y-91295853D01*
X165141665Y-91351000D01*
X165424335Y-91351000D01*
X165701574Y-91295853D01*
X165962727Y-91187680D01*
X166197759Y-91030637D01*
X166397637Y-90830759D01*
X166474316Y-90716000D01*
X167344928Y-90716000D01*
X167357188Y-90840482D01*
X167393498Y-90960180D01*
X167452463Y-91070494D01*
X167531815Y-91167185D01*
X167628506Y-91246537D01*
X167738820Y-91305502D01*
X167858518Y-91341812D01*
X167983000Y-91354072D01*
X168497250Y-91351000D01*
X168656000Y-91192250D01*
X168656000Y-90043000D01*
X168910000Y-90043000D01*
X168910000Y-91192250D01*
X169068750Y-91351000D01*
X169583000Y-91354072D01*
X169707482Y-91341812D01*
X169827180Y-91305502D01*
X169937494Y-91246537D01*
X170034185Y-91167185D01*
X170113537Y-91070494D01*
X170172502Y-90960180D01*
X170208812Y-90840482D01*
X170221072Y-90716000D01*
X170218000Y-90201750D01*
X170059250Y-90043000D01*
X168910000Y-90043000D01*
X168656000Y-90043000D01*
X167506750Y-90043000D01*
X167348000Y-90201750D01*
X167344928Y-90716000D01*
X166474316Y-90716000D01*
X166554680Y-90595727D01*
X166662853Y-90334574D01*
X166718000Y-90057335D01*
X166718000Y-89774665D01*
X166662853Y-89497426D01*
X166554680Y-89236273D01*
X166474317Y-89116000D01*
X167344928Y-89116000D01*
X167348000Y-89630250D01*
X167506750Y-89789000D01*
X168656000Y-89789000D01*
X168656000Y-88639750D01*
X168910000Y-88639750D01*
X168910000Y-89789000D01*
X170059250Y-89789000D01*
X170218000Y-89630250D01*
X170221072Y-89116000D01*
X170208812Y-88991518D01*
X170172502Y-88871820D01*
X170113537Y-88761506D01*
X170034185Y-88664815D01*
X169937494Y-88585463D01*
X169827180Y-88526498D01*
X169707482Y-88490188D01*
X169583000Y-88477928D01*
X169068750Y-88481000D01*
X168910000Y-88639750D01*
X168656000Y-88639750D01*
X168497250Y-88481000D01*
X167983000Y-88477928D01*
X167858518Y-88490188D01*
X167738820Y-88526498D01*
X167628506Y-88585463D01*
X167531815Y-88664815D01*
X167452463Y-88761506D01*
X167393498Y-88871820D01*
X167357188Y-88991518D01*
X167344928Y-89116000D01*
X166474317Y-89116000D01*
X166397637Y-89001241D01*
X166197759Y-88801363D01*
X165962727Y-88644320D01*
X165701574Y-88536147D01*
X165424335Y-88481000D01*
X165141665Y-88481000D01*
X164864426Y-88536147D01*
X164603273Y-88644320D01*
X164368241Y-88801363D01*
X164168363Y-89001241D01*
X164011320Y-89236273D01*
X163903147Y-89497426D01*
X163848000Y-89774665D01*
X155829000Y-89774665D01*
X155829000Y-87268098D01*
X177193000Y-87268098D01*
X177193000Y-87737902D01*
X177284654Y-88198679D01*
X177464440Y-88632721D01*
X177725450Y-89023349D01*
X178057651Y-89355550D01*
X178448279Y-89616560D01*
X178882321Y-89796346D01*
X179343098Y-89888000D01*
X179812902Y-89888000D01*
X180273679Y-89796346D01*
X180707721Y-89616560D01*
X181098349Y-89355550D01*
X181430550Y-89023349D01*
X181691560Y-88632721D01*
X181871346Y-88198679D01*
X181963000Y-87737902D01*
X181963000Y-87268098D01*
X181871346Y-86807321D01*
X181691560Y-86373279D01*
X181430550Y-85982651D01*
X181098349Y-85650450D01*
X180707721Y-85389440D01*
X180273679Y-85209654D01*
X179812902Y-85118000D01*
X179343098Y-85118000D01*
X178882321Y-85209654D01*
X178448279Y-85389440D01*
X178057651Y-85650450D01*
X177725450Y-85982651D01*
X177464440Y-86373279D01*
X177284654Y-86807321D01*
X177193000Y-87268098D01*
X155829000Y-87268098D01*
X155829000Y-83718000D01*
X183998000Y-83718000D01*
X183998001Y-128118000D01*
G37*
%TD.AperFunction*%
%TD*%
D26*
%TO.N,+5V*%
X155067000Y-89906528D02*
X153675400Y-89906528D01*
X153550918Y-89918788D01*
X153431220Y-89955098D01*
X153320906Y-90014063D01*
X153224215Y-90093415D01*
X153144863Y-90190106D01*
X153085898Y-90300420D01*
X153049588Y-90420118D01*
X153037328Y-90544600D01*
X153037328Y-90569283D01*
X152862965Y-90520640D01*
X152077005Y-91306600D01*
X152862965Y-92092560D01*
X153037328Y-92043917D01*
X153037328Y-92068600D01*
X153049588Y-92193082D01*
X153085898Y-92312780D01*
X153144863Y-92423094D01*
X153224215Y-92519785D01*
X153320906Y-92599137D01*
X153431220Y-92658102D01*
X153550918Y-92694412D01*
X153675400Y-92706672D01*
X155067000Y-92706672D01*
X155067000Y-94361000D01*
X145288000Y-94361000D01*
X145263224Y-94363440D01*
X145239399Y-94370667D01*
X145217443Y-94382403D01*
X145198197Y-94398197D01*
X145182403Y-94417443D01*
X145170667Y-94439399D01*
X145163440Y-94463224D01*
X145161000Y-94488000D01*
X145161000Y-98899599D01*
X144675398Y-99385201D01*
X144646400Y-99408999D01*
X144622602Y-99437997D01*
X144622601Y-99437998D01*
X144551426Y-99524724D01*
X144484758Y-99649450D01*
X144345237Y-99440641D01*
X144145359Y-99240763D01*
X143912841Y-99085400D01*
X144145359Y-98930037D01*
X144345237Y-98730159D01*
X144502280Y-98495127D01*
X144610453Y-98233974D01*
X144665600Y-97956735D01*
X144665600Y-97674065D01*
X144610453Y-97396826D01*
X144502280Y-97135673D01*
X144345237Y-96900641D01*
X144145359Y-96700763D01*
X143912841Y-96545400D01*
X144145359Y-96390037D01*
X144345237Y-96190159D01*
X144502280Y-95955127D01*
X144610453Y-95693974D01*
X144665600Y-95416735D01*
X144665600Y-95134065D01*
X144610453Y-94856826D01*
X144502280Y-94595673D01*
X144345237Y-94360641D01*
X144145359Y-94160763D01*
X143912841Y-94005400D01*
X144145359Y-93850037D01*
X144345237Y-93650159D01*
X144502280Y-93415127D01*
X144610453Y-93153974D01*
X144665600Y-92876735D01*
X144665600Y-92594065D01*
X144610453Y-92316826D01*
X144502280Y-92055673D01*
X144345237Y-91820641D01*
X144145359Y-91620763D01*
X143912841Y-91465400D01*
X144145359Y-91310037D01*
X144300070Y-91155326D01*
X146764400Y-91155326D01*
X146764400Y-91419874D01*
X146816011Y-91679339D01*
X146917249Y-91923749D01*
X147064224Y-92143712D01*
X147251288Y-92330776D01*
X147471251Y-92477751D01*
X147715661Y-92578989D01*
X147975126Y-92630600D01*
X148239674Y-92630600D01*
X148499139Y-92578989D01*
X148743549Y-92477751D01*
X148963512Y-92330776D01*
X149022123Y-92272165D01*
X151111440Y-92272165D01*
X151178420Y-92512256D01*
X151427448Y-92629356D01*
X151694535Y-92695623D01*
X151969417Y-92708510D01*
X152241533Y-92667522D01*
X152500423Y-92574236D01*
X152616380Y-92512256D01*
X152683360Y-92272165D01*
X151897400Y-91486205D01*
X151111440Y-92272165D01*
X149022123Y-92272165D01*
X149150576Y-92143712D01*
X149297551Y-91923749D01*
X149398789Y-91679339D01*
X149450400Y-91419874D01*
X149450400Y-91378617D01*
X150495490Y-91378617D01*
X150536478Y-91650733D01*
X150629764Y-91909623D01*
X150691744Y-92025580D01*
X150931835Y-92092560D01*
X151717795Y-91306600D01*
X150931835Y-90520640D01*
X150691744Y-90587620D01*
X150574644Y-90836648D01*
X150508377Y-91103735D01*
X150495490Y-91378617D01*
X149450400Y-91378617D01*
X149450400Y-91155326D01*
X149398789Y-90895861D01*
X149297551Y-90651451D01*
X149150576Y-90431488D01*
X149060123Y-90341035D01*
X151111440Y-90341035D01*
X151897400Y-91126995D01*
X152683360Y-90341035D01*
X152616380Y-90100944D01*
X152367352Y-89983844D01*
X152100265Y-89917577D01*
X151825383Y-89904690D01*
X151553267Y-89945678D01*
X151294377Y-90038964D01*
X151178420Y-90100944D01*
X151111440Y-90341035D01*
X149060123Y-90341035D01*
X148963512Y-90244424D01*
X148743549Y-90097449D01*
X148547982Y-90016442D01*
X148691562Y-89964112D01*
X148794349Y-89909171D01*
X148854781Y-89674586D01*
X148107400Y-88927205D01*
X147360019Y-89674586D01*
X147420451Y-89909171D01*
X147658317Y-90019964D01*
X147471251Y-90097449D01*
X147251288Y-90244424D01*
X147064224Y-90431488D01*
X146917249Y-90651451D01*
X146816011Y-90895861D01*
X146764400Y-91155326D01*
X144300070Y-91155326D01*
X144345237Y-91110159D01*
X144502280Y-90875127D01*
X144610453Y-90613974D01*
X144665600Y-90336735D01*
X144665600Y-90054065D01*
X144610453Y-89776826D01*
X144502280Y-89515673D01*
X144345237Y-89280641D01*
X144146639Y-89082043D01*
X144155082Y-89081212D01*
X144274780Y-89044902D01*
X144385094Y-88985937D01*
X144481785Y-88906585D01*
X144551402Y-88821756D01*
X146759940Y-88821756D01*
X146800298Y-89083208D01*
X146890888Y-89331762D01*
X146945829Y-89434549D01*
X147180414Y-89494981D01*
X147927795Y-88747600D01*
X148287005Y-88747600D01*
X149034386Y-89494981D01*
X149268971Y-89434549D01*
X149380669Y-89194739D01*
X149443436Y-88937745D01*
X149454860Y-88673444D01*
X149414502Y-88411992D01*
X149323912Y-88163438D01*
X149268971Y-88060651D01*
X149034386Y-88000219D01*
X148287005Y-88747600D01*
X147927795Y-88747600D01*
X147180414Y-88000219D01*
X146945829Y-88060651D01*
X146834131Y-88300461D01*
X146771364Y-88557455D01*
X146759940Y-88821756D01*
X144551402Y-88821756D01*
X144561137Y-88809894D01*
X144620102Y-88699580D01*
X144656412Y-88579882D01*
X144668672Y-88455400D01*
X144668672Y-87820614D01*
X147360019Y-87820614D01*
X148107400Y-88567995D01*
X148854781Y-87820614D01*
X148794349Y-87586029D01*
X148554539Y-87474331D01*
X148297545Y-87411564D01*
X148033244Y-87400140D01*
X147771792Y-87440498D01*
X147523238Y-87531088D01*
X147420451Y-87586029D01*
X147360019Y-87820614D01*
X144668672Y-87820614D01*
X144668672Y-86855400D01*
X144656412Y-86730918D01*
X144620102Y-86611220D01*
X144561137Y-86500906D01*
X144481785Y-86404215D01*
X144385094Y-86324863D01*
X144274780Y-86265898D01*
X144155082Y-86229588D01*
X144030600Y-86217328D01*
X142430600Y-86217328D01*
X142306118Y-86229588D01*
X142186420Y-86265898D01*
X142076106Y-86324863D01*
X141979415Y-86404215D01*
X141900063Y-86500906D01*
X141841098Y-86611220D01*
X141804788Y-86730918D01*
X141792528Y-86855400D01*
X141792528Y-88455400D01*
X141804788Y-88579882D01*
X141841098Y-88699580D01*
X141900063Y-88809894D01*
X141979415Y-88906585D01*
X142076106Y-88985937D01*
X142186420Y-89044902D01*
X142306118Y-89081212D01*
X142314561Y-89082043D01*
X142115963Y-89280641D01*
X141958920Y-89515673D01*
X141850747Y-89776826D01*
X141795600Y-90054065D01*
X141795600Y-90336735D01*
X141850747Y-90613974D01*
X141958920Y-90875127D01*
X142115963Y-91110159D01*
X142315841Y-91310037D01*
X142548359Y-91465400D01*
X142315841Y-91620763D01*
X142115963Y-91820641D01*
X141958920Y-92055673D01*
X141850747Y-92316826D01*
X141795600Y-92594065D01*
X141795600Y-92876735D01*
X141850747Y-93153974D01*
X141958920Y-93415127D01*
X142115963Y-93650159D01*
X142315841Y-93850037D01*
X142548359Y-94005400D01*
X142315841Y-94160763D01*
X142115963Y-94360641D01*
X141958920Y-94595673D01*
X141850747Y-94856826D01*
X141795600Y-95134065D01*
X141795600Y-95416735D01*
X141850747Y-95693974D01*
X141958920Y-95955127D01*
X142115963Y-96190159D01*
X142315841Y-96390037D01*
X142548359Y-96545400D01*
X142315841Y-96700763D01*
X142115963Y-96900641D01*
X141958920Y-97135673D01*
X141850747Y-97396826D01*
X141795600Y-97674065D01*
X141795600Y-97956735D01*
X141850747Y-98233974D01*
X141958920Y-98495127D01*
X142115963Y-98730159D01*
X142315841Y-98930037D01*
X142548359Y-99085400D01*
X142315841Y-99240763D01*
X142115963Y-99440641D01*
X141958920Y-99675673D01*
X141850747Y-99936826D01*
X141795600Y-100214065D01*
X141795600Y-100496735D01*
X141850747Y-100773974D01*
X141958920Y-101035127D01*
X142115963Y-101270159D01*
X142315841Y-101470037D01*
X142548359Y-101625400D01*
X142315841Y-101780763D01*
X142115963Y-101980641D01*
X141958920Y-102215673D01*
X141850747Y-102476826D01*
X141795600Y-102754065D01*
X141795600Y-103036735D01*
X141850747Y-103313974D01*
X141958920Y-103575127D01*
X142115963Y-103810159D01*
X142315841Y-104010037D01*
X142548359Y-104165400D01*
X142315841Y-104320763D01*
X142115963Y-104520641D01*
X141958920Y-104755673D01*
X141850747Y-105016826D01*
X141795600Y-105294065D01*
X141795600Y-105576735D01*
X141850747Y-105853974D01*
X141958920Y-106115127D01*
X142115963Y-106350159D01*
X142315841Y-106550037D01*
X142548359Y-106705400D01*
X142315841Y-106860763D01*
X142115963Y-107060641D01*
X141958920Y-107295673D01*
X141850747Y-107556826D01*
X141795600Y-107834065D01*
X141795600Y-108116735D01*
X141850747Y-108393974D01*
X141958920Y-108655127D01*
X142115963Y-108890159D01*
X142315841Y-109090037D01*
X142548359Y-109245400D01*
X142315841Y-109400763D01*
X142115963Y-109600641D01*
X141958920Y-109835673D01*
X141850747Y-110096826D01*
X141795600Y-110374065D01*
X141795600Y-110656735D01*
X141850747Y-110933974D01*
X141958920Y-111195127D01*
X142115963Y-111430159D01*
X142315841Y-111630037D01*
X142548359Y-111785400D01*
X142315841Y-111940763D01*
X142115963Y-112140641D01*
X141958920Y-112375673D01*
X141850747Y-112636826D01*
X141795600Y-112914065D01*
X141795600Y-113196735D01*
X141850747Y-113473974D01*
X141958920Y-113735127D01*
X142115963Y-113970159D01*
X142315841Y-114170037D01*
X142548359Y-114325400D01*
X142315841Y-114480763D01*
X142115963Y-114680641D01*
X141958920Y-114915673D01*
X141850747Y-115176826D01*
X141795600Y-115454065D01*
X141795600Y-115736735D01*
X141850747Y-116013974D01*
X141958920Y-116275127D01*
X142115963Y-116510159D01*
X142315841Y-116710037D01*
X142548359Y-116865400D01*
X142315841Y-117020763D01*
X142115963Y-117220641D01*
X141958920Y-117455673D01*
X141850747Y-117716826D01*
X141795600Y-117994065D01*
X141795600Y-118276735D01*
X141850747Y-118553974D01*
X141958920Y-118815127D01*
X142115963Y-119050159D01*
X142315841Y-119250037D01*
X142548359Y-119405400D01*
X142315841Y-119560763D01*
X142115963Y-119760641D01*
X141958920Y-119995673D01*
X141850747Y-120256826D01*
X141795600Y-120534065D01*
X141795600Y-120816735D01*
X141850747Y-121093974D01*
X141958920Y-121355127D01*
X142115963Y-121590159D01*
X142315841Y-121790037D01*
X142548359Y-121945400D01*
X142315841Y-122100763D01*
X142115963Y-122300641D01*
X141958920Y-122535673D01*
X141850747Y-122796826D01*
X141795600Y-123074065D01*
X141795600Y-123356735D01*
X141850747Y-123633974D01*
X141958920Y-123895127D01*
X142115963Y-124130159D01*
X142315841Y-124330037D01*
X142550873Y-124487080D01*
X142812026Y-124595253D01*
X143089265Y-124650400D01*
X143371935Y-124650400D01*
X143649174Y-124595253D01*
X143910327Y-124487080D01*
X144145359Y-124330037D01*
X144345237Y-124130159D01*
X144502280Y-123895127D01*
X144610453Y-123633974D01*
X144665600Y-123356735D01*
X144665600Y-123074065D01*
X144610453Y-122796826D01*
X144502280Y-122535673D01*
X144345237Y-122300641D01*
X144145359Y-122100763D01*
X143912841Y-121945400D01*
X144145359Y-121790037D01*
X144345237Y-121590159D01*
X144502280Y-121355127D01*
X144610453Y-121093974D01*
X144665600Y-120816735D01*
X144665600Y-120534065D01*
X144610453Y-120256826D01*
X144502280Y-119995673D01*
X144345237Y-119760641D01*
X144145359Y-119560763D01*
X143912841Y-119405400D01*
X144145359Y-119250037D01*
X144345237Y-119050159D01*
X144502280Y-118815127D01*
X144610453Y-118553974D01*
X144665600Y-118276735D01*
X144665600Y-117994065D01*
X144610453Y-117716826D01*
X144502280Y-117455673D01*
X144345237Y-117220641D01*
X144145359Y-117020763D01*
X143912841Y-116865400D01*
X144145359Y-116710037D01*
X144345237Y-116510159D01*
X144502280Y-116275127D01*
X144610453Y-116013974D01*
X144665600Y-115736735D01*
X144665600Y-115454065D01*
X144610453Y-115176826D01*
X144502280Y-114915673D01*
X144345237Y-114680641D01*
X144145359Y-114480763D01*
X143912841Y-114325400D01*
X144145359Y-114170037D01*
X144345237Y-113970159D01*
X144502280Y-113735127D01*
X144610453Y-113473974D01*
X144665600Y-113196735D01*
X144665600Y-112914065D01*
X144610453Y-112636826D01*
X144502280Y-112375673D01*
X144345237Y-112140641D01*
X144145359Y-111940763D01*
X143912841Y-111785400D01*
X144145359Y-111630037D01*
X144345237Y-111430159D01*
X144502280Y-111195127D01*
X144610453Y-110933974D01*
X144665600Y-110656735D01*
X144665600Y-110374065D01*
X144610453Y-110096826D01*
X144502280Y-109835673D01*
X144345237Y-109600641D01*
X144145359Y-109400763D01*
X143912841Y-109245400D01*
X144145359Y-109090037D01*
X144345237Y-108890159D01*
X144502280Y-108655127D01*
X144610453Y-108393974D01*
X144665600Y-108116735D01*
X144665600Y-107834065D01*
X144610453Y-107556826D01*
X144502280Y-107295673D01*
X144345237Y-107060641D01*
X144145359Y-106860763D01*
X143912841Y-106705400D01*
X144145359Y-106550037D01*
X144345237Y-106350159D01*
X144502280Y-106115127D01*
X144610453Y-105853974D01*
X144665600Y-105576735D01*
X144665600Y-105294065D01*
X144629288Y-105111514D01*
X145161000Y-104579802D01*
X145161000Y-128118000D01*
X123179508Y-128118000D01*
X123169095Y-128107587D01*
X123407960Y-128042063D01*
X123523860Y-127795084D01*
X123589350Y-127530240D01*
X123601912Y-127257708D01*
X123561065Y-126987962D01*
X123468377Y-126731368D01*
X123407960Y-126618337D01*
X123169093Y-126552812D01*
X122391705Y-127330200D01*
X122405848Y-127344343D01*
X122226243Y-127523948D01*
X122212100Y-127509805D01*
X122197958Y-127523948D01*
X122018353Y-127344343D01*
X122032495Y-127330200D01*
X121255107Y-126552812D01*
X121016240Y-126618337D01*
X120900340Y-126865316D01*
X120834850Y-127130160D01*
X120822288Y-127402692D01*
X120863135Y-127672438D01*
X120955823Y-127929032D01*
X121016240Y-128042063D01*
X121255105Y-128107587D01*
X121244692Y-128118000D01*
X86258000Y-128118000D01*
X86258000Y-126115493D01*
X96485712Y-126115493D01*
X96551237Y-126354360D01*
X96798216Y-126470260D01*
X97063060Y-126535750D01*
X97335592Y-126548312D01*
X97605338Y-126507465D01*
X97861932Y-126414777D01*
X97974963Y-126354360D01*
X98040488Y-126115493D01*
X97263100Y-125338105D01*
X96485712Y-126115493D01*
X86258000Y-126115493D01*
X86258000Y-123463098D01*
X88293000Y-123463098D01*
X88293000Y-123932902D01*
X88384654Y-124393679D01*
X88564440Y-124827721D01*
X88825450Y-125218349D01*
X89157651Y-125550550D01*
X89548279Y-125811560D01*
X89982321Y-125991346D01*
X90443098Y-126083000D01*
X90912902Y-126083000D01*
X91373679Y-125991346D01*
X91807721Y-125811560D01*
X92198349Y-125550550D01*
X92517907Y-125230992D01*
X95873288Y-125230992D01*
X95914135Y-125500738D01*
X96006823Y-125757332D01*
X96067240Y-125870363D01*
X96306107Y-125935888D01*
X97083495Y-125158500D01*
X97442705Y-125158500D01*
X98220093Y-125935888D01*
X98458960Y-125870363D01*
X98574860Y-125623384D01*
X98640350Y-125358540D01*
X98652912Y-125086008D01*
X98612065Y-124816262D01*
X98519377Y-124559668D01*
X98458960Y-124446637D01*
X98220093Y-124381112D01*
X97442705Y-125158500D01*
X97083495Y-125158500D01*
X96306107Y-124381112D01*
X96067240Y-124446637D01*
X95951340Y-124693616D01*
X95885850Y-124958460D01*
X95873288Y-125230992D01*
X92517907Y-125230992D01*
X92530550Y-125218349D01*
X92791560Y-124827721D01*
X92971346Y-124393679D01*
X93009571Y-124201507D01*
X96485712Y-124201507D01*
X97263100Y-124978895D01*
X98040488Y-124201507D01*
X97974963Y-123962640D01*
X97727984Y-123846740D01*
X97463140Y-123781250D01*
X97190608Y-123768688D01*
X96920862Y-123809535D01*
X96664268Y-123902223D01*
X96551237Y-123962640D01*
X96485712Y-124201507D01*
X93009571Y-124201507D01*
X93063000Y-123932902D01*
X93063000Y-123463098D01*
X92971346Y-123002321D01*
X92791560Y-122568279D01*
X92530550Y-122177651D01*
X92198349Y-121845450D01*
X91807721Y-121584440D01*
X91373679Y-121404654D01*
X90912902Y-121313000D01*
X90443098Y-121313000D01*
X89982321Y-121404654D01*
X89548279Y-121584440D01*
X89157651Y-121845450D01*
X88825450Y-122177651D01*
X88564440Y-122568279D01*
X88384654Y-123002321D01*
X88293000Y-123463098D01*
X86258000Y-123463098D01*
X86258000Y-117791668D01*
X87523400Y-117791668D01*
X87523400Y-118153132D01*
X87593918Y-118507650D01*
X87732244Y-118841599D01*
X87933062Y-119142144D01*
X88188656Y-119397738D01*
X88489201Y-119598556D01*
X88823150Y-119736882D01*
X89177668Y-119807400D01*
X89539132Y-119807400D01*
X89893650Y-119736882D01*
X90227599Y-119598556D01*
X90528144Y-119397738D01*
X90783738Y-119142144D01*
X90984556Y-118841599D01*
X91122882Y-118507650D01*
X91193400Y-118153132D01*
X91193400Y-117791668D01*
X94023400Y-117791668D01*
X94023400Y-118153132D01*
X94093918Y-118507650D01*
X94232244Y-118841599D01*
X94433062Y-119142144D01*
X94688656Y-119397738D01*
X94989201Y-119598556D01*
X95323150Y-119736882D01*
X95677668Y-119807400D01*
X96039132Y-119807400D01*
X96393650Y-119736882D01*
X96727599Y-119598556D01*
X97028144Y-119397738D01*
X97283738Y-119142144D01*
X97484556Y-118841599D01*
X97622882Y-118507650D01*
X97693400Y-118153132D01*
X97693400Y-117791668D01*
X97622882Y-117437150D01*
X97484556Y-117103201D01*
X97283738Y-116802656D01*
X97028144Y-116547062D01*
X96727599Y-116346244D01*
X96393650Y-116207918D01*
X96039132Y-116137400D01*
X95677668Y-116137400D01*
X95323150Y-116207918D01*
X94989201Y-116346244D01*
X94688656Y-116547062D01*
X94433062Y-116802656D01*
X94232244Y-117103201D01*
X94093918Y-117437150D01*
X94023400Y-117791668D01*
X91193400Y-117791668D01*
X91122882Y-117437150D01*
X90984556Y-117103201D01*
X90783738Y-116802656D01*
X90528144Y-116547062D01*
X90227599Y-116346244D01*
X89893650Y-116207918D01*
X89539132Y-116137400D01*
X89177668Y-116137400D01*
X88823150Y-116207918D01*
X88489201Y-116346244D01*
X88188656Y-116547062D01*
X87933062Y-116802656D01*
X87732244Y-117103201D01*
X87593918Y-117437150D01*
X87523400Y-117791668D01*
X86258000Y-117791668D01*
X86258000Y-113291668D01*
X87523400Y-113291668D01*
X87523400Y-113653132D01*
X87593918Y-114007650D01*
X87732244Y-114341599D01*
X87933062Y-114642144D01*
X88188656Y-114897738D01*
X88489201Y-115098556D01*
X88823150Y-115236882D01*
X89177668Y-115307400D01*
X89539132Y-115307400D01*
X89893650Y-115236882D01*
X90227599Y-115098556D01*
X90528144Y-114897738D01*
X90783738Y-114642144D01*
X90984556Y-114341599D01*
X91122882Y-114007650D01*
X91193400Y-113653132D01*
X91193400Y-113291668D01*
X94023400Y-113291668D01*
X94023400Y-113653132D01*
X94093918Y-114007650D01*
X94232244Y-114341599D01*
X94433062Y-114642144D01*
X94688656Y-114897738D01*
X94989201Y-115098556D01*
X95323150Y-115236882D01*
X95677668Y-115307400D01*
X96039132Y-115307400D01*
X96393650Y-115236882D01*
X96727599Y-115098556D01*
X97028144Y-114897738D01*
X97283738Y-114642144D01*
X97410558Y-114452344D01*
X98633000Y-114452344D01*
X98633000Y-114823656D01*
X98705439Y-115187834D01*
X98847534Y-115530882D01*
X99053825Y-115839618D01*
X99316382Y-116102175D01*
X99625118Y-116308466D01*
X99968166Y-116450561D01*
X100332344Y-116523000D01*
X100703656Y-116523000D01*
X101067834Y-116450561D01*
X101410882Y-116308466D01*
X101719618Y-116102175D01*
X101982175Y-115839618D01*
X102188466Y-115530882D01*
X102330561Y-115187834D01*
X102403000Y-114823656D01*
X102403000Y-114452344D01*
X102330561Y-114088166D01*
X102188466Y-113745118D01*
X101982175Y-113436382D01*
X101719618Y-113173825D01*
X101410882Y-112967534D01*
X101067834Y-112825439D01*
X100703656Y-112753000D01*
X100332344Y-112753000D01*
X99968166Y-112825439D01*
X99625118Y-112967534D01*
X99316382Y-113173825D01*
X99053825Y-113436382D01*
X98847534Y-113745118D01*
X98705439Y-114088166D01*
X98633000Y-114452344D01*
X97410558Y-114452344D01*
X97484556Y-114341599D01*
X97622882Y-114007650D01*
X97693400Y-113653132D01*
X97693400Y-113291668D01*
X97622882Y-112937150D01*
X97484556Y-112603201D01*
X97283738Y-112302656D01*
X97028144Y-112047062D01*
X96727599Y-111846244D01*
X96393650Y-111707918D01*
X96039132Y-111637400D01*
X95677668Y-111637400D01*
X95323150Y-111707918D01*
X94989201Y-111846244D01*
X94688656Y-112047062D01*
X94433062Y-112302656D01*
X94232244Y-112603201D01*
X94093918Y-112937150D01*
X94023400Y-113291668D01*
X91193400Y-113291668D01*
X91122882Y-112937150D01*
X90984556Y-112603201D01*
X90783738Y-112302656D01*
X90528144Y-112047062D01*
X90227599Y-111846244D01*
X89893650Y-111707918D01*
X89539132Y-111637400D01*
X89177668Y-111637400D01*
X88823150Y-111707918D01*
X88489201Y-111846244D01*
X88188656Y-112047062D01*
X87933062Y-112302656D01*
X87732244Y-112603201D01*
X87593918Y-112937150D01*
X87523400Y-113291668D01*
X86258000Y-113291668D01*
X86258000Y-107631668D01*
X87523400Y-107631668D01*
X87523400Y-107993132D01*
X87593918Y-108347650D01*
X87732244Y-108681599D01*
X87933062Y-108982144D01*
X88188656Y-109237738D01*
X88489201Y-109438556D01*
X88823150Y-109576882D01*
X89177668Y-109647400D01*
X89539132Y-109647400D01*
X89893650Y-109576882D01*
X90227599Y-109438556D01*
X90528144Y-109237738D01*
X90783738Y-108982144D01*
X90984556Y-108681599D01*
X91122882Y-108347650D01*
X91193400Y-107993132D01*
X91193400Y-107631668D01*
X94023400Y-107631668D01*
X94023400Y-107993132D01*
X94093918Y-108347650D01*
X94232244Y-108681599D01*
X94433062Y-108982144D01*
X94688656Y-109237738D01*
X94989201Y-109438556D01*
X95323150Y-109576882D01*
X95677668Y-109647400D01*
X96039132Y-109647400D01*
X96325650Y-109590408D01*
X101981000Y-109590408D01*
X101981000Y-109865592D01*
X102034686Y-110135490D01*
X102139995Y-110389727D01*
X102292880Y-110618535D01*
X102487465Y-110813120D01*
X102716273Y-110966005D01*
X102970510Y-111071314D01*
X103240408Y-111125000D01*
X103515592Y-111125000D01*
X103785490Y-111071314D01*
X104039727Y-110966005D01*
X104268535Y-110813120D01*
X104463120Y-110618535D01*
X104616005Y-110389727D01*
X104648000Y-110312485D01*
X104679995Y-110389727D01*
X104832880Y-110618535D01*
X105027465Y-110813120D01*
X105256273Y-110966005D01*
X105510510Y-111071314D01*
X105780408Y-111125000D01*
X106055592Y-111125000D01*
X106325490Y-111071314D01*
X106579727Y-110966005D01*
X106808535Y-110813120D01*
X107003120Y-110618535D01*
X107156005Y-110389727D01*
X107188000Y-110312485D01*
X107219995Y-110389727D01*
X107372880Y-110618535D01*
X107567465Y-110813120D01*
X107796273Y-110966005D01*
X108050510Y-111071314D01*
X108320408Y-111125000D01*
X108595592Y-111125000D01*
X108865490Y-111071314D01*
X109119727Y-110966005D01*
X109348535Y-110813120D01*
X109543120Y-110618535D01*
X109696005Y-110389727D01*
X109728000Y-110312485D01*
X109759995Y-110389727D01*
X109912880Y-110618535D01*
X110107465Y-110813120D01*
X110336273Y-110966005D01*
X110590510Y-111071314D01*
X110860408Y-111125000D01*
X111135592Y-111125000D01*
X111405490Y-111071314D01*
X111659727Y-110966005D01*
X111888535Y-110813120D01*
X112083120Y-110618535D01*
X112236005Y-110389727D01*
X112268000Y-110312485D01*
X112299995Y-110389727D01*
X112354660Y-110471538D01*
X108781887Y-114044312D01*
X108599335Y-114008000D01*
X108316665Y-114008000D01*
X108039426Y-114063147D01*
X107778273Y-114171320D01*
X107543241Y-114328363D01*
X107343363Y-114528241D01*
X107186320Y-114763273D01*
X107078147Y-115024426D01*
X107023000Y-115301665D01*
X107023000Y-115584335D01*
X107078147Y-115861574D01*
X107186320Y-116122727D01*
X107343363Y-116357759D01*
X107543241Y-116557637D01*
X107778273Y-116714680D01*
X108039426Y-116822853D01*
X108316665Y-116878000D01*
X108599335Y-116878000D01*
X108876574Y-116822853D01*
X109137727Y-116714680D01*
X109372759Y-116557637D01*
X109572637Y-116357759D01*
X109728000Y-116125241D01*
X109883363Y-116357759D01*
X110083241Y-116557637D01*
X110318273Y-116714680D01*
X110579426Y-116822853D01*
X110856665Y-116878000D01*
X111139335Y-116878000D01*
X111416574Y-116822853D01*
X111677727Y-116714680D01*
X111912759Y-116557637D01*
X112034694Y-116435702D01*
X112724903Y-116435702D01*
X112796486Y-116679671D01*
X113051996Y-116800571D01*
X113326184Y-116869300D01*
X113608512Y-116883217D01*
X113888130Y-116841787D01*
X114154292Y-116746603D01*
X114279514Y-116679671D01*
X114351097Y-116435702D01*
X113538000Y-115622605D01*
X112724903Y-116435702D01*
X112034694Y-116435702D01*
X112112637Y-116357759D01*
X112268915Y-116123872D01*
X112301329Y-116184514D01*
X112545298Y-116256097D01*
X113358395Y-115443000D01*
X113717605Y-115443000D01*
X114530702Y-116256097D01*
X114639928Y-116224049D01*
X114639928Y-116243000D01*
X114652188Y-116367482D01*
X114688498Y-116487180D01*
X114747463Y-116597494D01*
X114826815Y-116694185D01*
X114923506Y-116773537D01*
X115033820Y-116832502D01*
X115153518Y-116868812D01*
X115278000Y-116881072D01*
X116878000Y-116881072D01*
X117002482Y-116868812D01*
X117122180Y-116832502D01*
X117232494Y-116773537D01*
X117329185Y-116694185D01*
X117408537Y-116597494D01*
X117467502Y-116487180D01*
X117503812Y-116367482D01*
X117516072Y-116243000D01*
X117516072Y-114643000D01*
X117503812Y-114518518D01*
X117483435Y-114451344D01*
X122133000Y-114451344D01*
X122133000Y-114822656D01*
X122205439Y-115186834D01*
X122347534Y-115529882D01*
X122553825Y-115838618D01*
X122816382Y-116101175D01*
X123125118Y-116307466D01*
X123468166Y-116449561D01*
X123832344Y-116522000D01*
X124203656Y-116522000D01*
X124567834Y-116449561D01*
X124910882Y-116307466D01*
X125219618Y-116101175D01*
X125482175Y-115838618D01*
X125688466Y-115529882D01*
X125830561Y-115186834D01*
X125903000Y-114822656D01*
X125903000Y-114451344D01*
X125830561Y-114087166D01*
X125688466Y-113744118D01*
X125482175Y-113435382D01*
X125219618Y-113172825D01*
X124910882Y-112966534D01*
X124567834Y-112824439D01*
X124203656Y-112752000D01*
X123832344Y-112752000D01*
X123468166Y-112824439D01*
X123125118Y-112966534D01*
X122816382Y-113172825D01*
X122553825Y-113435382D01*
X122347534Y-113744118D01*
X122205439Y-114087166D01*
X122133000Y-114451344D01*
X117483435Y-114451344D01*
X117467502Y-114398820D01*
X117408537Y-114288506D01*
X117329185Y-114191815D01*
X117232494Y-114112463D01*
X117122180Y-114053498D01*
X117002482Y-114017188D01*
X116878000Y-114004928D01*
X115278000Y-114004928D01*
X115153518Y-114017188D01*
X115033820Y-114053498D01*
X114923506Y-114112463D01*
X114826815Y-114191815D01*
X114747463Y-114288506D01*
X114688498Y-114398820D01*
X114652188Y-114518518D01*
X114639928Y-114643000D01*
X114639928Y-114661951D01*
X114530702Y-114629903D01*
X113717605Y-115443000D01*
X113358395Y-115443000D01*
X113344253Y-115428858D01*
X113523858Y-115249253D01*
X113538000Y-115263395D01*
X114351097Y-114450298D01*
X114279514Y-114206329D01*
X114024004Y-114085429D01*
X113749816Y-114016700D01*
X113510879Y-114004922D01*
X116434307Y-111081495D01*
X116485490Y-111071314D01*
X116739727Y-110966005D01*
X116968535Y-110813120D01*
X117163120Y-110618535D01*
X117316005Y-110389727D01*
X117348000Y-110312485D01*
X117379995Y-110389727D01*
X117532880Y-110618535D01*
X117727465Y-110813120D01*
X117956273Y-110966005D01*
X118210510Y-111071314D01*
X118480408Y-111125000D01*
X118755592Y-111125000D01*
X119025490Y-111071314D01*
X119279727Y-110966005D01*
X119508535Y-110813120D01*
X119628090Y-110693565D01*
X120372040Y-110693565D01*
X120439020Y-110933656D01*
X120688048Y-111050756D01*
X120955135Y-111117023D01*
X121230017Y-111129910D01*
X121502133Y-111088922D01*
X121761023Y-110995636D01*
X121876980Y-110933656D01*
X121943960Y-110693565D01*
X121158000Y-109907605D01*
X120372040Y-110693565D01*
X119628090Y-110693565D01*
X119703120Y-110618535D01*
X119856005Y-110389727D01*
X119885692Y-110318057D01*
X119890364Y-110331023D01*
X119952344Y-110446980D01*
X120192435Y-110513960D01*
X120978395Y-109728000D01*
X121337605Y-109728000D01*
X122123565Y-110513960D01*
X122363656Y-110446980D01*
X122480756Y-110197952D01*
X122547023Y-109930865D01*
X122559910Y-109655983D01*
X122518922Y-109383867D01*
X122425636Y-109124977D01*
X122363656Y-109009020D01*
X122123565Y-108942040D01*
X121337605Y-109728000D01*
X120978395Y-109728000D01*
X120192435Y-108942040D01*
X119952344Y-109009020D01*
X119888515Y-109144760D01*
X119856005Y-109066273D01*
X119703120Y-108837465D01*
X119628090Y-108762435D01*
X120372040Y-108762435D01*
X121158000Y-109548395D01*
X121943960Y-108762435D01*
X121876980Y-108522344D01*
X121627952Y-108405244D01*
X121360865Y-108338977D01*
X121085983Y-108326090D01*
X120813867Y-108367078D01*
X120554977Y-108460364D01*
X120439020Y-108522344D01*
X120372040Y-108762435D01*
X119628090Y-108762435D01*
X119508535Y-108642880D01*
X119279727Y-108489995D01*
X119025490Y-108384686D01*
X118755592Y-108331000D01*
X118549801Y-108331000D01*
X123225402Y-103655400D01*
X126772557Y-103655400D01*
X126875963Y-103810159D01*
X127075841Y-104010037D01*
X127308359Y-104165400D01*
X127075841Y-104320763D01*
X126875963Y-104520641D01*
X126718920Y-104755673D01*
X126610747Y-105016826D01*
X126555600Y-105294065D01*
X126555600Y-105576735D01*
X126610747Y-105853974D01*
X126718920Y-106115127D01*
X126875963Y-106350159D01*
X127075841Y-106550037D01*
X127308359Y-106705400D01*
X127075841Y-106860763D01*
X126875963Y-107060641D01*
X126718920Y-107295673D01*
X126610747Y-107556826D01*
X126555600Y-107834065D01*
X126555600Y-108116735D01*
X126610747Y-108393974D01*
X126718920Y-108655127D01*
X126875963Y-108890159D01*
X127075841Y-109090037D01*
X127308359Y-109245400D01*
X127075841Y-109400763D01*
X126875963Y-109600641D01*
X126718920Y-109835673D01*
X126610747Y-110096826D01*
X126555600Y-110374065D01*
X126555600Y-110656735D01*
X126610747Y-110933974D01*
X126718920Y-111195127D01*
X126875963Y-111430159D01*
X127075841Y-111630037D01*
X127308359Y-111785400D01*
X127075841Y-111940763D01*
X126875963Y-112140641D01*
X126718920Y-112375673D01*
X126610747Y-112636826D01*
X126555600Y-112914065D01*
X126555600Y-113196735D01*
X126610747Y-113473974D01*
X126718920Y-113735127D01*
X126875963Y-113970159D01*
X127075841Y-114170037D01*
X127308359Y-114325400D01*
X127075841Y-114480763D01*
X126875963Y-114680641D01*
X126718920Y-114915673D01*
X126610747Y-115176826D01*
X126555600Y-115454065D01*
X126555600Y-115511898D01*
X122493465Y-119574033D01*
X122348511Y-119545200D01*
X122075689Y-119545200D01*
X121808111Y-119598425D01*
X121556057Y-119702829D01*
X121329214Y-119854401D01*
X121136301Y-120047314D01*
X120984729Y-120274157D01*
X120880325Y-120526211D01*
X120827100Y-120793789D01*
X120827100Y-121066611D01*
X120855933Y-121211565D01*
X118607133Y-123460366D01*
X118338600Y-123433918D01*
X118043568Y-123462976D01*
X117759875Y-123549034D01*
X117498421Y-123688783D01*
X117269255Y-123876855D01*
X117081183Y-124106022D01*
X117068600Y-124129563D01*
X117056017Y-124106021D01*
X116867945Y-123876855D01*
X116638778Y-123688783D01*
X116377324Y-123549034D01*
X116093631Y-123462976D01*
X115798600Y-123433918D01*
X115503568Y-123462976D01*
X115219875Y-123549034D01*
X114958421Y-123688783D01*
X114729255Y-123876855D01*
X114541183Y-124106022D01*
X114528600Y-124129563D01*
X114516017Y-124106021D01*
X114327945Y-123876855D01*
X114098778Y-123688783D01*
X113837324Y-123549034D01*
X113553631Y-123462976D01*
X113258600Y-123433918D01*
X112963568Y-123462976D01*
X112679875Y-123549034D01*
X112418421Y-123688783D01*
X112189255Y-123876855D01*
X112001183Y-124106022D01*
X111988600Y-124129563D01*
X111976017Y-124106021D01*
X111787945Y-123876855D01*
X111558778Y-123688783D01*
X111297324Y-123549034D01*
X111013631Y-123462976D01*
X110718600Y-123433918D01*
X110423568Y-123462976D01*
X110139875Y-123549034D01*
X109878421Y-123688783D01*
X109649255Y-123876855D01*
X109595535Y-123942314D01*
X109537005Y-123832813D01*
X109426562Y-123698238D01*
X109291987Y-123587795D01*
X109138451Y-123505728D01*
X108971855Y-123455192D01*
X108798601Y-123438128D01*
X107558599Y-123438128D01*
X107385345Y-123455192D01*
X107218749Y-123505728D01*
X107065213Y-123587795D01*
X106930638Y-123698238D01*
X106820195Y-123832813D01*
X106738128Y-123986349D01*
X106687592Y-124152945D01*
X106670528Y-124326199D01*
X106670528Y-124398500D01*
X105971009Y-124398500D01*
X105888899Y-124275614D01*
X105695986Y-124082701D01*
X105469143Y-123931129D01*
X105217089Y-123826725D01*
X104949511Y-123773500D01*
X104676689Y-123773500D01*
X104409111Y-123826725D01*
X104157057Y-123931129D01*
X103930214Y-124082701D01*
X103737301Y-124275614D01*
X103585729Y-124502457D01*
X103481325Y-124754511D01*
X103428100Y-125022089D01*
X103428100Y-125294911D01*
X103481325Y-125562489D01*
X103585729Y-125814543D01*
X103737301Y-126041386D01*
X103930214Y-126234299D01*
X104157057Y-126385871D01*
X104409111Y-126490275D01*
X104676689Y-126543500D01*
X104949511Y-126543500D01*
X105217089Y-126490275D01*
X105469143Y-126385871D01*
X105695986Y-126234299D01*
X105888899Y-126041386D01*
X105971009Y-125918500D01*
X106670528Y-125918500D01*
X106670528Y-126016201D01*
X106687592Y-126189455D01*
X106738128Y-126356051D01*
X106820195Y-126509587D01*
X106930638Y-126644162D01*
X107065213Y-126754605D01*
X107218749Y-126836672D01*
X107385345Y-126887208D01*
X107558599Y-126904272D01*
X108798601Y-126904272D01*
X108971855Y-126887208D01*
X109138451Y-126836672D01*
X109291987Y-126754605D01*
X109426562Y-126644162D01*
X109537005Y-126509587D01*
X109595534Y-126400086D01*
X109649255Y-126465545D01*
X109878422Y-126653617D01*
X110139876Y-126793366D01*
X110423569Y-126879424D01*
X110718600Y-126908482D01*
X111013632Y-126879424D01*
X111297325Y-126793366D01*
X111558779Y-126653617D01*
X111787945Y-126465545D01*
X111976017Y-126236379D01*
X111988600Y-126212838D01*
X112001183Y-126236379D01*
X112189255Y-126465545D01*
X112418422Y-126653617D01*
X112679876Y-126793366D01*
X112963569Y-126879424D01*
X113258600Y-126908482D01*
X113553632Y-126879424D01*
X113837325Y-126793366D01*
X114098779Y-126653617D01*
X114327945Y-126465545D01*
X114516017Y-126236379D01*
X114528600Y-126212838D01*
X114541183Y-126236379D01*
X114729255Y-126465545D01*
X114958422Y-126653617D01*
X115219876Y-126793366D01*
X115503569Y-126879424D01*
X115798600Y-126908482D01*
X116093632Y-126879424D01*
X116377325Y-126793366D01*
X116638779Y-126653617D01*
X116867945Y-126465545D01*
X117056017Y-126236379D01*
X117068600Y-126212838D01*
X117081183Y-126236379D01*
X117269255Y-126465545D01*
X117498422Y-126653617D01*
X117759876Y-126793366D01*
X118043569Y-126879424D01*
X118338600Y-126908482D01*
X118633632Y-126879424D01*
X118917325Y-126793366D01*
X119178779Y-126653617D01*
X119407945Y-126465545D01*
X119483724Y-126373207D01*
X121434712Y-126373207D01*
X122212100Y-127150595D01*
X122989488Y-126373207D01*
X122923963Y-126134340D01*
X122676984Y-126018440D01*
X122412140Y-125952950D01*
X122139608Y-125940388D01*
X121869862Y-125981235D01*
X121613268Y-126073923D01*
X121500237Y-126134340D01*
X121434712Y-126373207D01*
X119483724Y-126373207D01*
X119596017Y-126236379D01*
X119735766Y-125974924D01*
X119821824Y-125691231D01*
X119843600Y-125470135D01*
X119843600Y-124872264D01*
X119821824Y-124651168D01*
X119762266Y-124454835D01*
X121930735Y-122286367D01*
X122075689Y-122315200D01*
X122348511Y-122315200D01*
X122616089Y-122261975D01*
X122868143Y-122157571D01*
X123094986Y-122005999D01*
X123287899Y-121813086D01*
X123439471Y-121586243D01*
X123543875Y-121334189D01*
X123597100Y-121066611D01*
X123597100Y-120793789D01*
X123568267Y-120648835D01*
X126688862Y-117528240D01*
X126610747Y-117716826D01*
X126555600Y-117994065D01*
X126555600Y-118276735D01*
X126610747Y-118553974D01*
X126718920Y-118815127D01*
X126875963Y-119050159D01*
X127075841Y-119250037D01*
X127308359Y-119405400D01*
X127075841Y-119560763D01*
X126875963Y-119760641D01*
X126718920Y-119995673D01*
X126610747Y-120256826D01*
X126555600Y-120534065D01*
X126555600Y-120816735D01*
X126610747Y-121093974D01*
X126718920Y-121355127D01*
X126875963Y-121590159D01*
X127075841Y-121790037D01*
X127308359Y-121945400D01*
X127075841Y-122100763D01*
X126875963Y-122300641D01*
X126718920Y-122535673D01*
X126610747Y-122796826D01*
X126555600Y-123074065D01*
X126555600Y-123356735D01*
X126610747Y-123633974D01*
X126718920Y-123895127D01*
X126875963Y-124130159D01*
X127075841Y-124330037D01*
X127310873Y-124487080D01*
X127572026Y-124595253D01*
X127849265Y-124650400D01*
X128131935Y-124650400D01*
X128409174Y-124595253D01*
X128670327Y-124487080D01*
X128905359Y-124330037D01*
X129105237Y-124130159D01*
X129262280Y-123895127D01*
X129370453Y-123633974D01*
X129425600Y-123356735D01*
X129425600Y-123074065D01*
X129370453Y-122796826D01*
X129262280Y-122535673D01*
X129105237Y-122300641D01*
X128905359Y-122100763D01*
X128672841Y-121945400D01*
X128905359Y-121790037D01*
X129105237Y-121590159D01*
X129262280Y-121355127D01*
X129370453Y-121093974D01*
X129425600Y-120816735D01*
X129425600Y-120534065D01*
X129370453Y-120256826D01*
X129262280Y-119995673D01*
X129105237Y-119760641D01*
X128905359Y-119560763D01*
X128672841Y-119405400D01*
X128905359Y-119250037D01*
X129105237Y-119050159D01*
X129262280Y-118815127D01*
X129370453Y-118553974D01*
X129425600Y-118276735D01*
X129425600Y-117994065D01*
X129370453Y-117716826D01*
X129262280Y-117455673D01*
X129105237Y-117220641D01*
X128905359Y-117020763D01*
X128672841Y-116865400D01*
X128905359Y-116710037D01*
X129105237Y-116510159D01*
X129262280Y-116275127D01*
X129370453Y-116013974D01*
X129425600Y-115736735D01*
X129425600Y-115454065D01*
X129370453Y-115176826D01*
X129262280Y-114915673D01*
X129105237Y-114680641D01*
X128905359Y-114480763D01*
X128672841Y-114325400D01*
X128905359Y-114170037D01*
X129105237Y-113970159D01*
X129262280Y-113735127D01*
X129370453Y-113473974D01*
X129425600Y-113196735D01*
X129425600Y-112914065D01*
X129370453Y-112636826D01*
X129262280Y-112375673D01*
X129105237Y-112140641D01*
X128905359Y-111940763D01*
X128672841Y-111785400D01*
X128905359Y-111630037D01*
X129105237Y-111430159D01*
X129262280Y-111195127D01*
X129370453Y-110933974D01*
X129425600Y-110656735D01*
X129425600Y-110374065D01*
X129370453Y-110096826D01*
X129262280Y-109835673D01*
X129105237Y-109600641D01*
X128905359Y-109400763D01*
X128672841Y-109245400D01*
X128905359Y-109090037D01*
X129105237Y-108890159D01*
X129262280Y-108655127D01*
X129370453Y-108393974D01*
X129425600Y-108116735D01*
X129425600Y-107834065D01*
X129370453Y-107556826D01*
X129262280Y-107295673D01*
X129105237Y-107060641D01*
X128905359Y-106860763D01*
X128672841Y-106705400D01*
X128905359Y-106550037D01*
X129105237Y-106350159D01*
X129262280Y-106115127D01*
X129370453Y-105853974D01*
X129425600Y-105576735D01*
X129425600Y-105294065D01*
X129370453Y-105016826D01*
X129262280Y-104755673D01*
X129105237Y-104520641D01*
X128905359Y-104320763D01*
X128672841Y-104165400D01*
X128905359Y-104010037D01*
X129105237Y-103810159D01*
X129262280Y-103575127D01*
X129370453Y-103313974D01*
X129425600Y-103036735D01*
X129425600Y-102754065D01*
X129370453Y-102476826D01*
X129262280Y-102215673D01*
X129105237Y-101980641D01*
X128905359Y-101780763D01*
X128672841Y-101625400D01*
X128905359Y-101470037D01*
X129105237Y-101270159D01*
X129262280Y-101035127D01*
X129370453Y-100773974D01*
X129425600Y-100496735D01*
X129425600Y-100214065D01*
X129370453Y-99936826D01*
X129262280Y-99675673D01*
X129105237Y-99440641D01*
X128905359Y-99240763D01*
X128672841Y-99085400D01*
X128905359Y-98930037D01*
X129105237Y-98730159D01*
X129262280Y-98495127D01*
X129370453Y-98233974D01*
X129425600Y-97956735D01*
X129425600Y-97674065D01*
X129370453Y-97396826D01*
X129262280Y-97135673D01*
X129105237Y-96900641D01*
X128905359Y-96700763D01*
X128670327Y-96543720D01*
X128659735Y-96539333D01*
X128845731Y-96427785D01*
X129054119Y-96238814D01*
X129221637Y-96012820D01*
X129341846Y-95758487D01*
X129382504Y-95624439D01*
X129260515Y-95402400D01*
X128117600Y-95402400D01*
X128117600Y-95422400D01*
X127863600Y-95422400D01*
X127863600Y-95402400D01*
X126720685Y-95402400D01*
X126598696Y-95624439D01*
X126639354Y-95758487D01*
X126759563Y-96012820D01*
X126927081Y-96238814D01*
X127135469Y-96427785D01*
X127321465Y-96539333D01*
X127310873Y-96543720D01*
X127075841Y-96700763D01*
X126875963Y-96900641D01*
X126718920Y-97135673D01*
X126610747Y-97396826D01*
X126555600Y-97674065D01*
X126555600Y-97956735D01*
X126610747Y-98233974D01*
X126718920Y-98495127D01*
X126875963Y-98730159D01*
X127075841Y-98930037D01*
X127308359Y-99085400D01*
X127075841Y-99240763D01*
X126875963Y-99440641D01*
X126718920Y-99675673D01*
X126610747Y-99936826D01*
X126555600Y-100214065D01*
X126555600Y-100496735D01*
X126610747Y-100773974D01*
X126718920Y-101035127D01*
X126875963Y-101270159D01*
X127075841Y-101470037D01*
X127308359Y-101625400D01*
X127075841Y-101780763D01*
X126875963Y-101980641D01*
X126772557Y-102135400D01*
X122947933Y-102135400D01*
X122910600Y-102131723D01*
X122873267Y-102135400D01*
X122761614Y-102146397D01*
X122618353Y-102189854D01*
X122486324Y-102260426D01*
X122370599Y-102355399D01*
X122346801Y-102384397D01*
X116369571Y-108361628D01*
X116215592Y-108331000D01*
X115940408Y-108331000D01*
X115670510Y-108384686D01*
X115416273Y-108489995D01*
X115187465Y-108642880D01*
X114992880Y-108837465D01*
X114839995Y-109066273D01*
X114808000Y-109143515D01*
X114776005Y-109066273D01*
X114623120Y-108837465D01*
X114428535Y-108642880D01*
X114199727Y-108489995D01*
X113945490Y-108384686D01*
X113675592Y-108331000D01*
X113400408Y-108331000D01*
X113130510Y-108384686D01*
X112876273Y-108489995D01*
X112647465Y-108642880D01*
X112452880Y-108837465D01*
X112299995Y-109066273D01*
X112268000Y-109143515D01*
X112236005Y-109066273D01*
X112083120Y-108837465D01*
X111888535Y-108642880D01*
X111659727Y-108489995D01*
X111405490Y-108384686D01*
X111135592Y-108331000D01*
X110860408Y-108331000D01*
X110590510Y-108384686D01*
X110336273Y-108489995D01*
X110107465Y-108642880D01*
X109912880Y-108837465D01*
X109759995Y-109066273D01*
X109728000Y-109143515D01*
X109696005Y-109066273D01*
X109543120Y-108837465D01*
X109348535Y-108642880D01*
X109119727Y-108489995D01*
X108865490Y-108384686D01*
X108595592Y-108331000D01*
X108320408Y-108331000D01*
X108050510Y-108384686D01*
X107796273Y-108489995D01*
X107567465Y-108642880D01*
X107372880Y-108837465D01*
X107219995Y-109066273D01*
X107188000Y-109143515D01*
X107156005Y-109066273D01*
X107003120Y-108837465D01*
X106808535Y-108642880D01*
X106579727Y-108489995D01*
X106325490Y-108384686D01*
X106055592Y-108331000D01*
X105780408Y-108331000D01*
X105510510Y-108384686D01*
X105256273Y-108489995D01*
X105027465Y-108642880D01*
X104832880Y-108837465D01*
X104679995Y-109066273D01*
X104648000Y-109143515D01*
X104616005Y-109066273D01*
X104463120Y-108837465D01*
X104268535Y-108642880D01*
X104039727Y-108489995D01*
X103785490Y-108384686D01*
X103515592Y-108331000D01*
X103240408Y-108331000D01*
X102970510Y-108384686D01*
X102716273Y-108489995D01*
X102487465Y-108642880D01*
X102292880Y-108837465D01*
X102139995Y-109066273D01*
X102034686Y-109320510D01*
X101981000Y-109590408D01*
X96325650Y-109590408D01*
X96393650Y-109576882D01*
X96727599Y-109438556D01*
X97028144Y-109237738D01*
X97283738Y-108982144D01*
X97484556Y-108681599D01*
X97622882Y-108347650D01*
X97693400Y-107993132D01*
X97693400Y-107631668D01*
X97622882Y-107277150D01*
X97484556Y-106943201D01*
X97283738Y-106642656D01*
X97028144Y-106387062D01*
X96727599Y-106186244D01*
X96393650Y-106047918D01*
X96039132Y-105977400D01*
X95677668Y-105977400D01*
X95323150Y-106047918D01*
X94989201Y-106186244D01*
X94688656Y-106387062D01*
X94433062Y-106642656D01*
X94232244Y-106943201D01*
X94093918Y-107277150D01*
X94023400Y-107631668D01*
X91193400Y-107631668D01*
X91122882Y-107277150D01*
X90984556Y-106943201D01*
X90783738Y-106642656D01*
X90528144Y-106387062D01*
X90227599Y-106186244D01*
X89893650Y-106047918D01*
X89539132Y-105977400D01*
X89177668Y-105977400D01*
X88823150Y-106047918D01*
X88489201Y-106186244D01*
X88188656Y-106387062D01*
X87933062Y-106642656D01*
X87732244Y-106943201D01*
X87593918Y-107277150D01*
X87523400Y-107631668D01*
X86258000Y-107631668D01*
X86258000Y-103131668D01*
X87523400Y-103131668D01*
X87523400Y-103493132D01*
X87593918Y-103847650D01*
X87732244Y-104181599D01*
X87933062Y-104482144D01*
X88188656Y-104737738D01*
X88489201Y-104938556D01*
X88823150Y-105076882D01*
X89177668Y-105147400D01*
X89539132Y-105147400D01*
X89893650Y-105076882D01*
X90227599Y-104938556D01*
X90528144Y-104737738D01*
X90783738Y-104482144D01*
X90984556Y-104181599D01*
X91122882Y-103847650D01*
X91193400Y-103493132D01*
X91193400Y-103131668D01*
X94023400Y-103131668D01*
X94023400Y-103493132D01*
X94093918Y-103847650D01*
X94232244Y-104181599D01*
X94433062Y-104482144D01*
X94688656Y-104737738D01*
X94989201Y-104938556D01*
X95323150Y-105076882D01*
X95677668Y-105147400D01*
X96039132Y-105147400D01*
X96393650Y-105076882D01*
X96727599Y-104938556D01*
X97028144Y-104737738D01*
X97283738Y-104482144D01*
X97484556Y-104181599D01*
X97622882Y-103847650D01*
X97693400Y-103493132D01*
X97693400Y-103131668D01*
X97622882Y-102777150D01*
X97484556Y-102443201D01*
X97283738Y-102142656D01*
X97028144Y-101887062D01*
X96727599Y-101686244D01*
X96393650Y-101547918D01*
X96039132Y-101477400D01*
X95677668Y-101477400D01*
X95323150Y-101547918D01*
X94989201Y-101686244D01*
X94688656Y-101887062D01*
X94433062Y-102142656D01*
X94232244Y-102443201D01*
X94093918Y-102777150D01*
X94023400Y-103131668D01*
X91193400Y-103131668D01*
X91122882Y-102777150D01*
X90984556Y-102443201D01*
X90783738Y-102142656D01*
X90528144Y-101887062D01*
X90227599Y-101686244D01*
X89893650Y-101547918D01*
X89539132Y-101477400D01*
X89177668Y-101477400D01*
X88823150Y-101547918D01*
X88489201Y-101686244D01*
X88188656Y-101887062D01*
X87933062Y-102142656D01*
X87732244Y-102443201D01*
X87593918Y-102777150D01*
X87523400Y-103131668D01*
X86258000Y-103131668D01*
X86258000Y-97471668D01*
X87523400Y-97471668D01*
X87523400Y-97833132D01*
X87593918Y-98187650D01*
X87732244Y-98521599D01*
X87933062Y-98822144D01*
X88188656Y-99077738D01*
X88489201Y-99278556D01*
X88823150Y-99416882D01*
X89177668Y-99487400D01*
X89539132Y-99487400D01*
X89893650Y-99416882D01*
X90227599Y-99278556D01*
X90528144Y-99077738D01*
X90783738Y-98822144D01*
X90984556Y-98521599D01*
X91122882Y-98187650D01*
X91193400Y-97833132D01*
X91193400Y-97471668D01*
X94023400Y-97471668D01*
X94023400Y-97833132D01*
X94093918Y-98187650D01*
X94232244Y-98521599D01*
X94433062Y-98822144D01*
X94688656Y-99077738D01*
X94989201Y-99278556D01*
X95323150Y-99416882D01*
X95677668Y-99487400D01*
X96039132Y-99487400D01*
X96393650Y-99416882D01*
X96727599Y-99278556D01*
X97028144Y-99077738D01*
X97283738Y-98822144D01*
X97484556Y-98521599D01*
X97622882Y-98187650D01*
X97693400Y-97833132D01*
X97693400Y-97471668D01*
X97622882Y-97117150D01*
X97484556Y-96783201D01*
X97283738Y-96482656D01*
X97028144Y-96227062D01*
X96727599Y-96026244D01*
X96393650Y-95887918D01*
X96039132Y-95817400D01*
X95677668Y-95817400D01*
X95323150Y-95887918D01*
X94989201Y-96026244D01*
X94688656Y-96227062D01*
X94433062Y-96482656D01*
X94232244Y-96783201D01*
X94093918Y-97117150D01*
X94023400Y-97471668D01*
X91193400Y-97471668D01*
X91122882Y-97117150D01*
X90984556Y-96783201D01*
X90783738Y-96482656D01*
X90528144Y-96227062D01*
X90227599Y-96026244D01*
X89893650Y-95887918D01*
X89539132Y-95817400D01*
X89177668Y-95817400D01*
X88823150Y-95887918D01*
X88489201Y-96026244D01*
X88188656Y-96227062D01*
X87933062Y-96482656D01*
X87732244Y-96783201D01*
X87593918Y-97117150D01*
X87523400Y-97471668D01*
X86258000Y-97471668D01*
X86258000Y-92971668D01*
X87523400Y-92971668D01*
X87523400Y-93333132D01*
X87593918Y-93687650D01*
X87732244Y-94021599D01*
X87933062Y-94322144D01*
X88188656Y-94577738D01*
X88489201Y-94778556D01*
X88823150Y-94916882D01*
X89177668Y-94987400D01*
X89539132Y-94987400D01*
X89893650Y-94916882D01*
X90227599Y-94778556D01*
X90528144Y-94577738D01*
X90783738Y-94322144D01*
X90984556Y-94021599D01*
X91122882Y-93687650D01*
X91193400Y-93333132D01*
X91193400Y-92971668D01*
X94023400Y-92971668D01*
X94023400Y-93333132D01*
X94093918Y-93687650D01*
X94232244Y-94021599D01*
X94433062Y-94322144D01*
X94688656Y-94577738D01*
X94989201Y-94778556D01*
X95323150Y-94916882D01*
X95677668Y-94987400D01*
X96039132Y-94987400D01*
X96393650Y-94916882D01*
X96727599Y-94778556D01*
X97028144Y-94577738D01*
X97283738Y-94322144D01*
X97484556Y-94021599D01*
X97622882Y-93687650D01*
X97693400Y-93333132D01*
X97693400Y-92971668D01*
X97622882Y-92617150D01*
X97484556Y-92283201D01*
X97283738Y-91982656D01*
X97028144Y-91727062D01*
X96727599Y-91526244D01*
X96393650Y-91387918D01*
X96039132Y-91317400D01*
X95677668Y-91317400D01*
X95323150Y-91387918D01*
X94989201Y-91526244D01*
X94688656Y-91727062D01*
X94433062Y-91982656D01*
X94232244Y-92283201D01*
X94093918Y-92617150D01*
X94023400Y-92971668D01*
X91193400Y-92971668D01*
X91122882Y-92617150D01*
X90984556Y-92283201D01*
X90783738Y-91982656D01*
X90528144Y-91727062D01*
X90227599Y-91526244D01*
X89893650Y-91387918D01*
X89539132Y-91317400D01*
X89177668Y-91317400D01*
X88823150Y-91387918D01*
X88489201Y-91526244D01*
X88188656Y-91727062D01*
X87933062Y-91982656D01*
X87732244Y-92283201D01*
X87593918Y-92617150D01*
X87523400Y-92971668D01*
X86258000Y-92971668D01*
X86258000Y-90651344D01*
X98633000Y-90651344D01*
X98633000Y-91022656D01*
X98705439Y-91386834D01*
X98847534Y-91729882D01*
X99053825Y-92038618D01*
X99316382Y-92301175D01*
X99625118Y-92507466D01*
X99968166Y-92649561D01*
X100332344Y-92722000D01*
X100703656Y-92722000D01*
X101067834Y-92649561D01*
X101410882Y-92507466D01*
X101719618Y-92301175D01*
X101982175Y-92038618D01*
X102188466Y-91729882D01*
X102330561Y-91386834D01*
X102403000Y-91022656D01*
X102403000Y-90651344D01*
X122133000Y-90651344D01*
X122133000Y-91022656D01*
X122205439Y-91386834D01*
X122347534Y-91729882D01*
X122553825Y-92038618D01*
X122816382Y-92301175D01*
X123125118Y-92507466D01*
X123468166Y-92649561D01*
X123832344Y-92722000D01*
X124203656Y-92722000D01*
X124567834Y-92649561D01*
X124910882Y-92507466D01*
X125219618Y-92301175D01*
X125482175Y-92038618D01*
X125688466Y-91729882D01*
X125830561Y-91386834D01*
X125903000Y-91022656D01*
X125903000Y-90651344D01*
X125830561Y-90287166D01*
X125688466Y-89944118D01*
X125482175Y-89635382D01*
X125219618Y-89372825D01*
X124910882Y-89166534D01*
X124567834Y-89024439D01*
X124203656Y-88952000D01*
X123832344Y-88952000D01*
X123468166Y-89024439D01*
X123125118Y-89166534D01*
X122816382Y-89372825D01*
X122553825Y-89635382D01*
X122347534Y-89944118D01*
X122205439Y-90287166D01*
X122133000Y-90651344D01*
X102403000Y-90651344D01*
X102330561Y-90287166D01*
X102188466Y-89944118D01*
X101982175Y-89635382D01*
X101719618Y-89372825D01*
X101410882Y-89166534D01*
X101067834Y-89024439D01*
X100703656Y-88952000D01*
X100332344Y-88952000D01*
X99968166Y-89024439D01*
X99625118Y-89166534D01*
X99316382Y-89372825D01*
X99053825Y-89635382D01*
X98847534Y-89944118D01*
X98705439Y-90287166D01*
X98633000Y-90651344D01*
X86258000Y-90651344D01*
X86258000Y-87268098D01*
X88115200Y-87268098D01*
X88115200Y-87737902D01*
X88206854Y-88198679D01*
X88386640Y-88632721D01*
X88647650Y-89023349D01*
X88979851Y-89355550D01*
X89370479Y-89616560D01*
X89804521Y-89796346D01*
X90265298Y-89888000D01*
X90735102Y-89888000D01*
X91195879Y-89796346D01*
X91629921Y-89616560D01*
X92020549Y-89355550D01*
X92352750Y-89023349D01*
X92613760Y-88632721D01*
X92793546Y-88198679D01*
X92885200Y-87737902D01*
X92885200Y-87514065D01*
X126555600Y-87514065D01*
X126555600Y-87796735D01*
X126610747Y-88073974D01*
X126718920Y-88335127D01*
X126875963Y-88570159D01*
X127075841Y-88770037D01*
X127308359Y-88925400D01*
X127075841Y-89080763D01*
X126875963Y-89280641D01*
X126718920Y-89515673D01*
X126610747Y-89776826D01*
X126555600Y-90054065D01*
X126555600Y-90336735D01*
X126610747Y-90613974D01*
X126718920Y-90875127D01*
X126875963Y-91110159D01*
X127075841Y-91310037D01*
X127308359Y-91465400D01*
X127075841Y-91620763D01*
X126875963Y-91820641D01*
X126718920Y-92055673D01*
X126610747Y-92316826D01*
X126555600Y-92594065D01*
X126555600Y-92876735D01*
X126610747Y-93153974D01*
X126718920Y-93415127D01*
X126875963Y-93650159D01*
X127075841Y-93850037D01*
X127310873Y-94007080D01*
X127321465Y-94011467D01*
X127135469Y-94123015D01*
X126927081Y-94311986D01*
X126759563Y-94537980D01*
X126639354Y-94792313D01*
X126598696Y-94926361D01*
X126720685Y-95148400D01*
X127863600Y-95148400D01*
X127863600Y-95128400D01*
X128117600Y-95128400D01*
X128117600Y-95148400D01*
X129260515Y-95148400D01*
X129382504Y-94926361D01*
X129341846Y-94792313D01*
X129221637Y-94537980D01*
X129054119Y-94311986D01*
X128845731Y-94123015D01*
X128659735Y-94011467D01*
X128670327Y-94007080D01*
X128905359Y-93850037D01*
X129105237Y-93650159D01*
X129262280Y-93415127D01*
X129370453Y-93153974D01*
X129425600Y-92876735D01*
X129425600Y-92594065D01*
X129370453Y-92316826D01*
X129262280Y-92055673D01*
X129105237Y-91820641D01*
X128905359Y-91620763D01*
X128672841Y-91465400D01*
X128905359Y-91310037D01*
X129105237Y-91110159D01*
X129262280Y-90875127D01*
X129370453Y-90613974D01*
X129425600Y-90336735D01*
X129425600Y-90054065D01*
X129370453Y-89776826D01*
X129262280Y-89515673D01*
X129105237Y-89280641D01*
X128905359Y-89080763D01*
X128672841Y-88925400D01*
X128905359Y-88770037D01*
X129105237Y-88570159D01*
X129262280Y-88335127D01*
X129370453Y-88073974D01*
X129425600Y-87796735D01*
X129425600Y-87514065D01*
X129370453Y-87236826D01*
X129262280Y-86975673D01*
X129105237Y-86740641D01*
X128905359Y-86540763D01*
X128670327Y-86383720D01*
X128409174Y-86275547D01*
X128131935Y-86220400D01*
X127849265Y-86220400D01*
X127572026Y-86275547D01*
X127310873Y-86383720D01*
X127075841Y-86540763D01*
X126875963Y-86740641D01*
X126718920Y-86975673D01*
X126610747Y-87236826D01*
X126555600Y-87514065D01*
X92885200Y-87514065D01*
X92885200Y-87268098D01*
X92793546Y-86807321D01*
X92613760Y-86373279D01*
X92352750Y-85982651D01*
X92020549Y-85650450D01*
X91629921Y-85389440D01*
X91195879Y-85209654D01*
X90735102Y-85118000D01*
X90265298Y-85118000D01*
X89804521Y-85209654D01*
X89370479Y-85389440D01*
X88979851Y-85650450D01*
X88647650Y-85982651D01*
X88386640Y-86373279D01*
X88206854Y-86807321D01*
X88115200Y-87268098D01*
X86258000Y-87268098D01*
X86258000Y-83718000D01*
X155067000Y-83718000D01*
X155067000Y-89906528D01*
%TA.AperFunction,Conductor*%
D27*
G36*
X155067000Y-89906528D02*
G01*
X153675400Y-89906528D01*
X153550918Y-89918788D01*
X153431220Y-89955098D01*
X153320906Y-90014063D01*
X153224215Y-90093415D01*
X153144863Y-90190106D01*
X153085898Y-90300420D01*
X153049588Y-90420118D01*
X153037328Y-90544600D01*
X153037328Y-90569283D01*
X152862965Y-90520640D01*
X152077005Y-91306600D01*
X152862965Y-92092560D01*
X153037328Y-92043917D01*
X153037328Y-92068600D01*
X153049588Y-92193082D01*
X153085898Y-92312780D01*
X153144863Y-92423094D01*
X153224215Y-92519785D01*
X153320906Y-92599137D01*
X153431220Y-92658102D01*
X153550918Y-92694412D01*
X153675400Y-92706672D01*
X155067000Y-92706672D01*
X155067000Y-94361000D01*
X145288000Y-94361000D01*
X145263224Y-94363440D01*
X145239399Y-94370667D01*
X145217443Y-94382403D01*
X145198197Y-94398197D01*
X145182403Y-94417443D01*
X145170667Y-94439399D01*
X145163440Y-94463224D01*
X145161000Y-94488000D01*
X145161000Y-98899599D01*
X144675398Y-99385201D01*
X144646400Y-99408999D01*
X144622602Y-99437997D01*
X144622601Y-99437998D01*
X144551426Y-99524724D01*
X144484758Y-99649450D01*
X144345237Y-99440641D01*
X144145359Y-99240763D01*
X143912841Y-99085400D01*
X144145359Y-98930037D01*
X144345237Y-98730159D01*
X144502280Y-98495127D01*
X144610453Y-98233974D01*
X144665600Y-97956735D01*
X144665600Y-97674065D01*
X144610453Y-97396826D01*
X144502280Y-97135673D01*
X144345237Y-96900641D01*
X144145359Y-96700763D01*
X143912841Y-96545400D01*
X144145359Y-96390037D01*
X144345237Y-96190159D01*
X144502280Y-95955127D01*
X144610453Y-95693974D01*
X144665600Y-95416735D01*
X144665600Y-95134065D01*
X144610453Y-94856826D01*
X144502280Y-94595673D01*
X144345237Y-94360641D01*
X144145359Y-94160763D01*
X143912841Y-94005400D01*
X144145359Y-93850037D01*
X144345237Y-93650159D01*
X144502280Y-93415127D01*
X144610453Y-93153974D01*
X144665600Y-92876735D01*
X144665600Y-92594065D01*
X144610453Y-92316826D01*
X144502280Y-92055673D01*
X144345237Y-91820641D01*
X144145359Y-91620763D01*
X143912841Y-91465400D01*
X144145359Y-91310037D01*
X144300070Y-91155326D01*
X146764400Y-91155326D01*
X146764400Y-91419874D01*
X146816011Y-91679339D01*
X146917249Y-91923749D01*
X147064224Y-92143712D01*
X147251288Y-92330776D01*
X147471251Y-92477751D01*
X147715661Y-92578989D01*
X147975126Y-92630600D01*
X148239674Y-92630600D01*
X148499139Y-92578989D01*
X148743549Y-92477751D01*
X148963512Y-92330776D01*
X149022123Y-92272165D01*
X151111440Y-92272165D01*
X151178420Y-92512256D01*
X151427448Y-92629356D01*
X151694535Y-92695623D01*
X151969417Y-92708510D01*
X152241533Y-92667522D01*
X152500423Y-92574236D01*
X152616380Y-92512256D01*
X152683360Y-92272165D01*
X151897400Y-91486205D01*
X151111440Y-92272165D01*
X149022123Y-92272165D01*
X149150576Y-92143712D01*
X149297551Y-91923749D01*
X149398789Y-91679339D01*
X149450400Y-91419874D01*
X149450400Y-91378617D01*
X150495490Y-91378617D01*
X150536478Y-91650733D01*
X150629764Y-91909623D01*
X150691744Y-92025580D01*
X150931835Y-92092560D01*
X151717795Y-91306600D01*
X150931835Y-90520640D01*
X150691744Y-90587620D01*
X150574644Y-90836648D01*
X150508377Y-91103735D01*
X150495490Y-91378617D01*
X149450400Y-91378617D01*
X149450400Y-91155326D01*
X149398789Y-90895861D01*
X149297551Y-90651451D01*
X149150576Y-90431488D01*
X149060123Y-90341035D01*
X151111440Y-90341035D01*
X151897400Y-91126995D01*
X152683360Y-90341035D01*
X152616380Y-90100944D01*
X152367352Y-89983844D01*
X152100265Y-89917577D01*
X151825383Y-89904690D01*
X151553267Y-89945678D01*
X151294377Y-90038964D01*
X151178420Y-90100944D01*
X151111440Y-90341035D01*
X149060123Y-90341035D01*
X148963512Y-90244424D01*
X148743549Y-90097449D01*
X148547982Y-90016442D01*
X148691562Y-89964112D01*
X148794349Y-89909171D01*
X148854781Y-89674586D01*
X148107400Y-88927205D01*
X147360019Y-89674586D01*
X147420451Y-89909171D01*
X147658317Y-90019964D01*
X147471251Y-90097449D01*
X147251288Y-90244424D01*
X147064224Y-90431488D01*
X146917249Y-90651451D01*
X146816011Y-90895861D01*
X146764400Y-91155326D01*
X144300070Y-91155326D01*
X144345237Y-91110159D01*
X144502280Y-90875127D01*
X144610453Y-90613974D01*
X144665600Y-90336735D01*
X144665600Y-90054065D01*
X144610453Y-89776826D01*
X144502280Y-89515673D01*
X144345237Y-89280641D01*
X144146639Y-89082043D01*
X144155082Y-89081212D01*
X144274780Y-89044902D01*
X144385094Y-88985937D01*
X144481785Y-88906585D01*
X144551402Y-88821756D01*
X146759940Y-88821756D01*
X146800298Y-89083208D01*
X146890888Y-89331762D01*
X146945829Y-89434549D01*
X147180414Y-89494981D01*
X147927795Y-88747600D01*
X148287005Y-88747600D01*
X149034386Y-89494981D01*
X149268971Y-89434549D01*
X149380669Y-89194739D01*
X149443436Y-88937745D01*
X149454860Y-88673444D01*
X149414502Y-88411992D01*
X149323912Y-88163438D01*
X149268971Y-88060651D01*
X149034386Y-88000219D01*
X148287005Y-88747600D01*
X147927795Y-88747600D01*
X147180414Y-88000219D01*
X146945829Y-88060651D01*
X146834131Y-88300461D01*
X146771364Y-88557455D01*
X146759940Y-88821756D01*
X144551402Y-88821756D01*
X144561137Y-88809894D01*
X144620102Y-88699580D01*
X144656412Y-88579882D01*
X144668672Y-88455400D01*
X144668672Y-87820614D01*
X147360019Y-87820614D01*
X148107400Y-88567995D01*
X148854781Y-87820614D01*
X148794349Y-87586029D01*
X148554539Y-87474331D01*
X148297545Y-87411564D01*
X148033244Y-87400140D01*
X147771792Y-87440498D01*
X147523238Y-87531088D01*
X147420451Y-87586029D01*
X147360019Y-87820614D01*
X144668672Y-87820614D01*
X144668672Y-86855400D01*
X144656412Y-86730918D01*
X144620102Y-86611220D01*
X144561137Y-86500906D01*
X144481785Y-86404215D01*
X144385094Y-86324863D01*
X144274780Y-86265898D01*
X144155082Y-86229588D01*
X144030600Y-86217328D01*
X142430600Y-86217328D01*
X142306118Y-86229588D01*
X142186420Y-86265898D01*
X142076106Y-86324863D01*
X141979415Y-86404215D01*
X141900063Y-86500906D01*
X141841098Y-86611220D01*
X141804788Y-86730918D01*
X141792528Y-86855400D01*
X141792528Y-88455400D01*
X141804788Y-88579882D01*
X141841098Y-88699580D01*
X141900063Y-88809894D01*
X141979415Y-88906585D01*
X142076106Y-88985937D01*
X142186420Y-89044902D01*
X142306118Y-89081212D01*
X142314561Y-89082043D01*
X142115963Y-89280641D01*
X141958920Y-89515673D01*
X141850747Y-89776826D01*
X141795600Y-90054065D01*
X141795600Y-90336735D01*
X141850747Y-90613974D01*
X141958920Y-90875127D01*
X142115963Y-91110159D01*
X142315841Y-91310037D01*
X142548359Y-91465400D01*
X142315841Y-91620763D01*
X142115963Y-91820641D01*
X141958920Y-92055673D01*
X141850747Y-92316826D01*
X141795600Y-92594065D01*
X141795600Y-92876735D01*
X141850747Y-93153974D01*
X141958920Y-93415127D01*
X142115963Y-93650159D01*
X142315841Y-93850037D01*
X142548359Y-94005400D01*
X142315841Y-94160763D01*
X142115963Y-94360641D01*
X141958920Y-94595673D01*
X141850747Y-94856826D01*
X141795600Y-95134065D01*
X141795600Y-95416735D01*
X141850747Y-95693974D01*
X141958920Y-95955127D01*
X142115963Y-96190159D01*
X142315841Y-96390037D01*
X142548359Y-96545400D01*
X142315841Y-96700763D01*
X142115963Y-96900641D01*
X141958920Y-97135673D01*
X141850747Y-97396826D01*
X141795600Y-97674065D01*
X141795600Y-97956735D01*
X141850747Y-98233974D01*
X141958920Y-98495127D01*
X142115963Y-98730159D01*
X142315841Y-98930037D01*
X142548359Y-99085400D01*
X142315841Y-99240763D01*
X142115963Y-99440641D01*
X141958920Y-99675673D01*
X141850747Y-99936826D01*
X141795600Y-100214065D01*
X141795600Y-100496735D01*
X141850747Y-100773974D01*
X141958920Y-101035127D01*
X142115963Y-101270159D01*
X142315841Y-101470037D01*
X142548359Y-101625400D01*
X142315841Y-101780763D01*
X142115963Y-101980641D01*
X141958920Y-102215673D01*
X141850747Y-102476826D01*
X141795600Y-102754065D01*
X141795600Y-103036735D01*
X141850747Y-103313974D01*
X141958920Y-103575127D01*
X142115963Y-103810159D01*
X142315841Y-104010037D01*
X142548359Y-104165400D01*
X142315841Y-104320763D01*
X142115963Y-104520641D01*
X141958920Y-104755673D01*
X141850747Y-105016826D01*
X141795600Y-105294065D01*
X141795600Y-105576735D01*
X141850747Y-105853974D01*
X141958920Y-106115127D01*
X142115963Y-106350159D01*
X142315841Y-106550037D01*
X142548359Y-106705400D01*
X142315841Y-106860763D01*
X142115963Y-107060641D01*
X141958920Y-107295673D01*
X141850747Y-107556826D01*
X141795600Y-107834065D01*
X141795600Y-108116735D01*
X141850747Y-108393974D01*
X141958920Y-108655127D01*
X142115963Y-108890159D01*
X142315841Y-109090037D01*
X142548359Y-109245400D01*
X142315841Y-109400763D01*
X142115963Y-109600641D01*
X141958920Y-109835673D01*
X141850747Y-110096826D01*
X141795600Y-110374065D01*
X141795600Y-110656735D01*
X141850747Y-110933974D01*
X141958920Y-111195127D01*
X142115963Y-111430159D01*
X142315841Y-111630037D01*
X142548359Y-111785400D01*
X142315841Y-111940763D01*
X142115963Y-112140641D01*
X141958920Y-112375673D01*
X141850747Y-112636826D01*
X141795600Y-112914065D01*
X141795600Y-113196735D01*
X141850747Y-113473974D01*
X141958920Y-113735127D01*
X142115963Y-113970159D01*
X142315841Y-114170037D01*
X142548359Y-114325400D01*
X142315841Y-114480763D01*
X142115963Y-114680641D01*
X141958920Y-114915673D01*
X141850747Y-115176826D01*
X141795600Y-115454065D01*
X141795600Y-115736735D01*
X141850747Y-116013974D01*
X141958920Y-116275127D01*
X142115963Y-116510159D01*
X142315841Y-116710037D01*
X142548359Y-116865400D01*
X142315841Y-117020763D01*
X142115963Y-117220641D01*
X141958920Y-117455673D01*
X141850747Y-117716826D01*
X141795600Y-117994065D01*
X141795600Y-118276735D01*
X141850747Y-118553974D01*
X141958920Y-118815127D01*
X142115963Y-119050159D01*
X142315841Y-119250037D01*
X142548359Y-119405400D01*
X142315841Y-119560763D01*
X142115963Y-119760641D01*
X141958920Y-119995673D01*
X141850747Y-120256826D01*
X141795600Y-120534065D01*
X141795600Y-120816735D01*
X141850747Y-121093974D01*
X141958920Y-121355127D01*
X142115963Y-121590159D01*
X142315841Y-121790037D01*
X142548359Y-121945400D01*
X142315841Y-122100763D01*
X142115963Y-122300641D01*
X141958920Y-122535673D01*
X141850747Y-122796826D01*
X141795600Y-123074065D01*
X141795600Y-123356735D01*
X141850747Y-123633974D01*
X141958920Y-123895127D01*
X142115963Y-124130159D01*
X142315841Y-124330037D01*
X142550873Y-124487080D01*
X142812026Y-124595253D01*
X143089265Y-124650400D01*
X143371935Y-124650400D01*
X143649174Y-124595253D01*
X143910327Y-124487080D01*
X144145359Y-124330037D01*
X144345237Y-124130159D01*
X144502280Y-123895127D01*
X144610453Y-123633974D01*
X144665600Y-123356735D01*
X144665600Y-123074065D01*
X144610453Y-122796826D01*
X144502280Y-122535673D01*
X144345237Y-122300641D01*
X144145359Y-122100763D01*
X143912841Y-121945400D01*
X144145359Y-121790037D01*
X144345237Y-121590159D01*
X144502280Y-121355127D01*
X144610453Y-121093974D01*
X144665600Y-120816735D01*
X144665600Y-120534065D01*
X144610453Y-120256826D01*
X144502280Y-119995673D01*
X144345237Y-119760641D01*
X144145359Y-119560763D01*
X143912841Y-119405400D01*
X144145359Y-119250037D01*
X144345237Y-119050159D01*
X144502280Y-118815127D01*
X144610453Y-118553974D01*
X144665600Y-118276735D01*
X144665600Y-117994065D01*
X144610453Y-117716826D01*
X144502280Y-117455673D01*
X144345237Y-117220641D01*
X144145359Y-117020763D01*
X143912841Y-116865400D01*
X144145359Y-116710037D01*
X144345237Y-116510159D01*
X144502280Y-116275127D01*
X144610453Y-116013974D01*
X144665600Y-115736735D01*
X144665600Y-115454065D01*
X144610453Y-115176826D01*
X144502280Y-114915673D01*
X144345237Y-114680641D01*
X144145359Y-114480763D01*
X143912841Y-114325400D01*
X144145359Y-114170037D01*
X144345237Y-113970159D01*
X144502280Y-113735127D01*
X144610453Y-113473974D01*
X144665600Y-113196735D01*
X144665600Y-112914065D01*
X144610453Y-112636826D01*
X144502280Y-112375673D01*
X144345237Y-112140641D01*
X144145359Y-111940763D01*
X143912841Y-111785400D01*
X144145359Y-111630037D01*
X144345237Y-111430159D01*
X144502280Y-111195127D01*
X144610453Y-110933974D01*
X144665600Y-110656735D01*
X144665600Y-110374065D01*
X144610453Y-110096826D01*
X144502280Y-109835673D01*
X144345237Y-109600641D01*
X144145359Y-109400763D01*
X143912841Y-109245400D01*
X144145359Y-109090037D01*
X144345237Y-108890159D01*
X144502280Y-108655127D01*
X144610453Y-108393974D01*
X144665600Y-108116735D01*
X144665600Y-107834065D01*
X144610453Y-107556826D01*
X144502280Y-107295673D01*
X144345237Y-107060641D01*
X144145359Y-106860763D01*
X143912841Y-106705400D01*
X144145359Y-106550037D01*
X144345237Y-106350159D01*
X144502280Y-106115127D01*
X144610453Y-105853974D01*
X144665600Y-105576735D01*
X144665600Y-105294065D01*
X144629288Y-105111514D01*
X145161000Y-104579802D01*
X145161000Y-128118000D01*
X123179508Y-128118000D01*
X123169095Y-128107587D01*
X123407960Y-128042063D01*
X123523860Y-127795084D01*
X123589350Y-127530240D01*
X123601912Y-127257708D01*
X123561065Y-126987962D01*
X123468377Y-126731368D01*
X123407960Y-126618337D01*
X123169093Y-126552812D01*
X122391705Y-127330200D01*
X122405848Y-127344343D01*
X122226243Y-127523948D01*
X122212100Y-127509805D01*
X122197958Y-127523948D01*
X122018353Y-127344343D01*
X122032495Y-127330200D01*
X121255107Y-126552812D01*
X121016240Y-126618337D01*
X120900340Y-126865316D01*
X120834850Y-127130160D01*
X120822288Y-127402692D01*
X120863135Y-127672438D01*
X120955823Y-127929032D01*
X121016240Y-128042063D01*
X121255105Y-128107587D01*
X121244692Y-128118000D01*
X86258000Y-128118000D01*
X86258000Y-126115493D01*
X96485712Y-126115493D01*
X96551237Y-126354360D01*
X96798216Y-126470260D01*
X97063060Y-126535750D01*
X97335592Y-126548312D01*
X97605338Y-126507465D01*
X97861932Y-126414777D01*
X97974963Y-126354360D01*
X98040488Y-126115493D01*
X97263100Y-125338105D01*
X96485712Y-126115493D01*
X86258000Y-126115493D01*
X86258000Y-123463098D01*
X88293000Y-123463098D01*
X88293000Y-123932902D01*
X88384654Y-124393679D01*
X88564440Y-124827721D01*
X88825450Y-125218349D01*
X89157651Y-125550550D01*
X89548279Y-125811560D01*
X89982321Y-125991346D01*
X90443098Y-126083000D01*
X90912902Y-126083000D01*
X91373679Y-125991346D01*
X91807721Y-125811560D01*
X92198349Y-125550550D01*
X92517907Y-125230992D01*
X95873288Y-125230992D01*
X95914135Y-125500738D01*
X96006823Y-125757332D01*
X96067240Y-125870363D01*
X96306107Y-125935888D01*
X97083495Y-125158500D01*
X97442705Y-125158500D01*
X98220093Y-125935888D01*
X98458960Y-125870363D01*
X98574860Y-125623384D01*
X98640350Y-125358540D01*
X98652912Y-125086008D01*
X98612065Y-124816262D01*
X98519377Y-124559668D01*
X98458960Y-124446637D01*
X98220093Y-124381112D01*
X97442705Y-125158500D01*
X97083495Y-125158500D01*
X96306107Y-124381112D01*
X96067240Y-124446637D01*
X95951340Y-124693616D01*
X95885850Y-124958460D01*
X95873288Y-125230992D01*
X92517907Y-125230992D01*
X92530550Y-125218349D01*
X92791560Y-124827721D01*
X92971346Y-124393679D01*
X93009571Y-124201507D01*
X96485712Y-124201507D01*
X97263100Y-124978895D01*
X98040488Y-124201507D01*
X97974963Y-123962640D01*
X97727984Y-123846740D01*
X97463140Y-123781250D01*
X97190608Y-123768688D01*
X96920862Y-123809535D01*
X96664268Y-123902223D01*
X96551237Y-123962640D01*
X96485712Y-124201507D01*
X93009571Y-124201507D01*
X93063000Y-123932902D01*
X93063000Y-123463098D01*
X92971346Y-123002321D01*
X92791560Y-122568279D01*
X92530550Y-122177651D01*
X92198349Y-121845450D01*
X91807721Y-121584440D01*
X91373679Y-121404654D01*
X90912902Y-121313000D01*
X90443098Y-121313000D01*
X89982321Y-121404654D01*
X89548279Y-121584440D01*
X89157651Y-121845450D01*
X88825450Y-122177651D01*
X88564440Y-122568279D01*
X88384654Y-123002321D01*
X88293000Y-123463098D01*
X86258000Y-123463098D01*
X86258000Y-117791668D01*
X87523400Y-117791668D01*
X87523400Y-118153132D01*
X87593918Y-118507650D01*
X87732244Y-118841599D01*
X87933062Y-119142144D01*
X88188656Y-119397738D01*
X88489201Y-119598556D01*
X88823150Y-119736882D01*
X89177668Y-119807400D01*
X89539132Y-119807400D01*
X89893650Y-119736882D01*
X90227599Y-119598556D01*
X90528144Y-119397738D01*
X90783738Y-119142144D01*
X90984556Y-118841599D01*
X91122882Y-118507650D01*
X91193400Y-118153132D01*
X91193400Y-117791668D01*
X94023400Y-117791668D01*
X94023400Y-118153132D01*
X94093918Y-118507650D01*
X94232244Y-118841599D01*
X94433062Y-119142144D01*
X94688656Y-119397738D01*
X94989201Y-119598556D01*
X95323150Y-119736882D01*
X95677668Y-119807400D01*
X96039132Y-119807400D01*
X96393650Y-119736882D01*
X96727599Y-119598556D01*
X97028144Y-119397738D01*
X97283738Y-119142144D01*
X97484556Y-118841599D01*
X97622882Y-118507650D01*
X97693400Y-118153132D01*
X97693400Y-117791668D01*
X97622882Y-117437150D01*
X97484556Y-117103201D01*
X97283738Y-116802656D01*
X97028144Y-116547062D01*
X96727599Y-116346244D01*
X96393650Y-116207918D01*
X96039132Y-116137400D01*
X95677668Y-116137400D01*
X95323150Y-116207918D01*
X94989201Y-116346244D01*
X94688656Y-116547062D01*
X94433062Y-116802656D01*
X94232244Y-117103201D01*
X94093918Y-117437150D01*
X94023400Y-117791668D01*
X91193400Y-117791668D01*
X91122882Y-117437150D01*
X90984556Y-117103201D01*
X90783738Y-116802656D01*
X90528144Y-116547062D01*
X90227599Y-116346244D01*
X89893650Y-116207918D01*
X89539132Y-116137400D01*
X89177668Y-116137400D01*
X88823150Y-116207918D01*
X88489201Y-116346244D01*
X88188656Y-116547062D01*
X87933062Y-116802656D01*
X87732244Y-117103201D01*
X87593918Y-117437150D01*
X87523400Y-117791668D01*
X86258000Y-117791668D01*
X86258000Y-113291668D01*
X87523400Y-113291668D01*
X87523400Y-113653132D01*
X87593918Y-114007650D01*
X87732244Y-114341599D01*
X87933062Y-114642144D01*
X88188656Y-114897738D01*
X88489201Y-115098556D01*
X88823150Y-115236882D01*
X89177668Y-115307400D01*
X89539132Y-115307400D01*
X89893650Y-115236882D01*
X90227599Y-115098556D01*
X90528144Y-114897738D01*
X90783738Y-114642144D01*
X90984556Y-114341599D01*
X91122882Y-114007650D01*
X91193400Y-113653132D01*
X91193400Y-113291668D01*
X94023400Y-113291668D01*
X94023400Y-113653132D01*
X94093918Y-114007650D01*
X94232244Y-114341599D01*
X94433062Y-114642144D01*
X94688656Y-114897738D01*
X94989201Y-115098556D01*
X95323150Y-115236882D01*
X95677668Y-115307400D01*
X96039132Y-115307400D01*
X96393650Y-115236882D01*
X96727599Y-115098556D01*
X97028144Y-114897738D01*
X97283738Y-114642144D01*
X97410558Y-114452344D01*
X98633000Y-114452344D01*
X98633000Y-114823656D01*
X98705439Y-115187834D01*
X98847534Y-115530882D01*
X99053825Y-115839618D01*
X99316382Y-116102175D01*
X99625118Y-116308466D01*
X99968166Y-116450561D01*
X100332344Y-116523000D01*
X100703656Y-116523000D01*
X101067834Y-116450561D01*
X101410882Y-116308466D01*
X101719618Y-116102175D01*
X101982175Y-115839618D01*
X102188466Y-115530882D01*
X102330561Y-115187834D01*
X102403000Y-114823656D01*
X102403000Y-114452344D01*
X102330561Y-114088166D01*
X102188466Y-113745118D01*
X101982175Y-113436382D01*
X101719618Y-113173825D01*
X101410882Y-112967534D01*
X101067834Y-112825439D01*
X100703656Y-112753000D01*
X100332344Y-112753000D01*
X99968166Y-112825439D01*
X99625118Y-112967534D01*
X99316382Y-113173825D01*
X99053825Y-113436382D01*
X98847534Y-113745118D01*
X98705439Y-114088166D01*
X98633000Y-114452344D01*
X97410558Y-114452344D01*
X97484556Y-114341599D01*
X97622882Y-114007650D01*
X97693400Y-113653132D01*
X97693400Y-113291668D01*
X97622882Y-112937150D01*
X97484556Y-112603201D01*
X97283738Y-112302656D01*
X97028144Y-112047062D01*
X96727599Y-111846244D01*
X96393650Y-111707918D01*
X96039132Y-111637400D01*
X95677668Y-111637400D01*
X95323150Y-111707918D01*
X94989201Y-111846244D01*
X94688656Y-112047062D01*
X94433062Y-112302656D01*
X94232244Y-112603201D01*
X94093918Y-112937150D01*
X94023400Y-113291668D01*
X91193400Y-113291668D01*
X91122882Y-112937150D01*
X90984556Y-112603201D01*
X90783738Y-112302656D01*
X90528144Y-112047062D01*
X90227599Y-111846244D01*
X89893650Y-111707918D01*
X89539132Y-111637400D01*
X89177668Y-111637400D01*
X88823150Y-111707918D01*
X88489201Y-111846244D01*
X88188656Y-112047062D01*
X87933062Y-112302656D01*
X87732244Y-112603201D01*
X87593918Y-112937150D01*
X87523400Y-113291668D01*
X86258000Y-113291668D01*
X86258000Y-107631668D01*
X87523400Y-107631668D01*
X87523400Y-107993132D01*
X87593918Y-108347650D01*
X87732244Y-108681599D01*
X87933062Y-108982144D01*
X88188656Y-109237738D01*
X88489201Y-109438556D01*
X88823150Y-109576882D01*
X89177668Y-109647400D01*
X89539132Y-109647400D01*
X89893650Y-109576882D01*
X90227599Y-109438556D01*
X90528144Y-109237738D01*
X90783738Y-108982144D01*
X90984556Y-108681599D01*
X91122882Y-108347650D01*
X91193400Y-107993132D01*
X91193400Y-107631668D01*
X94023400Y-107631668D01*
X94023400Y-107993132D01*
X94093918Y-108347650D01*
X94232244Y-108681599D01*
X94433062Y-108982144D01*
X94688656Y-109237738D01*
X94989201Y-109438556D01*
X95323150Y-109576882D01*
X95677668Y-109647400D01*
X96039132Y-109647400D01*
X96325650Y-109590408D01*
X101981000Y-109590408D01*
X101981000Y-109865592D01*
X102034686Y-110135490D01*
X102139995Y-110389727D01*
X102292880Y-110618535D01*
X102487465Y-110813120D01*
X102716273Y-110966005D01*
X102970510Y-111071314D01*
X103240408Y-111125000D01*
X103515592Y-111125000D01*
X103785490Y-111071314D01*
X104039727Y-110966005D01*
X104268535Y-110813120D01*
X104463120Y-110618535D01*
X104616005Y-110389727D01*
X104648000Y-110312485D01*
X104679995Y-110389727D01*
X104832880Y-110618535D01*
X105027465Y-110813120D01*
X105256273Y-110966005D01*
X105510510Y-111071314D01*
X105780408Y-111125000D01*
X106055592Y-111125000D01*
X106325490Y-111071314D01*
X106579727Y-110966005D01*
X106808535Y-110813120D01*
X107003120Y-110618535D01*
X107156005Y-110389727D01*
X107188000Y-110312485D01*
X107219995Y-110389727D01*
X107372880Y-110618535D01*
X107567465Y-110813120D01*
X107796273Y-110966005D01*
X108050510Y-111071314D01*
X108320408Y-111125000D01*
X108595592Y-111125000D01*
X108865490Y-111071314D01*
X109119727Y-110966005D01*
X109348535Y-110813120D01*
X109543120Y-110618535D01*
X109696005Y-110389727D01*
X109728000Y-110312485D01*
X109759995Y-110389727D01*
X109912880Y-110618535D01*
X110107465Y-110813120D01*
X110336273Y-110966005D01*
X110590510Y-111071314D01*
X110860408Y-111125000D01*
X111135592Y-111125000D01*
X111405490Y-111071314D01*
X111659727Y-110966005D01*
X111888535Y-110813120D01*
X112083120Y-110618535D01*
X112236005Y-110389727D01*
X112268000Y-110312485D01*
X112299995Y-110389727D01*
X112354660Y-110471538D01*
X108781887Y-114044312D01*
X108599335Y-114008000D01*
X108316665Y-114008000D01*
X108039426Y-114063147D01*
X107778273Y-114171320D01*
X107543241Y-114328363D01*
X107343363Y-114528241D01*
X107186320Y-114763273D01*
X107078147Y-115024426D01*
X107023000Y-115301665D01*
X107023000Y-115584335D01*
X107078147Y-115861574D01*
X107186320Y-116122727D01*
X107343363Y-116357759D01*
X107543241Y-116557637D01*
X107778273Y-116714680D01*
X108039426Y-116822853D01*
X108316665Y-116878000D01*
X108599335Y-116878000D01*
X108876574Y-116822853D01*
X109137727Y-116714680D01*
X109372759Y-116557637D01*
X109572637Y-116357759D01*
X109728000Y-116125241D01*
X109883363Y-116357759D01*
X110083241Y-116557637D01*
X110318273Y-116714680D01*
X110579426Y-116822853D01*
X110856665Y-116878000D01*
X111139335Y-116878000D01*
X111416574Y-116822853D01*
X111677727Y-116714680D01*
X111912759Y-116557637D01*
X112034694Y-116435702D01*
X112724903Y-116435702D01*
X112796486Y-116679671D01*
X113051996Y-116800571D01*
X113326184Y-116869300D01*
X113608512Y-116883217D01*
X113888130Y-116841787D01*
X114154292Y-116746603D01*
X114279514Y-116679671D01*
X114351097Y-116435702D01*
X113538000Y-115622605D01*
X112724903Y-116435702D01*
X112034694Y-116435702D01*
X112112637Y-116357759D01*
X112268915Y-116123872D01*
X112301329Y-116184514D01*
X112545298Y-116256097D01*
X113358395Y-115443000D01*
X113717605Y-115443000D01*
X114530702Y-116256097D01*
X114639928Y-116224049D01*
X114639928Y-116243000D01*
X114652188Y-116367482D01*
X114688498Y-116487180D01*
X114747463Y-116597494D01*
X114826815Y-116694185D01*
X114923506Y-116773537D01*
X115033820Y-116832502D01*
X115153518Y-116868812D01*
X115278000Y-116881072D01*
X116878000Y-116881072D01*
X117002482Y-116868812D01*
X117122180Y-116832502D01*
X117232494Y-116773537D01*
X117329185Y-116694185D01*
X117408537Y-116597494D01*
X117467502Y-116487180D01*
X117503812Y-116367482D01*
X117516072Y-116243000D01*
X117516072Y-114643000D01*
X117503812Y-114518518D01*
X117483435Y-114451344D01*
X122133000Y-114451344D01*
X122133000Y-114822656D01*
X122205439Y-115186834D01*
X122347534Y-115529882D01*
X122553825Y-115838618D01*
X122816382Y-116101175D01*
X123125118Y-116307466D01*
X123468166Y-116449561D01*
X123832344Y-116522000D01*
X124203656Y-116522000D01*
X124567834Y-116449561D01*
X124910882Y-116307466D01*
X125219618Y-116101175D01*
X125482175Y-115838618D01*
X125688466Y-115529882D01*
X125830561Y-115186834D01*
X125903000Y-114822656D01*
X125903000Y-114451344D01*
X125830561Y-114087166D01*
X125688466Y-113744118D01*
X125482175Y-113435382D01*
X125219618Y-113172825D01*
X124910882Y-112966534D01*
X124567834Y-112824439D01*
X124203656Y-112752000D01*
X123832344Y-112752000D01*
X123468166Y-112824439D01*
X123125118Y-112966534D01*
X122816382Y-113172825D01*
X122553825Y-113435382D01*
X122347534Y-113744118D01*
X122205439Y-114087166D01*
X122133000Y-114451344D01*
X117483435Y-114451344D01*
X117467502Y-114398820D01*
X117408537Y-114288506D01*
X117329185Y-114191815D01*
X117232494Y-114112463D01*
X117122180Y-114053498D01*
X117002482Y-114017188D01*
X116878000Y-114004928D01*
X115278000Y-114004928D01*
X115153518Y-114017188D01*
X115033820Y-114053498D01*
X114923506Y-114112463D01*
X114826815Y-114191815D01*
X114747463Y-114288506D01*
X114688498Y-114398820D01*
X114652188Y-114518518D01*
X114639928Y-114643000D01*
X114639928Y-114661951D01*
X114530702Y-114629903D01*
X113717605Y-115443000D01*
X113358395Y-115443000D01*
X113344253Y-115428858D01*
X113523858Y-115249253D01*
X113538000Y-115263395D01*
X114351097Y-114450298D01*
X114279514Y-114206329D01*
X114024004Y-114085429D01*
X113749816Y-114016700D01*
X113510879Y-114004922D01*
X116434307Y-111081495D01*
X116485490Y-111071314D01*
X116739727Y-110966005D01*
X116968535Y-110813120D01*
X117163120Y-110618535D01*
X117316005Y-110389727D01*
X117348000Y-110312485D01*
X117379995Y-110389727D01*
X117532880Y-110618535D01*
X117727465Y-110813120D01*
X117956273Y-110966005D01*
X118210510Y-111071314D01*
X118480408Y-111125000D01*
X118755592Y-111125000D01*
X119025490Y-111071314D01*
X119279727Y-110966005D01*
X119508535Y-110813120D01*
X119628090Y-110693565D01*
X120372040Y-110693565D01*
X120439020Y-110933656D01*
X120688048Y-111050756D01*
X120955135Y-111117023D01*
X121230017Y-111129910D01*
X121502133Y-111088922D01*
X121761023Y-110995636D01*
X121876980Y-110933656D01*
X121943960Y-110693565D01*
X121158000Y-109907605D01*
X120372040Y-110693565D01*
X119628090Y-110693565D01*
X119703120Y-110618535D01*
X119856005Y-110389727D01*
X119885692Y-110318057D01*
X119890364Y-110331023D01*
X119952344Y-110446980D01*
X120192435Y-110513960D01*
X120978395Y-109728000D01*
X121337605Y-109728000D01*
X122123565Y-110513960D01*
X122363656Y-110446980D01*
X122480756Y-110197952D01*
X122547023Y-109930865D01*
X122559910Y-109655983D01*
X122518922Y-109383867D01*
X122425636Y-109124977D01*
X122363656Y-109009020D01*
X122123565Y-108942040D01*
X121337605Y-109728000D01*
X120978395Y-109728000D01*
X120192435Y-108942040D01*
X119952344Y-109009020D01*
X119888515Y-109144760D01*
X119856005Y-109066273D01*
X119703120Y-108837465D01*
X119628090Y-108762435D01*
X120372040Y-108762435D01*
X121158000Y-109548395D01*
X121943960Y-108762435D01*
X121876980Y-108522344D01*
X121627952Y-108405244D01*
X121360865Y-108338977D01*
X121085983Y-108326090D01*
X120813867Y-108367078D01*
X120554977Y-108460364D01*
X120439020Y-108522344D01*
X120372040Y-108762435D01*
X119628090Y-108762435D01*
X119508535Y-108642880D01*
X119279727Y-108489995D01*
X119025490Y-108384686D01*
X118755592Y-108331000D01*
X118549801Y-108331000D01*
X123225402Y-103655400D01*
X126772557Y-103655400D01*
X126875963Y-103810159D01*
X127075841Y-104010037D01*
X127308359Y-104165400D01*
X127075841Y-104320763D01*
X126875963Y-104520641D01*
X126718920Y-104755673D01*
X126610747Y-105016826D01*
X126555600Y-105294065D01*
X126555600Y-105576735D01*
X126610747Y-105853974D01*
X126718920Y-106115127D01*
X126875963Y-106350159D01*
X127075841Y-106550037D01*
X127308359Y-106705400D01*
X127075841Y-106860763D01*
X126875963Y-107060641D01*
X126718920Y-107295673D01*
X126610747Y-107556826D01*
X126555600Y-107834065D01*
X126555600Y-108116735D01*
X126610747Y-108393974D01*
X126718920Y-108655127D01*
X126875963Y-108890159D01*
X127075841Y-109090037D01*
X127308359Y-109245400D01*
X127075841Y-109400763D01*
X126875963Y-109600641D01*
X126718920Y-109835673D01*
X126610747Y-110096826D01*
X126555600Y-110374065D01*
X126555600Y-110656735D01*
X126610747Y-110933974D01*
X126718920Y-111195127D01*
X126875963Y-111430159D01*
X127075841Y-111630037D01*
X127308359Y-111785400D01*
X127075841Y-111940763D01*
X126875963Y-112140641D01*
X126718920Y-112375673D01*
X126610747Y-112636826D01*
X126555600Y-112914065D01*
X126555600Y-113196735D01*
X126610747Y-113473974D01*
X126718920Y-113735127D01*
X126875963Y-113970159D01*
X127075841Y-114170037D01*
X127308359Y-114325400D01*
X127075841Y-114480763D01*
X126875963Y-114680641D01*
X126718920Y-114915673D01*
X126610747Y-115176826D01*
X126555600Y-115454065D01*
X126555600Y-115511898D01*
X122493465Y-119574033D01*
X122348511Y-119545200D01*
X122075689Y-119545200D01*
X121808111Y-119598425D01*
X121556057Y-119702829D01*
X121329214Y-119854401D01*
X121136301Y-120047314D01*
X120984729Y-120274157D01*
X120880325Y-120526211D01*
X120827100Y-120793789D01*
X120827100Y-121066611D01*
X120855933Y-121211565D01*
X118607133Y-123460366D01*
X118338600Y-123433918D01*
X118043568Y-123462976D01*
X117759875Y-123549034D01*
X117498421Y-123688783D01*
X117269255Y-123876855D01*
X117081183Y-124106022D01*
X117068600Y-124129563D01*
X117056017Y-124106021D01*
X116867945Y-123876855D01*
X116638778Y-123688783D01*
X116377324Y-123549034D01*
X116093631Y-123462976D01*
X115798600Y-123433918D01*
X115503568Y-123462976D01*
X115219875Y-123549034D01*
X114958421Y-123688783D01*
X114729255Y-123876855D01*
X114541183Y-124106022D01*
X114528600Y-124129563D01*
X114516017Y-124106021D01*
X114327945Y-123876855D01*
X114098778Y-123688783D01*
X113837324Y-123549034D01*
X113553631Y-123462976D01*
X113258600Y-123433918D01*
X112963568Y-123462976D01*
X112679875Y-123549034D01*
X112418421Y-123688783D01*
X112189255Y-123876855D01*
X112001183Y-124106022D01*
X111988600Y-124129563D01*
X111976017Y-124106021D01*
X111787945Y-123876855D01*
X111558778Y-123688783D01*
X111297324Y-123549034D01*
X111013631Y-123462976D01*
X110718600Y-123433918D01*
X110423568Y-123462976D01*
X110139875Y-123549034D01*
X109878421Y-123688783D01*
X109649255Y-123876855D01*
X109595535Y-123942314D01*
X109537005Y-123832813D01*
X109426562Y-123698238D01*
X109291987Y-123587795D01*
X109138451Y-123505728D01*
X108971855Y-123455192D01*
X108798601Y-123438128D01*
X107558599Y-123438128D01*
X107385345Y-123455192D01*
X107218749Y-123505728D01*
X107065213Y-123587795D01*
X106930638Y-123698238D01*
X106820195Y-123832813D01*
X106738128Y-123986349D01*
X106687592Y-124152945D01*
X106670528Y-124326199D01*
X106670528Y-124398500D01*
X105971009Y-124398500D01*
X105888899Y-124275614D01*
X105695986Y-124082701D01*
X105469143Y-123931129D01*
X105217089Y-123826725D01*
X104949511Y-123773500D01*
X104676689Y-123773500D01*
X104409111Y-123826725D01*
X104157057Y-123931129D01*
X103930214Y-124082701D01*
X103737301Y-124275614D01*
X103585729Y-124502457D01*
X103481325Y-124754511D01*
X103428100Y-125022089D01*
X103428100Y-125294911D01*
X103481325Y-125562489D01*
X103585729Y-125814543D01*
X103737301Y-126041386D01*
X103930214Y-126234299D01*
X104157057Y-126385871D01*
X104409111Y-126490275D01*
X104676689Y-126543500D01*
X104949511Y-126543500D01*
X105217089Y-126490275D01*
X105469143Y-126385871D01*
X105695986Y-126234299D01*
X105888899Y-126041386D01*
X105971009Y-125918500D01*
X106670528Y-125918500D01*
X106670528Y-126016201D01*
X106687592Y-126189455D01*
X106738128Y-126356051D01*
X106820195Y-126509587D01*
X106930638Y-126644162D01*
X107065213Y-126754605D01*
X107218749Y-126836672D01*
X107385345Y-126887208D01*
X107558599Y-126904272D01*
X108798601Y-126904272D01*
X108971855Y-126887208D01*
X109138451Y-126836672D01*
X109291987Y-126754605D01*
X109426562Y-126644162D01*
X109537005Y-126509587D01*
X109595534Y-126400086D01*
X109649255Y-126465545D01*
X109878422Y-126653617D01*
X110139876Y-126793366D01*
X110423569Y-126879424D01*
X110718600Y-126908482D01*
X111013632Y-126879424D01*
X111297325Y-126793366D01*
X111558779Y-126653617D01*
X111787945Y-126465545D01*
X111976017Y-126236379D01*
X111988600Y-126212838D01*
X112001183Y-126236379D01*
X112189255Y-126465545D01*
X112418422Y-126653617D01*
X112679876Y-126793366D01*
X112963569Y-126879424D01*
X113258600Y-126908482D01*
X113553632Y-126879424D01*
X113837325Y-126793366D01*
X114098779Y-126653617D01*
X114327945Y-126465545D01*
X114516017Y-126236379D01*
X114528600Y-126212838D01*
X114541183Y-126236379D01*
X114729255Y-126465545D01*
X114958422Y-126653617D01*
X115219876Y-126793366D01*
X115503569Y-126879424D01*
X115798600Y-126908482D01*
X116093632Y-126879424D01*
X116377325Y-126793366D01*
X116638779Y-126653617D01*
X116867945Y-126465545D01*
X117056017Y-126236379D01*
X117068600Y-126212838D01*
X117081183Y-126236379D01*
X117269255Y-126465545D01*
X117498422Y-126653617D01*
X117759876Y-126793366D01*
X118043569Y-126879424D01*
X118338600Y-126908482D01*
X118633632Y-126879424D01*
X118917325Y-126793366D01*
X119178779Y-126653617D01*
X119407945Y-126465545D01*
X119483724Y-126373207D01*
X121434712Y-126373207D01*
X122212100Y-127150595D01*
X122989488Y-126373207D01*
X122923963Y-126134340D01*
X122676984Y-126018440D01*
X122412140Y-125952950D01*
X122139608Y-125940388D01*
X121869862Y-125981235D01*
X121613268Y-126073923D01*
X121500237Y-126134340D01*
X121434712Y-126373207D01*
X119483724Y-126373207D01*
X119596017Y-126236379D01*
X119735766Y-125974924D01*
X119821824Y-125691231D01*
X119843600Y-125470135D01*
X119843600Y-124872264D01*
X119821824Y-124651168D01*
X119762266Y-124454835D01*
X121930735Y-122286367D01*
X122075689Y-122315200D01*
X122348511Y-122315200D01*
X122616089Y-122261975D01*
X122868143Y-122157571D01*
X123094986Y-122005999D01*
X123287899Y-121813086D01*
X123439471Y-121586243D01*
X123543875Y-121334189D01*
X123597100Y-121066611D01*
X123597100Y-120793789D01*
X123568267Y-120648835D01*
X126688862Y-117528240D01*
X126610747Y-117716826D01*
X126555600Y-117994065D01*
X126555600Y-118276735D01*
X126610747Y-118553974D01*
X126718920Y-118815127D01*
X126875963Y-119050159D01*
X127075841Y-119250037D01*
X127308359Y-119405400D01*
X127075841Y-119560763D01*
X126875963Y-119760641D01*
X126718920Y-119995673D01*
X126610747Y-120256826D01*
X126555600Y-120534065D01*
X126555600Y-120816735D01*
X126610747Y-121093974D01*
X126718920Y-121355127D01*
X126875963Y-121590159D01*
X127075841Y-121790037D01*
X127308359Y-121945400D01*
X127075841Y-122100763D01*
X126875963Y-122300641D01*
X126718920Y-122535673D01*
X126610747Y-122796826D01*
X126555600Y-123074065D01*
X126555600Y-123356735D01*
X126610747Y-123633974D01*
X126718920Y-123895127D01*
X126875963Y-124130159D01*
X127075841Y-124330037D01*
X127310873Y-124487080D01*
X127572026Y-124595253D01*
X127849265Y-124650400D01*
X128131935Y-124650400D01*
X128409174Y-124595253D01*
X128670327Y-124487080D01*
X128905359Y-124330037D01*
X129105237Y-124130159D01*
X129262280Y-123895127D01*
X129370453Y-123633974D01*
X129425600Y-123356735D01*
X129425600Y-123074065D01*
X129370453Y-122796826D01*
X129262280Y-122535673D01*
X129105237Y-122300641D01*
X128905359Y-122100763D01*
X128672841Y-121945400D01*
X128905359Y-121790037D01*
X129105237Y-121590159D01*
X129262280Y-121355127D01*
X129370453Y-121093974D01*
X129425600Y-120816735D01*
X129425600Y-120534065D01*
X129370453Y-120256826D01*
X129262280Y-119995673D01*
X129105237Y-119760641D01*
X128905359Y-119560763D01*
X128672841Y-119405400D01*
X128905359Y-119250037D01*
X129105237Y-119050159D01*
X129262280Y-118815127D01*
X129370453Y-118553974D01*
X129425600Y-118276735D01*
X129425600Y-117994065D01*
X129370453Y-117716826D01*
X129262280Y-117455673D01*
X129105237Y-117220641D01*
X128905359Y-117020763D01*
X128672841Y-116865400D01*
X128905359Y-116710037D01*
X129105237Y-116510159D01*
X129262280Y-116275127D01*
X129370453Y-116013974D01*
X129425600Y-115736735D01*
X129425600Y-115454065D01*
X129370453Y-115176826D01*
X129262280Y-114915673D01*
X129105237Y-114680641D01*
X128905359Y-114480763D01*
X128672841Y-114325400D01*
X128905359Y-114170037D01*
X129105237Y-113970159D01*
X129262280Y-113735127D01*
X129370453Y-113473974D01*
X129425600Y-113196735D01*
X129425600Y-112914065D01*
X129370453Y-112636826D01*
X129262280Y-112375673D01*
X129105237Y-112140641D01*
X128905359Y-111940763D01*
X128672841Y-111785400D01*
X128905359Y-111630037D01*
X129105237Y-111430159D01*
X129262280Y-111195127D01*
X129370453Y-110933974D01*
X129425600Y-110656735D01*
X129425600Y-110374065D01*
X129370453Y-110096826D01*
X129262280Y-109835673D01*
X129105237Y-109600641D01*
X128905359Y-109400763D01*
X128672841Y-109245400D01*
X128905359Y-109090037D01*
X129105237Y-108890159D01*
X129262280Y-108655127D01*
X129370453Y-108393974D01*
X129425600Y-108116735D01*
X129425600Y-107834065D01*
X129370453Y-107556826D01*
X129262280Y-107295673D01*
X129105237Y-107060641D01*
X128905359Y-106860763D01*
X128672841Y-106705400D01*
X128905359Y-106550037D01*
X129105237Y-106350159D01*
X129262280Y-106115127D01*
X129370453Y-105853974D01*
X129425600Y-105576735D01*
X129425600Y-105294065D01*
X129370453Y-105016826D01*
X129262280Y-104755673D01*
X129105237Y-104520641D01*
X128905359Y-104320763D01*
X128672841Y-104165400D01*
X128905359Y-104010037D01*
X129105237Y-103810159D01*
X129262280Y-103575127D01*
X129370453Y-103313974D01*
X129425600Y-103036735D01*
X129425600Y-102754065D01*
X129370453Y-102476826D01*
X129262280Y-102215673D01*
X129105237Y-101980641D01*
X128905359Y-101780763D01*
X128672841Y-101625400D01*
X128905359Y-101470037D01*
X129105237Y-101270159D01*
X129262280Y-101035127D01*
X129370453Y-100773974D01*
X129425600Y-100496735D01*
X129425600Y-100214065D01*
X129370453Y-99936826D01*
X129262280Y-99675673D01*
X129105237Y-99440641D01*
X128905359Y-99240763D01*
X128672841Y-99085400D01*
X128905359Y-98930037D01*
X129105237Y-98730159D01*
X129262280Y-98495127D01*
X129370453Y-98233974D01*
X129425600Y-97956735D01*
X129425600Y-97674065D01*
X129370453Y-97396826D01*
X129262280Y-97135673D01*
X129105237Y-96900641D01*
X128905359Y-96700763D01*
X128670327Y-96543720D01*
X128659735Y-96539333D01*
X128845731Y-96427785D01*
X129054119Y-96238814D01*
X129221637Y-96012820D01*
X129341846Y-95758487D01*
X129382504Y-95624439D01*
X129260515Y-95402400D01*
X128117600Y-95402400D01*
X128117600Y-95422400D01*
X127863600Y-95422400D01*
X127863600Y-95402400D01*
X126720685Y-95402400D01*
X126598696Y-95624439D01*
X126639354Y-95758487D01*
X126759563Y-96012820D01*
X126927081Y-96238814D01*
X127135469Y-96427785D01*
X127321465Y-96539333D01*
X127310873Y-96543720D01*
X127075841Y-96700763D01*
X126875963Y-96900641D01*
X126718920Y-97135673D01*
X126610747Y-97396826D01*
X126555600Y-97674065D01*
X126555600Y-97956735D01*
X126610747Y-98233974D01*
X126718920Y-98495127D01*
X126875963Y-98730159D01*
X127075841Y-98930037D01*
X127308359Y-99085400D01*
X127075841Y-99240763D01*
X126875963Y-99440641D01*
X126718920Y-99675673D01*
X126610747Y-99936826D01*
X126555600Y-100214065D01*
X126555600Y-100496735D01*
X126610747Y-100773974D01*
X126718920Y-101035127D01*
X126875963Y-101270159D01*
X127075841Y-101470037D01*
X127308359Y-101625400D01*
X127075841Y-101780763D01*
X126875963Y-101980641D01*
X126772557Y-102135400D01*
X122947933Y-102135400D01*
X122910600Y-102131723D01*
X122873267Y-102135400D01*
X122761614Y-102146397D01*
X122618353Y-102189854D01*
X122486324Y-102260426D01*
X122370599Y-102355399D01*
X122346801Y-102384397D01*
X116369571Y-108361628D01*
X116215592Y-108331000D01*
X115940408Y-108331000D01*
X115670510Y-108384686D01*
X115416273Y-108489995D01*
X115187465Y-108642880D01*
X114992880Y-108837465D01*
X114839995Y-109066273D01*
X114808000Y-109143515D01*
X114776005Y-109066273D01*
X114623120Y-108837465D01*
X114428535Y-108642880D01*
X114199727Y-108489995D01*
X113945490Y-108384686D01*
X113675592Y-108331000D01*
X113400408Y-108331000D01*
X113130510Y-108384686D01*
X112876273Y-108489995D01*
X112647465Y-108642880D01*
X112452880Y-108837465D01*
X112299995Y-109066273D01*
X112268000Y-109143515D01*
X112236005Y-109066273D01*
X112083120Y-108837465D01*
X111888535Y-108642880D01*
X111659727Y-108489995D01*
X111405490Y-108384686D01*
X111135592Y-108331000D01*
X110860408Y-108331000D01*
X110590510Y-108384686D01*
X110336273Y-108489995D01*
X110107465Y-108642880D01*
X109912880Y-108837465D01*
X109759995Y-109066273D01*
X109728000Y-109143515D01*
X109696005Y-109066273D01*
X109543120Y-108837465D01*
X109348535Y-108642880D01*
X109119727Y-108489995D01*
X108865490Y-108384686D01*
X108595592Y-108331000D01*
X108320408Y-108331000D01*
X108050510Y-108384686D01*
X107796273Y-108489995D01*
X107567465Y-108642880D01*
X107372880Y-108837465D01*
X107219995Y-109066273D01*
X107188000Y-109143515D01*
X107156005Y-109066273D01*
X107003120Y-108837465D01*
X106808535Y-108642880D01*
X106579727Y-108489995D01*
X106325490Y-108384686D01*
X106055592Y-108331000D01*
X105780408Y-108331000D01*
X105510510Y-108384686D01*
X105256273Y-108489995D01*
X105027465Y-108642880D01*
X104832880Y-108837465D01*
X104679995Y-109066273D01*
X104648000Y-109143515D01*
X104616005Y-109066273D01*
X104463120Y-108837465D01*
X104268535Y-108642880D01*
X104039727Y-108489995D01*
X103785490Y-108384686D01*
X103515592Y-108331000D01*
X103240408Y-108331000D01*
X102970510Y-108384686D01*
X102716273Y-108489995D01*
X102487465Y-108642880D01*
X102292880Y-108837465D01*
X102139995Y-109066273D01*
X102034686Y-109320510D01*
X101981000Y-109590408D01*
X96325650Y-109590408D01*
X96393650Y-109576882D01*
X96727599Y-109438556D01*
X97028144Y-109237738D01*
X97283738Y-108982144D01*
X97484556Y-108681599D01*
X97622882Y-108347650D01*
X97693400Y-107993132D01*
X97693400Y-107631668D01*
X97622882Y-107277150D01*
X97484556Y-106943201D01*
X97283738Y-106642656D01*
X97028144Y-106387062D01*
X96727599Y-106186244D01*
X96393650Y-106047918D01*
X96039132Y-105977400D01*
X95677668Y-105977400D01*
X95323150Y-106047918D01*
X94989201Y-106186244D01*
X94688656Y-106387062D01*
X94433062Y-106642656D01*
X94232244Y-106943201D01*
X94093918Y-107277150D01*
X94023400Y-107631668D01*
X91193400Y-107631668D01*
X91122882Y-107277150D01*
X90984556Y-106943201D01*
X90783738Y-106642656D01*
X90528144Y-106387062D01*
X90227599Y-106186244D01*
X89893650Y-106047918D01*
X89539132Y-105977400D01*
X89177668Y-105977400D01*
X88823150Y-106047918D01*
X88489201Y-106186244D01*
X88188656Y-106387062D01*
X87933062Y-106642656D01*
X87732244Y-106943201D01*
X87593918Y-107277150D01*
X87523400Y-107631668D01*
X86258000Y-107631668D01*
X86258000Y-103131668D01*
X87523400Y-103131668D01*
X87523400Y-103493132D01*
X87593918Y-103847650D01*
X87732244Y-104181599D01*
X87933062Y-104482144D01*
X88188656Y-104737738D01*
X88489201Y-104938556D01*
X88823150Y-105076882D01*
X89177668Y-105147400D01*
X89539132Y-105147400D01*
X89893650Y-105076882D01*
X90227599Y-104938556D01*
X90528144Y-104737738D01*
X90783738Y-104482144D01*
X90984556Y-104181599D01*
X91122882Y-103847650D01*
X91193400Y-103493132D01*
X91193400Y-103131668D01*
X94023400Y-103131668D01*
X94023400Y-103493132D01*
X94093918Y-103847650D01*
X94232244Y-104181599D01*
X94433062Y-104482144D01*
X94688656Y-104737738D01*
X94989201Y-104938556D01*
X95323150Y-105076882D01*
X95677668Y-105147400D01*
X96039132Y-105147400D01*
X96393650Y-105076882D01*
X96727599Y-104938556D01*
X97028144Y-104737738D01*
X97283738Y-104482144D01*
X97484556Y-104181599D01*
X97622882Y-103847650D01*
X97693400Y-103493132D01*
X97693400Y-103131668D01*
X97622882Y-102777150D01*
X97484556Y-102443201D01*
X97283738Y-102142656D01*
X97028144Y-101887062D01*
X96727599Y-101686244D01*
X96393650Y-101547918D01*
X96039132Y-101477400D01*
X95677668Y-101477400D01*
X95323150Y-101547918D01*
X94989201Y-101686244D01*
X94688656Y-101887062D01*
X94433062Y-102142656D01*
X94232244Y-102443201D01*
X94093918Y-102777150D01*
X94023400Y-103131668D01*
X91193400Y-103131668D01*
X91122882Y-102777150D01*
X90984556Y-102443201D01*
X90783738Y-102142656D01*
X90528144Y-101887062D01*
X90227599Y-101686244D01*
X89893650Y-101547918D01*
X89539132Y-101477400D01*
X89177668Y-101477400D01*
X88823150Y-101547918D01*
X88489201Y-101686244D01*
X88188656Y-101887062D01*
X87933062Y-102142656D01*
X87732244Y-102443201D01*
X87593918Y-102777150D01*
X87523400Y-103131668D01*
X86258000Y-103131668D01*
X86258000Y-97471668D01*
X87523400Y-97471668D01*
X87523400Y-97833132D01*
X87593918Y-98187650D01*
X87732244Y-98521599D01*
X87933062Y-98822144D01*
X88188656Y-99077738D01*
X88489201Y-99278556D01*
X88823150Y-99416882D01*
X89177668Y-99487400D01*
X89539132Y-99487400D01*
X89893650Y-99416882D01*
X90227599Y-99278556D01*
X90528144Y-99077738D01*
X90783738Y-98822144D01*
X90984556Y-98521599D01*
X91122882Y-98187650D01*
X91193400Y-97833132D01*
X91193400Y-97471668D01*
X94023400Y-97471668D01*
X94023400Y-97833132D01*
X94093918Y-98187650D01*
X94232244Y-98521599D01*
X94433062Y-98822144D01*
X94688656Y-99077738D01*
X94989201Y-99278556D01*
X95323150Y-99416882D01*
X95677668Y-99487400D01*
X96039132Y-99487400D01*
X96393650Y-99416882D01*
X96727599Y-99278556D01*
X97028144Y-99077738D01*
X97283738Y-98822144D01*
X97484556Y-98521599D01*
X97622882Y-98187650D01*
X97693400Y-97833132D01*
X97693400Y-97471668D01*
X97622882Y-97117150D01*
X97484556Y-96783201D01*
X97283738Y-96482656D01*
X97028144Y-96227062D01*
X96727599Y-96026244D01*
X96393650Y-95887918D01*
X96039132Y-95817400D01*
X95677668Y-95817400D01*
X95323150Y-95887918D01*
X94989201Y-96026244D01*
X94688656Y-96227062D01*
X94433062Y-96482656D01*
X94232244Y-96783201D01*
X94093918Y-97117150D01*
X94023400Y-97471668D01*
X91193400Y-97471668D01*
X91122882Y-97117150D01*
X90984556Y-96783201D01*
X90783738Y-96482656D01*
X90528144Y-96227062D01*
X90227599Y-96026244D01*
X89893650Y-95887918D01*
X89539132Y-95817400D01*
X89177668Y-95817400D01*
X88823150Y-95887918D01*
X88489201Y-96026244D01*
X88188656Y-96227062D01*
X87933062Y-96482656D01*
X87732244Y-96783201D01*
X87593918Y-97117150D01*
X87523400Y-97471668D01*
X86258000Y-97471668D01*
X86258000Y-92971668D01*
X87523400Y-92971668D01*
X87523400Y-93333132D01*
X87593918Y-93687650D01*
X87732244Y-94021599D01*
X87933062Y-94322144D01*
X88188656Y-94577738D01*
X88489201Y-94778556D01*
X88823150Y-94916882D01*
X89177668Y-94987400D01*
X89539132Y-94987400D01*
X89893650Y-94916882D01*
X90227599Y-94778556D01*
X90528144Y-94577738D01*
X90783738Y-94322144D01*
X90984556Y-94021599D01*
X91122882Y-93687650D01*
X91193400Y-93333132D01*
X91193400Y-92971668D01*
X94023400Y-92971668D01*
X94023400Y-93333132D01*
X94093918Y-93687650D01*
X94232244Y-94021599D01*
X94433062Y-94322144D01*
X94688656Y-94577738D01*
X94989201Y-94778556D01*
X95323150Y-94916882D01*
X95677668Y-94987400D01*
X96039132Y-94987400D01*
X96393650Y-94916882D01*
X96727599Y-94778556D01*
X97028144Y-94577738D01*
X97283738Y-94322144D01*
X97484556Y-94021599D01*
X97622882Y-93687650D01*
X97693400Y-93333132D01*
X97693400Y-92971668D01*
X97622882Y-92617150D01*
X97484556Y-92283201D01*
X97283738Y-91982656D01*
X97028144Y-91727062D01*
X96727599Y-91526244D01*
X96393650Y-91387918D01*
X96039132Y-91317400D01*
X95677668Y-91317400D01*
X95323150Y-91387918D01*
X94989201Y-91526244D01*
X94688656Y-91727062D01*
X94433062Y-91982656D01*
X94232244Y-92283201D01*
X94093918Y-92617150D01*
X94023400Y-92971668D01*
X91193400Y-92971668D01*
X91122882Y-92617150D01*
X90984556Y-92283201D01*
X90783738Y-91982656D01*
X90528144Y-91727062D01*
X90227599Y-91526244D01*
X89893650Y-91387918D01*
X89539132Y-91317400D01*
X89177668Y-91317400D01*
X88823150Y-91387918D01*
X88489201Y-91526244D01*
X88188656Y-91727062D01*
X87933062Y-91982656D01*
X87732244Y-92283201D01*
X87593918Y-92617150D01*
X87523400Y-92971668D01*
X86258000Y-92971668D01*
X86258000Y-90651344D01*
X98633000Y-90651344D01*
X98633000Y-91022656D01*
X98705439Y-91386834D01*
X98847534Y-91729882D01*
X99053825Y-92038618D01*
X99316382Y-92301175D01*
X99625118Y-92507466D01*
X99968166Y-92649561D01*
X100332344Y-92722000D01*
X100703656Y-92722000D01*
X101067834Y-92649561D01*
X101410882Y-92507466D01*
X101719618Y-92301175D01*
X101982175Y-92038618D01*
X102188466Y-91729882D01*
X102330561Y-91386834D01*
X102403000Y-91022656D01*
X102403000Y-90651344D01*
X122133000Y-90651344D01*
X122133000Y-91022656D01*
X122205439Y-91386834D01*
X122347534Y-91729882D01*
X122553825Y-92038618D01*
X122816382Y-92301175D01*
X123125118Y-92507466D01*
X123468166Y-92649561D01*
X123832344Y-92722000D01*
X124203656Y-92722000D01*
X124567834Y-92649561D01*
X124910882Y-92507466D01*
X125219618Y-92301175D01*
X125482175Y-92038618D01*
X125688466Y-91729882D01*
X125830561Y-91386834D01*
X125903000Y-91022656D01*
X125903000Y-90651344D01*
X125830561Y-90287166D01*
X125688466Y-89944118D01*
X125482175Y-89635382D01*
X125219618Y-89372825D01*
X124910882Y-89166534D01*
X124567834Y-89024439D01*
X124203656Y-88952000D01*
X123832344Y-88952000D01*
X123468166Y-89024439D01*
X123125118Y-89166534D01*
X122816382Y-89372825D01*
X122553825Y-89635382D01*
X122347534Y-89944118D01*
X122205439Y-90287166D01*
X122133000Y-90651344D01*
X102403000Y-90651344D01*
X102330561Y-90287166D01*
X102188466Y-89944118D01*
X101982175Y-89635382D01*
X101719618Y-89372825D01*
X101410882Y-89166534D01*
X101067834Y-89024439D01*
X100703656Y-88952000D01*
X100332344Y-88952000D01*
X99968166Y-89024439D01*
X99625118Y-89166534D01*
X99316382Y-89372825D01*
X99053825Y-89635382D01*
X98847534Y-89944118D01*
X98705439Y-90287166D01*
X98633000Y-90651344D01*
X86258000Y-90651344D01*
X86258000Y-87268098D01*
X88115200Y-87268098D01*
X88115200Y-87737902D01*
X88206854Y-88198679D01*
X88386640Y-88632721D01*
X88647650Y-89023349D01*
X88979851Y-89355550D01*
X89370479Y-89616560D01*
X89804521Y-89796346D01*
X90265298Y-89888000D01*
X90735102Y-89888000D01*
X91195879Y-89796346D01*
X91629921Y-89616560D01*
X92020549Y-89355550D01*
X92352750Y-89023349D01*
X92613760Y-88632721D01*
X92793546Y-88198679D01*
X92885200Y-87737902D01*
X92885200Y-87514065D01*
X126555600Y-87514065D01*
X126555600Y-87796735D01*
X126610747Y-88073974D01*
X126718920Y-88335127D01*
X126875963Y-88570159D01*
X127075841Y-88770037D01*
X127308359Y-88925400D01*
X127075841Y-89080763D01*
X126875963Y-89280641D01*
X126718920Y-89515673D01*
X126610747Y-89776826D01*
X126555600Y-90054065D01*
X126555600Y-90336735D01*
X126610747Y-90613974D01*
X126718920Y-90875127D01*
X126875963Y-91110159D01*
X127075841Y-91310037D01*
X127308359Y-91465400D01*
X127075841Y-91620763D01*
X126875963Y-91820641D01*
X126718920Y-92055673D01*
X126610747Y-92316826D01*
X126555600Y-92594065D01*
X126555600Y-92876735D01*
X126610747Y-93153974D01*
X126718920Y-93415127D01*
X126875963Y-93650159D01*
X127075841Y-93850037D01*
X127310873Y-94007080D01*
X127321465Y-94011467D01*
X127135469Y-94123015D01*
X126927081Y-94311986D01*
X126759563Y-94537980D01*
X126639354Y-94792313D01*
X126598696Y-94926361D01*
X126720685Y-95148400D01*
X127863600Y-95148400D01*
X127863600Y-95128400D01*
X128117600Y-95128400D01*
X128117600Y-95148400D01*
X129260515Y-95148400D01*
X129382504Y-94926361D01*
X129341846Y-94792313D01*
X129221637Y-94537980D01*
X129054119Y-94311986D01*
X128845731Y-94123015D01*
X128659735Y-94011467D01*
X128670327Y-94007080D01*
X128905359Y-93850037D01*
X129105237Y-93650159D01*
X129262280Y-93415127D01*
X129370453Y-93153974D01*
X129425600Y-92876735D01*
X129425600Y-92594065D01*
X129370453Y-92316826D01*
X129262280Y-92055673D01*
X129105237Y-91820641D01*
X128905359Y-91620763D01*
X128672841Y-91465400D01*
X128905359Y-91310037D01*
X129105237Y-91110159D01*
X129262280Y-90875127D01*
X129370453Y-90613974D01*
X129425600Y-90336735D01*
X129425600Y-90054065D01*
X129370453Y-89776826D01*
X129262280Y-89515673D01*
X129105237Y-89280641D01*
X128905359Y-89080763D01*
X128672841Y-88925400D01*
X128905359Y-88770037D01*
X129105237Y-88570159D01*
X129262280Y-88335127D01*
X129370453Y-88073974D01*
X129425600Y-87796735D01*
X129425600Y-87514065D01*
X129370453Y-87236826D01*
X129262280Y-86975673D01*
X129105237Y-86740641D01*
X128905359Y-86540763D01*
X128670327Y-86383720D01*
X128409174Y-86275547D01*
X128131935Y-86220400D01*
X127849265Y-86220400D01*
X127572026Y-86275547D01*
X127310873Y-86383720D01*
X127075841Y-86540763D01*
X126875963Y-86740641D01*
X126718920Y-86975673D01*
X126610747Y-87236826D01*
X126555600Y-87514065D01*
X92885200Y-87514065D01*
X92885200Y-87268098D01*
X92793546Y-86807321D01*
X92613760Y-86373279D01*
X92352750Y-85982651D01*
X92020549Y-85650450D01*
X91629921Y-85389440D01*
X91195879Y-85209654D01*
X90735102Y-85118000D01*
X90265298Y-85118000D01*
X89804521Y-85209654D01*
X89370479Y-85389440D01*
X88979851Y-85650450D01*
X88647650Y-85982651D01*
X88386640Y-86373279D01*
X88206854Y-86807321D01*
X88115200Y-87268098D01*
X86258000Y-87268098D01*
X86258000Y-83718000D01*
X155067000Y-83718000D01*
X155067000Y-89906528D01*
G37*
%TD.AperFunction*%
%TD*%
M02*
