%TF.GenerationSoftware,KiCad,Pcbnew,(5.1.10)-1*%
%TF.CreationDate,2021-10-25T17:57:50-04:00*%
%TF.ProjectId,KittyCaddy,4b697474-7943-4616-9464-792e6b696361,rev?*%
%TF.SameCoordinates,Original*%
%TF.FileFunction,Legend,Top*%
%TF.FilePolarity,Positive*%
%FSLAX46Y46*%
G04 Gerber Fmt 4.6, Leading zero omitted, Abs format (unit mm)*
G04 Created by KiCad (PCBNEW (5.1.10)-1) date 2021-10-25 17:57:50*
%MOMM*%
%LPD*%
G01*
G04 APERTURE LIST*
%ADD10C,0.150000*%
%ADD11C,0.120000*%
G04 APERTURE END LIST*
D10*
X176635833Y-91630500D02*
X176575357Y-91600261D01*
X176484642Y-91600261D01*
X176393928Y-91630500D01*
X176333452Y-91690976D01*
X176303214Y-91751452D01*
X176272976Y-91872404D01*
X176272976Y-91963119D01*
X176303214Y-92084071D01*
X176333452Y-92144547D01*
X176393928Y-92205023D01*
X176484642Y-92235261D01*
X176545119Y-92235261D01*
X176635833Y-92205023D01*
X176666071Y-92174785D01*
X176666071Y-91963119D01*
X176545119Y-91963119D01*
X176938214Y-91811928D02*
X176938214Y-92235261D01*
X176938214Y-91872404D02*
X176968452Y-91842166D01*
X177028928Y-91811928D01*
X177119642Y-91811928D01*
X177180119Y-91842166D01*
X177210357Y-91902642D01*
X177210357Y-92235261D01*
X177784880Y-92235261D02*
X177784880Y-91600261D01*
X177784880Y-92205023D02*
X177724404Y-92235261D01*
X177603452Y-92235261D01*
X177542976Y-92205023D01*
X177512738Y-92174785D01*
X177482500Y-92114309D01*
X177482500Y-91932880D01*
X177512738Y-91872404D01*
X177542976Y-91842166D01*
X177603452Y-91811928D01*
X177724404Y-91811928D01*
X177784880Y-91842166D01*
X178480357Y-91600261D02*
X178843214Y-91600261D01*
X178661785Y-92235261D02*
X178661785Y-91600261D01*
X179296785Y-92205023D02*
X179236309Y-92235261D01*
X179115357Y-92235261D01*
X179054880Y-92205023D01*
X179024642Y-92144547D01*
X179024642Y-91902642D01*
X179054880Y-91842166D01*
X179115357Y-91811928D01*
X179236309Y-91811928D01*
X179296785Y-91842166D01*
X179327023Y-91902642D01*
X179327023Y-91963119D01*
X179024642Y-92023595D01*
X179568928Y-92205023D02*
X179629404Y-92235261D01*
X179750357Y-92235261D01*
X179810833Y-92205023D01*
X179841071Y-92144547D01*
X179841071Y-92114309D01*
X179810833Y-92053833D01*
X179750357Y-92023595D01*
X179659642Y-92023595D01*
X179599166Y-91993357D01*
X179568928Y-91932880D01*
X179568928Y-91902642D01*
X179599166Y-91842166D01*
X179659642Y-91811928D01*
X179750357Y-91811928D01*
X179810833Y-91842166D01*
X180022500Y-91811928D02*
X180264404Y-91811928D01*
X180113214Y-91600261D02*
X180113214Y-92144547D01*
X180143452Y-92205023D01*
X180203928Y-92235261D01*
X180264404Y-92235261D01*
X180959880Y-92235261D02*
X180959880Y-91600261D01*
X181201785Y-91600261D01*
X181262261Y-91630500D01*
X181292500Y-91660738D01*
X181322738Y-91721214D01*
X181322738Y-91811928D01*
X181292500Y-91872404D01*
X181262261Y-91902642D01*
X181201785Y-91932880D01*
X180959880Y-91932880D01*
X181685595Y-92235261D02*
X181625119Y-92205023D01*
X181594880Y-92174785D01*
X181564642Y-92114309D01*
X181564642Y-91932880D01*
X181594880Y-91872404D01*
X181625119Y-91842166D01*
X181685595Y-91811928D01*
X181776309Y-91811928D01*
X181836785Y-91842166D01*
X181867023Y-91872404D01*
X181897261Y-91932880D01*
X181897261Y-92114309D01*
X181867023Y-92174785D01*
X181836785Y-92205023D01*
X181776309Y-92235261D01*
X181685595Y-92235261D01*
X182169404Y-92235261D02*
X182169404Y-91811928D01*
X182169404Y-91600261D02*
X182139166Y-91630500D01*
X182169404Y-91660738D01*
X182199642Y-91630500D01*
X182169404Y-91600261D01*
X182169404Y-91660738D01*
X182471785Y-91811928D02*
X182471785Y-92235261D01*
X182471785Y-91872404D02*
X182502023Y-91842166D01*
X182562500Y-91811928D01*
X182653214Y-91811928D01*
X182713690Y-91842166D01*
X182743928Y-91902642D01*
X182743928Y-92235261D01*
X182955595Y-91811928D02*
X183197500Y-91811928D01*
X183046309Y-91600261D02*
X183046309Y-92144547D01*
X183076547Y-92205023D01*
X183137023Y-92235261D01*
X183197500Y-92235261D01*
X94974228Y-87864647D02*
X94974228Y-86924847D01*
X95511257Y-87864647D02*
X95108485Y-87327619D01*
X95511257Y-86924847D02*
X94974228Y-87461876D01*
X95914028Y-87864647D02*
X95914028Y-87238114D01*
X95914028Y-87417123D02*
X95958780Y-87327619D01*
X96003533Y-87282866D01*
X96093038Y-87238114D01*
X96182542Y-87238114D01*
X96495809Y-87864647D02*
X96495809Y-87238114D01*
X96495809Y-86924847D02*
X96451057Y-86969600D01*
X96495809Y-87014352D01*
X96540561Y-86969600D01*
X96495809Y-86924847D01*
X96495809Y-87014352D01*
X96898580Y-87819895D02*
X96988085Y-87864647D01*
X97167095Y-87864647D01*
X97256600Y-87819895D01*
X97301352Y-87730390D01*
X97301352Y-87685638D01*
X97256600Y-87596133D01*
X97167095Y-87551380D01*
X97032838Y-87551380D01*
X96943333Y-87506628D01*
X96898580Y-87417123D01*
X96898580Y-87372371D01*
X96943333Y-87282866D01*
X97032838Y-87238114D01*
X97167095Y-87238114D01*
X97256600Y-87282866D01*
X97569866Y-87238114D02*
X97927885Y-87238114D01*
X97704123Y-86924847D02*
X97704123Y-87730390D01*
X97748876Y-87819895D01*
X97838380Y-87864647D01*
X97927885Y-87864647D01*
X98106895Y-87238114D02*
X98464914Y-87238114D01*
X98241152Y-86924847D02*
X98241152Y-87730390D01*
X98285904Y-87819895D01*
X98375409Y-87864647D01*
X98464914Y-87864647D01*
X98778180Y-87864647D02*
X98778180Y-87238114D01*
X98778180Y-86924847D02*
X98733428Y-86969600D01*
X98778180Y-87014352D01*
X98822933Y-86969600D01*
X98778180Y-86924847D01*
X98778180Y-87014352D01*
X99136200Y-87238114D02*
X99359961Y-87864647D01*
X99583723Y-87238114D02*
X99359961Y-87864647D01*
X99270457Y-88088409D01*
X99225704Y-88133161D01*
X99136200Y-88177914D01*
X100344514Y-87864647D02*
X100344514Y-87372371D01*
X100299761Y-87282866D01*
X100210257Y-87238114D01*
X100031247Y-87238114D01*
X99941742Y-87282866D01*
X100344514Y-87819895D02*
X100255009Y-87864647D01*
X100031247Y-87864647D01*
X99941742Y-87819895D01*
X99896990Y-87730390D01*
X99896990Y-87640885D01*
X99941742Y-87551380D01*
X100031247Y-87506628D01*
X100255009Y-87506628D01*
X100344514Y-87461876D01*
X102000352Y-86969600D02*
X101910847Y-86924847D01*
X101776590Y-86924847D01*
X101642333Y-86969600D01*
X101552828Y-87059104D01*
X101508076Y-87148609D01*
X101463323Y-87327619D01*
X101463323Y-87461876D01*
X101508076Y-87640885D01*
X101552828Y-87730390D01*
X101642333Y-87819895D01*
X101776590Y-87864647D01*
X101866095Y-87864647D01*
X102000352Y-87819895D01*
X102045104Y-87775142D01*
X102045104Y-87461876D01*
X101866095Y-87461876D01*
X102850647Y-87238114D02*
X102850647Y-87864647D01*
X102447876Y-87238114D02*
X102447876Y-87730390D01*
X102492628Y-87819895D01*
X102582133Y-87864647D01*
X102716390Y-87864647D01*
X102805895Y-87819895D01*
X102850647Y-87775142D01*
X103656190Y-87819895D02*
X103566685Y-87864647D01*
X103387676Y-87864647D01*
X103298171Y-87819895D01*
X103253419Y-87730390D01*
X103253419Y-87372371D01*
X103298171Y-87282866D01*
X103387676Y-87238114D01*
X103566685Y-87238114D01*
X103656190Y-87282866D01*
X103700942Y-87372371D01*
X103700942Y-87461876D01*
X103253419Y-87551380D01*
X104103714Y-87864647D02*
X104103714Y-87238114D01*
X104103714Y-87417123D02*
X104148466Y-87327619D01*
X104193219Y-87282866D01*
X104282723Y-87238114D01*
X104372228Y-87238114D01*
X104685495Y-87864647D02*
X104685495Y-87238114D01*
X104685495Y-87417123D02*
X104730247Y-87327619D01*
X104775000Y-87282866D01*
X104864504Y-87238114D01*
X104954009Y-87238114D01*
X105670047Y-87864647D02*
X105670047Y-87372371D01*
X105625295Y-87282866D01*
X105535790Y-87238114D01*
X105356780Y-87238114D01*
X105267276Y-87282866D01*
X105670047Y-87819895D02*
X105580542Y-87864647D01*
X105356780Y-87864647D01*
X105267276Y-87819895D01*
X105222523Y-87730390D01*
X105222523Y-87640885D01*
X105267276Y-87551380D01*
X105356780Y-87506628D01*
X105580542Y-87506628D01*
X105670047Y-87461876D01*
X107594400Y-87864647D02*
X107549647Y-87864647D01*
X107460142Y-87819895D01*
X107325885Y-87685638D01*
X107102123Y-87417123D01*
X107012619Y-87282866D01*
X106967866Y-87148609D01*
X106967866Y-87059104D01*
X107012619Y-86969600D01*
X107102123Y-86924847D01*
X107146876Y-86924847D01*
X107236380Y-86969600D01*
X107281133Y-87059104D01*
X107281133Y-87103857D01*
X107236380Y-87193361D01*
X107191628Y-87238114D01*
X106923114Y-87417123D01*
X106878361Y-87461876D01*
X106833609Y-87551380D01*
X106833609Y-87685638D01*
X106878361Y-87775142D01*
X106923114Y-87819895D01*
X107012619Y-87864647D01*
X107146876Y-87864647D01*
X107236380Y-87819895D01*
X107281133Y-87775142D01*
X107415390Y-87596133D01*
X107460142Y-87461876D01*
X107460142Y-87372371D01*
X109250238Y-87775142D02*
X109205485Y-87819895D01*
X109071228Y-87864647D01*
X108981723Y-87864647D01*
X108847466Y-87819895D01*
X108757961Y-87730390D01*
X108713209Y-87640885D01*
X108668457Y-87461876D01*
X108668457Y-87327619D01*
X108713209Y-87148609D01*
X108757961Y-87059104D01*
X108847466Y-86969600D01*
X108981723Y-86924847D01*
X109071228Y-86924847D01*
X109205485Y-86969600D01*
X109250238Y-87014352D01*
X109787266Y-87864647D02*
X109697761Y-87819895D01*
X109653009Y-87775142D01*
X109608257Y-87685638D01*
X109608257Y-87417123D01*
X109653009Y-87327619D01*
X109697761Y-87282866D01*
X109787266Y-87238114D01*
X109921523Y-87238114D01*
X110011028Y-87282866D01*
X110055780Y-87327619D01*
X110100533Y-87417123D01*
X110100533Y-87685638D01*
X110055780Y-87775142D01*
X110011028Y-87819895D01*
X109921523Y-87864647D01*
X109787266Y-87864647D01*
X110503304Y-87864647D02*
X110503304Y-87238114D01*
X110503304Y-87327619D02*
X110548057Y-87282866D01*
X110637561Y-87238114D01*
X110771819Y-87238114D01*
X110861323Y-87282866D01*
X110906076Y-87372371D01*
X110906076Y-87864647D01*
X110906076Y-87372371D02*
X110950828Y-87282866D01*
X111040333Y-87238114D01*
X111174590Y-87238114D01*
X111264095Y-87282866D01*
X111308847Y-87372371D01*
X111308847Y-87864647D01*
X111756371Y-87238114D02*
X111756371Y-88177914D01*
X111756371Y-87282866D02*
X111845876Y-87238114D01*
X112024885Y-87238114D01*
X112114390Y-87282866D01*
X112159142Y-87327619D01*
X112203895Y-87417123D01*
X112203895Y-87685638D01*
X112159142Y-87775142D01*
X112114390Y-87819895D01*
X112024885Y-87864647D01*
X111845876Y-87864647D01*
X111756371Y-87819895D01*
X113009438Y-87864647D02*
X113009438Y-87372371D01*
X112964685Y-87282866D01*
X112875180Y-87238114D01*
X112696171Y-87238114D01*
X112606666Y-87282866D01*
X113009438Y-87819895D02*
X112919933Y-87864647D01*
X112696171Y-87864647D01*
X112606666Y-87819895D01*
X112561914Y-87730390D01*
X112561914Y-87640885D01*
X112606666Y-87551380D01*
X112696171Y-87506628D01*
X112919933Y-87506628D01*
X113009438Y-87461876D01*
X113456961Y-87238114D02*
X113456961Y-87864647D01*
X113456961Y-87327619D02*
X113501714Y-87282866D01*
X113591219Y-87238114D01*
X113725476Y-87238114D01*
X113814980Y-87282866D01*
X113859733Y-87372371D01*
X113859733Y-87864647D01*
X114217752Y-87238114D02*
X114441514Y-87864647D01*
X114665276Y-87238114D02*
X114441514Y-87864647D01*
X114352009Y-88088409D01*
X114307257Y-88133161D01*
X114217752Y-88177914D01*
X118618357Y-85986833D02*
X118570738Y-85939214D01*
X118475500Y-85796357D01*
X118427880Y-85701119D01*
X118380261Y-85558261D01*
X118332642Y-85320166D01*
X118332642Y-85129690D01*
X118380261Y-84891595D01*
X118427880Y-84748738D01*
X118475500Y-84653500D01*
X118570738Y-84510642D01*
X118618357Y-84463023D01*
X119427880Y-85558261D02*
X119332642Y-85605880D01*
X119142166Y-85605880D01*
X119046928Y-85558261D01*
X118999309Y-85510642D01*
X118951690Y-85415404D01*
X118951690Y-85129690D01*
X118999309Y-85034452D01*
X119046928Y-84986833D01*
X119142166Y-84939214D01*
X119332642Y-84939214D01*
X119427880Y-84986833D01*
X119761214Y-85986833D02*
X119808833Y-85939214D01*
X119904071Y-85796357D01*
X119951690Y-85701119D01*
X119999309Y-85558261D01*
X120046928Y-85320166D01*
X120046928Y-85129690D01*
X119999309Y-84891595D01*
X119951690Y-84748738D01*
X119904071Y-84653500D01*
X119808833Y-84510642D01*
X119761214Y-84463023D01*
X121237404Y-84701119D02*
X121285023Y-84653500D01*
X121380261Y-84605880D01*
X121618357Y-84605880D01*
X121713595Y-84653500D01*
X121761214Y-84701119D01*
X121808833Y-84796357D01*
X121808833Y-84891595D01*
X121761214Y-85034452D01*
X121189785Y-85605880D01*
X121808833Y-85605880D01*
X122427880Y-84605880D02*
X122523119Y-84605880D01*
X122618357Y-84653500D01*
X122665976Y-84701119D01*
X122713595Y-84796357D01*
X122761214Y-84986833D01*
X122761214Y-85224928D01*
X122713595Y-85415404D01*
X122665976Y-85510642D01*
X122618357Y-85558261D01*
X122523119Y-85605880D01*
X122427880Y-85605880D01*
X122332642Y-85558261D01*
X122285023Y-85510642D01*
X122237404Y-85415404D01*
X122189785Y-85224928D01*
X122189785Y-84986833D01*
X122237404Y-84796357D01*
X122285023Y-84701119D01*
X122332642Y-84653500D01*
X122427880Y-84605880D01*
X123142166Y-84701119D02*
X123189785Y-84653500D01*
X123285023Y-84605880D01*
X123523119Y-84605880D01*
X123618357Y-84653500D01*
X123665976Y-84701119D01*
X123713595Y-84796357D01*
X123713595Y-84891595D01*
X123665976Y-85034452D01*
X123094547Y-85605880D01*
X123713595Y-85605880D01*
X124665976Y-85605880D02*
X124094547Y-85605880D01*
X124380261Y-85605880D02*
X124380261Y-84605880D01*
X124285023Y-84748738D01*
X124189785Y-84843976D01*
X124094547Y-84891595D01*
X95259071Y-85625214D02*
X95204642Y-85679642D01*
X95041357Y-85734071D01*
X94932500Y-85734071D01*
X94769214Y-85679642D01*
X94660357Y-85570785D01*
X94605928Y-85461928D01*
X94551500Y-85244214D01*
X94551500Y-85080928D01*
X94605928Y-84863214D01*
X94660357Y-84754357D01*
X94769214Y-84645500D01*
X94932500Y-84591071D01*
X95041357Y-84591071D01*
X95204642Y-84645500D01*
X95259071Y-84699928D01*
X96238785Y-85734071D02*
X96238785Y-85135357D01*
X96184357Y-85026500D01*
X96075500Y-84972071D01*
X95857785Y-84972071D01*
X95748928Y-85026500D01*
X96238785Y-85679642D02*
X96129928Y-85734071D01*
X95857785Y-85734071D01*
X95748928Y-85679642D01*
X95694500Y-85570785D01*
X95694500Y-85461928D01*
X95748928Y-85353071D01*
X95857785Y-85298642D01*
X96129928Y-85298642D01*
X96238785Y-85244214D01*
X96619785Y-84972071D02*
X97055214Y-84972071D01*
X96783071Y-84591071D02*
X96783071Y-85570785D01*
X96837500Y-85679642D01*
X96946357Y-85734071D01*
X97055214Y-85734071D01*
X98688071Y-85135357D02*
X98307071Y-85135357D01*
X98307071Y-85734071D02*
X98307071Y-84591071D01*
X98851357Y-84591071D01*
X99722214Y-85679642D02*
X99613357Y-85734071D01*
X99395642Y-85734071D01*
X99286785Y-85679642D01*
X99232357Y-85570785D01*
X99232357Y-85135357D01*
X99286785Y-85026500D01*
X99395642Y-84972071D01*
X99613357Y-84972071D01*
X99722214Y-85026500D01*
X99776642Y-85135357D01*
X99776642Y-85244214D01*
X99232357Y-85353071D01*
X100701928Y-85679642D02*
X100593071Y-85734071D01*
X100375357Y-85734071D01*
X100266500Y-85679642D01*
X100212071Y-85570785D01*
X100212071Y-85135357D01*
X100266500Y-85026500D01*
X100375357Y-84972071D01*
X100593071Y-84972071D01*
X100701928Y-85026500D01*
X100756357Y-85135357D01*
X100756357Y-85244214D01*
X100212071Y-85353071D01*
X101736071Y-85734071D02*
X101736071Y-84591071D01*
X101736071Y-85679642D02*
X101627214Y-85734071D01*
X101409500Y-85734071D01*
X101300642Y-85679642D01*
X101246214Y-85625214D01*
X101191785Y-85516357D01*
X101191785Y-85189785D01*
X101246214Y-85080928D01*
X101300642Y-85026500D01*
X101409500Y-84972071D01*
X101627214Y-84972071D01*
X101736071Y-85026500D01*
X102715785Y-85679642D02*
X102606928Y-85734071D01*
X102389214Y-85734071D01*
X102280357Y-85679642D01*
X102225928Y-85570785D01*
X102225928Y-85135357D01*
X102280357Y-85026500D01*
X102389214Y-84972071D01*
X102606928Y-84972071D01*
X102715785Y-85026500D01*
X102770214Y-85135357D01*
X102770214Y-85244214D01*
X102225928Y-85353071D01*
X103260071Y-85734071D02*
X103260071Y-84972071D01*
X103260071Y-85189785D02*
X103314500Y-85080928D01*
X103368928Y-85026500D01*
X103477785Y-84972071D01*
X103586642Y-84972071D01*
X105491642Y-85625214D02*
X105437214Y-85679642D01*
X105273928Y-85734071D01*
X105165071Y-85734071D01*
X105001785Y-85679642D01*
X104892928Y-85570785D01*
X104838500Y-85461928D01*
X104784071Y-85244214D01*
X104784071Y-85080928D01*
X104838500Y-84863214D01*
X104892928Y-84754357D01*
X105001785Y-84645500D01*
X105165071Y-84591071D01*
X105273928Y-84591071D01*
X105437214Y-84645500D01*
X105491642Y-84699928D01*
X106144785Y-85734071D02*
X106035928Y-85679642D01*
X105981500Y-85625214D01*
X105927071Y-85516357D01*
X105927071Y-85189785D01*
X105981500Y-85080928D01*
X106035928Y-85026500D01*
X106144785Y-84972071D01*
X106308071Y-84972071D01*
X106416928Y-85026500D01*
X106471357Y-85080928D01*
X106525785Y-85189785D01*
X106525785Y-85516357D01*
X106471357Y-85625214D01*
X106416928Y-85679642D01*
X106308071Y-85734071D01*
X106144785Y-85734071D01*
X107015642Y-84972071D02*
X107015642Y-85734071D01*
X107015642Y-85080928D02*
X107070071Y-85026500D01*
X107178928Y-84972071D01*
X107342214Y-84972071D01*
X107451071Y-85026500D01*
X107505500Y-85135357D01*
X107505500Y-85734071D01*
X107886500Y-84972071D02*
X108321928Y-84972071D01*
X108049785Y-84591071D02*
X108049785Y-85570785D01*
X108104214Y-85679642D01*
X108213071Y-85734071D01*
X108321928Y-85734071D01*
X108702928Y-85734071D02*
X108702928Y-84972071D01*
X108702928Y-85189785D02*
X108757357Y-85080928D01*
X108811785Y-85026500D01*
X108920642Y-84972071D01*
X109029500Y-84972071D01*
X109573785Y-85734071D02*
X109464928Y-85679642D01*
X109410500Y-85625214D01*
X109356071Y-85516357D01*
X109356071Y-85189785D01*
X109410500Y-85080928D01*
X109464928Y-85026500D01*
X109573785Y-84972071D01*
X109737071Y-84972071D01*
X109845928Y-85026500D01*
X109900357Y-85080928D01*
X109954785Y-85189785D01*
X109954785Y-85516357D01*
X109900357Y-85625214D01*
X109845928Y-85679642D01*
X109737071Y-85734071D01*
X109573785Y-85734071D01*
X110607928Y-85734071D02*
X110499071Y-85679642D01*
X110444642Y-85570785D01*
X110444642Y-84591071D01*
X111206642Y-85734071D02*
X111097785Y-85679642D01*
X111043357Y-85570785D01*
X111043357Y-84591071D01*
X112077500Y-85679642D02*
X111968642Y-85734071D01*
X111750928Y-85734071D01*
X111642071Y-85679642D01*
X111587642Y-85570785D01*
X111587642Y-85135357D01*
X111642071Y-85026500D01*
X111750928Y-84972071D01*
X111968642Y-84972071D01*
X112077500Y-85026500D01*
X112131928Y-85135357D01*
X112131928Y-85244214D01*
X111587642Y-85353071D01*
X112621785Y-85734071D02*
X112621785Y-84972071D01*
X112621785Y-85189785D02*
X112676214Y-85080928D01*
X112730642Y-85026500D01*
X112839500Y-84972071D01*
X112948357Y-84972071D01*
X114036928Y-84591071D02*
X114417928Y-85734071D01*
X114798928Y-84591071D01*
X115778642Y-85734071D02*
X115125500Y-85734071D01*
X115452071Y-85734071D02*
X115452071Y-84591071D01*
X115343214Y-84754357D01*
X115234357Y-84863214D01*
X115125500Y-84917642D01*
X116268500Y-85625214D02*
X116322928Y-85679642D01*
X116268500Y-85734071D01*
X116214071Y-85679642D01*
X116268500Y-85625214D01*
X116268500Y-85734071D01*
X117030500Y-84591071D02*
X117139357Y-84591071D01*
X117248214Y-84645500D01*
X117302642Y-84699928D01*
X117357071Y-84808785D01*
X117411500Y-85026500D01*
X117411500Y-85298642D01*
X117357071Y-85516357D01*
X117302642Y-85625214D01*
X117248214Y-85679642D01*
X117139357Y-85734071D01*
X117030500Y-85734071D01*
X116921642Y-85679642D01*
X116867214Y-85625214D01*
X116812785Y-85516357D01*
X116758357Y-85298642D01*
X116758357Y-85026500D01*
X116812785Y-84808785D01*
X116867214Y-84699928D01*
X116921642Y-84645500D01*
X117030500Y-84591071D01*
X87908023Y-111450380D02*
X87908023Y-110450380D01*
X88146119Y-110450380D01*
X88288976Y-110498000D01*
X88384214Y-110593238D01*
X88431833Y-110688476D01*
X88479452Y-110878952D01*
X88479452Y-111021809D01*
X88431833Y-111212285D01*
X88384214Y-111307523D01*
X88288976Y-111402761D01*
X88146119Y-111450380D01*
X87908023Y-111450380D01*
X89050880Y-111450380D02*
X88955642Y-111402761D01*
X88908023Y-111355142D01*
X88860404Y-111259904D01*
X88860404Y-110974190D01*
X88908023Y-110878952D01*
X88955642Y-110831333D01*
X89050880Y-110783714D01*
X89193738Y-110783714D01*
X89288976Y-110831333D01*
X89336595Y-110878952D01*
X89384214Y-110974190D01*
X89384214Y-111259904D01*
X89336595Y-111355142D01*
X89288976Y-111402761D01*
X89193738Y-111450380D01*
X89050880Y-111450380D01*
X89717547Y-110783714D02*
X89908023Y-111450380D01*
X90098500Y-110974190D01*
X90288976Y-111450380D01*
X90479452Y-110783714D01*
X90860404Y-110783714D02*
X90860404Y-111450380D01*
X90860404Y-110878952D02*
X90908023Y-110831333D01*
X91003261Y-110783714D01*
X91146119Y-110783714D01*
X91241357Y-110831333D01*
X91288976Y-110926571D01*
X91288976Y-111450380D01*
X88161904Y-90257380D02*
X88161904Y-91066904D01*
X88209523Y-91162142D01*
X88257142Y-91209761D01*
X88352380Y-91257380D01*
X88542857Y-91257380D01*
X88638095Y-91209761D01*
X88685714Y-91162142D01*
X88733333Y-91066904D01*
X88733333Y-90257380D01*
X89209523Y-90590714D02*
X89209523Y-91590714D01*
X89209523Y-90638333D02*
X89304761Y-90590714D01*
X89495238Y-90590714D01*
X89590476Y-90638333D01*
X89638095Y-90685952D01*
X89685714Y-90781190D01*
X89685714Y-91066904D01*
X89638095Y-91162142D01*
X89590476Y-91209761D01*
X89495238Y-91257380D01*
X89304761Y-91257380D01*
X89209523Y-91209761D01*
X88058833Y-101417380D02*
X88058833Y-100417380D01*
X88392166Y-101131666D01*
X88725500Y-100417380D01*
X88725500Y-101417380D01*
X89344547Y-101417380D02*
X89249309Y-101369761D01*
X89201690Y-101322142D01*
X89154071Y-101226904D01*
X89154071Y-100941190D01*
X89201690Y-100845952D01*
X89249309Y-100798333D01*
X89344547Y-100750714D01*
X89487404Y-100750714D01*
X89582642Y-100798333D01*
X89630261Y-100845952D01*
X89677880Y-100941190D01*
X89677880Y-101226904D01*
X89630261Y-101322142D01*
X89582642Y-101369761D01*
X89487404Y-101417380D01*
X89344547Y-101417380D01*
X90535023Y-101417380D02*
X90535023Y-100417380D01*
X90535023Y-101369761D02*
X90439785Y-101417380D01*
X90249309Y-101417380D01*
X90154071Y-101369761D01*
X90106452Y-101322142D01*
X90058833Y-101226904D01*
X90058833Y-100941190D01*
X90106452Y-100845952D01*
X90154071Y-100798333D01*
X90249309Y-100750714D01*
X90439785Y-100750714D01*
X90535023Y-100798333D01*
X91392166Y-101369761D02*
X91296928Y-101417380D01*
X91106452Y-101417380D01*
X91011214Y-101369761D01*
X90963595Y-101274523D01*
X90963595Y-100893571D01*
X91011214Y-100798333D01*
X91106452Y-100750714D01*
X91296928Y-100750714D01*
X91392166Y-100798333D01*
X91439785Y-100893571D01*
X91439785Y-100988809D01*
X90963595Y-101084047D01*
X175633119Y-120483714D02*
X175633119Y-119912285D01*
X175633119Y-120198000D02*
X176633119Y-120198000D01*
X176490261Y-120102761D01*
X176395023Y-120007523D01*
X176347404Y-119912285D01*
X176537880Y-120864666D02*
X176585500Y-120912285D01*
X176633119Y-121007523D01*
X176633119Y-121245619D01*
X176585500Y-121340857D01*
X176537880Y-121388476D01*
X176442642Y-121436095D01*
X176347404Y-121436095D01*
X176204547Y-121388476D01*
X175633119Y-120817047D01*
X175633119Y-121436095D01*
X176633119Y-121721809D02*
X175633119Y-122055142D01*
X176633119Y-122388476D01*
X175633119Y-123483714D02*
X176633119Y-123483714D01*
X176633119Y-123864666D01*
X176585500Y-123959904D01*
X176537880Y-124007523D01*
X176442642Y-124055142D01*
X176299785Y-124055142D01*
X176204547Y-124007523D01*
X176156928Y-123959904D01*
X176109309Y-123864666D01*
X176109309Y-123483714D01*
X175633119Y-124626571D02*
X175680738Y-124531333D01*
X175728357Y-124483714D01*
X175823595Y-124436095D01*
X176109309Y-124436095D01*
X176204547Y-124483714D01*
X176252166Y-124531333D01*
X176299785Y-124626571D01*
X176299785Y-124769428D01*
X176252166Y-124864666D01*
X176204547Y-124912285D01*
X176109309Y-124959904D01*
X175823595Y-124959904D01*
X175728357Y-124912285D01*
X175680738Y-124864666D01*
X175633119Y-124769428D01*
X175633119Y-124626571D01*
X176299785Y-125293238D02*
X175633119Y-125483714D01*
X176109309Y-125674190D01*
X175633119Y-125864666D01*
X176299785Y-126055142D01*
X175680738Y-126817047D02*
X175633119Y-126721809D01*
X175633119Y-126531333D01*
X175680738Y-126436095D01*
X175775976Y-126388476D01*
X176156928Y-126388476D01*
X176252166Y-126436095D01*
X176299785Y-126531333D01*
X176299785Y-126721809D01*
X176252166Y-126817047D01*
X176156928Y-126864666D01*
X176061690Y-126864666D01*
X175966452Y-126388476D01*
X175633119Y-127293238D02*
X176299785Y-127293238D01*
X176109309Y-127293238D02*
X176204547Y-127340857D01*
X176252166Y-127388476D01*
X176299785Y-127483714D01*
X176299785Y-127578952D01*
D11*
%TO.C,U4*%
X99034600Y-116662200D02*
X125476000Y-116662200D01*
X99034600Y-89357200D02*
X99034600Y-116662200D01*
X101981000Y-89357200D02*
X99034600Y-89357200D01*
X105029000Y-89357200D02*
X101981000Y-89357200D01*
X107645200Y-89357200D02*
X105029000Y-89357200D01*
X109651800Y-89357200D02*
X107645200Y-89357200D01*
X111556800Y-89357200D02*
X109651800Y-89357200D01*
X114071400Y-89357200D02*
X111556800Y-89357200D01*
X117424200Y-89357200D02*
X114071400Y-89357200D01*
X119786400Y-89357200D02*
X117424200Y-89357200D01*
X121615200Y-89357200D02*
X119786400Y-89357200D01*
X124079000Y-89357200D02*
X121615200Y-89357200D01*
X125476000Y-89357200D02*
X125476000Y-116662200D01*
X124079000Y-89357200D02*
X125476000Y-89357200D01*
%TO.C,SW1*%
X87782400Y-99212400D02*
X87782400Y-91592400D01*
X97434400Y-99212400D02*
X87782400Y-99212400D01*
X97434400Y-91592400D02*
X97434400Y-99212400D01*
X87782400Y-91592400D02*
X97434400Y-91592400D01*
%TO.C,SW2*%
X87782400Y-109372400D02*
X87782400Y-101752400D01*
X97434400Y-109372400D02*
X87782400Y-109372400D01*
X97434400Y-101752400D02*
X97434400Y-109372400D01*
X87782400Y-101752400D02*
X97434400Y-101752400D01*
%TO.C,SW3*%
X87782400Y-119532400D02*
X87782400Y-111912400D01*
X97434400Y-119532400D02*
X87782400Y-119532400D01*
X97434400Y-111912400D02*
X97434400Y-119532400D01*
X87782400Y-111912400D02*
X97434400Y-111912400D01*
%TO.C,J4*%
X181205833Y-94297500D02*
G75*
G03*
X181205833Y-94297500I-1500833J0D01*
G01*
%TO.C,U4*%
D10*
X123774295Y-87742780D02*
X123774295Y-88552304D01*
X123821914Y-88647542D01*
X123869533Y-88695161D01*
X123964771Y-88742780D01*
X124155247Y-88742780D01*
X124250485Y-88695161D01*
X124298104Y-88647542D01*
X124345723Y-88552304D01*
X124345723Y-87742780D01*
X125250485Y-88076114D02*
X125250485Y-88742780D01*
X125012390Y-87695161D02*
X124774295Y-88409447D01*
X125393342Y-88409447D01*
%TO.C,SW1*%
X94272266Y-91336761D02*
X94415123Y-91384380D01*
X94653219Y-91384380D01*
X94748457Y-91336761D01*
X94796076Y-91289142D01*
X94843695Y-91193904D01*
X94843695Y-91098666D01*
X94796076Y-91003428D01*
X94748457Y-90955809D01*
X94653219Y-90908190D01*
X94462742Y-90860571D01*
X94367504Y-90812952D01*
X94319885Y-90765333D01*
X94272266Y-90670095D01*
X94272266Y-90574857D01*
X94319885Y-90479619D01*
X94367504Y-90432000D01*
X94462742Y-90384380D01*
X94700838Y-90384380D01*
X94843695Y-90432000D01*
X95177028Y-90384380D02*
X95415123Y-91384380D01*
X95605600Y-90670095D01*
X95796076Y-91384380D01*
X96034171Y-90384380D01*
X96938933Y-91384380D02*
X96367504Y-91384380D01*
X96653219Y-91384380D02*
X96653219Y-90384380D01*
X96557980Y-90527238D01*
X96462742Y-90622476D01*
X96367504Y-90670095D01*
%TO.C,SW2*%
X94272266Y-101496761D02*
X94415123Y-101544380D01*
X94653219Y-101544380D01*
X94748457Y-101496761D01*
X94796076Y-101449142D01*
X94843695Y-101353904D01*
X94843695Y-101258666D01*
X94796076Y-101163428D01*
X94748457Y-101115809D01*
X94653219Y-101068190D01*
X94462742Y-101020571D01*
X94367504Y-100972952D01*
X94319885Y-100925333D01*
X94272266Y-100830095D01*
X94272266Y-100734857D01*
X94319885Y-100639619D01*
X94367504Y-100592000D01*
X94462742Y-100544380D01*
X94700838Y-100544380D01*
X94843695Y-100592000D01*
X95177028Y-100544380D02*
X95415123Y-101544380D01*
X95605600Y-100830095D01*
X95796076Y-101544380D01*
X96034171Y-100544380D01*
X96367504Y-100639619D02*
X96415123Y-100592000D01*
X96510361Y-100544380D01*
X96748457Y-100544380D01*
X96843695Y-100592000D01*
X96891314Y-100639619D01*
X96938933Y-100734857D01*
X96938933Y-100830095D01*
X96891314Y-100972952D01*
X96319885Y-101544380D01*
X96938933Y-101544380D01*
%TO.C,SW3*%
X94272266Y-111656761D02*
X94415123Y-111704380D01*
X94653219Y-111704380D01*
X94748457Y-111656761D01*
X94796076Y-111609142D01*
X94843695Y-111513904D01*
X94843695Y-111418666D01*
X94796076Y-111323428D01*
X94748457Y-111275809D01*
X94653219Y-111228190D01*
X94462742Y-111180571D01*
X94367504Y-111132952D01*
X94319885Y-111085333D01*
X94272266Y-110990095D01*
X94272266Y-110894857D01*
X94319885Y-110799619D01*
X94367504Y-110752000D01*
X94462742Y-110704380D01*
X94700838Y-110704380D01*
X94843695Y-110752000D01*
X95177028Y-110704380D02*
X95415123Y-111704380D01*
X95605600Y-110990095D01*
X95796076Y-111704380D01*
X96034171Y-110704380D01*
X96319885Y-110704380D02*
X96938933Y-110704380D01*
X96605600Y-111085333D01*
X96748457Y-111085333D01*
X96843695Y-111132952D01*
X96891314Y-111180571D01*
X96938933Y-111275809D01*
X96938933Y-111513904D01*
X96891314Y-111609142D01*
X96843695Y-111656761D01*
X96748457Y-111704380D01*
X96462742Y-111704380D01*
X96367504Y-111656761D01*
X96319885Y-111609142D01*
%TO.C,J4*%
X179371666Y-95999880D02*
X179371666Y-96714166D01*
X179324047Y-96857023D01*
X179228809Y-96952261D01*
X179085952Y-96999880D01*
X178990714Y-96999880D01*
X180276428Y-96333214D02*
X180276428Y-96999880D01*
X180038333Y-95952261D02*
X179800238Y-96666547D01*
X180419285Y-96666547D01*
%TD*%
M02*
