%TF.GenerationSoftware,KiCad,Pcbnew,(5.1.10)-1*%
%TF.CreationDate,2021-10-25T17:57:51-04:00*%
%TF.ProjectId,KittyCaddy,4b697474-7943-4616-9464-792e6b696361,rev?*%
%TF.SameCoordinates,Original*%
%TF.FileFunction,Soldermask,Bot*%
%TF.FilePolarity,Negative*%
%FSLAX46Y46*%
G04 Gerber Fmt 4.6, Leading zero omitted, Abs format (unit mm)*
G04 Created by KiCad (PCBNEW (5.1.10)-1) date 2021-10-25 17:57:51*
%MOMM*%
%LPD*%
G01*
G04 APERTURE LIST*
%ADD10C,2.500000*%
%ADD11C,1.600000*%
%ADD12R,1.600000X1.600000*%
%ADD13C,1.500000*%
%ADD14C,3.500000*%
%ADD15R,3.500000X3.500000*%
%ADD16O,1.600000X1.600000*%
%ADD17C,1.524000*%
%ADD18R,1.524000X1.524000*%
%ADD19O,1.740000X2.190000*%
%ADD20O,2.190000X1.740000*%
%ADD21C,2.400000*%
%ADD22C,1.416000*%
G04 APERTURE END LIST*
D10*
%TO.C,U4*%
X100518000Y-90837000D03*
X124018000Y-90837000D03*
X124018000Y-114637000D03*
X100518000Y-114638000D03*
D11*
X108458000Y-115443000D03*
D12*
X116078000Y-115443000D03*
D11*
X113538000Y-115443000D03*
X110998000Y-115443000D03*
%TD*%
D13*
%TO.C,R1*%
X122212100Y-120930200D03*
X122212100Y-127330200D03*
%TD*%
D14*
%TO.C,REF\u002A\u002A*%
X179578000Y-123698000D03*
%TD*%
%TO.C,REF\u002A\u002A*%
X179578000Y-87503000D03*
%TD*%
%TO.C,REF\u002A\u002A*%
X90500200Y-87503000D03*
%TD*%
%TO.C,REF\u002A\u002A*%
X90678000Y-123698000D03*
%TD*%
%TO.C,J1*%
G36*
G01*
X166863000Y-119304000D02*
X165113000Y-119304000D01*
G75*
G02*
X164238000Y-118429000I0J875000D01*
G01*
X164238000Y-116679000D01*
G75*
G02*
X165113000Y-115804000I875000J0D01*
G01*
X166863000Y-115804000D01*
G75*
G02*
X167738000Y-116679000I0J-875000D01*
G01*
X167738000Y-118429000D01*
G75*
G02*
X166863000Y-119304000I-875000J0D01*
G01*
G37*
G36*
G01*
X171688000Y-122054000D02*
X169688000Y-122054000D01*
G75*
G02*
X168938000Y-121304000I0J750000D01*
G01*
X168938000Y-119804000D01*
G75*
G02*
X169688000Y-119054000I750000J0D01*
G01*
X171688000Y-119054000D01*
G75*
G02*
X172438000Y-119804000I0J-750000D01*
G01*
X172438000Y-121304000D01*
G75*
G02*
X171688000Y-122054000I-750000J0D01*
G01*
G37*
D15*
X170688000Y-114554000D03*
%TD*%
D13*
%TO.C,R2*%
X97263100Y-125158500D03*
X104813100Y-125158500D03*
%TD*%
D16*
%TO.C,U2*%
X148183600Y-96951800D03*
X160883600Y-114731800D03*
X148183600Y-99491800D03*
X160883600Y-112191800D03*
X148183600Y-102031800D03*
X160883600Y-109651800D03*
X148183600Y-104571800D03*
X160883600Y-107111800D03*
X148183600Y-107111800D03*
X160883600Y-104571800D03*
X148183600Y-109651800D03*
X160883600Y-102031800D03*
X148183600Y-112191800D03*
X160883600Y-99491800D03*
X148183600Y-114731800D03*
D12*
X160883600Y-96951800D03*
%TD*%
D17*
%TO.C,U5*%
X121158000Y-109728000D03*
X116078000Y-109728000D03*
X118618000Y-109728000D03*
X113538000Y-109728000D03*
X110998000Y-109728000D03*
X108458000Y-109728000D03*
X105918000Y-109728000D03*
X103378000Y-109728000D03*
%TD*%
%TO.C,U1*%
X159517400Y-91306600D03*
X156977400Y-91306600D03*
D18*
X154437400Y-91306600D03*
D17*
X151897400Y-91306600D03*
%TD*%
D19*
%TO.C,J3*%
X118338600Y-125171200D03*
X115798600Y-125171200D03*
X113258600Y-125171200D03*
X110718600Y-125171200D03*
G36*
G01*
X107308600Y-126016201D02*
X107308600Y-124326199D01*
G75*
G02*
X107558599Y-124076200I249999J0D01*
G01*
X108798601Y-124076200D01*
G75*
G02*
X109048600Y-124326199I0J-249999D01*
G01*
X109048600Y-126016201D01*
G75*
G02*
X108798601Y-126266200I-249999J0D01*
G01*
X107558599Y-126266200D01*
G75*
G02*
X107308600Y-126016201I0J249999D01*
G01*
G37*
%TD*%
D20*
%TO.C,J2*%
X167284400Y-102057200D03*
X167284400Y-104597200D03*
X167284400Y-107137200D03*
G36*
G01*
X168129401Y-110547200D02*
X166439399Y-110547200D01*
G75*
G02*
X166189400Y-110297201I0J249999D01*
G01*
X166189400Y-109057199D01*
G75*
G02*
X166439399Y-108807200I249999J0D01*
G01*
X168129401Y-108807200D01*
G75*
G02*
X168379400Y-109057199I0J-249999D01*
G01*
X168379400Y-110297201D01*
G75*
G02*
X168129401Y-110547200I-249999J0D01*
G01*
G37*
%TD*%
D11*
%TO.C,C2*%
X165283000Y-89916000D03*
D12*
X168783000Y-89916000D03*
%TD*%
D11*
%TO.C,C1*%
X157459800Y-123164600D03*
D12*
X160959800Y-123164600D03*
%TD*%
D16*
%TO.C,U3*%
X127990600Y-123215400D03*
X143230600Y-123215400D03*
X127990600Y-87655400D03*
X143230600Y-120675400D03*
X127990600Y-90195400D03*
X143230600Y-118135400D03*
X127990600Y-92735400D03*
X143230600Y-115595400D03*
X127990600Y-95275400D03*
X143230600Y-113055400D03*
X127990600Y-97815400D03*
X143230600Y-110515400D03*
X127990600Y-100355400D03*
X143230600Y-107975400D03*
X127990600Y-102895400D03*
X143230600Y-105435400D03*
X127990600Y-105435400D03*
X143230600Y-102895400D03*
X127990600Y-107975400D03*
X143230600Y-100355400D03*
X127990600Y-110515400D03*
X143230600Y-97815400D03*
X127990600Y-113055400D03*
X143230600Y-95275400D03*
X127990600Y-115595400D03*
X143230600Y-92735400D03*
X127990600Y-118135400D03*
X143230600Y-90195400D03*
X127990600Y-120675400D03*
D12*
X143230600Y-87655400D03*
%TD*%
D21*
%TO.C,SW1*%
X89358400Y-97652400D03*
X95858400Y-97652400D03*
X89358400Y-93152400D03*
X95858400Y-93152400D03*
%TD*%
%TO.C,SW2*%
X89358400Y-107812400D03*
X95858400Y-107812400D03*
X89358400Y-103312400D03*
X95858400Y-103312400D03*
%TD*%
%TO.C,SW3*%
X89358400Y-117972400D03*
X95858400Y-117972400D03*
X89358400Y-113472400D03*
X95858400Y-113472400D03*
%TD*%
D22*
%TO.C,C3*%
X148107400Y-91287600D03*
X148107400Y-88747600D03*
%TD*%
D21*
%TO.C,J4*%
X179705000Y-94297500D03*
%TD*%
M02*
