M48
; DRILL file {KiCad (5.1.10)-1} date 10/25/21 17:57:53
; FORMAT={-:-/ absolute / inch / decimal}
; #@! TF.CreationDate,2021-10-25T17:57:53-04:00
; #@! TF.GenerationSoftware,Kicad,Pcbnew,(5.1.10)-1
FMAT,2
INCH
T1C0.0279
T2C0.0295
T3C0.0300
T4C0.0315
T5C0.0394
T6C0.0469
T7C0.0472
T8C0.0846
T9C0.1181
%
G90
G05
T1
X5.831Y-3.494
X5.831Y-3.594
T2
X3.8293Y-4.9275
X4.1265Y-4.9275
X4.8115Y-4.761
X4.8115Y-5.013
T3
X4.07Y-4.32
X4.17Y-4.32
X4.27Y-4.32
X4.37Y-4.32
X4.47Y-4.32
X4.57Y-4.32
X4.67Y-4.32
X4.77Y-4.32
X5.9802Y-3.5947
X6.0802Y-3.5947
X6.1802Y-3.5947
X6.2802Y-3.5947
T4
X4.27Y-4.545
X4.37Y-4.545
X4.47Y-4.545
X4.57Y-4.545
X5.834Y-3.817
X5.834Y-3.917
X5.834Y-4.017
X5.834Y-4.117
X5.834Y-4.217
X5.834Y-4.317
X5.834Y-4.417
X5.834Y-4.517
X6.1992Y-4.849
X6.334Y-3.817
X6.334Y-3.917
X6.334Y-4.017
X6.334Y-4.117
X6.334Y-4.217
X6.334Y-4.317
X6.334Y-4.417
X6.334Y-4.517
X6.337Y-4.849
X6.5072Y-3.54
X6.645Y-3.54
T5
X5.039Y-3.451
X5.039Y-3.551
X5.039Y-3.651
X5.039Y-3.751
X5.039Y-3.851
X5.039Y-3.951
X5.039Y-4.051
X5.039Y-4.151
X5.039Y-4.251
X5.039Y-4.351
X5.039Y-4.451
X5.039Y-4.551
X5.039Y-4.651
X5.039Y-4.751
X5.039Y-4.851
X5.639Y-3.451
X5.639Y-3.551
X5.639Y-3.651
X5.639Y-3.751
X5.639Y-3.851
X5.639Y-3.951
X5.639Y-4.051
X5.639Y-4.151
X5.639Y-4.251
X5.639Y-4.351
X5.639Y-4.451
X5.639Y-4.551
X5.639Y-4.651
X5.639Y-4.751
X5.639Y-4.851
T6
X4.259Y-4.928
X4.359Y-4.928
X4.459Y-4.928
X4.559Y-4.928
X4.659Y-4.928
X6.586Y-4.018
X6.586Y-4.118
X6.586Y-4.218
X6.586Y-4.318
T7
X3.518Y-3.6674
X3.518Y-3.8446
X3.518Y-4.0674
X3.518Y-4.2446
X3.518Y-4.4674
X3.518Y-4.6446
X3.774Y-3.6674
X3.774Y-3.8446
X3.774Y-4.0674
X3.774Y-4.2446
X3.774Y-4.4674
X3.774Y-4.6446
X7.075Y-3.7125
T8
X3.9574Y-3.5763
X3.9574Y-4.5133
X4.8826Y-3.5763
X4.8826Y-4.5133
T9
X3.563Y-3.445
X3.57Y-4.87
X7.07Y-3.445
X7.07Y-4.87
T5
G00X6.535Y-4.6675
M15
G01X6.535Y-4.5887
M16
G05
G00X6.6806Y-4.51
M15
G01X6.7594Y-4.51
M16
G05
G00X6.6806Y-4.7462
M15
G01X6.7594Y-4.7462
M16
G05
T0
M30
